  0
SECTION
  2
HEADER
  9
$ACADVER
  1
AC1014
  9
$HANDSEED
  5
FFFF
  9
$MEASUREMENT
 70
     1
  0
ENDSEC
  0
SECTION
  2
TABLES
  0
TABLE
  2
VPORT
  5
8
330
0
100
AcDbSymbolTable
 70
     4
  0
VPORT
  5
2E
330
8
100
AcDbSymbolTableRecord
100
AcDbViewportTableRecord
  2
*ACTIVE
 70
     0
 10
0.0
 20
0.0
 11
1.0
 21
1.0
 12
210.0
 22
148.5
 13
0.0
 23
0.0
 14
10.0
 24
10.0
 15
10.0
 25
10.0
 16
0.0
 26
0.0
 36
1.0
 17
0.0
 27
0.0
 37
0.0
 40
341.0
 41
1.24
 42
50.0
 43
0.0
 44
0.0
 50
0.0
 51
0.0
 71
     0
 72
   100
 73
     1
 74
     3
 75
     0
 76
     0
 77
     0
 78
     0
  0
ENDTAB
  0
TABLE
  2
LTYPE
  5
5
330
0
100
AcDbSymbolTable
 70
     1
  0
LTYPE
  5
14
330
5
100
AcDbSymbolTableRecord
100
AcDbLinetypeTableRecord
  2
BYBLOCK
 70
     0
  3

 72
    65
 73
     0
 40
0.0
  0
LTYPE
  5
15
330
5
100
AcDbSymbolTableRecord
100
AcDbLinetypeTableRecord
  2
BYLAYER
 70
     0
  3

 72
    65
 73
     0
 40
0.0
  0
LTYPE
  5
16
330
5
100
AcDbSymbolTableRecord
100
AcDbLinetypeTableRecord
  2
CONTINUOUS
 70
     0
  3
Solid line
 72
    65
 73
     0
 40
0.0
  0
ENDTAB
  0
TABLE
  2
LAYER
  5
2
100
AcDbSymbolTable
 70
3
  0
LAYER
  5
50
100
AcDbSymbolTableRecord
100
AcDbLayerTableRecord
  2
0
 70
0
  6
CONTINUOUS
  0
LAYER
  5
51
100
AcDbSymbolTableRecord
100
AcDbLayerTableRecord
  2
Corte
 70
0
  6
CONTINUOUS
  0
LAYER
  5
52
100
AcDbSymbolTableRecord
100
AcDbLayerTableRecord
  2
Grabado
 70
0
  6
CONTINUOUS
  0
ENDTAB
  0
TABLE
  2
STYLE
  5
3
330
0
100
AcDbSymbolTable
 70
     1
  0
STYLE
  5
11
330
3
100
AcDbSymbolTableRecord
100
AcDbTextStyleTableRecord
  2
STANDARD
 70
     0
 40
0.0
 41
1.0
 50
0.0
 71
     0
 42
2.5
  3
txt
  4

  0
ENDTAB
  0
TABLE
  2
VIEW
  5
6
330
0
100
AcDbSymbolTable
 70
     0
  0
ENDTAB
  0
TABLE
  2
UCS
  5
7
330
0
100
AcDbSymbolTable
 70
     0
  0
ENDTAB
  0
TABLE
  2
APPID
  5
9
330
0
100
AcDbSymbolTable
 70
     2
  0
APPID
  5
12
330
9
100
AcDbSymbolTableRecord
100
AcDbRegAppTableRecord
  2
ACAD
 70
     0
  0
ENDTAB
  0
TABLE
  2
DIMSTYLE
  5
A
330
0
100
AcDbSymbolTable
 70
     1
  0
DIMSTYLE
105
27
330
A
100
AcDbSymbolTableRecord
100
AcDbDimStyleTableRecord
  2
ISO-25
 70
     0
  3

  4

  5

  6

  7

 40
1.0
 41
2.5
 42
0.625
 43
3.75
 44
1.25
 45
0.0
 46
0.0
 47
0.0
 48
0.0
140
2.5
141
2.5
142
0.0
143
0.03937007874016
144
1.0
145
0.0
146
1.0
147
0.625
 71
     0
 72
     0
 73
     0
 74
     0
 75
     0
 76
     0
 77
     1
 78
     8
170
     0
171
     3
172
     1
173
     0
174
     0
175
     0
176
     0
177
     0
178
     0
270
     2
271
     2
272
     2
273
     2
274
     3
340
11
275
     0
280
     0
281
     0
282
     0
283
     0
284
     8
285
     0
286
     0
287
     3
288
     0
  0
ENDTAB
  0
TABLE
  2
BLOCK_RECORD
  5
1
330
0
100
AcDbSymbolTable
 70
     1
  0
BLOCK_RECORD
  5
1F
330
1
100
AcDbSymbolTableRecord
100
AcDbBlockTableRecord
  2
*MODEL_SPACE
  0
BLOCK_RECORD
  5
1B
330
1
100
AcDbSymbolTableRecord
100
AcDbBlockTableRecord
  2
*PAPER_SPACE
  0
ENDTAB
  0
ENDSEC
  0
SECTION
  2
BLOCKS
  0
BLOCK
  5
20
330
1F
100
AcDbEntity
  8
0
100
AcDbBlockBegin
  2
*MODEL_SPACE
 70
     0
 10
0.0
 20
0.0
 30
0.0
  3
*MODEL_SPACE
  1

  0
ENDBLK
  5
21
330
1F
100
AcDbEntity
  8
0
100
AcDbBlockEnd
  0
BLOCK
  5
1C
330
1B
100
AcDbEntity
 67
     1
  8
0
100
AcDbBlockBegin
  2
*PAPER_SPACE
  1

  0
ENDBLK
  5
1D
330
1B
100
AcDbEntity
 67
     1
  8
0
100
AcDbBlockEnd
  0
ENDSEC
  0
SECTION
  2
ENTITIES
  0
LWPOLYLINE
  5
100
100
AcDbEntity
  8
Corte
 62
1
100
AcDbPolyline
 90
43
 70
1
 10
242.343006
 20
1055.601530
 30
0.0
 10
207.878902
 20
1021.137469
 30
0.0
 10
207.878902
 20
968.648406
 30
0.0
 10
242.341390
 20
934.184333
 30
0.0
 10
296.696183
 20
934.184333
 30
0.0
 10
396.814989
 20
834.064905
 30
0.0
 10
396.814989
 20
362.450239
 30
0.0
 10
296.696183
 20
262.332794
 30
0.0
 10
242.341390
 20
262.332794
 30
0.0
 10
207.878902
 20
227.868746
 30
0.0
 10
207.878902
 20
175.379669
 30
0.0
 10
242.343006
 20
140.915622
 30
0.0
 10
294.830589
 20
140.915622
 30
0.0
 10
329.294636
 20
175.381257
 30
0.0
 10
329.294636
 20
228.785924
 30
0.0
 10
430.360129
 20
329.851843
 30
0.0
 10
900.078463
 20
329.851843
 30
0.0
 10
1001.144580
 20
228.785924
 30
0.0
 10
1001.144580
 20
175.381257
 30
0.0
 10
1035.610243
 20
140.917181
 30
0.0
 10
1088.096173
 20
140.917181
 30
0.0
 10
1122.561780
 20
175.379669
 30
0.0
 10
1122.561780
 20
227.870306
 30
0.0
 10
1088.097761
 20
262.332794
 30
0.0
 10
1033.744564
 20
262.332794
 30
0.0
 10
933.626495
 20
362.450239
 30
0.0
 10
933.626495
 20
834.067725
 30
0.0
 10
1033.744564
 20
934.184333
 30
0.0
 10
1088.097761
 20
934.184333
 30
0.0
 10
1122.561780
 20
968.646841
 30
0.0
 10
1122.561780
 20
1021.137469
 30
0.0
 10
1088.096173
 20
1055.599963
 30
0.0
 10
1035.610243
 20
1055.599963
 30
0.0
 10
1001.144580
 20
1021.135907
 30
0.0
 10
1001.144580
 20
967.731216
 30
0.0
 10
900.078463
 20
866.663313
 30
0.0
 10
680.441244
 20
866.663313
 30
0.0
 10
665.034095
 20
883.387882
 30
0.0
 10
649.303739
 20
866.663313
 30
0.0
 10
430.360129
 20
866.663313
 30
0.0
 10
329.294636
 20
967.731216
 30
0.0
 10
329.294636
 20
1021.135907
 30
0.0
 10
294.830589
 20
1055.601530
 30
0.0
  0
LWPOLYLINE
  5
101
100
AcDbEntity
  8
Corte
 62
1
100
AcDbPolyline
 90
4
 70
1
 10
458.571090
 20
838.452381
 30
0.0
 10
871.867502
 20
838.452381
 30
0.0
 10
790.282460
 20
756.867419
 30
0.0
 10
540.154942
 20
756.867419
 30
0.0
  0
LWPOLYLINE
  5
102
100
AcDbEntity
  8
Corte
 62
1
100
AcDbPolyline
 90
4
 70
1
 10
905.415534
 20
805.856794
 30
0.0
 10
905.415534
 20
390.661172
 30
0.0
 10
823.449657
 20
472.390724
 30
0.0
 10
823.449657
 20
723.954121
 30
0.0
  0
LWPOLYLINE
  5
103
100
AcDbEntity
  8
Corte
 62
1
100
AcDbPolyline
 90
4
 70
1
 10
425.025865
 20
805.853959
 30
0.0
 10
506.723726
 20
724.152135
 30
0.0
 10
506.723726
 20
472.225918
 30
0.0
 10
425.025865
 20
390.661143
 30
0.0
  0
LWPOLYLINE
  5
104
100
AcDbEntity
  8
Corte
 62
1
100
AcDbPolyline
 90
4
 70
1
 10
540.647178
 20
440.141159
 30
0.0
 10
789.790195
 20
440.141159
 30
0.0
 10
871.867502
 20
358.062746
 30
0.0
 10
458.571090
 20
358.062746
 30
0.0
  0
LWPOLYLINE
  5
105
100
AcDbEntity
  8
Corte
 62
1
100
AcDbPolyline
 90
4
 70
1
 10
563.113956
 20
711.502872
 30
0.0
 10
579.648444
 20
694.966910
 30
0.0
 10
568.625074
 20
683.943483
 30
0.0
 10
552.089169
 20
700.477858
 30
0.0
  0
LWPOLYLINE
  5
106
100
AcDbEntity
  8
Corte
 62
1
100
AcDbPolyline
 90
4
 70
1
 10
767.061043
 20
711.502872
 30
0.0
 10
778.084413
 20
700.477858
 30
0.0
 10
761.548507
 20
683.943483
 30
0.0
 10
750.523436
 20
694.966881
 30
0.0
  0
LWPOLYLINE
  5
107
100
AcDbEntity
  8
Corte
 62
1
100
AcDbPolyline
 90
4
 70
1
 10
634.217924
 20
685.463335
 30
0.0
 10
697.360224
 20
685.463335
 30
0.0
 10
697.360224
 20
655.227003
 30
0.0
 10
634.217924
 20
655.227003
 30
0.0
  0
LWPOLYLINE
  5
108
100
AcDbEntity
  8
Corte
 62
1
100
AcDbPolyline
 90
4
 70
1
 10
773.334397
 20
621.536814
 30
0.0
 10
785.028161
 20
621.536814
 30
0.0
 10
785.028161
 20
613.743069
 30
0.0
 10
773.334397
 20
613.743069
 30
0.0
  0
LWPOLYLINE
  5
109
100
AcDbEntity
  8
Corte
 62
1
100
AcDbPolyline
 90
4
 70
1
 10
773.334397
 20
583.268927
 30
0.0
 10
785.028161
 20
583.268927
 30
0.0
 10
785.028161
 20
575.473623
 30
0.0
 10
773.334397
 20
575.473623
 30
0.0
  0
LWPOLYLINE
  5
10a
100
AcDbEntity
  8
Corte
 62
1
100
AcDbPolyline
 90
4
 70
1
 10
633.857924
 20
542.141972
 30
0.0
 10
697.720224
 20
542.141943
 30
0.0
 10
697.720224
 20
530.451326
 30
0.0
 10
633.857924
 20
530.451326
 30
0.0
  0
LWPOLYLINE
  5
10b
100
AcDbEntity
  8
Corte
 62
1
100
AcDbPolyline
 90
4
 70
1
 10
568.625074
 20
513.068513
 30
0.0
 10
579.648444
 20
502.043499
 30
0.0
 10
563.113956
 20
485.507565
 30
0.0
 10
552.088885
 20
496.531020
 30
0.0
  0
LWPOLYLINE
  5
10c
100
AcDbEntity
  8
Corte
 62
1
100
AcDbPolyline
 90
4
 70
1
 10
761.548507
 20
513.068513
 30
0.0
 10
778.084413
 20
496.531020
 30
0.0
 10
767.061043
 20
485.507565
 30
0.0
 10
750.523436
 20
502.043499
 30
0.0
  0
SPLINE
  5
10d
100
AcDbEntity
  8
Corte
 62
1
100
AcDbSpline
 70
8
 71
3
 72
8
 73
4
 74
0
 40
0
 40
0
 40
0
 40
0
 40
1
 40
1
 40
1
 40
1
 10
268.555654
 20
954.257207
 30
0.0
 10
271.052977
 20
954.257270
 30
0.0
 10
273.077198
 20
952.232970
 30
0.0
 10
273.077198
 20
949.735894
 30
0.0
  0
SPLINE
  5
10e
100
AcDbEntity
  8
Corte
 62
1
100
AcDbSpline
 70
8
 71
3
 72
8
 73
4
 74
0
 40
0
 40
0
 40
0
 40
0
 40
1
 40
1
 40
1
 40
1
 10
273.077198
 20
949.735894
 30
0.0
 10
273.077198
 20
947.238735
 30
0.0
 10
271.052977
 20
945.214413
 30
0.0
 10
268.555654
 20
945.214452
 30
0.0
  0
SPLINE
  5
10f
100
AcDbEntity
  8
Corte
 62
1
100
AcDbSpline
 70
8
 71
3
 72
8
 73
4
 74
0
 40
0
 40
0
 40
0
 40
0
 40
1
 40
1
 40
1
 40
1
 10
268.555654
 20
945.214452
 30
0.0
 10
266.058615
 20
945.214413
 30
0.0
 10
264.034395
 20
947.238755
 30
0.0
 10
264.034395
 20
949.735894
 30
0.0
  0
SPLINE
  5
110
100
AcDbEntity
  8
Corte
 62
1
100
AcDbSpline
 70
8
 71
3
 72
8
 73
4
 74
0
 40
0
 40
0
 40
0
 40
0
 40
1
 40
1
 40
1
 40
1
 10
264.034395
 20
949.735894
 30
0.0
 10
264.034395
 20
952.232970
 30
0.0
 10
266.058615
 20
954.257270
 30
0.0
 10
268.555654
 20
954.257207
 30
0.0
  0
LWPOLYLINE
  5
111
100
AcDbEntity
  8
Corte
 62
1
100
AcDbPolyline
 90
13
 70
1
 10
257.825954
 20
1017.393455
 30
0.0
 10
268.849040
 20
1006.368769
 30
0.0
 10
279.873828
 20
1017.393455
 30
0.0
 10
290.898652
 20
1006.368749
 30
0.0
 10
279.873828
 20
995.344041
 30
0.0
 10
290.898369
 20
984.321000
 30
0.0
 10
279.873828
 20
973.296275
 30
0.0
 10
268.849040
 20
984.321000
 30
0.0
 10
257.825954
 20
973.296275
 30
0.0
 10
246.801166
 20
984.321000
 30
0.0
 10
257.825954
 20
995.344041
 30
0.0
 10
246.801166
 20
1006.368769
 30
0.0
 10
257.825954
 20
1017.393455
 30
0.0
  0
SPLINE
  5
112
100
AcDbEntity
  8
Corte
 62
1
100
AcDbSpline
 70
8
 71
3
 72
8
 73
4
 74
0
 40
0
 40
0
 40
0
 40
0
 40
1
 40
1
 40
1
 40
1
 10
313.823849
 20
999.525495
 30
0.0
 10
316.321172
 20
999.525555
 30
0.0
 10
318.345392
 20
997.501215
 30
0.0
 10
318.345392
 20
995.004057
 30
0.0
  0
SPLINE
  5
113
100
AcDbEntity
  8
Corte
 62
1
100
AcDbSpline
 70
8
 71
3
 72
8
 73
4
 74
0
 40
0
 40
0
 40
0
 40
0
 40
1
 40
1
 40
1
 40
1
 10
318.345392
 20
995.004057
 30
0.0
 10
318.345392
 20
992.506938
 30
0.0
 10
316.321172
 20
990.482579
 30
0.0
 10
313.823849
 20
990.482658
 30
0.0
  0
SPLINE
  5
114
100
AcDbEntity
  8
Corte
 62
1
100
AcDbSpline
 70
8
 71
3
 72
8
 73
4
 74
0
 40
0
 40
0
 40
0
 40
0
 40
1
 40
1
 40
1
 40
1
 10
313.823849
 20
990.482658
 30
0.0
 10
311.327376
 20
990.483440
 30
0.0
 10
309.304006
 20
992.507559
 30
0.0
 10
309.304006
 20
995.004057
 30
0.0
  0
SPLINE
  5
115
100
AcDbEntity
  8
Corte
 62
1
100
AcDbSpline
 70
8
 71
3
 72
8
 73
4
 74
0
 40
0
 40
0
 40
0
 40
0
 40
1
 40
1
 40
1
 40
1
 10
309.304006
 20
995.004057
 30
0.0
 10
309.304006
 20
997.500575
 30
0.0
 10
311.327376
 20
999.524673
 30
0.0
 10
313.823849
 20
999.525495
 30
0.0
  0
LWPOLYLINE
  5
116
100
AcDbEntity
  8
Corte
 62
1
100
AcDbPolyline
 90
1
 70
1
 10
268.555654
 20
954.257207
 30
0.0
  0
SPLINE
  5
117
100
AcDbEntity
  8
Corte
 62
1
100
AcDbSpline
 70
8
 71
3
 72
8
 73
4
 74
0
 40
0
 40
0
 40
0
 40
0
 40
1
 40
1
 40
1
 40
1
 10
223.287780
 20
999.525495
 30
0.0
 10
225.784820
 20
999.525555
 30
0.0
 10
227.809040
 20
997.501195
 30
0.0
 10
227.809040
 20
995.004057
 30
0.0
  0
SPLINE
  5
118
100
AcDbEntity
  8
Corte
 62
1
100
AcDbSpline
 70
8
 71
3
 72
8
 73
4
 74
0
 40
0
 40
0
 40
0
 40
0
 40
1
 40
1
 40
1
 40
1
 10
227.809040
 20
995.004057
 30
0.0
 10
227.809040
 20
992.506938
 30
0.0
 10
225.784820
 20
990.482579
 30
0.0
 10
223.287780
 20
990.482658
 30
0.0
  0
SPLINE
  5
119
100
AcDbEntity
  8
Corte
 62
1
100
AcDbSpline
 70
8
 71
3
 72
8
 73
4
 74
0
 40
0
 40
0
 40
0
 40
0
 40
1
 40
1
 40
1
 40
1
 10
223.287780
 20
990.482658
 30
0.0
 10
220.790458
 20
990.482579
 30
0.0
 10
218.766237
 20
992.506958
 30
0.0
 10
218.766237
 20
995.004077
 30
0.0
  0
SPLINE
  5
11a
100
AcDbEntity
  8
Corte
 62
1
100
AcDbSpline
 70
8
 71
3
 72
8
 73
4
 74
0
 40
0
 40
0
 40
0
 40
0
 40
1
 40
1
 40
1
 40
1
 10
218.766237
 20
995.004077
 30
0.0
 10
218.766237
 20
997.501235
 30
0.0
 10
220.790458
 20
999.525555
 30
0.0
 10
223.287780
 20
999.525495
 30
0.0
  0
LWPOLYLINE
  5
11b
100
AcDbEntity
  8
Corte
 62
1
100
AcDbPolyline
 90
1
 70
1
 10
313.823849
 20
999.525495
 30
0.0
  0
SPLINE
  5
11c
100
AcDbEntity
  8
Corte
 62
1
100
AcDbSpline
 70
8
 71
3
 72
8
 73
4
 74
0
 40
0
 40
0
 40
0
 40
0
 40
1
 40
1
 40
1
 40
1
 10
268.555654
 20
1044.793644
 30
0.0
 10
271.052977
 20
1044.793704
 30
0.0
 10
273.077198
 20
1042.769381
 30
0.0
 10
273.077198
 20
1040.272245
 30
0.0
  0
SPLINE
  5
11d
100
AcDbEntity
  8
Corte
 62
1
100
AcDbSpline
 70
8
 71
3
 72
8
 73
4
 74
0
 40
0
 40
0
 40
0
 40
0
 40
1
 40
1
 40
1
 40
1
 10
273.077198
 20
1040.272245
 30
0.0
 10
273.077198
 20
1037.775146
 30
0.0
 10
271.052977
 20
1035.750824
 30
0.0
 10
268.555654
 20
1035.750866
 30
0.0
  0
SPLINE
  5
11e
100
AcDbEntity
  8
Corte
 62
1
100
AcDbSpline
 70
8
 71
3
 72
8
 73
4
 74
0
 40
0
 40
0
 40
0
 40
0
 40
1
 40
1
 40
1
 40
1
 10
268.555654
 20
1035.750866
 30
0.0
 10
266.058615
 20
1035.750824
 30
0.0
 10
264.034395
 20
1037.775146
 30
0.0
 10
264.034395
 20
1040.272245
 30
0.0
  0
SPLINE
  5
11f
100
AcDbEntity
  8
Corte
 62
1
100
AcDbSpline
 70
8
 71
3
 72
8
 73
4
 74
0
 40
0
 40
0
 40
0
 40
0
 40
1
 40
1
 40
1
 40
1
 10
264.034395
 20
1040.272245
 30
0.0
 10
264.034395
 20
1042.769361
 30
0.0
 10
266.058615
 20
1044.793704
 30
0.0
 10
268.555654
 20
1044.793644
 30
0.0
  0
LWPOLYLINE
  5
120
100
AcDbEntity
  8
Corte
 62
1
100
AcDbPolyline
 90
1
 70
1
 10
223.287780
 20
999.525495
 30
0.0
  0
LWPOLYLINE
  5
121
100
AcDbEntity
  8
Corte
 62
1
100
AcDbPolyline
 90
1
 70
1
 10
268.555654
 20
1044.793644
 30
0.0
  0
LWPOLYLINE
  5
122
100
AcDbEntity
  8
Corte
 62
1
100
AcDbPolyline
 90
4
 70
1
 10
401.006806
 20
873.610192
 30
0.0
 10
417.541011
 20
857.074228
 30
0.0
 10
406.517641
 20
846.050773
 30
0.0
 10
389.981735
 20
862.585176
 30
0.0
  0
LWPOLYLINE
  5
123
100
AcDbEntity
  8
Corte
 62
1
100
AcDbPolyline
 90
4
 70
1
 10
316.169235
 20
960.943436
 30
0.0
 10
307.902557
 20
969.209972
 30
0.0
 10
313.413676
 20
974.720962
 30
0.0
 10
321.680069
 20
966.454427
 30
0.0
  0
LWPOLYLINE
  5
124
100
AcDbEntity
  8
Corte
 62
1
100
AcDbPolyline
 90
4
 70
1
 10
298.152822
 20
942.927174
 30
0.0
 10
289.886400
 20
951.193709
 30
0.0
 10
295.397263
 20
956.704697
 30
0.0
 10
303.663940
 20
948.438164
 30
0.0
  0
SPLINE
  5
125
100
AcDbEntity
  8
Corte
 62
1
100
AcDbSpline
 70
8
 71
3
 72
8
 73
4
 74
0
 40
0
 40
0
 40
0
 40
0
 40
1
 40
1
 40
1
 40
1
 10
1061.883751
 20
242.260157
 30
0.0
 10
1059.386712
 20
242.260101
 30
0.0
 10
1057.362491
 20
244.284321
 30
0.0
 10
1057.362491
 20
246.781446
 30
0.0
  0
SPLINE
  5
126
100
AcDbEntity
  8
Corte
 62
1
100
AcDbSpline
 70
8
 71
3
 72
8
 73
4
 74
0
 40
0
 40
0
 40
0
 40
0
 40
1
 40
1
 40
1
 40
1
 10
1057.362491
 20
246.781446
 30
0.0
 10
1057.362491
 20
249.278513
 30
0.0
 10
1059.386995
 20
251.302847
 30
0.0
 10
1061.884035
 20
251.302847
 30
0.0
  0
SPLINE
  5
127
100
AcDbEntity
  8
Corte
 62
1
100
AcDbSpline
 70
8
 71
3
 72
8
 73
4
 74
0
 40
0
 40
0
 40
0
 40
0
 40
1
 40
1
 40
1
 40
1
 10
1061.884035
 20
251.302847
 30
0.0
 10
1064.381074
 20
251.302876
 30
0.0
 10
1066.405295
 20
249.278655
 30
0.0
 10
1066.405295
 20
246.781502
 30
0.0
  0
SPLINE
  5
128
100
AcDbEntity
  8
Corte
 62
1
100
AcDbSpline
 70
8
 71
3
 72
8
 73
4
 74
0
 40
0
 40
0
 40
0
 40
0
 40
1
 40
1
 40
1
 40
1
 10
1066.405295
 20
246.781502
 30
0.0
 10
1066.405295
 20
244.284406
 30
0.0
 10
1064.381074
 20
242.260157
 30
0.0
 10
1061.883751
 20
242.260157
 30
0.0
  0
LWPOLYLINE
  5
129
100
AcDbEntity
  8
Corte
 62
1
100
AcDbPolyline
 90
13
 70
1
 10
1072.613735
 20
179.123924
 30
0.0
 10
1061.590649
 20
190.148485
 30
0.0
 10
1050.565861
 20
179.123981
 30
0.0
 10
1039.541358
 20
190.148570
 30
0.0
 10
1050.565861
 20
201.173272
 30
0.0
 10
1039.541074
 20
212.196444
 30
0.0
 10
1050.565861
 20
223.221146
 30
0.0
 10
1061.590649
 20
212.196359
 30
0.0
 10
1072.613735
 20
223.221090
 30
0.0
 10
1083.638523
 20
212.196302
 30
0.0
 10
1072.613735
 20
201.173216
 30
0.0
 10
1083.638523
 20
190.148627
 30
0.0
 10
1072.613735
 20
179.123924
 30
0.0
  0
SPLINE
  5
12a
100
AcDbEntity
  8
Corte
 62
1
100
AcDbSpline
 70
8
 71
3
 72
8
 73
4
 74
0
 40
0
 40
0
 40
0
 40
0
 40
1
 40
1
 40
1
 40
1
 10
1016.615594
 20
196.991943
 30
0.0
 10
1014.118838
 20
196.991688
 30
0.0
 10
1012.094334
 20
199.016135
 30
0.0
 10
1012.094334
 20
201.513288
 30
0.0
  0
SPLINE
  5
12b
100
AcDbEntity
  8
Corte
 62
1
100
AcDbSpline
 70
8
 71
3
 72
8
 73
4
 74
0
 40
0
 40
0
 40
0
 40
0
 40
1
 40
1
 40
1
 40
1
 10
1012.094334
 20
201.513288
 30
0.0
 10
1012.094334
 20
204.010356
 30
0.0
 10
1014.118838
 20
206.034690
 30
0.0
 10
1016.615877
 20
206.034690
 30
0.0
  0
SPLINE
  5
12c
100
AcDbEntity
  8
Corte
 62
1
100
AcDbSpline
 70
8
 71
3
 72
8
 73
4
 74
0
 40
0
 40
0
 40
0
 40
0
 40
1
 40
1
 40
1
 40
1
 10
1016.615877
 20
206.034690
 30
0.0
 10
1019.112066
 20
206.034009
 30
0.0
 10
1021.135720
 20
204.009817
 30
0.0
 10
1021.135436
 20
201.513373
 30
0.0
  0
SPLINE
  5
12d
100
AcDbEntity
  8
Corte
 62
1
100
AcDbSpline
 70
8
 71
3
 72
8
 73
4
 74
0
 40
0
 40
0
 40
0
 40
0
 40
1
 40
1
 40
1
 40
1
 10
1021.135436
 20
201.513373
 30
0.0
 10
1021.135720
 20
199.016816
 30
0.0
 10
1019.112350
 20
196.992652
 30
0.0
 10
1016.615594
 20
196.991943
 30
0.0
  0
LWPOLYLINE
  5
12e
100
AcDbEntity
  8
Corte
 62
1
100
AcDbPolyline
 90
1
 70
1
 10
1061.883751
 20
242.260157
 30
0.0
  0
SPLINE
  5
12f
100
AcDbEntity
  8
Corte
 62
1
100
AcDbSpline
 70
8
 71
3
 72
8
 73
4
 74
0
 40
0
 40
0
 40
0
 40
0
 40
1
 40
1
 40
1
 40
1
 10
1107.151909
 20
196.991915
 30
0.0
 10
1104.654869
 20
196.991887
 30
0.0
 10
1102.630649
 20
199.016135
 30
0.0
 10
1102.630649
 20
201.513288
 30
0.0
  0
SPLINE
  5
130
100
AcDbEntity
  8
Corte
 62
1
100
AcDbSpline
 70
8
 71
3
 72
8
 73
4
 74
0
 40
0
 40
0
 40
0
 40
0
 40
1
 40
1
 40
1
 40
1
 10
1102.630649
 20
201.513288
 30
0.0
 10
1102.630649
 20
204.010328
 30
0.0
 10
1104.654869
 20
206.034690
 30
0.0
 10
1107.151909
 20
206.034661
 30
0.0
  0
SPLINE
  5
131
100
AcDbEntity
  8
Corte
 62
1
100
AcDbSpline
 70
8
 71
3
 72
8
 73
4
 74
0
 40
0
 40
0
 40
0
 40
0
 40
1
 40
1
 40
1
 40
1
 10
1107.151909
 20
206.034661
 30
0.0
 10
1109.649232
 20
206.034746
 30
0.0
 10
1111.673452
 20
204.010299
 30
0.0
 10
1111.673452
 20
201.513373
 30
0.0
  0
SPLINE
  5
132
100
AcDbEntity
  8
Corte
 62
1
100
AcDbSpline
 70
8
 71
3
 72
8
 73
4
 74
0
 40
0
 40
0
 40
0
 40
0
 40
1
 40
1
 40
1
 40
1
 10
1111.673452
 20
201.513373
 30
0.0
 10
1111.673452
 20
199.016079
 30
0.0
 10
1109.649232
 20
196.991773
 30
0.0
 10
1107.151909
 20
196.991915
 30
0.0
  0
LWPOLYLINE
  5
133
100
AcDbEntity
  8
Corte
 62
1
100
AcDbPolyline
 90
1
 70
1
 10
1016.615594
 20
196.991943
 30
0.0
  0
SPLINE
  5
134
100
AcDbEntity
  8
Corte
 62
1
100
AcDbSpline
 70
8
 71
3
 72
8
 73
4
 74
0
 40
0
 40
0
 40
0
 40
0
 40
1
 40
1
 40
1
 40
1
 10
1061.884035
 20
151.723616
 30
0.0
 10
1059.386995
 20
151.723587
 30
0.0
 10
1057.362491
 20
153.748006
 30
0.0
 10
1057.362491
 20
156.245187
 30
0.0
  0
SPLINE
  5
135
100
AcDbEntity
  8
Corte
 62
1
100
AcDbSpline
 70
8
 71
3
 72
8
 73
4
 74
0
 40
0
 40
0
 40
0
 40
0
 40
1
 40
1
 40
1
 40
1
 10
1057.362491
 20
156.245187
 30
0.0
 10
1057.362491
 20
158.742198
 30
0.0
 10
1059.386712
 20
160.766532
 30
0.0
 10
1061.883751
 20
160.766532
 30
0.0
  0
SPLINE
  5
136
100
AcDbEntity
  8
Corte
 62
1
100
AcDbSpline
 70
8
 71
3
 72
8
 73
4
 74
0
 40
0
 40
0
 40
0
 40
0
 40
1
 40
1
 40
1
 40
1
 10
1061.883751
 20
160.766532
 30
0.0
 10
1064.381074
 20
160.766561
 30
0.0
 10
1066.405295
 20
158.742142
 30
0.0
 10
1066.405295
 20
156.245017
 30
0.0
  0
SPLINE
  5
137
100
AcDbEntity
  8
Corte
 62
1
100
AcDbSpline
 70
8
 71
3
 72
8
 73
4
 74
0
 40
0
 40
0
 40
0
 40
0
 40
1
 40
1
 40
1
 40
1
 10
1066.405295
 20
156.245017
 30
0.0
 10
1066.405295
 20
153.747950
 30
0.0
 10
1064.381074
 20
151.723616
 30
0.0
 10
1061.884035
 20
151.723616
 30
0.0
  0
LWPOLYLINE
  5
138
100
AcDbEntity
  8
Corte
 62
1
100
AcDbPolyline
 90
1
 70
1
 10
1107.151909
 20
196.991915
 30
0.0
  0
LWPOLYLINE
  5
139
100
AcDbEntity
  8
Corte
 62
1
100
AcDbPolyline
 90
1
 70
1
 10
1061.884035
 20
151.723616
 30
0.0
  0
LWPOLYLINE
  5
13a
100
AcDbEntity
  8
Corte
 62
1
100
AcDbPolyline
 90
4
 70
1
 10
929.432948
 20
322.907131
 30
0.0
 10
912.898743
 20
339.443036
 30
0.0
 10
923.922113
 20
350.466463
 30
0.0
 10
940.458019
 20
333.932145
 30
0.0
  0
LWPOLYLINE
  5
13b
100
AcDbEntity
  8
Corte
 62
1
100
AcDbPolyline
 90
4
 70
1
 10
1014.270775
 20
235.573880
 30
0.0
 10
1022.537169
 20
227.307345
 30
0.0
 10
1017.026050
 20
221.796340
 30
0.0
 10
1008.759657
 20
230.062876
 30
0.0
  0
LWPOLYLINE
  5
13c
100
AcDbEntity
  8
Corte
 62
1
100
AcDbPolyline
 90
4
 70
1
 10
1032.286932
 20
253.590151
 30
0.0
 10
1040.553326
 20
245.323616
 30
0.0
 10
1035.042491
 20
239.812611
 30
0.0
 10
1026.775814
 20
248.079146
 30
0.0
  0
SPLINE
  5
13d
100
AcDbEntity
  8
Corte
 62
1
100
AcDbSpline
 70
8
 71
3
 72
8
 73
4
 74
0
 40
0
 40
0
 40
0
 40
0
 40
1
 40
1
 40
1
 40
1
 10
1061.883751
 20
954.257009
 30
0.0
 10
1059.386712
 20
954.257068
 30
0.0
 10
1057.362491
 20
952.232771
 30
0.0
 10
1057.362491
 20
949.735692
 30
0.0
  0
SPLINE
  5
13e
100
AcDbEntity
  8
Corte
 62
1
100
AcDbSpline
 70
8
 71
3
 72
8
 73
4
 74
0
 40
0
 40
0
 40
0
 40
0
 40
1
 40
1
 40
1
 40
1
 10
1057.362491
 20
949.735692
 30
0.0
 10
1057.362491
 20
947.238534
 30
0.0
 10
1059.386712
 20
945.214214
 30
0.0
 10
1061.883751
 20
945.214254
 30
0.0
  0
SPLINE
  5
13f
100
AcDbEntity
  8
Corte
 62
1
100
AcDbSpline
 70
8
 71
3
 72
8
 73
4
 74
0
 40
0
 40
0
 40
0
 40
0
 40
1
 40
1
 40
1
 40
1
 10
1061.883751
 20
945.214254
 30
0.0
 10
1064.381074
 20
945.214214
 30
0.0
 10
1066.405295
 20
947.238554
 30
0.0
 10
1066.405295
 20
949.735692
 30
0.0
  0
SPLINE
  5
140
100
AcDbEntity
  8
Corte
 62
1
100
AcDbSpline
 70
8
 71
3
 72
8
 73
4
 74
0
 40
0
 40
0
 40
0
 40
0
 40
1
 40
1
 40
1
 40
1
 10
1066.405295
 20
949.735692
 30
0.0
 10
1066.405295
 20
952.232771
 30
0.0
 10
1064.381074
 20
954.257068
 30
0.0
 10
1061.883751
 20
954.257009
 30
0.0
  0
LWPOLYLINE
  5
141
100
AcDbEntity
  8
Corte
 62
1
100
AcDbPolyline
 90
13
 70
1
 10
1072.613735
 20
1017.393253
 30
0.0
 10
1061.590649
 20
1006.368568
 30
0.0
 10
1050.565861
 20
1017.393253
 30
0.0
 10
1039.541074
 20
1006.368548
 30
0.0
 10
1050.565861
 20
995.343843
 30
0.0
 10
1039.541074
 20
984.320802
 30
0.0
 10
1050.565861
 20
973.296074
 30
0.0
 10
1061.590649
 20
984.320802
 30
0.0
 10
1072.613735
 20
973.296074
 30
0.0
 10
1083.638523
 20
984.320802
 30
0.0
 10
1072.613735
 20
995.343843
 30
0.0
 10
1083.638523
 20
1006.368568
 30
0.0
 10
1072.613735
 20
1017.393253
 30
0.0
  0
SPLINE
  5
142
100
AcDbEntity
  8
Corte
 62
1
100
AcDbSpline
 70
8
 71
3
 72
8
 73
4
 74
0
 40
0
 40
0
 40
0
 40
0
 40
1
 40
1
 40
1
 40
1
 10
1016.615877
 20
999.525294
 30
0.0
 10
1014.118554
 20
999.525356
 30
0.0
 10
1012.094334
 20
997.501014
 30
0.0
 10
1012.094334
 20
995.003855
 30
0.0
  0
SPLINE
  5
143
100
AcDbEntity
  8
Corte
 62
1
100
AcDbSpline
 70
8
 71
3
 72
8
 73
4
 74
0
 40
0
 40
0
 40
0
 40
0
 40
1
 40
1
 40
1
 40
1
 10
1012.094334
 20
995.003855
 30
0.0
 10
1012.094334
 20
992.506737
 30
0.0
 10
1014.118554
 20
990.482377
 30
0.0
 10
1016.615877
 20
990.482457
 30
0.0
  0
SPLINE
  5
144
100
AcDbEntity
  8
Corte
 62
1
100
AcDbSpline
 70
8
 71
3
 72
8
 73
4
 74
0
 40
0
 40
0
 40
0
 40
0
 40
1
 40
1
 40
1
 40
1
 10
1016.615877
 20
990.482457
 30
0.0
 10
1019.112350
 20
990.483239
 30
0.0
 10
1021.135720
 20
992.507360
 30
0.0
 10
1021.135720
 20
995.003855
 30
0.0
  0
SPLINE
  5
145
100
AcDbEntity
  8
Corte
 62
1
100
AcDbSpline
 70
8
 71
3
 72
8
 73
4
 74
0
 40
0
 40
0
 40
0
 40
0
 40
1
 40
1
 40
1
 40
1
 10
1021.135720
 20
995.003855
 30
0.0
 10
1021.135720
 20
997.500373
 30
0.0
 10
1019.112350
 20
999.524472
 30
0.0
 10
1016.615877
 20
999.525294
 30
0.0
  0
LWPOLYLINE
  5
146
100
AcDbEntity
  8
Corte
 62
1
100
AcDbPolyline
 90
1
 70
1
 10
1061.883751
 20
954.257009
 30
0.0
  0
SPLINE
  5
147
100
AcDbEntity
  8
Corte
 62
1
100
AcDbSpline
 70
8
 71
3
 72
8
 73
4
 74
0
 40
0
 40
0
 40
0
 40
0
 40
1
 40
1
 40
1
 40
1
 10
1107.151909
 20
999.525294
 30
0.0
 10
1104.654869
 20
999.525356
 30
0.0
 10
1102.630649
 20
997.500994
 30
0.0
 10
1102.630649
 20
995.003855
 30
0.0
  0
SPLINE
  5
148
100
AcDbEntity
  8
Corte
 62
1
100
AcDbSpline
 70
8
 71
3
 72
8
 73
4
 74
0
 40
0
 40
0
 40
0
 40
0
 40
1
 40
1
 40
1
 40
1
 10
1102.630649
 20
995.003855
 30
0.0
 10
1102.630365
 20
992.506737
 30
0.0
 10
1104.654869
 20
990.482377
 30
0.0
 10
1107.151909
 20
990.482457
 30
0.0
  0
SPLINE
  5
149
100
AcDbEntity
  8
Corte
 62
1
100
AcDbSpline
 70
8
 71
3
 72
8
 73
4
 74
0
 40
0
 40
0
 40
0
 40
0
 40
1
 40
1
 40
1
 40
1
 10
1107.151909
 20
990.482457
 30
0.0
 10
1109.649232
 20
990.482377
 30
0.0
 10
1111.673452
 20
992.506759
 30
0.0
 10
1111.673452
 20
995.003875
 30
0.0
  0
SPLINE
  5
14a
100
AcDbEntity
  8
Corte
 62
1
100
AcDbSpline
 70
8
 71
3
 72
8
 73
4
 74
0
 40
0
 40
0
 40
0
 40
0
 40
1
 40
1
 40
1
 40
1
 10
1111.673452
 20
995.003875
 30
0.0
 10
1111.673452
 20
997.501034
 30
0.0
 10
1109.649232
 20
999.525356
 30
0.0
 10
1107.151909
 20
999.525294
 30
0.0
  0
LWPOLYLINE
  5
14b
100
AcDbEntity
  8
Corte
 62
1
100
AcDbPolyline
 90
1
 70
1
 10
1016.615877
 20
999.525294
 30
0.0
  0
SPLINE
  5
14c
100
AcDbEntity
  8
Corte
 62
1
100
AcDbSpline
 70
8
 71
3
 72
8
 73
4
 74
0
 40
0
 40
0
 40
0
 40
0
 40
1
 40
1
 40
1
 40
1
 10
1061.883751
 20
1044.793443
 30
0.0
 10
1059.386712
 20
1044.793502
 30
0.0
 10
1057.362491
 20
1042.769183
 30
0.0
 10
1057.362491
 20
1040.272044
 30
0.0
  0
SPLINE
  5
14d
100
AcDbEntity
  8
Corte
 62
1
100
AcDbSpline
 70
8
 71
3
 72
8
 73
4
 74
0
 40
0
 40
0
 40
0
 40
0
 40
1
 40
1
 40
1
 40
1
 10
1057.362491
 20
1040.272044
 30
0.0
 10
1057.362491
 20
1037.774945
 30
0.0
 10
1059.386712
 20
1035.750626
 30
0.0
 10
1061.883751
 20
1035.750665
 30
0.0
  0
SPLINE
  5
14e
100
AcDbEntity
  8
Corte
 62
1
100
AcDbSpline
 70
8
 71
3
 72
8
 73
4
 74
0
 40
0
 40
0
 40
0
 40
0
 40
1
 40
1
 40
1
 40
1
 10
1061.883751
 20
1035.750665
 30
0.0
 10
1064.381074
 20
1035.750626
 30
0.0
 10
1066.405295
 20
1037.774945
 30
0.0
 10
1066.405295
 20
1040.272044
 30
0.0
  0
SPLINE
  5
14f
100
AcDbEntity
  8
Corte
 62
1
100
AcDbSpline
 70
8
 71
3
 72
8
 73
4
 74
0
 40
0
 40
0
 40
0
 40
0
 40
1
 40
1
 40
1
 40
1
 10
1066.405295
 20
1040.272044
 30
0.0
 10
1066.405295
 20
1042.769163
 30
0.0
 10
1064.381074
 20
1044.793502
 30
0.0
 10
1061.883751
 20
1044.793443
 30
0.0
  0
LWPOLYLINE
  5
150
100
AcDbEntity
  8
Corte
 62
1
100
AcDbPolyline
 90
1
 70
1
 10
1107.151909
 20
999.525294
 30
0.0
  0
LWPOLYLINE
  5
151
100
AcDbEntity
  8
Corte
 62
1
100
AcDbPolyline
 90
1
 70
1
 10
1061.883751
 20
1044.793443
 30
0.0
  0
LWPOLYLINE
  5
152
100
AcDbEntity
  8
Corte
 62
1
100
AcDbPolyline
 90
4
 70
1
 10
929.432948
 20
873.609993
 30
0.0
 10
912.898743
 20
857.074030
 30
0.0
 10
923.922113
 20
846.050574
 30
0.0
 10
940.458019
 20
862.584978
 30
0.0
  0
LWPOLYLINE
  5
153
100
AcDbEntity
  8
Corte
 62
1
100
AcDbPolyline
 90
4
 70
1
 10
1014.270491
 20
960.943235
 30
0.0
 10
1022.537169
 20
969.209770
 30
0.0
 10
1017.026050
 20
974.720761
 30
0.0
 10
1008.759657
 20
966.454226
 30
0.0
  0
LWPOLYLINE
  5
154
100
AcDbEntity
  8
Corte
 62
1
100
AcDbPolyline
 90
4
 70
1
 10
1032.286932
 20
942.926975
 30
0.0
 10
1040.553326
 20
951.193511
 30
0.0
 10
1035.042491
 20
956.704496
 30
0.0
 10
1026.775814
 20
948.437966
 30
0.0
  0
SPLINE
  5
155
100
AcDbEntity
  8
Corte
 62
1
100
AcDbSpline
 70
8
 71
3
 72
8
 73
4
 74
0
 40
0
 40
0
 40
0
 40
0
 40
1
 40
1
 40
1
 40
1
 10
268.555654
 20
242.259959
 30
0.0
 10
271.052977
 20
242.259902
 30
0.0
 10
273.077198
 20
244.284180
 30
0.0
 10
273.077198
 20
246.781276
 30
0.0
  0
SPLINE
  5
156
100
AcDbEntity
  8
Corte
 62
1
100
AcDbSpline
 70
8
 71
3
 72
8
 73
4
 74
0
 40
0
 40
0
 40
0
 40
0
 40
1
 40
1
 40
1
 40
1
 10
273.077198
 20
246.781276
 30
0.0
 10
273.077198
 20
249.278428
 30
0.0
 10
271.052977
 20
251.302734
 30
0.0
 10
268.555654
 20
251.302706
 30
0.0
  0
SPLINE
  5
157
100
AcDbEntity
  8
Corte
 62
1
100
AcDbSpline
 70
8
 71
3
 72
8
 73
4
 74
0
 40
0
 40
0
 40
0
 40
0
 40
1
 40
1
 40
1
 40
1
 10
268.555654
 20
251.302706
 30
0.0
 10
266.058615
 20
251.302734
 30
0.0
 10
264.034395
 20
249.278400
 30
0.0
 10
264.034395
 20
246.781276
 30
0.0
  0
SPLINE
  5
158
100
AcDbEntity
  8
Corte
 62
1
100
AcDbSpline
 70
8
 71
3
 72
8
 73
4
 74
0
 40
0
 40
0
 40
0
 40
0
 40
1
 40
1
 40
1
 40
1
 10
264.034395
 20
246.781276
 30
0.0
 10
264.034395
 20
244.284180
 30
0.0
 10
266.058615
 20
242.259902
 30
0.0
 10
268.555654
 20
242.259959
 30
0.0
  0
LWPOLYLINE
  5
159
100
AcDbEntity
  8
Corte
 62
1
100
AcDbPolyline
 90
13
 70
1
 10
257.825954
 20
179.123698
 30
0.0
 10
268.849040
 20
190.148400
 30
0.0
 10
279.873828
 20
179.123698
 30
0.0
 10
290.898652
 20
190.148400
 30
0.0
 10
279.873828
 20
201.173102
 30
0.0
 10
290.898369
 20
212.196161
 30
0.0
 10
279.873828
 20
223.220891
 30
0.0
 10
268.849040
 20
212.196161
 30
0.0
 10
257.825954
 20
223.220891
 30
0.0
 10
246.801166
 20
212.196161
 30
0.0
 10
257.825954
 20
201.173102
 30
0.0
 10
246.801166
 20
190.148400
 30
0.0
 10
257.825954
 20
179.123698
 30
0.0
  0
SPLINE
  5
15a
100
AcDbEntity
  8
Corte
 62
1
100
AcDbSpline
 70
8
 71
3
 72
8
 73
4
 74
0
 40
0
 40
0
 40
0
 40
0
 40
1
 40
1
 40
1
 40
1
 10
313.823849
 20
196.991660
 30
0.0
 10
316.321172
 20
196.991603
 30
0.0
 10
318.345392
 20
199.015937
 30
0.0
 10
318.345392
 20
201.513090
 30
0.0
  0
SPLINE
  5
15b
100
AcDbEntity
  8
Corte
 62
1
100
AcDbSpline
 70
8
 71
3
 72
8
 73
4
 74
0
 40
0
 40
0
 40
0
 40
0
 40
1
 40
1
 40
1
 40
1
 10
318.345392
 20
201.513090
 30
0.0
 10
318.345392
 20
204.010214
 30
0.0
 10
316.321172
 20
206.034576
 30
0.0
 10
313.823849
 20
206.034491
 30
0.0
  0
SPLINE
  5
15c
100
AcDbEntity
  8
Corte
 62
1
100
AcDbSpline
 70
8
 71
3
 72
8
 73
4
 74
0
 40
0
 40
0
 40
0
 40
0
 40
1
 40
1
 40
1
 40
1
 10
313.823849
 20
206.034491
 30
0.0
 10
311.327376
 20
206.033726
 30
0.0
 10
309.304006
 20
204.009591
 30
0.0
 10
309.304006
 20
201.513090
 30
0.0
  0
SPLINE
  5
15d
100
AcDbEntity
  8
Corte
 62
1
100
AcDbSpline
 70
8
 71
3
 72
8
 73
4
 74
0
 40
0
 40
0
 40
0
 40
0
 40
1
 40
1
 40
1
 40
1
 10
309.304006
 20
201.513090
 30
0.0
 10
309.304006
 20
199.016589
 30
0.0
 10
311.327376
 20
196.992482
 30
0.0
 10
313.823849
 20
196.991660
 30
0.0
  0
LWPOLYLINE
  5
15e
100
AcDbEntity
  8
Corte
 62
1
100
AcDbPolyline
 90
1
 70
1
 10
268.555654
 20
242.259959
 30
0.0
  0
SPLINE
  5
15f
100
AcDbEntity
  8
Corte
 62
1
100
AcDbSpline
 70
8
 71
3
 72
8
 73
4
 74
0
 40
0
 40
0
 40
0
 40
0
 40
1
 40
1
 40
1
 40
1
 10
223.287780
 20
196.991660
 30
0.0
 10
225.784820
 20
196.991603
 30
0.0
 10
227.809040
 20
199.015965
 30
0.0
 10
227.809040
 20
201.513090
 30
0.0
  0
SPLINE
  5
160
100
AcDbEntity
  8
Corte
 62
1
100
AcDbSpline
 70
8
 71
3
 72
8
 73
4
 74
0
 40
0
 40
0
 40
0
 40
0
 40
1
 40
1
 40
1
 40
1
 10
227.809040
 20
201.513090
 30
0.0
 10
227.809040
 20
204.010214
 30
0.0
 10
225.784820
 20
206.034576
 30
0.0
 10
223.287780
 20
206.034491
 30
0.0
  0
SPLINE
  5
161
100
AcDbEntity
  8
Corte
 62
1
100
AcDbSpline
 70
8
 71
3
 72
8
 73
4
 74
0
 40
0
 40
0
 40
0
 40
0
 40
1
 40
1
 40
1
 40
1
 10
223.287780
 20
206.034491
 30
0.0
 10
220.790458
 20
206.034576
 30
0.0
 10
218.766237
 20
204.010186
 30
0.0
 10
218.766237
 20
201.513090
 30
0.0
  0
SPLINE
  5
162
100
AcDbEntity
  8
Corte
 62
1
100
AcDbSpline
 70
8
 71
3
 72
8
 73
4
 74
0
 40
0
 40
0
 40
0
 40
0
 40
1
 40
1
 40
1
 40
1
 10
218.766237
 20
201.513090
 30
0.0
 10
218.766237
 20
199.015909
 30
0.0
 10
220.790458
 20
196.991603
 30
0.0
 10
223.287780
 20
196.991660
 30
0.0
  0
LWPOLYLINE
  5
163
100
AcDbEntity
  8
Corte
 62
1
100
AcDbPolyline
 90
1
 70
1
 10
313.823849
 20
196.991660
 30
0.0
  0
SPLINE
  5
164
100
AcDbEntity
  8
Corte
 62
1
100
AcDbSpline
 70
8
 71
3
 72
8
 73
4
 74
0
 40
0
 40
0
 40
0
 40
0
 40
1
 40
1
 40
1
 40
1
 10
268.555654
 20
151.723502
 30
0.0
 10
271.052977
 20
151.723446
 30
0.0
 10
273.077198
 20
153.747780
 30
0.0
 10
273.077198
 20
156.244904
 30
0.0
  0
SPLINE
  5
165
100
AcDbEntity
  8
Corte
 62
1
100
AcDbSpline
 70
8
 71
3
 72
8
 73
4
 74
0
 40
0
 40
0
 40
0
 40
0
 40
1
 40
1
 40
1
 40
1
 10
273.077198
 20
156.244904
 30
0.0
 10
273.077198
 20
158.742000
 30
0.0
 10
271.052977
 20
160.766334
 30
0.0
 10
268.555654
 20
160.766306
 30
0.0
  0
SPLINE
  5
166
100
AcDbEntity
  8
Corte
 62
1
100
AcDbSpline
 70
8
 71
3
 72
8
 73
4
 74
0
 40
0
 40
0
 40
0
 40
0
 40
1
 40
1
 40
1
 40
1
 10
268.555654
 20
160.766306
 30
0.0
 10
266.058615
 20
160.766334
 30
0.0
 10
264.034395
 20
158.742000
 30
0.0
 10
264.034395
 20
156.244904
 30
0.0
  0
SPLINE
  5
167
100
AcDbEntity
  8
Corte
 62
1
100
AcDbSpline
 70
8
 71
3
 72
8
 73
4
 74
0
 40
0
 40
0
 40
0
 40
0
 40
1
 40
1
 40
1
 40
1
 10
264.034395
 20
156.244904
 30
0.0
 10
264.034395
 20
153.747808
 30
0.0
 10
266.058615
 20
151.723446
 30
0.0
 10
268.555654
 20
151.723502
 30
0.0
  0
LWPOLYLINE
  5
168
100
AcDbEntity
  8
Corte
 62
1
100
AcDbPolyline
 90
1
 70
1
 10
223.287780
 20
196.991660
 30
0.0
  0
LWPOLYLINE
  5
169
100
AcDbEntity
  8
Corte
 62
1
100
AcDbPolyline
 90
1
 70
1
 10
268.555654
 20
151.723502
 30
0.0
  0
LWPOLYLINE
  5
16a
100
AcDbEntity
  8
Corte
 62
1
100
AcDbPolyline
 90
4
 70
1
 10
401.006806
 20
322.906961
 30
0.0
 10
417.541011
 20
339.442923
 30
0.0
 10
406.517641
 20
350.466378
 30
0.0
 10
389.981735
 20
333.931975
 30
0.0
  0
LWPOLYLINE
  5
16b
100
AcDbEntity
  8
Corte
 62
1
100
AcDbPolyline
 90
4
 70
1
 10
316.169235
 20
235.573710
 30
0.0
 10
307.902557
 20
227.307175
 30
0.0
 10
313.413676
 20
221.796198
 30
0.0
 10
321.680069
 20
230.062734
 30
0.0
  0
SPLINE
  5
16c
100
AcDbEntity
  8
Corte
 62
1
100
AcDbSpline
 70
8
 71
3
 72
8
 73
4
 74
0
 40
0
 40
0
 40
0
 40
0
 40
1
 40
1
 40
1
 40
1
 10
526.351861
 20
666.417815
 30
0.0
 10
531.652847
 20
666.417702
 30
0.0
 10
535.950425
 20
670.715082
 30
0.0
 10
535.950425
 20
676.016133
 30
0.0
  0
SPLINE
  5
16d
100
AcDbEntity
  8
Corte
 62
1
100
AcDbSpline
 70
8
 71
3
 72
8
 73
4
 74
0
 40
0
 40
0
 40
0
 40
0
 40
1
 40
1
 40
1
 40
1
 10
535.950425
 20
676.016133
 30
0.0
 10
535.950425
 20
681.317118
 30
0.0
 10
531.652847
 20
685.614546
 30
0.0
 10
526.351861
 20
685.614455
 30
0.0
  0
SPLINE
  5
16e
100
AcDbEntity
  8
Corte
 62
1
100
AcDbSpline
 70
8
 71
3
 72
8
 73
4
 74
0
 40
0
 40
0
 40
0
 40
0
 40
1
 40
1
 40
1
 40
1
 10
526.351861
 20
685.614455
 30
0.0
 10
521.051244
 20
685.614546
 30
0.0
 10
516.753666
 20
681.317118
 30
0.0
 10
516.753666
 20
676.016133
 30
0.0
  0
SPLINE
  5
16f
100
AcDbEntity
  8
Corte
 62
1
100
AcDbSpline
 70
8
 71
3
 72
8
 73
4
 74
0
 40
0
 40
0
 40
0
 40
0
 40
1
 40
1
 40
1
 40
1
 10
516.753666
 20
676.016133
 30
0.0
 10
516.753666
 20
670.715167
 30
0.0
 10
521.051244
 20
666.417702
 30
0.0
 10
526.351861
 20
666.417815
 30
0.0
  0
LWPOLYLINE
  5
170
100
AcDbEntity
  8
Corte
 62
1
100
AcDbPolyline
 90
4
 70
1
 10
298.152822
 20
253.589981
 30
0.0
 10
289.886400
 20
245.323446
 30
0.0
 10
295.397263
 20
239.812469
 30
0.0
 10
303.663940
 20
248.079005
 30
0.0
  0
LWPOLYLINE
  5
171
100
AcDbEntity
  8
Corte
 62
1
100
AcDbPolyline
 90
1
 70
1
 10
526.351861
 20
666.417815
 30
0.0
  0
LWPOLYLINE
  5
172
100
AcDbEntity
  8
Corte
 62
1
100
AcDbPolyline
 90
4
 70
1
 10
534.842589
 20
481.515506
 30
0.0
 10
526.575969
 20
473.249027
 30
0.0
 10
521.064935
 20
478.760088
 30
0.0
 10
529.331528
 20
487.026539
 30
0.0
  0
LWPOLYLINE
  5
173
100
AcDbEntity
  8
Corte
 62
1
100
AcDbPolyline
 90
4
 70
1
 10
552.858803
 20
463.499263
 30
0.0
 10
544.592183
 20
455.232813
 30
0.0
 10
539.081263
 20
460.743732
 30
0.0
 10
547.347742
 20
469.010353
 30
0.0
  0
LWPOLYLINE
  5
174
100
AcDbEntity
  8
Corte
 62
1
100
AcDbPolyline
 90
4
 70
1
 10
795.597194
 20
715.002287
 30
0.0
 10
803.863814
 20
723.268743
 30
0.0
 10
809.374677
 20
717.757492
 30
0.0
 10
801.108255
 20
709.491237
 30
0.0
  0
LWPOLYLINE
  5
175
100
AcDbEntity
  8
Corte
 62
1
100
AcDbPolyline
 90
4
 70
1
 10
777.581008
 20
733.018490
 30
0.0
 10
785.847402
 20
741.284765
 30
0.0
 10
791.358520
 20
735.774035
 30
0.0
 10
783.091843
 20
727.507242
 30
0.0
  0
LWPOLYLINE
  5
176
100
AcDbEntity
  8
Corte
 62
1
100
AcDbPolyline
 90
4
 70
1
 10
534.841569
 20
715.003889
 30
0.0
 10
526.575118
 20
723.270353
 30
0.0
 10
521.064085
 20
717.759201
 30
0.0
 10
529.330564
 20
709.492737
 30
0.0
  0
LWPOLYLINE
  5
177
100
AcDbEntity
  8
Corte
 62
1
100
AcDbPolyline
 90
4
 70
1
 10
552.857953
 20
733.020160
 30
0.0
 10
544.591276
 20
741.286423
 30
0.0
 10
539.080328
 20
735.775611
 30
0.0
 10
547.346920
 20
727.509005
 30
0.0
  0
LWPOLYLINE
  5
178
100
AcDbEntity
  8
Corte
 62
1
100
AcDbPolyline
 90
4
 70
1
 10
795.597817
 20
481.515477
 30
0.0
 10
803.864495
 20
473.249197
 30
0.0
 10
809.375329
 20
478.760145
 30
0.0
 10
801.108850
 20
487.026624
 30
0.0
  0
SPLINE
  5
179
100
AcDbEntity
  8
Corte
 62
1
100
AcDbSpline
 70
8
 71
3
 72
8
 73
4
 74
0
 40
0
 40
0
 40
0
 40
0
 40
1
 40
1
 40
1
 40
1
 10
502.006209
 20
930.939998
 30
0.0
 10
499.657989
 20
930.939915
 30
0.0
 10
497.754241
 20
932.843627
 30
0.0
 10
497.754241
 20
935.191960
 30
0.0
  0
SPLINE
  5
17a
100
AcDbEntity
  8
Corte
 62
1
100
AcDbSpline
 70
8
 71
3
 72
8
 73
4
 74
0
 40
0
 40
0
 40
0
 40
0
 40
1
 40
1
 40
1
 40
1
 10
497.754241
 20
935.191960
 30
0.0
 10
497.754241
 20
937.540266
 30
0.0
 10
499.657989
 20
939.443986
 30
0.0
 10
502.006209
 20
939.443929
 30
0.0
  0
SPLINE
  5
17b
100
AcDbEntity
  8
Corte
 62
1
100
AcDbSpline
 70
8
 71
3
 72
8
 73
4
 74
0
 40
0
 40
0
 40
0
 40
0
 40
1
 40
1
 40
1
 40
1
 10
502.006209
 20
939.443929
 30
0.0
 10
504.354713
 20
939.443986
 30
0.0
 10
506.258461
 20
937.540266
 30
0.0
 10
506.258178
 20
935.191960
 30
0.0
  0
SPLINE
  5
17c
100
AcDbEntity
  8
Corte
 62
1
100
AcDbSpline
 70
8
 71
3
 72
8
 73
4
 74
0
 40
0
 40
0
 40
0
 40
0
 40
1
 40
1
 40
1
 40
1
 10
506.258178
 20
935.191960
 30
0.0
 10
506.258461
 20
932.843627
 30
0.0
 10
504.354713
 20
930.939944
 30
0.0
 10
502.006209
 20
930.939998
 30
0.0
  0
LWPOLYLINE
  5
17d
100
AcDbEntity
  8
Corte
 62
1
100
AcDbPolyline
 90
4
 70
1
 10
777.581632
 20
463.499405
 30
0.0
 10
785.848110
 20
455.232954
 30
0.0
 10
791.359087
 20
460.743761
 30
0.0
 10
783.092693
 20
469.010551
 30
0.0
  0
LWPOLYLINE
  5
17e
100
AcDbEntity
  8
Corte
 62
1
100
AcDbPolyline
 90
1
 70
1
 10
502.006209
 20
930.939998
 30
0.0
  0
LWPOLYLINE
  5
17f
100
AcDbEntity
  8
Corte
 62
1
100
AcDbPolyline
 90
4
 70
1
 10
510.344887
 20
902.593544
 30
0.0
 10
499.006304
 20
902.593544
 30
0.0
 10
499.006304
 20
913.932126
 30
0.0
 10
510.344887
 20
913.932126
 30
0.0
  0
SPLINE
  5
180
100
AcDbEntity
  8
Corte
 62
1
100
AcDbSpline
 70
8
 71
3
 72
8
 73
4
 74
0
 40
0
 40
0
 40
0
 40
0
 40
1
 40
1
 40
1
 40
1
 10
297.367909
 20
1030.210518
 30
0.0
 10
299.133893
 20
1031.976434
 30
0.0
 10
301.996602
 20
1031.976349
 30
0.0
 10
303.762302
 20
1030.210591
 30
0.0
  0
SPLINE
  5
181
100
AcDbEntity
  8
Corte
 62
1
100
AcDbSpline
 70
8
 71
3
 72
8
 73
4
 74
0
 40
0
 40
0
 40
0
 40
0
 40
1
 40
1
 40
1
 40
1
 10
303.762302
 20
1030.210591
 30
0.0
 10
305.528003
 20
1028.444862
 30
0.0
 10
305.528287
 20
1025.582083
 30
0.0
 10
303.762302
 20
1023.816266
 30
0.0
  0
SPLINE
  5
182
100
AcDbEntity
  8
Corte
 62
1
100
AcDbSpline
 70
8
 71
3
 72
8
 73
4
 74
0
 40
0
 40
0
 40
0
 40
0
 40
1
 40
1
 40
1
 40
1
 10
303.762302
 20
1023.816266
 30
0.0
 10
301.996318
 20
1022.051546
 30
0.0
 10
299.134460
 20
1022.052076
 30
0.0
 10
297.369043
 20
1023.817365
 30
0.0
  0
SPLINE
  5
183
100
AcDbEntity
  8
Corte
 62
1
100
AcDbSpline
 70
8
 71
3
 72
8
 73
4
 74
0
 40
0
 40
0
 40
0
 40
0
 40
1
 40
1
 40
1
 40
1
 10
297.369043
 20
1023.817365
 30
0.0
 10
295.603909
 20
1025.582669
 30
0.0
 10
295.603342
 20
1028.444664
 30
0.0
 10
297.367909
 20
1030.210518
 30
0.0
  0
LWPOLYLINE
  5
184
100
AcDbEntity
  8
Corte
 62
1
100
AcDbPolyline
 90
12
 70
1
 10
497.114461
 20
950.940657
 30
0.0
 10
497.114461
 20
947.043019
 30
0.0
 10
481.523910
 20
947.043019
 30
0.0
 10
481.523910
 20
900.271402
 30
0.0
 10
497.114461
 20
900.271402
 30
0.0
 10
497.114461
 20
896.373682
 30
0.0
 10
853.867432
 20
896.373708
 30
0.0
 10
853.867432
 20
915.861897
 30
0.0
 10
529.006493
 20
915.861897
 30
0.0
 10
529.006493
 20
931.452439
 30
0.0
 10
853.867432
 20
931.452439
 30
0.0
 10
853.867432
 20
950.940628
 30
0.0
  0
SPLINE
  5
185
100
AcDbEntity
  8
Corte
 62
1
100
AcDbSpline
 70
8
 71
3
 72
8
 73
4
 74
0
 40
0
 40
0
 40
0
 40
0
 40
1
 40
1
 40
1
 40
1
 10
233.349355
 20
966.191876
 30
0.0
 10
235.115056
 20
967.957594
 30
0.0
 10
237.977765
 20
967.957495
 30
0.0
 10
239.743466
 20
966.191752
 30
0.0
  0
SPLINE
  5
186
100
AcDbEntity
  8
Corte
 62
1
100
AcDbSpline
 70
8
 71
3
 72
8
 73
4
 74
0
 40
0
 40
0
 40
0
 40
0
 40
1
 40
1
 40
1
 40
1
 10
239.743466
 20
966.191752
 30
0.0
 10
241.509166
 20
964.426022
 30
0.0
 10
241.509166
 20
961.563243
 30
0.0
 10
239.743466
 20
959.797624
 30
0.0
  0
SPLINE
  5
187
100
AcDbEntity
  8
Corte
 62
1
100
AcDbSpline
 70
8
 71
3
 72
8
 73
4
 74
0
 40
0
 40
0
 40
0
 40
0
 40
1
 40
1
 40
1
 40
1
 10
239.743466
 20
959.797624
 30
0.0
 10
237.977765
 20
958.031694
 30
0.0
 10
235.115056
 20
958.031807
 30
0.0
 10
233.349355
 20
959.797536
 30
0.0
  0
SPLINE
  5
188
100
AcDbEntity
  8
Corte
 62
1
100
AcDbSpline
 70
8
 71
3
 72
8
 73
4
 74
0
 40
0
 40
0
 40
0
 40
0
 40
1
 40
1
 40
1
 40
1
 10
233.349355
 20
959.797536
 30
0.0
 10
231.583371
 20
961.563294
 30
0.0
 10
231.583371
 20
964.426045
 30
0.0
 10
233.349355
 20
966.191876
 30
0.0
  0
LWPOLYLINE
  5
189
100
AcDbEntity
  8
Corte
 62
1
100
AcDbPolyline
 90
1
 70
1
 10
297.367909
 20
1030.210518
 30
0.0
  0
SPLINE
  5
18a
100
AcDbEntity
  8
Corte
 62
1
100
AcDbSpline
 70
8
 71
3
 72
8
 73
4
 74
0
 40
0
 40
0
 40
0
 40
0
 40
1
 40
1
 40
1
 40
1
 10
233.349072
 20
1030.210512
 30
0.0
 10
235.115056
 20
1031.976428
 30
0.0
 10
237.977765
 20
1031.976357
 30
0.0
 10
239.743466
 20
1030.210614
 30
0.0
  0
SPLINE
  5
18b
100
AcDbEntity
  8
Corte
 62
1
100
AcDbSpline
 70
8
 71
3
 72
8
 73
4
 74
0
 40
0
 40
0
 40
0
 40
0
 40
1
 40
1
 40
1
 40
1
 10
239.743466
 20
1030.210614
 30
0.0
 10
241.509166
 20
1028.444899
 30
0.0
 10
241.509166
 20
1025.582148
 30
0.0
 10
239.743466
 20
1023.816302
 30
0.0
  0
SPLINE
  5
18c
100
AcDbEntity
  8
Corte
 62
1
100
AcDbSpline
 70
8
 71
3
 72
8
 73
4
 74
0
 40
0
 40
0
 40
0
 40
0
 40
1
 40
1
 40
1
 40
1
 10
239.743466
 20
1023.816302
 30
0.0
 10
237.977765
 20
1022.050599
 30
0.0
 10
235.115056
 20
1022.050670
 30
0.0
 10
233.349355
 20
1023.816385
 30
0.0
  0
SPLINE
  5
18d
100
AcDbEntity
  8
Corte
 62
1
100
AcDbSpline
 70
8
 71
3
 72
8
 73
4
 74
0
 40
0
 40
0
 40
0
 40
0
 40
1
 40
1
 40
1
 40
1
 10
233.349355
 20
1023.816385
 30
0.0
 10
231.583371
 20
1025.582114
 30
0.0
 10
231.583371
 20
1028.444879
 30
0.0
 10
233.349072
 20
1030.210512
 30
0.0
  0
LWPOLYLINE
  5
18e
100
AcDbEntity
  8
Corte
 62
1
100
AcDbPolyline
 90
1
 70
1
 10
233.349355
 20
966.191876
 30
0.0
  0
SPLINE
  5
18f
100
AcDbEntity
  8
Corte
 62
1
100
AcDbSpline
 70
8
 71
3
 72
8
 73
4
 74
0
 40
0
 40
0
 40
0
 40
0
 40
1
 40
1
 40
1
 40
1
 10
239.743466
 20
230.325392
 30
0.0
 10
241.509166
 20
232.091206
 30
0.0
 10
241.509166
 20
234.953943
 30
0.0
 10
239.743466
 20
236.719644
 30
0.0
  0
SPLINE
  5
190
100
AcDbEntity
  8
Corte
 62
1
100
AcDbSpline
 70
8
 71
3
 72
8
 73
4
 74
0
 40
0
 40
0
 40
0
 40
0
 40
1
 40
1
 40
1
 40
1
 10
239.743466
 20
236.719644
 30
0.0
 10
237.977765
 20
238.485402
 30
0.0
 10
235.115056
 20
238.485458
 30
0.0
 10
233.349072
 20
236.719587
 30
0.0
  0
SPLINE
  5
191
100
AcDbEntity
  8
Corte
 62
1
100
AcDbSpline
 70
8
 71
3
 72
8
 73
4
 74
0
 40
0
 40
0
 40
0
 40
0
 40
1
 40
1
 40
1
 40
1
 10
233.349072
 20
236.719587
 30
0.0
 10
231.583371
 20
234.953915
 30
0.0
 10
231.583654
 20
232.091150
 30
0.0
 10
233.349355
 20
230.325420
 30
0.0
  0
SPLINE
  5
192
100
AcDbEntity
  8
Corte
 62
1
100
AcDbSpline
 70
8
 71
3
 72
8
 73
4
 74
0
 40
0
 40
0
 40
0
 40
0
 40
1
 40
1
 40
1
 40
1
 10
233.349355
 20
230.325420
 30
0.0
 10
235.115056
 20
228.559720
 30
0.0
 10
237.977765
 20
228.559663
 30
0.0
 10
239.743466
 20
230.325392
 30
0.0
  0
LWPOLYLINE
  5
193
100
AcDbEntity
  8
Corte
 62
1
100
AcDbPolyline
 90
1
 70
1
 10
233.349072
 20
1030.210512
 30
0.0
  0
SPLINE
  5
194
100
AcDbEntity
  8
Corte
 62
1
100
AcDbSpline
 70
8
 71
3
 72
8
 73
4
 74
0
 40
0
 40
0
 40
0
 40
0
 40
1
 40
1
 40
1
 40
1
 10
239.743749
 20
166.306649
 30
0.0
 10
241.509450
 20
168.072265
 30
0.0
 10
241.509166
 20
170.935058
 30
0.0
 10
239.743466
 20
172.700787
 30
0.0
  0
SPLINE
  5
195
100
AcDbEntity
  8
Corte
 62
1
100
AcDbSpline
 70
8
 71
3
 72
8
 73
4
 74
0
 40
0
 40
0
 40
0
 40
0
 40
1
 40
1
 40
1
 40
1
 10
239.743466
 20
172.700787
 30
0.0
 10
237.977765
 20
174.466517
 30
0.0
 10
235.115056
 20
174.466630
 30
0.0
 10
233.349355
 20
172.700901
 30
0.0
  0
SPLINE
  5
196
100
AcDbEntity
  8
Corte
 62
1
100
AcDbSpline
 70
8
 71
3
 72
8
 73
4
 74
0
 40
0
 40
0
 40
0
 40
0
 40
1
 40
1
 40
1
 40
1
 10
233.349355
 20
172.700901
 30
0.0
 10
231.583371
 20
170.935087
 30
0.0
 10
231.583654
 20
168.072265
 30
0.0
 10
233.349355
 20
166.306564
 30
0.0
  0
SPLINE
  5
197
100
AcDbEntity
  8
Corte
 62
1
100
AcDbSpline
 70
8
 71
3
 72
8
 73
4
 74
0
 40
0
 40
0
 40
0
 40
0
 40
1
 40
1
 40
1
 40
1
 10
233.349355
 20
166.306564
 30
0.0
 10
235.115056
 20
164.540778
 30
0.0
 10
237.977765
 20
164.540721
 30
0.0
 10
239.743749
 20
166.306649
 30
0.0
  0
LWPOLYLINE
  5
198
100
AcDbEntity
  8
Corte
 62
1
100
AcDbPolyline
 90
1
 70
1
 10
239.743466
 20
230.325392
 30
0.0
  0
SPLINE
  5
199
100
AcDbEntity
  8
Corte
 62
1
100
AcDbSpline
 70
8
 71
3
 72
8
 73
4
 74
0
 40
0
 40
0
 40
0
 40
0
 40
1
 40
1
 40
1
 40
1
 10
303.762302
 20
166.306450
 30
0.0
 10
305.528287
 20
168.072265
 30
0.0
 10
305.528287
 20
170.935030
 30
0.0
 10
303.762302
 20
172.700759
 30
0.0
  0
SPLINE
  5
19a
100
AcDbEntity
  8
Corte
 62
1
100
AcDbSpline
 70
8
 71
3
 72
8
 73
4
 74
0
 40
0
 40
0
 40
0
 40
0
 40
1
 40
1
 40
1
 40
1
 10
303.762302
 20
172.700759
 30
0.0
 10
301.996602
 20
174.466488
 30
0.0
 10
299.133893
 20
174.466573
 30
0.0
 10
297.368192
 20
172.700674
 30
0.0
  0
SPLINE
  5
19b
100
AcDbEntity
  8
Corte
 62
1
100
AcDbSpline
 70
8
 71
3
 72
8
 73
4
 74
0
 40
0
 40
0
 40
0
 40
0
 40
1
 40
1
 40
1
 40
1
 10
297.368192
 20
172.700674
 30
0.0
 10
295.602491
 20
170.935030
 30
0.0
 10
295.602491
 20
168.072265
 30
0.0
 10
297.368192
 20
166.306535
 30
0.0
  0
SPLINE
  5
19c
100
AcDbEntity
  8
Corte
 62
1
100
AcDbSpline
 70
8
 71
3
 72
8
 73
4
 74
0
 40
0
 40
0
 40
0
 40
0
 40
1
 40
1
 40
1
 40
1
 10
297.368192
 20
166.306535
 30
0.0
 10
299.133893
 20
164.540835
 30
0.0
 10
301.996602
 20
164.540721
 30
0.0
 10
303.762302
 20
166.306450
 30
0.0
  0
LWPOLYLINE
  5
19d
100
AcDbEntity
  8
Corte
 62
1
100
AcDbPolyline
 90
1
 70
1
 10
239.743749
 20
166.306649
 30
0.0
  0
SPLINE
  5
19e
100
AcDbEntity
  8
Corte
 62
1
100
AcDbSpline
 70
8
 71
3
 72
8
 73
4
 74
0
 40
0
 40
0
 40
0
 40
0
 40
1
 40
1
 40
1
 40
1
 10
1033.071279
 20
166.306649
 30
0.0
 10
1031.306145
 20
164.541005
 30
0.0
 10
1028.443153
 20
164.540948
 30
0.0
 10
1026.677169
 20
166.306706
 30
0.0
  0
SPLINE
  5
19f
100
AcDbEntity
  8
Corte
 62
1
100
AcDbSpline
 70
8
 71
3
 72
8
 73
4
 74
0
 40
0
 40
0
 40
0
 40
0
 40
1
 40
1
 40
1
 40
1
 10
1026.677169
 20
166.306706
 30
0.0
 10
1024.911751
 20
168.072406
 30
0.0
 10
1024.911751
 20
170.935370
 30
0.0
 10
1026.677452
 20
172.701043
 30
0.0
  0
SPLINE
  5
1a0
100
AcDbEntity
  8
Corte
 62
1
100
AcDbSpline
 70
8
 71
3
 72
8
 73
4
 74
0
 40
0
 40
0
 40
0
 40
0
 40
1
 40
1
 40
1
 40
1
 10
1026.677452
 20
172.701043
 30
0.0
 10
1028.442869
 20
174.465638
 30
0.0
 10
1031.305295
 20
174.465241
 30
0.0
 10
1033.070145
 20
172.699795
 30
0.0
  0
SPLINE
  5
1a1
100
AcDbEntity
  8
Corte
 62
1
100
AcDbSpline
 70
8
 71
3
 72
8
 73
4
 74
0
 40
0
 40
0
 40
0
 40
0
 40
1
 40
1
 40
1
 40
1
 10
1033.070145
 20
172.699795
 30
0.0
 10
1034.835846
 20
170.934661
 30
0.0
 10
1034.836413
 20
168.072633
 30
0.0
 10
1033.071279
 20
166.306649
 30
0.0
  0
LWPOLYLINE
  5
1a2
100
AcDbEntity
  8
Corte
 62
1
100
AcDbPolyline
 90
1
 70
1
 10
303.762302
 20
166.306450
 30
0.0
  0
SPLINE
  5
1a3
100
AcDbEntity
  8
Corte
 62
1
100
AcDbSpline
 70
8
 71
3
 72
8
 73
4
 74
0
 40
0
 40
0
 40
0
 40
0
 40
1
 40
1
 40
1
 40
1
 10
1097.090334
 20
230.325477
 30
0.0
 10
1095.324633
 20
228.559776
 30
0.0
 10
1092.461924
 20
228.559805
 30
0.0
 10
1090.696224
 20
230.325562
 30
0.0
  0
SPLINE
  5
1a4
100
AcDbEntity
  8
Corte
 62
1
100
AcDbSpline
 70
8
 71
3
 72
8
 73
4
 74
0
 40
0
 40
0
 40
0
 40
0
 40
1
 40
1
 40
1
 40
1
 10
1090.696224
 20
230.325562
 30
0.0
 10
1088.930523
 20
232.091235
 30
0.0
 10
1088.930239
 20
234.954000
 30
0.0
 10
1090.695940
 20
236.719672
 30
0.0
  0
SPLINE
  5
1a5
100
AcDbEntity
  8
Corte
 62
1
100
AcDbSpline
 70
8
 71
3
 72
8
 73
4
 74
0
 40
0
 40
0
 40
0
 40
0
 40
1
 40
1
 40
1
 40
1
 10
1090.695940
 20
236.719672
 30
0.0
 10
1092.461924
 20
238.485600
 30
0.0
 10
1095.324633
 20
238.485430
 30
0.0
 10
1097.090334
 20
236.719843
 30
0.0
  0
SPLINE
  5
1a6
100
AcDbEntity
  8
Corte
 62
1
100
AcDbSpline
 70
8
 71
3
 72
8
 73
4
 74
0
 40
0
 40
0
 40
0
 40
0
 40
1
 40
1
 40
1
 40
1
 10
1097.090334
 20
236.719843
 30
0.0
 10
1098.856035
 20
234.954000
 30
0.0
 10
1098.856318
 20
232.091263
 30
0.0
 10
1097.090334
 20
230.325477
 30
0.0
  0
LWPOLYLINE
  5
1a7
100
AcDbEntity
  8
Corte
 62
1
100
AcDbPolyline
 90
1
 70
1
 10
1033.071279
 20
166.306649
 30
0.0
  0
SPLINE
  5
1a8
100
AcDbEntity
  8
Corte
 62
1
100
AcDbSpline
 70
8
 71
3
 72
8
 73
4
 74
0
 40
0
 40
0
 40
0
 40
0
 40
1
 40
1
 40
1
 40
1
 10
1097.090617
 20
166.306734
 30
0.0
 10
1095.324917
 20
164.541033
 30
0.0
 10
1092.461924
 20
164.540976
 30
0.0
 10
1090.696224
 20
166.306762
 30
0.0
  0
SPLINE
  5
1a9
100
AcDbEntity
  8
Corte
 62
1
100
AcDbSpline
 70
8
 71
3
 72
8
 73
4
 74
0
 40
0
 40
0
 40
0
 40
0
 40
1
 40
1
 40
1
 40
1
 10
1090.696224
 20
166.306762
 30
0.0
 10
1088.930523
 20
168.072406
 30
0.0
 10
1088.930239
 20
170.935172
 30
0.0
 10
1090.695940
 20
172.700844
 30
0.0
  0
SPLINE
  5
1aa
100
AcDbEntity
  8
Corte
 62
1
100
AcDbSpline
 70
8
 71
3
 72
8
 73
4
 74
0
 40
0
 40
0
 40
0
 40
0
 40
1
 40
1
 40
1
 40
1
 10
1090.695940
 20
172.700844
 30
0.0
 10
1092.461924
 20
174.466743
 30
0.0
 10
1095.324633
 20
174.466602
 30
0.0
 10
1097.090334
 20
172.700872
 30
0.0
  0
SPLINE
  5
1ab
100
AcDbEntity
  8
Corte
 62
1
100
AcDbSpline
 70
8
 71
3
 72
8
 73
4
 74
0
 40
0
 40
0
 40
0
 40
0
 40
1
 40
1
 40
1
 40
1
 10
1097.090334
 20
172.700872
 30
0.0
 10
1098.856035
 20
170.935172
 30
0.0
 10
1098.856318
 20
168.072406
 30
0.0
 10
1097.090617
 20
166.306734
 30
0.0
  0
LWPOLYLINE
  5
1ac
100
AcDbEntity
  8
Corte
 62
1
100
AcDbPolyline
 90
1
 70
1
 10
1097.090334
 20
230.325477
 30
0.0
  0
SPLINE
  5
1ad
100
AcDbEntity
  8
Corte
 62
1
100
AcDbSpline
 70
8
 71
3
 72
8
 73
4
 74
0
 40
0
 40
0
 40
0
 40
0
 40
1
 40
1
 40
1
 40
1
 10
1090.696224
 20
966.191397
 30
0.0
 10
1088.930523
 20
964.425767
 30
0.0
 10
1088.930523
 20
961.563030
 30
0.0
 10
1090.696224
 20
959.797329
 30
0.0
  0
SPLINE
  5
1ae
100
AcDbEntity
  8
Corte
 62
1
100
AcDbSpline
 70
8
 71
3
 72
8
 73
4
 74
0
 40
0
 40
0
 40
0
 40
0
 40
1
 40
1
 40
1
 40
1
 10
1090.696224
 20
959.797329
 30
0.0
 10
1092.461924
 20
958.031572
 30
0.0
 10
1095.324633
 20
958.031501
 30
0.0
 10
1097.090334
 20
959.797202
 30
0.0
  0
SPLINE
  5
1af
100
AcDbEntity
  8
Corte
 62
1
100
AcDbSpline
 70
8
 71
3
 72
8
 73
4
 74
0
 40
0
 40
0
 40
0
 40
0
 40
1
 40
1
 40
1
 40
1
 10
1097.090334
 20
959.797202
 30
0.0
 10
1098.856318
 20
961.563047
 30
0.0
 10
1098.856035
 20
964.425813
 30
0.0
 10
1097.090334
 20
966.191556
 30
0.0
  0
SPLINE
  5
1b0
100
AcDbEntity
  8
Corte
 62
1
100
AcDbSpline
 70
8
 71
3
 72
8
 73
4
 74
0
 40
0
 40
0
 40
0
 40
0
 40
1
 40
1
 40
1
 40
1
 10
1097.090334
 20
966.191556
 30
0.0
 10
1095.324633
 20
967.957257
 30
0.0
 10
1092.461924
 20
967.957313
 30
0.0
 10
1090.696224
 20
966.191397
 30
0.0
  0
LWPOLYLINE
  5
1b1
100
AcDbEntity
  8
Corte
 62
1
100
AcDbPolyline
 90
1
 70
1
 10
1097.090617
 20
166.306734
 30
0.0
  0
SPLINE
  5
1b2
100
AcDbEntity
  8
Corte
 62
1
100
AcDbSpline
 70
8
 71
3
 72
8
 73
4
 74
0
 40
0
 40
0
 40
0
 40
0
 40
1
 40
1
 40
1
 40
1
 10
1090.695940
 20
1030.210330
 30
0.0
 10
1088.930239
 20
1028.444700
 30
0.0
 10
1088.930523
 20
1025.581921
 30
0.0
 10
1090.696224
 20
1023.816178
 30
0.0
  0
SPLINE
  5
1b3
100
AcDbEntity
  8
Corte
 62
1
100
AcDbSpline
 70
8
 71
3
 72
8
 73
4
 74
0
 40
0
 40
0
 40
0
 40
0
 40
1
 40
1
 40
1
 40
1
 10
1090.696224
 20
1023.816178
 30
0.0
 10
1092.461641
 20
1022.050247
 30
0.0
 10
1095.324633
 20
1022.050349
 30
0.0
 10
1097.090334
 20
1023.816078
 30
0.0
  0
SPLINE
  5
1b4
100
AcDbEntity
  8
Corte
 62
1
100
AcDbSpline
 70
8
 71
3
 72
8
 73
4
 74
0
 40
0
 40
0
 40
0
 40
0
 40
1
 40
1
 40
1
 40
1
 10
1097.090334
 20
1023.816078
 30
0.0
 10
1098.856318
 20
1025.581895
 30
0.0
 10
1098.856035
 20
1028.444689
 30
0.0
 10
1097.090334
 20
1030.210418
 30
0.0
  0
SPLINE
  5
1b5
100
AcDbEntity
  8
Corte
 62
1
100
AcDbSpline
 70
8
 71
3
 72
8
 73
4
 74
0
 40
0
 40
0
 40
0
 40
0
 40
1
 40
1
 40
1
 40
1
 10
1097.090334
 20
1030.210418
 30
0.0
 10
1095.324633
 20
1031.976176
 30
0.0
 10
1092.461924
 20
1031.976247
 30
0.0
 10
1090.695940
 20
1030.210330
 30
0.0
  0
LWPOLYLINE
  5
1b6
100
AcDbEntity
  8
Corte
 62
1
100
AcDbPolyline
 90
1
 70
1
 10
1090.696224
 20
966.191397
 30
0.0
  0
SPLINE
  5
1b7
100
AcDbEntity
  8
Corte
 62
1
100
AcDbSpline
 70
8
 71
3
 72
8
 73
4
 74
0
 40
0
 40
0
 40
0
 40
0
 40
1
 40
1
 40
1
 40
1
 10
1026.677169
 20
1030.210322
 30
0.0
 10
1024.911468
 20
1028.444692
 30
0.0
 10
1024.911468
 20
1025.581941
 30
0.0
 10
1026.677452
 20
1023.816198
 30
0.0
  0
SPLINE
  5
1b8
100
AcDbEntity
  8
Corte
 62
1
100
AcDbSpline
 70
8
 71
3
 72
8
 73
4
 74
0
 40
0
 40
0
 40
0
 40
0
 40
1
 40
1
 40
1
 40
1
 10
1026.677452
 20
1023.816198
 30
0.0
 10
1028.443153
 20
1022.050483
 30
0.0
 10
1031.305861
 20
1022.050412
 30
0.0
 10
1033.071562
 20
1023.816112
 30
0.0
  0
SPLINE
  5
1b9
100
AcDbEntity
  8
Corte
 62
1
100
AcDbSpline
 70
8
 71
3
 72
8
 73
4
 74
0
 40
0
 40
0
 40
0
 40
0
 40
1
 40
1
 40
1
 40
1
 10
1033.071562
 20
1023.816112
 30
0.0
 10
1034.837263
 20
1025.581961
 30
0.0
 10
1034.837263
 20
1028.444712
 30
0.0
 10
1033.071562
 20
1030.210427
 30
0.0
  0
SPLINE
  5
1ba
100
AcDbEntity
  8
Corte
 62
1
100
AcDbSpline
 70
8
 71
3
 72
8
 73
4
 74
0
 40
0
 40
0
 40
0
 40
0
 40
1
 40
1
 40
1
 40
1
 10
1033.071562
 20
1030.210427
 30
0.0
 10
1031.305861
 20
1031.976156
 30
0.0
 10
1028.443153
 20
1031.976238
 30
0.0
 10
1026.677169
 20
1030.210322
 30
0.0
  0
LWPOLYLINE
  5
1bb
100
AcDbEntity
  8
Corte
 62
1
100
AcDbPolyline
 90
1
 70
1
 10
1090.695940
 20
1030.210330
 30
0.0
  0
LWPOLYLINE
  5
1bc
100
AcDbEntity
  8
Corte
 62
1
100
AcDbPolyline
 90
1
 70
1
 10
1026.677169
 20
1030.210322
 30
0.0
  0
LWPOLYLINE
  5
1bd
100
AcDbEntity
  8
Corte
 62
1
100
AcDbPolyline
 90
144
 70
1
 10
656.342249
 20
321.631002
 30
0.0
 10
656.342249
 20
321.611159
 30
0.0
 10
623.740677
 20
321.575159
 30
0.0
 10
623.740677
 20
310.436079
 30
0.0
 10
616.770369
 20
302.979798
 30
0.0
 10
605.879745
 20
302.979798
 30
0.0
 10
605.879745
 20
312.409531
 30
0.0
 10
613.675049
 20
312.409531
 30
0.0
 10
613.675049
 20
321.564217
 30
0.0
 10
583.015691
 20
321.529918
 30
0.0
 10
583.015691
 20
312.409587
 30
0.0
 10
590.809436
 20
312.409587
 30
0.0
 10
590.809436
 20
302.979883
 30
0.0
 10
581.509446
 20
302.979883
 30
0.0
 10
573.784441
 20
310.436164
 30
0.0
 10
573.784441
 20
321.520054
 30
0.0
 10
542.725058
 20
321.485754
 30
0.0
 10
528.861005
 20
307.727943
 30
0.0
 10
515.304737
 20
294.066992
 30
0.0
 10
515.270438
 20
263.006022
 30
0.0
 10
526.356369
 20
263.006022
 30
0.0
 10
533.812620
 20
255.282548
 30
0.0
 10
533.812620
 20
245.982557
 30
0.0
 10
524.382945
 20
245.982557
 30
0.0
 10
524.382945
 20
253.776302
 30
0.0
 10
515.261055
 20
253.776302
 30
0.0
 10
515.228173
 20
223.116888
 30
0.0
 10
524.382860
 20
223.116888
 30
0.0
 10
524.382860
 20
230.910661
 30
0.0
 10
533.812535
 20
230.910661
 30
0.0
 10
533.812535
 20
220.021597
 30
0.0
 10
526.356283
 20
213.049729
 30
0.0
 10
515.217232
 20
213.049729
 30
0.0
 10
515.181232
 20
180.451219
 30
0.0
 10
515.161389
 20
180.451219
 30
0.0
 10
515.172728
 20
170.821531
 30
0.0
 10
515.161389
 20
161.191814
 30
0.0
 10
515.181232
 20
161.191814
 30
0.0
 10
515.217232
 20
128.593361
 30
0.0
 10
526.356283
 20
128.593361
 30
0.0
 10
533.812535
 20
121.623052
 30
0.0
 10
533.812535
 20
110.732400
 30
0.0
 10
524.382860
 20
110.732400
 30
0.0
 10
524.382860
 20
118.527732
 30
0.0
 10
515.228173
 20
118.527732
 30
0.0
 10
515.261055
 20
87.868318
 30
0.0
 10
524.382945
 20
87.868318
 30
0.0
 10
524.382945
 20
95.662091
 30
0.0
 10
533.812620
 20
95.662091
 30
0.0
 10
533.812620
 20
86.362072
 30
0.0
 10
526.356369
 20
78.637068
 30
0.0
 10
515.270438
 20
78.637068
 30
0.0
 10
515.304737
 20
47.577657
 30
0.0
 10
528.970365
 20
33.805757
 30
0.0
 10
542.725058
 20
20.155720
 30
0.0
 10
573.784441
 20
20.121420
 30
0.0
 10
573.784441
 20
31.207408
 30
0.0
 10
581.509446
 20
38.662101
 30
0.0
 10
590.809436
 20
38.662101
 30
0.0
 10
590.809436
 20
29.233956
 30
0.0
 10
583.015691
 20
29.233956
 30
0.0
 10
583.015691
 20
20.112066
 30
0.0
 10
613.675049
 20
20.079184
 30
0.0
 10
613.675049
 20
29.233899
 30
0.0
 10
605.879745
 20
29.233899
 30
0.0
 10
605.879745
 20
38.662016
 30
0.0
 10
616.770369
 20
38.662016
 30
0.0
 10
623.740677
 20
31.207351
 30
0.0
 10
623.740677
 20
20.068243
 30
0.0
 10
656.342249
 20
20.032243
 30
0.0
 10
656.342249
 20
20.012400
 30
0.0
 10
665.970378
 20
20.023739
 30
0.0
 10
675.601625
 20
20.012400
 30
0.0
 10
675.601625
 20
20.032243
 30
0.0
 10
708.196932
 20
20.068243
 30
0.0
 10
708.196932
 20
31.207351
 30
0.0
 10
715.168800
 20
38.662044
 30
0.0
 10
726.057865
 20
38.662044
 30
0.0
 10
726.057865
 20
29.233899
 30
0.0
 10
718.264120
 20
29.233899
 30
0.0
 10
718.264120
 20
20.079184
 30
0.0
 10
748.923506
 20
20.112066
 30
0.0
 10
748.923506
 20
29.233984
 30
0.0
 10
741.129761
 20
29.233984
 30
0.0
 10
741.129761
 20
38.662101
 30
0.0
 10
750.429751
 20
38.662101
 30
0.0
 10
758.153197
 20
31.207408
 30
0.0
 10
758.153197
 20
20.121449
 30
0.0
 10
789.215698
 20
20.155748
 30
0.0
 10
802.820381
 20
33.657335
 30
0.0
 10
816.634460
 20
47.577685
 30
0.0
 10
816.668759
 20
78.637068
 30
0.0
 10
805.584416
 20
78.637068
 30
0.0
 10
798.129723
 20
86.362072
 30
0.0
 10
798.129723
 20
95.662120
 30
0.0
 10
807.557839
 20
95.662120
 30
0.0
 10
807.557839
 20
87.868318
 30
0.0
 10
816.678198
 20
87.868318
 30
0.0
 10
816.712498
 20
118.527761
 30
0.0
 10
807.557839
 20
118.527761
 30
0.0
 10
807.557839
 20
110.732428
 30
0.0
 10
798.129723
 20
110.732428
 30
0.0
 10
798.129723
 20
121.623080
 30
0.0
 10
805.584416
 20
128.593389
 30
0.0
 10
816.723468
 20
128.593389
 30
0.0
 10
816.759468
 20
161.191843
 30
0.0
 10
816.779310
 20
161.191843
 30
0.0
 10
816.767972
 20
170.821559
 30
0.0
 10
816.779310
 20
180.451247
 30
0.0
 10
816.759468
 20
180.451247
 30
0.0
 10
816.723468
 20
213.049729
 30
0.0
 10
805.584416
 20
213.049729
 30
0.0
 10
798.129723
 20
220.021625
 30
0.0
 10
798.129723
 20
230.910690
 30
0.0
 10
807.557839
 20
230.910690
 30
0.0
 10
807.557839
 20
223.116917
 30
0.0
 10
816.712498
 20
223.116917
 30
0.0
 10
816.678198
 20
253.776331
 30
0.0
 10
807.557839
 20
253.776331
 30
0.0
 10
807.557839
 20
245.982586
 30
0.0
 10
798.129723
 20
245.982586
 30
0.0
 10
798.129723
 20
255.282576
 30
0.0
 10
805.584416
 20
263.006050
 30
0.0
 10
816.668759
 20
263.006050
 30
0.0
 10
816.634460
 20
294.067020
 30
0.0
 10
802.931301
 20
307.876422
 30
0.0
 10
789.215698
 20
321.485783
 30
0.0
 10
758.153197
 20
321.520082
 30
0.0
 10
758.153197
 20
310.435710
 30
0.0
 10
750.429751
 20
302.979430
 30
0.0
 10
741.129761
 20
302.979430
 30
0.0
 10
741.129761
 20
312.409134
 30
0.0
 10
748.923506
 20
312.409134
 30
0.0
 10
748.923506
 20
321.529465
 30
0.0
 10
718.264120
 20
321.563764
 30
0.0
 10
718.264120
 20
312.409077
 30
0.0
 10
726.057865
 20
312.409077
 30
0.0
 10
726.057865
 20
302.979345
 30
0.0
 10
715.168800
 20
302.979345
 30
0.0
 10
708.196932
 20
310.435625
 30
0.0
 10
708.196932
 20
321.574706
 30
0.0
 10
675.601625
 20
321.610706
 30
0.0
 10
675.601625
 20
321.630548
 30
0.0
 10
665.970378
 20
321.619209
 30
0.0
  0
LWPOLYLINE
  5
1be
100
AcDbEntity
  8
Corte
 62
1
100
AcDbPolyline
 90
4
 70
1
 10
773.460624
 20
52.451688
 30
0.0
 10
751.272917
 20
74.639452
 30
0.0
 10
762.657676
 20
86.024211
 30
0.0
 10
784.845383
 20
63.836476
 30
0.0
  0
LWPOLYLINE
  5
1bf
100
AcDbEntity
  8
Corte
 62
1
100
AcDbPolyline
 90
4
 70
1
 10
558.481068
 20
52.451575
 30
0.0
 10
580.668803
 20
74.639310
 30
0.0
 10
569.284016
 20
86.024098
 30
0.0
 10
547.096309
 20
63.836334
 30
0.0
  0
LWPOLYLINE
  5
1c0
100
AcDbEntity
  8
Corte
 62
1
100
AcDbPolyline
 90
4
 70
1
 10
558.480926
 20
289.192337
 30
0.0
 10
580.668661
 20
267.004573
 30
0.0
 10
569.283902
 20
255.619786
 30
0.0
 10
547.096167
 20
277.807550
 30
0.0
  0
LWPOLYLINE
  5
1c1
100
AcDbEntity
  8
Corte
 62
1
100
AcDbPolyline
 90
4
 70
1
 10
773.460737
 20
289.192139
 30
0.0
 10
751.273002
 20
267.004375
 30
0.0
 10
762.657761
 20
255.619587
 30
0.0
 10
784.845496
 20
277.807351
 30
0.0
  0
SPLINE
  5
1c2
100
AcDbEntity
  8
Corte
 62
1
100
AcDbSpline
 70
8
 71
3
 72
8
 73
4
 74
0
 40
0
 40
0
 40
0
 40
0
 40
1
 40
1
 40
1
 40
1
 10
555.174964
 20
124.242775
 30
0.0
 10
553.505641
 20
124.242831
 30
0.0
 10
552.152665
 20
122.889685
 30
0.0
 10
552.152665
 20
121.220532
 30
0.0
  0
SPLINE
  5
1c3
100
AcDbEntity
  8
Corte
 62
1
100
AcDbSpline
 70
8
 71
3
 72
8
 73
4
 74
0
 40
0
 40
0
 40
0
 40
0
 40
1
 40
1
 40
1
 40
1
 10
552.152665
 20
121.220532
 30
0.0
 10
552.152665
 20
119.551380
 30
0.0
 10
553.505641
 20
118.198261
 30
0.0
 10
555.174964
 20
118.198290
 30
0.0
  0
SPLINE
  5
1c4
100
AcDbEntity
  8
Corte
 62
1
100
AcDbSpline
 70
8
 71
3
 72
8
 73
4
 74
0
 40
0
 40
0
 40
0
 40
0
 40
1
 40
1
 40
1
 40
1
 10
555.174964
 20
118.198290
 30
0.0
 10
556.844003
 20
118.198261
 30
0.0
 10
558.196980
 20
119.551380
 30
0.0
 10
558.196980
 20
121.220532
 30
0.0
  0
SPLINE
  5
1c5
100
AcDbEntity
  8
Corte
 62
1
100
AcDbSpline
 70
8
 71
3
 72
8
 73
4
 74
0
 40
0
 40
0
 40
0
 40
0
 40
1
 40
1
 40
1
 40
1
 10
558.196980
 20
121.220532
 30
0.0
 10
558.196980
 20
122.889685
 30
0.0
 10
556.844003
 20
124.242831
 30
0.0
 10
555.174964
 20
124.242775
 30
0.0
  0
LWPOLYLINE
  5
1c6
100
AcDbEntity
  8
Corte
 62
1
100
AcDbPolyline
 90
4
 70
1
 10
731.643307
 20
164.976945
 30
0.0
 10
731.643307
 20
176.667591
 30
0.0
 10
739.438583
 20
176.667591
 30
0.0
 10
739.438583
 20
164.976945
 30
0.0
  0
SPLINE
  5
1c7
100
AcDbEntity
  8
Corte
 62
1
100
AcDbSpline
 70
8
 71
3
 72
8
 73
4
 74
0
 40
0
 40
0
 40
0
 40
0
 40
1
 40
1
 40
1
 40
1
 10
555.174964
 20
223.410302
 30
0.0
 10
553.505641
 20
223.410359
 30
0.0
 10
552.152665
 20
222.057213
 30
0.0
 10
552.152665
 20
220.388060
 30
0.0
  0
SPLINE
  5
1c8
100
AcDbEntity
  8
Corte
 62
1
100
AcDbSpline
 70
8
 71
3
 72
8
 73
4
 74
0
 40
0
 40
0
 40
0
 40
0
 40
1
 40
1
 40
1
 40
1
 10
552.152665
 20
220.388060
 30
0.0
 10
552.152665
 20
218.718907
 30
0.0
 10
553.505641
 20
217.365789
 30
0.0
 10
555.174964
 20
217.365817
 30
0.0
  0
SPLINE
  5
1c9
100
AcDbEntity
  8
Corte
 62
1
100
AcDbSpline
 70
8
 71
3
 72
8
 73
4
 74
0
 40
0
 40
0
 40
0
 40
0
 40
1
 40
1
 40
1
 40
1
 10
555.174964
 20
217.365817
 30
0.0
 10
556.844003
 20
217.365789
 30
0.0
 10
558.196980
 20
218.718907
 30
0.0
 10
558.196980
 20
220.388060
 30
0.0
  0
SPLINE
  5
1ca
100
AcDbEntity
  8
Corte
 62
1
100
AcDbSpline
 70
8
 71
3
 72
8
 73
4
 74
0
 40
0
 40
0
 40
0
 40
0
 40
1
 40
1
 40
1
 40
1
 10
558.196980
 20
220.388060
 30
0.0
 10
558.196980
 20
222.057213
 30
0.0
 10
556.844003
 20
223.410359
 30
0.0
 10
555.174964
 20
223.410302
 30
0.0
  0
LWPOLYLINE
  5
1cb
100
AcDbEntity
  8
Corte
 62
1
100
AcDbPolyline
 90
1
 70
1
 10
555.174964
 20
124.242775
 30
0.0
  0
LWPOLYLINE
  5
1cc
100
AcDbEntity
  8
Corte
 62
1
100
AcDbPolyline
 90
1
 70
1
 10
555.174964
 20
223.410302
 30
0.0
  0
LWPOLYLINE
  5
1cd
100
AcDbEntity
  8
Corte
 62
1
100
AcDbPolyline
 90
4
 70
1
 10
805.344095
 20
164.976945
 30
0.0
 10
805.344095
 20
176.667591
 30
0.0
 10
813.139370
 20
176.667591
 30
0.0
 10
813.139370
 20
164.976945
 30
0.0
  0
LWPOLYLINE
  5
1ce
100
AcDbEntity
  8
Corte
 62
1
100
AcDbPolyline
 90
4
 70
1
 10
757.509874
 20
537.183213
 30
0.0
 10
757.509874
 20
525.492567
 30
0.0
 10
749.716129
 20
525.492567
 30
0.0
 10
749.716129
 20
537.183213
 30
0.0
  0
LWPOLYLINE
  5
1cf
100
AcDbEntity
  8
Corte
 62
1
100
AcDbPolyline
 90
4
 70
1
 10
714.017254
 20
685.492325
 30
0.0
 10
725.711017
 20
685.492325
 30
0.0
 10
725.711017
 20
677.698580
 30
0.0
 10
714.017254
 20
677.698580
 30
0.0
  0
LWPOLYLINE
  5
1d0
100
AcDbEntity
  8
Corte
 62
1
100
AcDbPolyline
 90
4
 70
1
 10
542.611162
 20
627.914767
 30
0.0
 10
554.304926
 20
627.914767
 30
0.0
 10
554.304926
 20
620.121022
 30
0.0
 10
542.611162
 20
620.121022
 30
0.0
  0
LWPOLYLINE
  5
1d1
100
AcDbEntity
  8
Corte
 62
1
100
AcDbPolyline
 90
4
 70
1
 10
542.611162
 20
576.890974
 30
0.0
 10
554.304926
 20
576.890974
 30
0.0
 10
554.304926
 20
569.095671
 30
0.0
 10
542.611162
 20
569.095671
 30
0.0
  0
LWPOLYLINE
  5
1d2
100
AcDbEntity
  8
Corte
 62
1
100
AcDbPolyline
 90
4
 70
1
 10
605.814605
 20
632.875397
 30
0.0
 10
617.508369
 20
632.875397
 30
0.0
 10
617.508369
 20
625.081652
 30
0.0
 10
605.814605
 20
625.081652
 30
0.0
  0
LWPOLYLINE
  5
1d3
100
AcDbEntity
  8
Corte
 62
1
100
AcDbPolyline
 90
4
 70
1
 10
605.814605
 20
571.930345
 30
0.0
 10
617.508369
 20
571.930345
 30
0.0
 10
617.508369
 20
564.135041
 30
0.0
 10
605.814605
 20
564.135041
 30
0.0
  0
LWPOLYLINE
  5
1d4
100
AcDbEntity
  8
Corte
 62
1
100
AcDbPolyline
 90
4
 70
1
 10
712.585474
 20
632.875397
 30
0.0
 10
724.279238
 20
632.875397
 30
0.0
 10
724.279238
 20
625.081652
 30
0.0
 10
712.585474
 20
625.081652
 30
0.0
  0
LWPOLYLINE
  5
1d5
100
AcDbEntity
  8
Corte
 62
1
100
AcDbPolyline
 90
4
 70
1
 10
712.585474
 20
571.930345
 30
0.0
 10
724.279238
 20
571.930345
 30
0.0
 10
724.279238
 20
564.135041
 30
0.0
 10
712.585474
 20
564.135041
 30
0.0
  0
SPLINE
  5
1d6
100
AcDbEntity
  8
Corte
 62
1
100
AcDbSpline
 70
8
 71
3
 72
8
 73
4
 74
0
 40
0
 40
0
 40
0
 40
0
 40
1
 40
1
 40
1
 40
1
 10
687.514734
 20
463.815553
 30
0.0
 10
689.280576
 20
465.581480
 30
0.0
 10
692.143313
 20
465.581395
 30
0.0
 10
693.909014
 20
463.815723
 30
0.0
  0
SPLINE
  5
1d7
100
AcDbEntity
  8
Corte
 62
1
100
AcDbSpline
 70
8
 71
3
 72
8
 73
4
 74
0
 40
0
 40
0
 40
0
 40
0
 40
1
 40
1
 40
1
 40
1
 10
693.909014
 20
463.815723
 30
0.0
 10
695.674772
 20
462.049965
 30
0.0
 10
695.674857
 20
459.187200
 30
0.0
 10
693.908957
 20
457.421357
 30
0.0
  0
SPLINE
  5
1d8
100
AcDbEntity
  8
Corte
 62
1
100
AcDbSpline
 70
8
 71
3
 72
8
 73
4
 74
0
 40
0
 40
0
 40
0
 40
0
 40
1
 40
1
 40
1
 40
1
 10
693.908957
 20
457.421357
 30
0.0
 10
692.143313
 20
455.655657
 30
0.0
 10
689.280548
 20
455.655742
 30
0.0
 10
687.514791
 20
457.421499
 30
0.0
  0
SPLINE
  5
1d9
100
AcDbEntity
  8
Corte
 62
1
100
AcDbSpline
 70
8
 71
3
 72
8
 73
4
 74
0
 40
0
 40
0
 40
0
 40
0
 40
1
 40
1
 40
1
 40
1
 10
687.514791
 20
457.421499
 30
0.0
 10
685.749090
 20
459.187172
 30
0.0
 10
685.749033
 20
462.049909
 30
0.0
 10
687.514734
 20
463.815553
 30
0.0
  0
LWPOLYLINE
  5
1da
100
AcDbEntity
  8
Corte
 62
1
100
AcDbPolyline
 90
4
 70
1
 10
605.405509
 20
685.492325
 30
0.0
 10
617.099272
 20
685.492325
 30
0.0
 10
617.099272
 20
677.698580
 30
0.0
 10
605.405509
 20
677.698580
 30
0.0
  0
SPLINE
  5
1db
100
AcDbEntity
  8
Corte
 62
1
100
AcDbSpline
 70
8
 71
3
 72
8
 73
4
 74
0
 40
0
 40
0
 40
0
 40
0
 40
1
 40
1
 40
1
 40
1
 10
687.514677
 20
513.661238
 30
0.0
 10
689.280491
 20
515.427165
 30
0.0
 10
692.143257
 20
515.427080
 30
0.0
 10
693.909014
 20
513.661323
 30
0.0
  0
SPLINE
  5
1dc
100
AcDbEntity
  8
Corte
 62
1
100
AcDbSpline
 70
8
 71
3
 72
8
 73
4
 74
0
 40
0
 40
0
 40
0
 40
0
 40
1
 40
1
 40
1
 40
1
 10
693.909014
 20
513.661323
 30
0.0
 10
695.674743
 20
511.895594
 30
0.0
 10
695.674857
 20
509.032800
 30
0.0
 10
693.908901
 20
507.266986
 30
0.0
  0
SPLINE
  5
1dd
100
AcDbEntity
  8
Corte
 62
1
100
AcDbSpline
 70
8
 71
3
 72
8
 73
4
 74
0
 40
0
 40
0
 40
0
 40
0
 40
1
 40
1
 40
1
 40
1
 10
693.908901
 20
507.266986
 30
0.0
 10
692.143087
 20
505.502277
 30
0.0
 10
689.281087
 20
505.502816
 30
0.0
 10
687.515783
 20
507.268091
 30
0.0
  0
SPLINE
  5
1de
100
AcDbEntity
  8
Corte
 62
1
100
AcDbSpline
 70
8
 71
3
 72
8
 73
4
 74
0
 40
0
 40
0
 40
0
 40
0
 40
1
 40
1
 40
1
 40
1
 10
687.515783
 20
507.268091
 30
0.0
 10
685.750479
 20
509.033424
 30
0.0
 10
685.749969
 20
511.895395
 30
0.0
 10
687.514677
 20
513.661238
 30
0.0
  0
LWPOLYLINE
  5
1df
100
AcDbEntity
  8
Corte
 62
1
100
AcDbPolyline
 90
1
 70
1
 10
687.514734
 20
463.815553
 30
0.0
  0
SPLINE
  5
1e0
100
AcDbEntity
  8
Corte
 62
1
100
AcDbSpline
 70
8
 71
3
 72
8
 73
4
 74
0
 40
0
 40
0
 40
0
 40
0
 40
1
 40
1
 40
1
 40
1
 10
637.669247
 20
463.815836
 30
0.0
 10
639.434891
 20
465.581565
 30
0.0
 10
642.297657
 20
465.581452
 30
0.0
 10
644.063386
 20
463.815723
 30
0.0
  0
SPLINE
  5
1e1
100
AcDbEntity
  8
Corte
 62
1
100
AcDbSpline
 70
8
 71
3
 72
8
 73
4
 74
0
 40
0
 40
0
 40
0
 40
0
 40
1
 40
1
 40
1
 40
1
 10
644.063386
 20
463.815723
 30
0.0
 10
645.829143
 20
462.049994
 30
0.0
 10
645.829228
 20
459.187200
 30
0.0
 10
644.063499
 20
457.421584
 30
0.0
  0
SPLINE
  5
1e2
100
AcDbEntity
  8
Corte
 62
1
100
AcDbSpline
 70
8
 71
3
 72
8
 73
4
 74
0
 40
0
 40
0
 40
0
 40
0
 40
1
 40
1
 40
1
 40
1
 10
644.063499
 20
457.421584
 30
0.0
 10
642.297685
 20
455.655657
 30
0.0
 10
639.434891
 20
455.655770
 30
0.0
 10
637.669162
 20
457.421499
 30
0.0
  0
SPLINE
  5
1e3
100
AcDbEntity
  8
Corte
 62
1
100
AcDbSpline
 70
8
 71
3
 72
8
 73
4
 74
0
 40
0
 40
0
 40
0
 40
0
 40
1
 40
1
 40
1
 40
1
 10
637.669162
 20
457.421499
 30
0.0
 10
635.903405
 20
459.187257
 30
0.0
 10
635.903348
 20
462.049994
 30
0.0
 10
637.669247
 20
463.815836
 30
0.0
  0
LWPOLYLINE
  5
1e4
100
AcDbEntity
  8
Corte
 62
1
100
AcDbPolyline
 90
1
 70
1
 10
687.514677
 20
513.661238
 30
0.0
  0
SPLINE
  5
1e5
100
AcDbEntity
  8
Corte
 62
1
100
AcDbSpline
 70
8
 71
3
 72
8
 73
4
 74
0
 40
0
 40
0
 40
0
 40
0
 40
1
 40
1
 40
1
 40
1
 10
637.669049
 20
513.661238
 30
0.0
 10
639.434891
 20
515.427165
 30
0.0
 10
642.297628
 20
515.427080
 30
0.0
 10
644.063386
 20
513.661351
 30
0.0
  0
SPLINE
  5
1e6
100
AcDbEntity
  8
Corte
 62
1
100
AcDbSpline
 70
8
 71
3
 72
8
 73
4
 74
0
 40
0
 40
0
 40
0
 40
0
 40
1
 40
1
 40
1
 40
1
 10
644.063386
 20
513.661351
 30
0.0
 10
645.829087
 20
511.895622
 30
0.0
 10
645.829172
 20
509.032885
 30
0.0
 10
644.063244
 20
507.267043
 30
0.0
  0
SPLINE
  5
1e7
100
AcDbEntity
  8
Corte
 62
1
100
AcDbSpline
 70
8
 71
3
 72
8
 73
4
 74
0
 40
0
 40
0
 40
0
 40
0
 40
1
 40
1
 40
1
 40
1
 10
644.063244
 20
507.267043
 30
0.0
 10
642.297600
 20
505.501342
 30
0.0
 10
639.434863
 20
505.501398
 30
0.0
 10
637.669134
 20
507.267128
 30
0.0
  0
SPLINE
  5
1e8
100
AcDbEntity
  8
Corte
 62
1
100
AcDbSpline
 70
8
 71
3
 72
8
 73
4
 74
0
 40
0
 40
0
 40
0
 40
0
 40
1
 40
1
 40
1
 40
1
 10
637.669134
 20
507.267128
 30
0.0
 10
635.903405
 20
509.032857
 30
0.0
 10
635.903320
 20
511.895622
 30
0.0
 10
637.669049
 20
513.661238
 30
0.0
  0
LWPOLYLINE
  5
1e9
100
AcDbEntity
  8
Corte
 62
1
100
AcDbPolyline
 90
1
 70
1
 10
637.669247
 20
463.815836
 30
0.0
  0
SPLINE
  5
1ea
100
AcDbEntity
  8
Corte
 62
1
100
AcDbSpline
 70
8
 71
3
 72
8
 73
4
 74
0
 40
0
 40
0
 40
0
 40
0
 40
1
 40
1
 40
1
 40
1
 10
833.385203
 20
998.440033
 30
0.0
 10
835.733424
 20
998.439951
 30
0.0
 10
837.637172
 20
1000.343662
 30
0.0
 10
837.637172
 20
1002.691996
 30
0.0
  0
SPLINE
  5
1eb
100
AcDbEntity
  8
Corte
 62
1
100
AcDbSpline
 70
8
 71
3
 72
8
 73
4
 74
0
 40
0
 40
0
 40
0
 40
0
 40
1
 40
1
 40
1
 40
1
 10
837.637172
 20
1002.691996
 30
0.0
 10
837.637172
 20
1005.040301
 30
0.0
 10
835.733424
 20
1006.944021
 30
0.0
 10
833.385203
 20
1006.943964
 30
0.0
  0
SPLINE
  5
1ec
100
AcDbEntity
  8
Corte
 62
1
100
AcDbSpline
 70
8
 71
3
 72
8
 73
4
 74
0
 40
0
 40
0
 40
0
 40
0
 40
1
 40
1
 40
1
 40
1
 10
833.385203
 20
1006.943964
 30
0.0
 10
831.036699
 20
1006.944021
 30
0.0
 10
829.132951
 20
1005.040301
 30
0.0
 10
829.133235
 20
1002.691996
 30
0.0
  0
SPLINE
  5
1ed
100
AcDbEntity
  8
Corte
 62
1
100
AcDbSpline
 70
8
 71
3
 72
8
 73
4
 74
0
 40
0
 40
0
 40
0
 40
0
 40
1
 40
1
 40
1
 40
1
 10
829.133235
 20
1002.691996
 30
0.0
 10
829.132951
 20
1000.343662
 30
0.0
 10
831.036699
 20
998.439979
 30
0.0
 10
833.385203
 20
998.440033
 30
0.0
  0
LWPOLYLINE
  5
1ee
100
AcDbEntity
  8
Corte
 62
1
100
AcDbPolyline
 90
1
 70
1
 10
637.669049
 20
513.661238
 30
0.0
  0
LWPOLYLINE
  5
1ef
100
AcDbEntity
  8
Corte
 62
1
100
AcDbPolyline
 90
1
 70
1
 10
833.385203
 20
998.440033
 30
0.0
  0
LWPOLYLINE
  5
1f0
100
AcDbEntity
  8
Corte
 62
1
100
AcDbPolyline
 90
4
 70
1
 10
825.046526
 20
970.093579
 30
0.0
 10
836.385109
 20
970.093579
 30
0.0
 10
836.385109
 20
981.432162
 30
0.0
 10
825.046526
 20
981.432162
 30
0.0
  0
SPLINE
  5
1f1
100
AcDbEntity
  8
Corte
 62
1
100
AcDbSpline
 70
8
 71
3
 72
8
 73
4
 74
0
 40
0
 40
0
 40
0
 40
0
 40
1
 40
1
 40
1
 40
1
 10
472.287912
 20
59.145642
 30
0.0
 10
474.636132
 20
59.145724
 30
0.0
 10
476.539880
 20
57.242013
 30
0.0
 10
476.539880
 20
54.893679
 30
0.0
  0
SPLINE
  5
1f2
100
AcDbEntity
  8
Corte
 62
1
100
AcDbSpline
 70
8
 71
3
 72
8
 73
4
 74
0
 40
0
 40
0
 40
0
 40
0
 40
1
 40
1
 40
1
 40
1
 10
476.539880
 20
54.893679
 30
0.0
 10
476.539880
 20
52.545373
 30
0.0
 10
474.636132
 20
50.641654
 30
0.0
 10
472.287912
 20
50.641710
 30
0.0
  0
SPLINE
  5
1f3
100
AcDbEntity
  8
Corte
 62
1
100
AcDbSpline
 70
8
 71
3
 72
8
 73
4
 74
0
 40
0
 40
0
 40
0
 40
0
 40
1
 40
1
 40
1
 40
1
 10
472.287912
 20
50.641710
 30
0.0
 10
469.939408
 20
50.641654
 30
0.0
 10
468.035660
 20
52.545373
 30
0.0
 10
468.035943
 20
54.893679
 30
0.0
  0
SPLINE
  5
1f4
100
AcDbEntity
  8
Corte
 62
1
100
AcDbSpline
 70
8
 71
3
 72
8
 73
4
 74
0
 40
0
 40
0
 40
0
 40
0
 40
1
 40
1
 40
1
 40
1
 10
468.035943
 20
54.893679
 30
0.0
 10
468.035660
 20
57.242013
 30
0.0
 10
469.939408
 20
59.145695
 30
0.0
 10
472.287912
 20
59.145642
 30
0.0
  0
LWPOLYLINE
  5
1f5
100
AcDbEntity
  8
Corte
 62
1
100
AcDbPolyline
 90
12
 70
1
 10
838.276951
 20
1018.440692
 30
0.0
 10
838.276951
 20
1014.543054
 30
0.0
 10
853.867502
 20
1014.543054
 30
0.0
 10
853.867502
 20
967.771437
 30
0.0
 10
838.276951
 20
967.771437
 30
0.0
 10
838.276951
 20
963.873717
 30
0.0
 10
481.523981
 20
963.873743
 30
0.0
 10
481.523981
 20
983.361932
 30
0.0
 10
806.384920
 20
983.361932
 30
0.0
 10
806.384920
 20
998.952474
 30
0.0
 10
481.523981
 20
998.952474
 30
0.0
 10
481.523981
 20
1018.440663
 30
0.0
  0
LWPOLYLINE
  5
1f6
100
AcDbEntity
  8
Corte
 62
1
100
AcDbPolyline
 90
1
 70
1
 10
472.287912
 20
59.145642
 30
0.0
  0
LWPOLYLINE
  5
1f7
100
AcDbEntity
  8
Corte
 62
1
100
AcDbPolyline
 90
4
 70
1
 10
463.949235
 20
87.492095
 30
0.0
 10
475.287817
 20
87.492095
 30
0.0
 10
475.287817
 20
76.153513
 30
0.0
 10
463.949235
 20
76.153513
 30
0.0
  0
SPLINE
  5
1f8
100
AcDbEntity
  8
Corte
 62
1
100
AcDbSpline
 70
8
 71
3
 72
8
 73
4
 74
0
 40
0
 40
0
 40
0
 40
0
 40
1
 40
1
 40
1
 40
1
 10
868.109046
 20
60.062366
 30
0.0
 10
865.760825
 20
60.062448
 30
0.0
 10
863.857077
 20
58.158737
 30
0.0
 10
863.857077
 20
55.810403
 30
0.0
  0
SPLINE
  5
1f9
100
AcDbEntity
  8
Corte
 62
1
100
AcDbSpline
 70
8
 71
3
 72
8
 73
4
 74
0
 40
0
 40
0
 40
0
 40
0
 40
1
 40
1
 40
1
 40
1
 10
863.857077
 20
55.810403
 30
0.0
 10
863.857077
 20
53.462098
 30
0.0
 10
865.760825
 20
51.558378
 30
0.0
 10
868.109046
 20
51.558435
 30
0.0
  0
SPLINE
  5
1fa
100
AcDbEntity
  8
Corte
 62
1
100
AcDbSpline
 70
8
 71
3
 72
8
 73
4
 74
0
 40
0
 40
0
 40
0
 40
0
 40
1
 40
1
 40
1
 40
1
 10
868.109046
 20
51.558435
 30
0.0
 10
870.457550
 20
51.558378
 30
0.0
 10
872.361298
 20
53.462098
 30
0.0
 10
872.361014
 20
55.810403
 30
0.0
  0
SPLINE
  5
1fb
100
AcDbEntity
  8
Corte
 62
1
100
AcDbSpline
 70
8
 71
3
 72
8
 73
4
 74
0
 40
0
 40
0
 40
0
 40
0
 40
1
 40
1
 40
1
 40
1
 10
872.361014
 20
55.810403
 30
0.0
 10
872.361298
 20
58.158737
 30
0.0
 10
870.457550
 20
60.062420
 30
0.0
 10
868.109046
 20
60.062366
 30
0.0
  0
LWPOLYLINE
  5
1fc
100
AcDbEntity
  8
Corte
 62
1
100
AcDbPolyline
 90
12
 70
1
 10
477.179660
 20
39.144983
 30
0.0
 10
477.179660
 20
43.042620
 30
0.0
 10
492.770211
 20
43.042620
 30
0.0
 10
492.770211
 20
89.814237
 30
0.0
 10
477.179660
 20
89.814237
 30
0.0
 10
477.179660
 20
93.711957
 30
0.0
 10
120.426690
 20
93.711932
 30
0.0
 10
120.426690
 20
74.223743
 30
0.0
 10
445.287628
 20
74.223743
 30
0.0
 10
445.287628
 20
58.633200
 30
0.0
 10
120.426690
 20
58.633200
 30
0.0
 10
120.426690
 20
39.145011
 30
0.0
  0
LWPOLYLINE
  5
1fd
100
AcDbEntity
  8
Corte
 62
1
100
AcDbPolyline
 90
1
 70
1
 10
868.109046
 20
60.062366
 30
0.0
  0
LWPOLYLINE
  5
1fe
100
AcDbEntity
  8
Corte
 62
1
100
AcDbPolyline
 90
4
 70
1
 10
876.447723
 20
88.408820
 30
0.0
 10
865.109140
 20
88.408820
 30
0.0
 10
865.109140
 20
77.070237
 30
0.0
 10
876.447723
 20
77.070237
 30
0.0
  0
LWPOLYLINE
  5
1ff
100
AcDbEntity
  8
Corte
 62
1
100
AcDbPolyline
 90
12
 70
1
 10
863.217298
 20
40.061707
 30
0.0
 10
863.217298
 20
43.959345
 30
0.0
 10
847.626746
 20
43.959345
 30
0.0
 10
847.626746
 20
90.730962
 30
0.0
 10
863.217298
 20
90.730962
 30
0.0
 10
863.217298
 20
94.628682
 30
0.0
 10
1219.970268
 20
94.628656
 30
0.0
 10
1219.970268
 20
75.140467
 30
0.0
 10
895.109329
 20
75.140467
 30
0.0
 10
895.109329
 20
59.549924
 30
0.0
 10
1219.970268
 20
59.549924
 30
0.0
 10
1219.970268
 20
40.061735
 30
0.0
  0
LWPOLYLINE
  5
200
100
AcDbEntity
  8
Corte
 62
1
100
AcDbPolyline
 90
4
 70
1
 10
49.931666
 20
674.606353
 30
0.0
 10
49.931666
 20
662.915707
 30
0.0
 10
57.725524
 20
662.915735
 30
0.0
 10
57.725524
 20
674.606381
 30
0.0
  0
LWPOLYLINE
  5
201
100
AcDbEntity
  8
Corte
 62
1
100
AcDbPolyline
 90
4
 70
1
 10
49.931666
 20
1003.136873
 30
0.0
 10
49.931666
 20
991.446231
 30
0.0
 10
57.725524
 20
991.446259
 30
0.0
 10
57.725524
 20
1003.136902
 30
0.0
  0
LWPOLYLINE
  5
202
100
AcDbEntity
  8
Corte
 62
1
100
AcDbPolyline
 90
4
 70
1
 10
104.748891
 20
947.454608
 30
0.0
 10
104.748891
 20
959.145253
 30
0.0
 10
112.542749
 20
959.145225
 30
0.0
 10
112.542749
 20
947.454579
 30
0.0
  0
LWPOLYLINE
  5
203
100
AcDbEntity
  8
Corte
 62
1
100
AcDbPolyline
 90
4
 70
1
 10
154.505676
 20
1039.932184
 30
0.0
 10
164.942841
 20
1039.932184
 30
0.0
 10
164.942841
 20
1034.347102
 30
0.0
 10
154.505676
 20
1034.347102
 30
0.0
  0
LWPOLYLINE
  5
204
100
AcDbEntity
  8
Corte
 62
5
100
AcDbPolyline
 90
2
 70
0
 10
57.938689
 20
609.021309
 30
0.0
 10
57.938689
 20
590.240364
 30
0.0
  0
LWPOLYLINE
  5
205
100
AcDbEntity
  8
Corte
 62
1
100
AcDbPolyline
 90
4
 70
1
 10
49.931666
 20
493.770416
 30
0.0
 10
49.931666
 20
505.461061
 30
0.0
 10
57.725524
 20
505.461033
 30
0.0
 10
57.725524
 20
493.770387
 30
0.0
  0
LWPOLYLINE
  5
206
100
AcDbEntity
  8
Corte
 62
1
100
AcDbPolyline
 90
4
 70
1
 10
49.931666
 20
165.239915
 30
0.0
 10
49.931666
 20
176.930561
 30
0.0
 10
57.725524
 20
176.930532
 30
0.0
 10
57.725524
 20
165.239887
 30
0.0
  0
LWPOLYLINE
  5
207
100
AcDbEntity
  8
Corte
 62
1
100
AcDbPolyline
 90
4
 70
1
 10
104.748891
 20
220.922164
 30
0.0
 10
104.748891
 20
209.231518
 30
0.0
 10
112.542749
 20
209.231546
 30
0.0
 10
112.542749
 20
220.922192
 30
0.0
  0
LWPOLYLINE
  5
208
100
AcDbEntity
  8
Corte
 62
1
100
AcDbPolyline
 90
4
 70
1
 10
154.505676
 20
128.444598
 30
0.0
 10
164.942841
 20
128.444598
 30
0.0
 10
164.942841
 20
134.029672
 30
0.0
 10
154.505676
 20
134.029672
 30
0.0
  0
LWPOLYLINE
  5
209
100
AcDbEntity
  8
Corte
 62
5
100
AcDbPolyline
 90
2
 70
0
 10
57.938689
 20
559.355462
 30
0.0
 10
57.938689
 20
578.136404
 30
0.0
  0
LWPOLYLINE
  5
20a
100
AcDbEntity
  8
Corte
 62
1
100
AcDbPolyline
 90
36
 70
1
 10
383.534079
 20
589.905111
 30
0.0
 10
27.076769
 20
589.905111
 30
0.0
 10
27.076769
 20
593.802011
 30
0.0
 10
11.487641
 20
593.802011
 30
0.0
 10
11.487641
 20
609.392648
 30
0.0
 10
58.258154
 20
609.392648
 30
0.0
 10
58.258154
 20
624.983284
 30
0.0
 10
11.487641
 20
624.983284
 30
0.0
 10
11.487641
 20
640.575439
 30
0.0
 10
27.076769
 20
640.575439
 30
0.0
 10
27.076769
 20
796.480157
 30
0.0
 10
11.486223
 20
796.480157
 30
0.0
 10
11.486223
 20
819.866068
 30
0.0
 10
27.076769
 20
819.866068
 30
0.0
 10
27.076769
 20
878.619178
 30
0.0
 10
27.076769
 20
947.686399
 30
0.0
 10
34.872043
 20
947.686399
 30
0.0
 10
34.872043
 20
959.378547
 30
0.0
 10
27.076769
 20
959.378547
 30
0.0
 10
27.076769
 20
1025.637993
 30
0.0
 10
11.486223
 20
1025.637993
 30
0.0
 10
11.486223
 20
1049.023905
 30
0.0
 10
27.076769
 20
1049.023905
 30
0.0
 10
27.076769
 20
1055.932999
 30
0.0
 10
142.834008
 20
1055.932999
 30
0.0
 10
142.834008
 20
1048.967666
 30
0.0
 10
176.799467
 20
1048.967666
 30
0.0
 10
176.799467
 20
1017.730012
 30
0.0
 10
164.942841
 20
1017.730012
 30
0.0
 10
164.942841
 20
1024.932175
 30
0.0
 10
154.505874
 20
1024.932175
 30
0.0
 10
154.505475
 20
1017.730012
 30
0.0
 10
142.834008
 20
1017.730012
 30
0.0
 10
142.834975
 20
879.875266
 30
0.0
 10
336.446362
 20
644.472312
 30
0.0
 10
383.534079
 20
644.472312
 30
0.0
  0
LWPOLYLINE
  5
20b
100
AcDbEntity
  8
Corte
 62
1
100
AcDbPolyline
 90
3
 70
1
 10
275.934098
 20
644.472312
 30
0.0
 10
89.439256
 20
872.692274
 30
0.0
 10
89.439256
 20
644.472312
 30
0.0
  0
LWPOLYLINE
  5
20c
100
AcDbEntity
  8
Corte
 62
1
100
AcDbPolyline
 90
36
 70
1
 10
383.534079
 20
578.471658
 30
0.0
 10
27.076769
 20
578.471658
 30
0.0
 10
27.076769
 20
574.574757
 30
0.0
 10
11.487641
 20
574.574757
 30
0.0
 10
11.487641
 20
558.984124
 30
0.0
 10
58.258154
 20
558.984124
 30
0.0
 10
58.258154
 20
543.393496
 30
0.0
 10
11.487641
 20
543.393496
 30
0.0
 10
11.487641
 20
527.801329
 30
0.0
 10
27.076769
 20
527.801329
 30
0.0
 10
27.076769
 20
371.896611
 30
0.0
 10
11.486223
 20
371.896611
 30
0.0
 10
11.486223
 20
348.510699
 30
0.0
 10
27.076769
 20
348.510699
 30
0.0
 10
27.076769
 20
289.757594
 30
0.0
 10
27.076769
 20
220.690375
 30
0.0
 10
34.872043
 20
220.690375
 30
0.0
 10
34.872043
 20
208.998227
 30
0.0
 10
27.076769
 20
208.998227
 30
0.0
 10
27.076769
 20
142.738781
 30
0.0
 10
11.486223
 20
142.738781
 30
0.0
 10
11.486223
 20
119.352869
 30
0.0
 10
27.076769
 20
119.352869
 30
0.0
 10
27.076769
 20
112.443789
 30
0.0
 10
142.834008
 20
112.443789
 30
0.0
 10
142.834008
 20
119.409109
 30
0.0
 10
176.799467
 20
119.409109
 30
0.0
 10
176.799467
 20
150.646762
 30
0.0
 10
164.942841
 20
150.646762
 30
0.0
 10
164.942841
 20
143.444608
 30
0.0
 10
154.505874
 20
143.444608
 30
0.0
 10
154.505475
 20
150.646762
 30
0.0
 10
142.834008
 20
150.646762
 30
0.0
 10
142.834975
 20
288.501506
 30
0.0
 10
336.446362
 20
523.904457
 30
0.0
 10
383.534079
 20
523.904457
 30
0.0
  0
LWPOLYLINE
  5
20d
100
AcDbEntity
  8
Corte
 62
1
100
AcDbPolyline
 90
3
 70
1
 10
275.934098
 20
523.904457
 30
0.0
 10
89.439256
 20
295.684498
 30
0.0
 10
89.439256
 20
523.904457
 30
0.0
  0
LWPOLYLINE
  5
20e
100
AcDbEntity
  8
Corte
 62
1
100
AcDbPolyline
 90
36
 70
1
 10
947.483688
 20
589.905111
 30
0.0
 10
1303.940920
 20
589.905111
 30
0.0
 10
1303.940920
 20
593.802011
 30
0.0
 10
1319.530054
 20
593.802011
 30
0.0
 10
1319.530054
 20
609.392648
 30
0.0
 10
1272.759562
 20
609.392648
 30
0.0
 10
1272.759562
 20
624.983284
 30
0.0
 10
1319.530054
 20
624.983284
 30
0.0
 10
1319.530054
 20
640.575439
 30
0.0
 10
1303.940920
 20
640.575439
 30
0.0
 10
1303.940920
 20
796.480157
 30
0.0
 10
1319.531471
 20
796.480157
 30
0.0
 10
1319.531471
 20
819.866068
 30
0.0
 10
1303.940920
 20
819.866068
 30
0.0
 10
1303.940920
 20
878.619178
 30
0.0
 10
1303.940920
 20
947.686399
 30
0.0
 10
1296.145672
 20
947.686399
 30
0.0
 10
1296.145672
 20
959.378547
 30
0.0
 10
1303.940920
 20
959.378547
 30
0.0
 10
1303.940920
 20
1025.637993
 30
0.0
 10
1319.531471
 20
1025.637993
 30
0.0
 10
1319.531471
 20
1049.023905
 30
0.0
 10
1303.940920
 20
1049.023905
 30
0.0
 10
1303.940920
 20
1055.932999
 30
0.0
 10
1188.183685
 20
1055.932999
 30
0.0
 10
1188.183685
 20
1048.967666
 30
0.0
 10
1154.218252
 20
1048.967666
 30
0.0
 10
1154.218252
 20
1017.730012
 30
0.0
 10
1166.074866
 20
1017.730012
 30
0.0
 10
1166.074866
 20
1024.932175
 30
0.0
 10
1176.511833
 20
1024.932175
 30
0.0
 10
1176.512230
 20
1017.730012
 30
0.0
 10
1188.183685
 20
1017.730012
 30
0.0
 10
1188.182721
 20
879.875266
 30
0.0
 10
994.571405
 20
644.472312
 30
0.0
 10
947.483688
 20
644.472312
 30
0.0
  0
LWPOLYLINE
  5
20f
100
AcDbEntity
  8
Corte
 62
1
100
AcDbPolyline
 90
3
 70
1
 10
1055.083606
 20
644.472312
 30
0.0
 10
1241.578460
 20
872.692274
 30
0.0
 10
1241.578460
 20
644.472312
 30
0.0
  0
LWPOLYLINE
  5
210
100
AcDbEntity
  8
Corte
 62
1
100
AcDbPolyline
 90
36
 70
1
 10
947.485644
 20
578.471658
 30
0.0
 10
1303.942876
 20
578.471658
 30
0.0
 10
1303.942876
 20
574.574757
 30
0.0
 10
1319.532009
 20
574.574757
 30
0.0
 10
1319.532009
 20
558.984124
 30
0.0
 10
1272.761518
 20
558.984124
 30
0.0
 10
1272.761518
 20
543.393496
 30
0.0
 10
1319.532009
 20
543.393496
 30
0.0
 10
1319.532009
 20
527.801329
 30
0.0
 10
1303.942876
 20
527.801329
 30
0.0
 10
1303.942876
 20
371.896611
 30
0.0
 10
1319.533427
 20
371.896611
 30
0.0
 10
1319.533427
 20
348.510699
 30
0.0
 10
1303.942876
 20
348.510699
 30
0.0
 10
1303.942876
 20
289.757594
 30
0.0
 10
1303.942876
 20
220.690375
 30
0.0
 10
1296.147628
 20
220.690375
 30
0.0
 10
1296.147628
 20
208.998227
 30
0.0
 10
1303.942876
 20
208.998227
 30
0.0
 10
1303.942876
 20
142.738781
 30
0.0
 10
1319.533427
 20
142.738781
 30
0.0
 10
1319.533427
 20
119.352869
 30
0.0
 10
1303.942876
 20
119.352869
 30
0.0
 10
1303.942876
 20
112.443789
 30
0.0
 10
1188.185641
 20
112.443789
 30
0.0
 10
1188.185641
 20
119.409109
 30
0.0
 10
1154.220208
 20
119.409109
 30
0.0
 10
1154.220208
 20
150.646762
 30
0.0
 10
1166.076822
 20
150.646762
 30
0.0
 10
1166.076822
 20
143.444608
 30
0.0
 10
1176.513789
 20
143.444608
 30
0.0
 10
1176.514186
 20
150.646762
 30
0.0
 10
1188.185641
 20
150.646762
 30
0.0
 10
1188.184677
 20
288.501506
 30
0.0
 10
994.573361
 20
523.904457
 30
0.0
 10
947.485644
 20
523.904457
 30
0.0
  0
LWPOLYLINE
  5
211
100
AcDbEntity
  8
Corte
 62
1
100
AcDbPolyline
 90
3
 70
1
 10
1055.085562
 20
523.904457
 30
0.0
 10
1241.580416
 20
295.684498
 30
0.0
 10
1241.580416
 20
523.904457
 30
0.0
  0
LWPOLYLINE
  5
212
100
AcDbEntity
  8
Corte
 62
1
100
AcDbPolyline
 90
4
 70
1
 10
1281.086050
 20
674.606353
 30
0.0
 10
1281.086050
 20
662.915707
 30
0.0
 10
1273.292192
 20
662.915735
 30
0.0
 10
1273.292192
 20
674.606381
 30
0.0
  0
LWPOLYLINE
  5
213
100
AcDbEntity
  8
Corte
 62
1
100
AcDbPolyline
 90
4
 70
1
 10
1281.086050
 20
1003.136873
 30
0.0
 10
1281.086050
 20
991.446231
 30
0.0
 10
1273.292192
 20
991.446259
 30
0.0
 10
1273.292192
 20
1003.136902
 30
0.0
  0
LWPOLYLINE
  5
214
100
AcDbEntity
  8
Corte
 62
1
100
AcDbPolyline
 90
4
 70
1
 10
1226.268822
 20
947.454608
 30
0.0
 10
1226.268822
 20
959.145253
 30
0.0
 10
1218.474964
 20
959.145225
 30
0.0
 10
1218.474964
 20
947.454579
 30
0.0
  0
LWPOLYLINE
  5
215
100
AcDbEntity
  8
Corte
 62
1
100
AcDbPolyline
 90
4
 70
1
 10
1176.512032
 20
1039.932184
 30
0.0
 10
1166.074866
 20
1039.932184
 30
0.0
 10
1166.074866
 20
1034.347102
 30
0.0
 10
1176.512032
 20
1034.347102
 30
0.0
  0
LWPOLYLINE
  5
216
100
AcDbEntity
  8
Corte
 62
5
100
AcDbPolyline
 90
2
 70
0
 10
1273.079027
 20
609.021309
 30
0.0
 10
1273.079027
 20
590.240364
 30
0.0
  0
LWPOLYLINE
  5
217
100
AcDbEntity
  8
Corte
 62
1
100
AcDbPolyline
 90
4
 70
1
 10
1281.088006
 20
493.770416
 30
0.0
 10
1281.088006
 20
505.461061
 30
0.0
 10
1273.294148
 20
505.461033
 30
0.0
 10
1273.294148
 20
493.770387
 30
0.0
  0
LWPOLYLINE
  5
218
100
AcDbEntity
  8
Corte
 62
1
100
AcDbPolyline
 90
4
 70
1
 10
1281.088006
 20
165.239915
 30
0.0
 10
1281.088006
 20
176.930561
 30
0.0
 10
1273.294148
 20
176.930532
 30
0.0
 10
1273.294148
 20
165.239887
 30
0.0
  0
LWPOLYLINE
  5
219
100
AcDbEntity
  8
Corte
 62
1
100
AcDbPolyline
 90
4
 70
1
 10
1226.270778
 20
220.922164
 30
0.0
 10
1226.270778
 20
209.231518
 30
0.0
 10
1218.476920
 20
209.231546
 30
0.0
 10
1218.476920
 20
220.922192
 30
0.0
  0
LWPOLYLINE
  5
21a
100
AcDbEntity
  8
Corte
 62
1
100
AcDbPolyline
 90
4
 70
1
 10
1176.513987
 20
128.444598
 30
0.0
 10
1166.076822
 20
128.444598
 30
0.0
 10
1166.076822
 20
134.029672
 30
0.0
 10
1176.513987
 20
134.029672
 30
0.0
  0
LWPOLYLINE
  5
21b
100
AcDbEntity
  8
Corte
 62
5
100
AcDbPolyline
 90
2
 70
0
 10
1273.080983
 20
559.355462
 30
0.0
 10
1273.080983
 20
578.136404
 30
0.0
  0
LWPOLYLINE
  5
21c
100
AcDbEntity
  8
Grabado
 62
5
100
AcDbPolyline
 90
2
 70
0
 10
665.065956
 20
598.522354
 30
0.0
 10
756.028885
 20
689.461461
 30
0.0
  0
LWPOLYLINE
  5
21d
100
AcDbEntity
  8
Grabado
 62
5
100
AcDbPolyline
 90
2
 70
0
 10
574.126554
 20
507.566154
 30
0.0
 10
665.066239
 20
598.521900
 30
0.0
  0
LWPOLYLINE
  5
21e
100
AcDbEntity
  8
Grabado
 62
5
100
AcDbPolyline
 90
2
 70
0
 10
665.065956
 20
598.522354
 30
0.0
 10
574.125704
 20
689.442554
 30
0.0
  0
LWPOLYLINE
  5
21f
100
AcDbEntity
  8
Grabado
 62
5
100
AcDbPolyline
 90
2
 70
0
 10
756.028885
 20
507.549855
 30
0.0
 10
665.065106
 20
598.521617
 30
0.0
  0
LWPOLYLINE
  5
220
100
AcDbEntity
  8
Grabado
 62
5
100
AcDbPolyline
 90
2
 70
0
 10
665.069074
 20
655.174760
 30
0.0
 10
665.069074
 20
542.307628
 30
0.0
  0
LWPOLYLINE
  5
221
100
AcDbEntity
  8
Grabado
 62
5
100
AcDbPolyline
 90
2
 70
0
 10
506.700255
 20
598.515352
 30
0.0
 10
823.508731
 20
598.515352
 30
0.0
  0
LWPOLYLINE
  5
222
100
AcDbEntity
  8
Grabado
 62
5
100
AcDbPolyline
 90
2
 70
0
 10
395.616444
 20
868.555527
 30
0.0
 10
285.371915
 20
978.795972
 30
0.0
  0
LWPOLYLINE
  5
223
100
AcDbEntity
  8
Grabado
 62
5
100
AcDbPolyline
 90
2
 70
0
 10
335.100132
 20
944.626394
 30
0.0
 10
319.509581
 20
929.035786
 30
0.0
  0
LWPOLYLINE
  5
224
100
AcDbEntity
  8
Grabado
 62
5
100
AcDbPolyline
 90
3
 70
0
 10
319.509581
 20
936.831090
 30
0.0
 10
319.509581
 20
929.035786
 30
0.0
 10
327.304857
 20
929.035814
 30
0.0
  0
LWPOLYLINE
  5
225
100
AcDbEntity
  8
Grabado
 62
5
100
AcDbPolyline
 90
4
 70
1
 10
342.895011
 20
929.036086
 30
0.0
 10
346.792649
 20
929.036086
 30
0.0
 10
346.792649
 20
925.138449
 30
0.0
 10
342.895011
 20
925.138449
 30
0.0
  0
LWPOLYLINE
  5
226
100
AcDbEntity
  8
Grabado
 62
5
100
AcDbPolyline
 90
4
 70
1
 10
335.099735
 20
921.240811
 30
0.0
 10
338.997373
 20
921.240811
 30
0.0
 10
338.997373
 20
917.343173
 30
0.0
 10
335.099735
 20
917.343173
 30
0.0
  0
LWPOLYLINE
  5
227
100
AcDbEntity
  8
Grabado
 62
5
100
AcDbPolyline
 90
4
 70
1
 10
342.895011
 20
913.445535
 30
0.0
 10
346.792649
 20
913.445535
 30
0.0
 10
346.792649
 20
909.547897
 30
0.0
 10
342.895011
 20
909.547897
 30
0.0
  0
LWPOLYLINE
  5
228
100
AcDbEntity
  8
Grabado
 62
5
100
AcDbPolyline
 90
2
 70
0
 10
557.740885
 20
706.431152
 30
0.0
 10
412.159720
 20
852.008339
 30
0.0
  0
LWPOLYLINE
  5
229
100
AcDbEntity
  8
Grabado
 62
5
100
AcDbPolyline
 90
2
 70
0
 10
934.823310
 20
327.961786
 30
0.0
 10
1045.067783
 20
217.721339
 30
0.0
  0
LWPOLYLINE
  5
22a
100
AcDbEntity
  8
Grabado
 62
5
100
AcDbPolyline
 90
2
 70
0
 10
995.339594
 20
251.890838
 30
0.0
 10
1010.930145
 20
267.481417
 30
0.0
  0
LWPOLYLINE
  5
22b
100
AcDbEntity
  8
Grabado
 62
5
100
AcDbPolyline
 90
3
 70
0
 10
1010.929861
 20
259.686227
 30
0.0
 10
1010.930145
 20
267.481417
 30
0.0
 10
1003.134586
 20
267.481531
 30
0.0
  0
LWPOLYLINE
  5
22c
100
AcDbEntity
  8
Grabado
 62
5
100
AcDbPolyline
 90
4
 70
1
 10
987.544432
 20
267.481134
 30
0.0
 10
983.646794
 20
267.481134
 30
0.0
 10
983.646794
 20
271.378772
 30
0.0
 10
987.544432
 20
271.378772
 30
0.0
  0
LWPOLYLINE
  5
22d
100
AcDbEntity
  8
Grabado
 62
5
100
AcDbPolyline
 90
2
 70
0
 10
772.698869
 20
490.086170
 30
0.0
 10
918.280035
 20
344.509087
 30
0.0
  0
LWPOLYLINE
  5
22e
100
AcDbEntity
  8
Grabado
 62
5
100
AcDbPolyline
 90
2
 70
0
 10
934.823310
 20
868.555328
 30
0.0
 10
1045.067783
 20
978.795771
 30
0.0
  0
LWPOLYLINE
  5
22f
100
AcDbEntity
  8
Grabado
 62
5
100
AcDbPolyline
 90
2
 70
0
 10
995.339310
 20
944.626195
 30
0.0
 10
1010.929861
 20
929.035587
 30
0.0
  0
LWPOLYLINE
  5
230
100
AcDbEntity
  8
Grabado
 62
5
100
AcDbPolyline
 90
3
 70
0
 10
1010.929861
 20
936.830891
 30
0.0
 10
1010.929861
 20
929.035587
 30
0.0
 10
1003.134586
 20
929.035616
 30
0.0
  0
LWPOLYLINE
  5
231
100
AcDbEntity
  8
Grabado
 62
5
100
AcDbPolyline
 90
4
 70
1
 10
995.339707
 20
921.240660
 30
0.0
 10
991.442069
 20
921.240660
 30
0.0
 10
991.442069
 20
917.343023
 30
0.0
 10
995.339707
 20
917.343023
 30
0.0
  0
LWPOLYLINE
  5
232
100
AcDbEntity
  8
Grabado
 62
5
100
AcDbPolyline
 90
2
 70
0
 10
772.698869
 20
706.430954
 30
0.0
 10
918.280035
 20
852.008141
 30
0.0
  0
LWPOLYLINE
  5
233
100
AcDbEntity
  8
Grabado
 62
5
100
AcDbPolyline
 90
2
 70
0
 10
395.616444
 20
327.961587
 30
0.0
 10
285.371915
 20
217.721140
 30
0.0
  0
LWPOLYLINE
  5
234
100
AcDbEntity
  8
Grabado
 62
5
100
AcDbPolyline
 90
2
 70
0
 10
335.100132
 20
251.890724
 30
0.0
 10
319.509581
 20
267.481332
 30
0.0
  0
LWPOLYLINE
  5
235
100
AcDbEntity
  8
Grabado
 62
5
100
AcDbPolyline
 90
3
 70
0
 10
319.509581
 20
259.686028
 30
0.0
 10
319.509581
 20
267.481332
 30
0.0
 10
327.304857
 20
267.481304
 30
0.0
  0
LWPOLYLINE
  5
236
100
AcDbEntity
  8
Grabado
 62
5
100
AcDbPolyline
 90
4
 70
1
 10
335.395020
 20
275.571638
 30
0.0
 10
339.292658
 20
275.571638
 30
0.0
 10
339.292658
 20
279.469276
 30
0.0
 10
335.395020
 20
279.469276
 30
0.0
  0
LWPOLYLINE
  5
237
100
AcDbEntity
  8
Grabado
 62
5
100
AcDbPolyline
 90
4
 70
1
 10
343.190296
 20
267.776362
 30
0.0
 10
347.087934
 20
267.776362
 30
0.0
 10
347.087934
 20
271.674000
 30
0.0
 10
343.190296
 20
271.674000
 30
0.0
  0
LWPOLYLINE
  5
238
100
AcDbEntity
  8
Grabado
 62
5
100
AcDbPolyline
 90
2
 70
0
 10
557.740885
 20
490.085972
 30
0.0
 10
412.159720
 20
344.508803
 30
0.0
  0
LWPOLYLINE
  5
239
100
AcDbEntity
  8
Grabado
 62
5
100
AcDbPolyline
 90
2
 70
0
 10
350.009745
 20
590.080776
 30
0.0
 10
27.816328
 20
985.729436
 30
0.0
  0
LWPOLYLINE
  5
23a
100
AcDbEntity
  8
Grabado
 62
5
100
AcDbPolyline
 90
4
 70
1
 10
664.929043
 20
865.802269
 30
0.0
 10
659.109232
 20
849.404666
 30
0.0
 10
664.929043
 20
854.165935
 30
0.0
 10
671.017578
 20
849.404666
 30
0.0
  0
LWPOLYLINE
  5
23b
100
AcDbEntity
  8
Grabado
 62
5
100
AcDbPolyline
 90
4
 70
1
 10
664.929043
 20
179.622312
 30
0.0
 10
659.109232
 20
163.224709
 30
0.0
 10
664.929043
 20
167.985978
 30
0.0
 10
671.017578
 20
163.224709
 30
0.0
  0
LWPOLYLINE
  5
23c
100
AcDbEntity
  8
Grabado
 62
5
100
AcDbPolyline
 90
2
 70
0
 10
665.335219
 20
757.010441
 30
0.0
 10
665.069046
 20
685.596875
 30
0.0
  0
LWPOLYLINE
  5
23d
100
AcDbEntity
  8
Grabado
 62
5
100
AcDbPolyline
 90
2
 70
0
 10
665.069074
 20
530.456287
 30
0.0
 10
665.069074
 20
440.153773
 30
0.0
  0
LWPOLYLINE
  5
23e
100
AcDbEntity
  8
Grabado
 62
5
100
AcDbPolyline
 90
2
 70
0
 10
350.009745
 20
578.295998
 30
0.0
 10
27.816328
 20
182.647361
 30
0.0
  0
LWPOLYLINE
  5
23f
100
AcDbEntity
  8
Grabado
 62
5
100
AcDbPolyline
 90
2
 70
0
 10
981.008022
 20
590.080776
 30
0.0
 10
1303.201361
 20
985.729436
 30
0.0
  0
LWPOLYLINE
  5
240
100
AcDbEntity
  8
Grabado
 62
5
100
AcDbPolyline
 90
2
 70
0
 10
1273.079027
 20
1055.748022
 30
0.0
 10
1273.079027
 20
625.440430
 30
0.0
  0
LWPOLYLINE
  5
241
100
AcDbEntity
  8
Grabado
 62
5
100
AcDbPolyline
 90
2
 70
0
 10
981.009978
 20
578.295998
 30
0.0
 10
1303.203317
 20
182.647361
 30
0.0
  0
LWPOLYLINE
  5
242
100
AcDbEntity
  8
Grabado
 62
5
100
AcDbPolyline
 90
2
 70
0
 10
1273.080983
 20
112.628750
 30
0.0
 10
1273.080983
 20
542.936353
 30
0.0
  0
LWPOLYLINE
  5
243
100
AcDbEntity
  8
Grabado
 62
5
100
AcDbPolyline
 90
4
 70
1
 10
995.327603
 20
275.263455
 30
0.0
 10
991.429965
 20
275.263455
 30
0.0
 10
991.429965
 20
279.161093
 30
0.0
 10
995.327603
 20
279.161093
 30
0.0
  0
LWPOLYLINE
  5
244
100
AcDbEntity
  8
Grabado
 62
5
100
AcDbPolyline
 90
4
 70
1
 10
980.044299
 20
274.981039
 30
0.0
 10
976.146661
 20
274.981039
 30
0.0
 10
976.146661
 20
278.878677
 30
0.0
 10
980.044299
 20
278.878677
 30
0.0
  0
LWPOLYLINE
  5
245
100
AcDbEntity
  8
Grabado
 62
5
100
AcDbPolyline
 90
4
 70
1
 10
987.827471
 20
282.763332
 30
0.0
 10
983.929833
 20
282.763332
 30
0.0
 10
983.929833
 20
286.660970
 30
0.0
 10
987.827471
 20
286.660970
 30
0.0
  0
LWPOLYLINE
  5
246
100
AcDbEntity
  8
Grabado
 62
5
100
AcDbPolyline
 90
2
 70
0
 10
57.938689
 20
1055.748019
 30
0.0
 10
57.938689
 20
625.440427
 30
0.0
  0
LWPOLYLINE
  5
247
100
AcDbEntity
  8
Grabado
 62
5
100
AcDbPolyline
 90
2
 70
0
 10
57.938689
 20
112.628750
 30
0.0
 10
57.938689
 20
542.936353
 30
0.0
  0
ENDSEC
  0
SECTION
  2
OBJECTS
  0
DICTIONARY
  5
C
330
0
100
AcDbDictionary
  3
ACAD_GROUP
350
D
  3
ACAD_MLINESTYLE
350
17
  0
DICTIONARY
  5
D
330
C
100
AcDbDictionary
  0
DICTIONARY
  5
1A
330
C
100
AcDbDictionary
  0
DICTIONARY
  5
17
330
C
100
AcDbDictionary
  3
STANDARD
350
18
  0
DICTIONARY
  5
19
330
C
100
AcDbDictionary
  0
ENDSEC
  0
EOF
