  0
SECTION
  2
HEADER
  9
$ACADVER
  1
AC1014
  9
$HANDSEED
  5
FFFF
  9
$MEASUREMENT
 70
     1
  0
ENDSEC
  0
SECTION
  2
TABLES
  0
TABLE
  2
VPORT
  5
8
330
0
100
AcDbSymbolTable
 70
     4
  0
VPORT
  5
2E
330
8
100
AcDbSymbolTableRecord
100
AcDbViewportTableRecord
  2
*ACTIVE
 70
     0
 10
0.0
 20
0.0
 11
1.0
 21
1.0
 12
210.0
 22
148.5
 13
0.0
 23
0.0
 14
10.0
 24
10.0
 15
10.0
 25
10.0
 16
0.0
 26
0.0
 36
1.0
 17
0.0
 27
0.0
 37
0.0
 40
341.0
 41
1.24
 42
50.0
 43
0.0
 44
0.0
 50
0.0
 51
0.0
 71
     0
 72
   100
 73
     1
 74
     3
 75
     0
 76
     0
 77
     0
 78
     0
  0
ENDTAB
  0
TABLE
  2
LTYPE
  5
5
330
0
100
AcDbSymbolTable
 70
     1
  0
LTYPE
  5
14
330
5
100
AcDbSymbolTableRecord
100
AcDbLinetypeTableRecord
  2
BYBLOCK
 70
     0
  3

 72
    65
 73
     0
 40
0.0
  0
LTYPE
  5
15
330
5
100
AcDbSymbolTableRecord
100
AcDbLinetypeTableRecord
  2
BYLAYER
 70
     0
  3

 72
    65
 73
     0
 40
0.0
  0
LTYPE
  5
16
330
5
100
AcDbSymbolTableRecord
100
AcDbLinetypeTableRecord
  2
CONTINUOUS
 70
     0
  3
Solid line
 72
    65
 73
     0
 40
0.0
  0
ENDTAB
  0
TABLE
  2
LAYER
  5
2
100
AcDbSymbolTable
 70
3
  0
LAYER
  5
50
100
AcDbSymbolTableRecord
100
AcDbLayerTableRecord
  2
0
 70
0
  6
CONTINUOUS
  0
LAYER
  5
51
100
AcDbSymbolTableRecord
100
AcDbLayerTableRecord
  2
Corte
 70
0
  6
CONTINUOUS
  0
LAYER
  5
52
100
AcDbSymbolTableRecord
100
AcDbLayerTableRecord
  2
Grabado
 70
0
  6
CONTINUOUS
  0
ENDTAB
  0
TABLE
  2
STYLE
  5
3
330
0
100
AcDbSymbolTable
 70
     1
  0
STYLE
  5
11
330
3
100
AcDbSymbolTableRecord
100
AcDbTextStyleTableRecord
  2
STANDARD
 70
     0
 40
0.0
 41
1.0
 50
0.0
 71
     0
 42
2.5
  3
txt
  4

  0
ENDTAB
  0
TABLE
  2
VIEW
  5
6
330
0
100
AcDbSymbolTable
 70
     0
  0
ENDTAB
  0
TABLE
  2
UCS
  5
7
330
0
100
AcDbSymbolTable
 70
     0
  0
ENDTAB
  0
TABLE
  2
APPID
  5
9
330
0
100
AcDbSymbolTable
 70
     2
  0
APPID
  5
12
330
9
100
AcDbSymbolTableRecord
100
AcDbRegAppTableRecord
  2
ACAD
 70
     0
  0
ENDTAB
  0
TABLE
  2
DIMSTYLE
  5
A
330
0
100
AcDbSymbolTable
 70
     1
  0
DIMSTYLE
105
27
330
A
100
AcDbSymbolTableRecord
100
AcDbDimStyleTableRecord
  2
ISO-25
 70
     0
  3

  4

  5

  6

  7

 40
1.0
 41
2.5
 42
0.625
 43
3.75
 44
1.25
 45
0.0
 46
0.0
 47
0.0
 48
0.0
140
2.5
141
2.5
142
0.0
143
0.03937007874016
144
1.0
145
0.0
146
1.0
147
0.625
 71
     0
 72
     0
 73
     0
 74
     0
 75
     0
 76
     0
 77
     1
 78
     8
170
     0
171
     3
172
     1
173
     0
174
     0
175
     0
176
     0
177
     0
178
     0
270
     2
271
     2
272
     2
273
     2
274
     3
340
11
275
     0
280
     0
281
     0
282
     0
283
     0
284
     8
285
     0
286
     0
287
     3
288
     0
  0
ENDTAB
  0
TABLE
  2
BLOCK_RECORD
  5
1
330
0
100
AcDbSymbolTable
 70
     1
  0
BLOCK_RECORD
  5
1F
330
1
100
AcDbSymbolTableRecord
100
AcDbBlockTableRecord
  2
*MODEL_SPACE
  0
BLOCK_RECORD
  5
1B
330
1
100
AcDbSymbolTableRecord
100
AcDbBlockTableRecord
  2
*PAPER_SPACE
  0
ENDTAB
  0
ENDSEC
  0
SECTION
  2
BLOCKS
  0
BLOCK
  5
20
330
1F
100
AcDbEntity
  8
0
100
AcDbBlockBegin
  2
*MODEL_SPACE
 70
     0
 10
0.0
 20
0.0
 30
0.0
  3
*MODEL_SPACE
  1

  0
ENDBLK
  5
21
330
1F
100
AcDbEntity
  8
0
100
AcDbBlockEnd
  0
BLOCK
  5
1C
330
1B
100
AcDbEntity
 67
     1
  8
0
100
AcDbBlockBegin
  2
*PAPER_SPACE
  1

  0
ENDBLK
  5
1D
330
1B
100
AcDbEntity
 67
     1
  8
0
100
AcDbBlockEnd
  0
ENDSEC
  0
SECTION
  2
ENTITIES
  0
LWPOLYLINE
  5
100
100
AcDbEntity
  8
Corte
 62
1
100
AcDbPolyline
 90
13
 70
1
 10
70.556566
 20
84.741432
 30
0.0
 10
70.556566
 20
84.353377
 30
0.0
 10
69.004344
 20
84.353377
 30
0.0
 10
69.004344
 20
79.696716
 30
0.0
 10
70.556566
 20
79.696716
 30
0.0
 10
70.556566
 20
79.308652
 30
0.0
 10
108.897860
 20
79.308655
 30
0.0
 10
108.897860
 20
81.178377
 30
0.0
 10
73.731792
 20
81.178377
 30
0.0
 10
73.731792
 20
82.871710
 30
0.0
 10
108.897860
 20
82.871710
 30
0.0
 10
108.897860
 20
84.741430
 30
0.0
 10
70.556566
 20
84.741432
 30
0.0
  0
LWPOLYLINE
  5
101
100
AcDbEntity
  8
Corte
 62
1
100
AcDbPolyline
 90
5
 70
1
 10
154.521945
 20
36.470885
 30
0.0
 10
154.521945
 20
37.634826
 30
0.0
 10
153.745975
 20
37.634823
 30
0.0
 10
153.745975
 20
36.470882
 30
0.0
 10
154.521945
 20
36.470885
 30
0.0
  0
LWPOLYLINE
  5
102
100
AcDbEntity
  8
Corte
 62
1
100
AcDbPolyline
 90
5
 70
1
 10
149.064247
 20
7.148537
 30
0.0
 10
149.064247
 20
8.312478
 30
0.0
 10
148.288277
 20
8.312475
 30
0.0
 10
148.288277
 20
7.148535
 30
0.0
 10
149.064247
 20
7.148537
 30
0.0
  0
LWPOLYLINE
  5
103
100
AcDbEntity
  8
Corte
 62
1
100
AcDbPolyline
 90
5
 70
1
 10
144.110376
 20
3.485133
 30
0.0
 10
143.071234
 20
3.485133
 30
0.0
 10
143.071234
 20
4.041193
 30
0.0
 10
144.110376
 20
4.041193
 30
0.0
 10
144.110376
 20
3.485133
 30
0.0
  0
LWPOLYLINE
  5
104
100
AcDbEntity
  8
Corte
 62
1
100
AcDbPolyline
 90
32
 70
1
 10
118.485757
 20
44.903886
 30
0.0
 10
156.797418
 20
44.903886
 30
0.0
 10
156.797418
 20
44.515903
 30
0.0
 10
158.349498
 20
44.515903
 30
0.0
 10
158.349498
 20
43.034228
 30
0.0
 10
153.692945
 20
43.034228
 30
0.0
 10
153.692945
 20
41.340886
 30
0.0
 10
158.349498
 20
41.340886
 30
0.0
 10
158.349498
 20
39.859062
 30
0.0
 10
156.797418
 20
39.859062
 30
0.0
 10
156.797418
 20
24.336917
 30
0.0
 10
158.349640
 20
24.336917
 30
0.0
 10
158.349640
 20
22.008575
 30
0.0
 10
156.797418
 20
22.008575
 30
0.0
 10
156.797418
 20
4.837709
 30
0.0
 10
158.349640
 20
4.837709
 30
0.0
 10
158.349640
 20
2.509367
 30
0.0
 10
156.797418
 20
2.509367
 30
0.0
 10
156.797418
 20
1.892041
 30
0.0
 10
145.272427
 20
1.892041
 30
0.0
 10
145.272427
 20
2.585522
 30
0.0
 10
141.890767
 20
2.585522
 30
0.0
 10
141.890767
 20
5.695596
 30
0.0
 10
143.071234
 20
5.695596
 30
0.0
 10
143.071234
 20
5.398089
 30
0.0
 10
144.110356
 20
4.978537
 30
0.0
 10
144.110396
 20
5.695596
 30
0.0
 10
145.272427
 20
5.695596
 30
0.0
 10
145.272331
 20
16.316177
 30
0.0
 10
126.278268
 20
39.471082
 30
0.0
 10
118.485757
 20
39.471082
 30
0.0
 10
118.485757
 20
44.903886
 30
0.0
  0
LWPOLYLINE
  5
105
100
AcDbEntity
  8
Corte
 62
1
100
AcDbPolyline
 90
4
 70
1
 10
131.879641
 20
39.471082
 30
0.0
 10
151.152945
 20
15.902439
 30
0.0
 10
151.152945
 20
39.471082
 30
0.0
 10
131.879641
 20
39.471082
 30
0.0
  0
LWPOLYLINE
  5
106
100
AcDbEntity
  8
Corte
 62
1
100
AcDbPolyline
 90
5
 70
1
 10
154.521945
 20
58.380910
 30
0.0
 10
154.521945
 20
57.216969
 30
0.0
 10
153.745975
 20
57.216972
 30
0.0
 10
153.745975
 20
58.380913
 30
0.0
 10
154.521945
 20
58.380910
 30
0.0
  0
LWPOLYLINE
  5
107
100
AcDbEntity
  8
Corte
 62
1
100
AcDbPolyline
 90
5
 70
1
 10
149.064247
 20
87.703258
 30
0.0
 10
149.064247
 20
86.539317
 30
0.0
 10
148.288277
 20
86.539320
 30
0.0
 10
148.288277
 20
87.703261
 30
0.0
 10
149.064247
 20
87.703258
 30
0.0
  0
LWPOLYLINE
  5
108
100
AcDbEntity
  8
Corte
 62
1
100
AcDbPolyline
 90
5
 70
1
 10
144.110376
 20
91.366663
 30
0.0
 10
143.071234
 20
91.366663
 30
0.0
 10
143.071234
 20
90.810602
 30
0.0
 10
144.110376
 20
90.810602
 30
0.0
 10
144.110376
 20
91.366663
 30
0.0
  0
LWPOLYLINE
  5
109
100
AcDbEntity
  8
Corte
 62
1
100
AcDbPolyline
 90
32
 70
1
 10
118.485757
 20
49.947910
 30
0.0
 10
156.797418
 20
49.947910
 30
0.0
 10
156.797418
 20
50.335892
 30
0.0
 10
158.349498
 20
50.335892
 30
0.0
 10
158.349498
 20
51.817567
 30
0.0
 10
153.692945
 20
51.817567
 30
0.0
 10
153.692945
 20
53.510909
 30
0.0
 10
158.349498
 20
53.510909
 30
0.0
 10
158.349498
 20
54.992733
 30
0.0
 10
156.797418
 20
54.992733
 30
0.0
 10
156.797418
 20
70.514878
 30
0.0
 10
158.349640
 20
70.514878
 30
0.0
 10
158.349640
 20
72.843220
 30
0.0
 10
156.797418
 20
72.843220
 30
0.0
 10
156.797418
 20
90.014087
 30
0.0
 10
158.349640
 20
90.014087
 30
0.0
 10
158.349640
 20
92.342428
 30
0.0
 10
156.797418
 20
92.342428
 30
0.0
 10
156.797418
 20
92.959754
 30
0.0
 10
145.272427
 20
92.959754
 30
0.0
 10
145.272427
 20
92.266274
 30
0.0
 10
141.890767
 20
92.266274
 30
0.0
 10
141.890767
 20
89.156199
 30
0.0
 10
143.071234
 20
89.156199
 30
0.0
 10
143.071234
 20
89.453706
 30
0.0
 10
144.110356
 20
89.873259
 30
0.0
 10
144.110396
 20
89.156199
 30
0.0
 10
145.272427
 20
89.156199
 30
0.0
 10
145.272331
 20
78.535618
 30
0.0
 10
126.278268
 20
55.380713
 30
0.0
 10
118.485757
 20
55.380713
 30
0.0
 10
118.485757
 20
49.947910
 30
0.0
  0
LWPOLYLINE
  5
10a
100
AcDbEntity
  8
Corte
 62
1
100
AcDbPolyline
 90
4
 70
1
 10
131.879641
 20
55.380713
 30
0.0
 10
151.152945
 20
78.949356
 30
0.0
 10
151.152945
 20
55.380713
 30
0.0
 10
131.879641
 20
55.380713
 30
0.0
  0
LWPOLYLINE
  5
10b
100
AcDbEntity
  8
Corte
 62
1
100
AcDbPolyline
 90
13
 70
1
 10
70.556566
 20
92.041018
 30
0.0
 10
70.556566
 20
91.652962
 30
0.0
 10
69.004344
 20
91.652962
 30
0.0
 10
69.004344
 20
86.996301
 30
0.0
 10
70.556566
 20
86.996301
 30
0.0
 10
70.556566
 20
86.608237
 30
0.0
 10
108.897860
 20
86.608240
 30
0.0
 10
108.897860
 20
88.477962
 30
0.0
 10
73.731792
 20
88.477962
 30
0.0
 10
73.731792
 20
90.171295
 30
0.0
 10
108.897860
 20
90.171295
 30
0.0
 10
108.897860
 20
92.041015
 30
0.0
 10
70.556566
 20
92.041018
 30
0.0
  0
LWPOLYLINE
  5
10c
100
AcDbEntity
  8
Corte
 62
1
100
AcDbPolyline
 90
5
 70
1
 10
6.415508
 20
84.591933
 30
0.0
 10
6.415508
 20
85.755874
 30
0.0
 10
7.191478
 20
85.755871
 30
0.0
 10
7.191478
 20
84.591930
 30
0.0
 10
6.415508
 20
84.591933
 30
0.0
  0
LWPOLYLINE
  5
10d
100
AcDbEntity
  8
Corte
 62
1
100
AcDbPolyline
 90
5
 70
1
 10
11.873205
 20
55.269585
 30
0.0
 10
11.873205
 20
56.433526
 30
0.0
 10
12.649175
 20
56.433523
 30
0.0
 10
12.649175
 20
55.269582
 30
0.0
 10
11.873205
 20
55.269585
 30
0.0
  0
LWPOLYLINE
  5
10e
100
AcDbEntity
  8
Corte
 62
1
100
AcDbPolyline
 90
5
 70
1
 10
16.827077
 20
51.606180
 30
0.0
 10
17.866219
 20
51.606180
 30
0.0
 10
17.866219
 20
52.162241
 30
0.0
 10
16.827077
 20
52.162241
 30
0.0
 10
16.827077
 20
51.606180
 30
0.0
  0
LWPOLYLINE
  5
10f
100
AcDbEntity
  8
Corte
 62
1
100
AcDbPolyline
 90
32
 70
1
 10
42.451696
 20
93.024933
 30
0.0
 10
4.140035
 20
93.024933
 30
0.0
 10
4.140035
 20
92.636951
 30
0.0
 10
2.587954
 20
92.636951
 30
0.0
 10
2.587954
 20
91.155276
 30
0.0
 10
7.244507
 20
91.155276
 30
0.0
 10
7.244507
 20
89.461934
 30
0.0
 10
2.587954
 20
89.461934
 30
0.0
 10
2.587954
 20
87.980110
 30
0.0
 10
4.140035
 20
87.980110
 30
0.0
 10
4.140035
 20
72.457965
 30
0.0
 10
2.587813
 20
72.457965
 30
0.0
 10
2.587813
 20
70.129623
 30
0.0
 10
4.140035
 20
70.129623
 30
0.0
 10
4.140035
 20
52.958756
 30
0.0
 10
2.587813
 20
52.958756
 30
0.0
 10
2.587813
 20
50.630415
 30
0.0
 10
4.140035
 20
50.630415
 30
0.0
 10
4.140035
 20
50.013089
 30
0.0
 10
15.665025
 20
50.013089
 30
0.0
 10
15.665025
 20
50.706570
 30
0.0
 10
19.046685
 20
50.706570
 30
0.0
 10
19.046685
 20
53.816644
 30
0.0
 10
17.866219
 20
53.816644
 30
0.0
 10
17.866219
 20
53.519137
 30
0.0
 10
16.827097
 20
53.099584
 30
0.0
 10
16.827057
 20
53.816644
 30
0.0
 10
15.665025
 20
53.816644
 30
0.0
 10
15.665122
 20
64.437225
 30
0.0
 10
34.659185
 20
87.592130
 30
0.0
 10
42.451696
 20
87.592130
 30
0.0
 10
42.451696
 20
93.024933
 30
0.0
  0
LWPOLYLINE
  5
110
100
AcDbEntity
  8
Corte
 62
1
100
AcDbPolyline
 90
4
 70
1
 10
29.057811
 20
87.592130
 30
0.0
 10
9.784507
 20
64.023487
 30
0.0
 10
9.784507
 20
87.592130
 30
0.0
 10
29.057811
 20
87.592130
 30
0.0
  0
LWPOLYLINE
  5
111
100
AcDbEntity
  8
Corte
 62
1
100
AcDbPolyline
 90
5
 70
1
 10
6.415508
 20
13.090699
 30
0.0
 10
6.415508
 20
11.926758
 30
0.0
 10
7.191478
 20
11.926761
 30
0.0
 10
7.191478
 20
13.090702
 30
0.0
 10
6.415508
 20
13.090699
 30
0.0
  0
LWPOLYLINE
  5
112
100
AcDbEntity
  8
Corte
 62
1
100
AcDbPolyline
 90
5
 70
1
 10
11.873205
 20
42.413047
 30
0.0
 10
11.873205
 20
41.249106
 30
0.0
 10
12.649175
 20
41.249109
 30
0.0
 10
12.649175
 20
42.413050
 30
0.0
 10
11.873205
 20
42.413047
 30
0.0
  0
LWPOLYLINE
  5
113
100
AcDbEntity
  8
Corte
 62
1
100
AcDbPolyline
 90
5
 70
1
 10
16.827077
 20
46.076451
 30
0.0
 10
17.866219
 20
46.076451
 30
0.0
 10
17.866219
 20
45.520391
 30
0.0
 10
16.827077
 20
45.520391
 30
0.0
 10
16.827077
 20
46.076451
 30
0.0
  0
LWPOLYLINE
  5
114
100
AcDbEntity
  8
Corte
 62
1
100
AcDbPolyline
 90
32
 70
1
 10
42.451696
 20
4.657698
 30
0.0
 10
4.140035
 20
4.657698
 30
0.0
 10
4.140035
 20
5.045681
 30
0.0
 10
2.587954
 20
5.045681
 30
0.0
 10
2.587954
 20
6.527356
 30
0.0
 10
7.244507
 20
6.527356
 30
0.0
 10
7.244507
 20
8.220698
 30
0.0
 10
2.587954
 20
8.220698
 30
0.0
 10
2.587954
 20
9.702522
 30
0.0
 10
4.140035
 20
9.702522
 30
0.0
 10
4.140035
 20
25.224667
 30
0.0
 10
2.587813
 20
25.224667
 30
0.0
 10
2.587813
 20
27.553009
 30
0.0
 10
4.140035
 20
27.553009
 30
0.0
 10
4.140035
 20
44.723876
 30
0.0
 10
2.587813
 20
44.723876
 30
0.0
 10
2.587813
 20
47.052217
 30
0.0
 10
4.140035
 20
47.052217
 30
0.0
 10
4.140035
 20
47.669543
 30
0.0
 10
15.665026
 20
47.669543
 30
0.0
 10
15.665026
 20
46.976062
 30
0.0
 10
19.046685
 20
46.976062
 30
0.0
 10
19.046685
 20
43.865988
 30
0.0
 10
17.866219
 20
43.865988
 30
0.0
 10
17.866219
 20
44.163495
 30
0.0
 10
16.827097
 20
44.583047
 30
0.0
 10
16.827057
 20
43.865988
 30
0.0
 10
15.665026
 20
43.865988
 30
0.0
 10
15.665122
 20
33.245407
 30
0.0
 10
34.659185
 20
10.090502
 30
0.0
 10
42.451696
 20
10.090502
 30
0.0
 10
42.451696
 20
4.657698
 30
0.0
  0
LWPOLYLINE
  5
115
100
AcDbEntity
  8
Corte
 62
1
100
AcDbPolyline
 90
4
 70
1
 10
29.057812
 20
10.090502
 30
0.0
 10
9.784507
 20
33.659145
 30
0.0
 10
9.784507
 20
10.090502
 30
0.0
 10
29.057812
 20
10.090502
 30
0.0
  0
LWPOLYLINE
  5
116
100
AcDbEntity
  8
Corte
 62
1
100
AcDbPolyline
 90
13
 70
1
 10
70.556566
 20
10.305067
 30
0.0
 10
70.556566
 20
9.917011
 30
0.0
 10
69.004344
 20
9.917011
 30
0.0
 10
69.004344
 20
5.260350
 30
0.0
 10
70.556566
 20
5.260350
 30
0.0
 10
70.556566
 20
4.872286
 30
0.0
 10
108.897860
 20
4.872289
 30
0.0
 10
108.897860
 20
6.742011
 30
0.0
 10
73.731792
 20
6.742011
 30
0.0
 10
73.731792
 20
8.435345
 30
0.0
 10
108.897860
 20
8.435345
 30
0.0
 10
108.897860
 20
10.305064
 30
0.0
 10
70.556566
 20
10.305067
 30
0.0
  0
LWPOLYLINE
  5
117
100
AcDbEntity
  8
Corte
 62
1
100
AcDbPolyline
 90
13
 70
1
 10
70.556566
 20
17.181318
 30
0.0
 10
70.556566
 20
16.793262
 30
0.0
 10
69.004344
 20
16.793262
 30
0.0
 10
69.004344
 20
12.136601
 30
0.0
 10
70.556566
 20
12.136601
 30
0.0
 10
70.556566
 20
11.748537
 30
0.0
 10
108.897860
 20
11.748540
 30
0.0
 10
108.897860
 20
13.618262
 30
0.0
 10
73.731792
 20
13.618262
 30
0.0
 10
73.731792
 20
15.311596
 30
0.0
 10
108.897860
 20
15.311596
 30
0.0
 10
108.897860
 20
17.181315
 30
0.0
 10
70.556566
 20
17.181318
 30
0.0
  0
LWPOLYLINE
  5
118
100
AcDbEntity
  8
Corte
 62
1
100
AcDbPolyline
 90
44
 70
1
 10
46.566833
 20
92.959753
 30
0.0
 10
43.135527
 20
89.528450
 30
0.0
 10
43.135527
 20
84.302548
 30
0.0
 10
46.566672
 20
80.871244
 30
0.0
 10
51.978331
 20
80.871244
 30
0.0
 10
59.688668
 20
73.160821
 30
0.0
 10
59.688668
 20
21.690501
 30
0.0
 10
51.978331
 20
13.980551
 30
0.0
 10
46.566675
 20
13.980548
 30
0.0
 10
43.135530
 20
10.549251
 30
0.0
 10
43.135530
 20
5.323342
 30
0.0
 10
46.566836
 20
1.892045
 30
0.0
 10
51.792590
 20
1.892045
 30
0.0
 10
55.223887
 20
5.323500
 30
0.0
 10
55.223890
 20
10.640564
 30
0.0
 10
63.028480
 20
18.444948
 30
0.0
 10
114.309866
 20
18.444951
 30
0.0
 10
122.114431
 20
10.640561
 30
0.0
 10
122.114429
 20
5.323503
 30
0.0
 10
125.545892
 20
1.892200
 30
0.0
 10
130.771479
 20
1.892197
 30
0.0
 10
134.202938
 20
5.323342
 30
0.0
 10
134.202938
 20
10.549400
 30
0.0
 10
130.771638
 20
13.980545
 30
0.0
 10
125.360139
 20
13.980551
 30
0.0
 10
117.649966
 20
21.690504
 30
0.0
 10
117.649969
 20
73.161103
 30
0.0
 10
125.360139
 20
80.871246
 30
0.0
 10
130.771638
 20
80.871246
 30
0.0
 10
134.202935
 20
84.302392
 30
0.0
 10
134.202935
 20
89.528449
 30
0.0
 10
130.771482
 20
92.959595
 30
0.0
 10
125.545890
 20
92.959595
 30
0.0
 10
122.114429
 20
89.528294
 30
0.0
 10
122.114429
 20
84.211232
 30
0.0
 10
114.309866
 20
76.406379
 30
0.0
 10
90.184650
 20
76.406377
 30
0.0
 10
88.650691
 20
78.071503
 30
0.0
 10
87.084546
 20
76.406377
 30
0.0
 10
63.028480
 20
76.406377
 30
0.0
 10
55.223890
 20
84.211231
 30
0.0
 10
55.223890
 20
89.528293
 30
0.0
 10
51.792590
 20
92.959753
 30
0.0
 10
46.566833
 20
92.959753
 30
0.0
  0
LWPOLYLINE
  5
119
100
AcDbEntity
  8
Corte
 62
1
100
AcDbPolyline
 90
5
 70
1
 10
65.837212
 20
73.597647
 30
0.0
 10
111.501137
 20
73.597648
 30
0.0
 10
103.942975
 20
66.039359
 30
0.0
 10
73.395397
 20
66.039361
 30
0.0
 10
65.837212
 20
73.597647
 30
0.0
  0
LWPOLYLINE
  5
11a
100
AcDbEntity
  8
Corte
 62
1
100
AcDbPolyline
 90
5
 70
1
 10
114.841234
 20
70.352374
 30
0.0
 10
114.841234
 20
24.499230
 30
0.0
 10
107.245156
 20
32.071921
 30
0.0
 10
107.245156
 20
62.762454
 30
0.0
 10
114.841234
 20
70.352374
 30
0.0
  0
LWPOLYLINE
  5
11b
100
AcDbEntity
  8
Corte
 62
1
100
AcDbPolyline
 90
5
 70
1
 10
62.497394
 20
70.352095
 30
0.0
 10
70.066930
 20
62.782168
 30
0.0
 10
70.066930
 20
32.055515
 30
0.0
 10
62.497391
 20
24.499230
 30
0.0
 10
62.497394
 20
70.352095
 30
0.0
  0
LWPOLYLINE
  5
11c
100
AcDbEntity
  8
Corte
 62
1
100
AcDbPolyline
 90
5
 70
1
 10
73.444408
 20
28.861099
 30
0.0
 10
103.893964
 20
28.861101
 30
0.0
 10
111.501137
 20
21.253680
 30
0.0
 10
65.837212
 20
21.253680
 30
0.0
 10
73.444408
 20
28.861099
 30
0.0
  0
LWPOLYLINE
  5
11d
100
AcDbEntity
  8
Corte
 62
1
100
AcDbPolyline
 90
5
 70
1
 10
85.582579
 20
56.108150
 30
0.0
 10
91.869139
 20
56.108153
 30
0.0
 10
91.869133
 20
53.097770
 30
0.0
 10
85.582579
 20
53.097770
 30
0.0
 10
85.582579
 20
56.108150
 30
0.0
  0
LWPOLYLINE
  5
11e
100
AcDbEntity
  8
Corte
 62
1
100
AcDbPolyline
 90
5
 70
1
 10
85.546734
 20
41.768278
 30
0.0
 10
91.904975
 20
41.768272
 30
0.0
 10
91.904978
 20
40.604334
 30
0.0
 10
85.546734
 20
40.604337
 30
0.0
 10
85.546734
 20
41.768278
 30
0.0
  0
LWPOLYLINE
  5
11f
100
AcDbEntity
  8
Corte
 62
1
100
AcDbPolyline
 90
5
 70
1
 10
53.917099
 20
83.535427
 30
0.0
 10
53.094055
 20
84.358459
 30
0.0
 10
53.642754
 20
84.907141
 30
0.0
 10
54.465773
 20
84.084111
 30
0.0
 10
53.917099
 20
83.535427
 30
0.0
  0
LWPOLYLINE
  5
120
100
AcDbEntity
  8
Corte
 62
1
100
AcDbPolyline
 90
5
 70
1
 10
52.123357
 20
81.741699
 30
0.0
 10
51.300340
 20
82.564731
 30
0.0
 10
51.849006
 20
83.113411
 30
0.0
 10
52.672051
 20
82.290382
 30
0.0
 10
52.123357
 20
81.741699
 30
0.0
  0
LWPOLYLINE
  5
121
100
AcDbEntity
  8
Corte
 62
1
100
AcDbPolyline
 90
5
 70
1
 10
123.421298
 20
11.316382
 30
0.0
 10
124.244314
 20
10.493354
 30
0.0
 10
123.695615
 20
9.944669
 30
0.0
 10
122.872599
 20
10.767699
 30
0.0
 10
123.421298
 20
11.316382
 30
0.0
  0
LWPOLYLINE
  5
122
100
AcDbEntity
  8
Corte
 62
1
100
AcDbPolyline
 90
5
 70
1
 10
125.215015
 20
13.110115
 30
0.0
 10
126.038031
 20
12.287085
 30
0.0
 10
125.489363
 20
11.738400
 30
0.0
 10
124.666319
 20
12.561428
 30
0.0
 10
125.215015
 20
13.110115
 30
0.0
  0
LWPOLYLINE
  5
123
100
AcDbEntity
  8
Corte
 62
1
100
AcDbPolyline
 90
5
 70
1
 10
123.421270
 20
83.535407
 30
0.0
 10
124.244312
 20
84.358439
 30
0.0
 10
123.695618
 20
84.907122
 30
0.0
 10
122.872599
 20
84.084093
 30
0.0
 10
123.421270
 20
83.535407
 30
0.0
  0
LWPOLYLINE
  5
124
100
AcDbEntity
  8
Corte
 62
1
100
AcDbPolyline
 90
5
 70
1
 10
125.215015
 20
81.741677
 30
0.0
 10
126.038031
 20
82.564710
 30
0.0
 10
125.489363
 20
83.113392
 30
0.0
 10
124.666319
 20
82.290364
 30
0.0
 10
125.215015
 20
81.741677
 30
0.0
  0
LWPOLYLINE
  5
125
100
AcDbEntity
  8
Corte
 62
1
100
AcDbPolyline
 90
5
 70
1
 10
76.108481
 20
61.195229
 30
0.0
 10
77.854463
 20
59.449097
 30
0.0
 10
76.657175
 20
58.251808
 30
0.0
 10
74.911055
 20
59.997779
 30
0.0
 10
76.108481
 20
61.195229
 30
0.0
  0
LWPOLYLINE
  5
126
100
AcDbEntity
  8
Corte
 62
1
100
AcDbPolyline
 90
5
 70
1
 10
101.203359
 20
61.195289
 30
0.0
 10
102.400642
 20
59.997839
 30
0.0
 10
100.654519
 20
58.251870
 30
0.0
 10
99.457064
 20
59.449159
 30
0.0
 10
101.203359
 20
61.195289
 30
0.0
  0
LWPOLYLINE
  5
127
100
AcDbEntity
  8
Corte
 62
1
100
AcDbPolyline
 90
5
 70
1
 10
76.657240
 20
36.649336
 30
0.0
 10
77.854528
 20
35.451884
 30
0.0
 10
76.108540
 20
33.705756
 30
0.0
 10
74.911086
 20
34.903052
 30
0.0
 10
76.657240
 20
36.649336
 30
0.0
  0
LWPOLYLINE
  5
128
100
AcDbEntity
  8
Corte
 62
1
100
AcDbPolyline
 90
5
 70
1
 10
100.654463
 20
36.649266
 30
0.0
 10
102.400583
 20
34.902987
 30
0.0
 10
101.203297
 20
33.705696
 30
0.0
 10
99.457008
 20
35.451817
 30
0.0
 10
100.654463
 20
36.649266
 30
0.0
  0
LWPOLYLINE
  5
129
100
AcDbEntity
  8
Corte
 62
1
100
AcDbPolyline
 90
14
 70
0
 10
48.108224
 20
89.255478
 30
0.0
 10
49.205701
 20
88.157842
 30
0.0
 10
50.303348
 20
89.255476
 30
0.0
 10
51.500780
 20
88.058057
 30
0.0
 10
50.403128
 20
86.960418
 30
0.0
 10
51.500752
 20
85.862947
 30
0.0
 10
50.303348
 20
84.665524
 30
0.0
 10
49.205701
 20
85.763167
 30
0.0
 10
48.108224
 20
84.665526
 30
0.0
 10
46.910797
 20
85.862945
 30
0.0
 10
48.008444
 20
86.960420
 30
0.0
 10
46.910797
 20
88.058059
 30
0.0
 10
48.108224
 20
89.255478
 30
0.0
 10
48.108224
 20
89.255478
 30
0.0
  0
LWPOLYLINE
  5
12a
100
AcDbEntity
  8
Corte
 62
1
100
AcDbPolyline
 90
5
 70
1
 10
62.363556
 20
74.940167
 30
0.0
 10
64.109513
 20
73.194036
 30
0.0
 10
62.912227
 20
71.996742
 30
0.0
 10
61.166101
 20
73.742716
 30
0.0
 10
62.363556
 20
74.940167
 30
0.0
  0
LWPOLYLINE
  5
12b
100
AcDbEntity
  8
Corte
 62
1
100
AcDbPolyline
 90
14
 70
0
 10
129.229903
 20
5.596355
 30
0.0
 10
128.132425
 20
6.693979
 30
0.0
 10
127.034778
 20
5.596360
 30
0.0
 10
125.837380
 20
6.793767
 30
0.0
 10
126.934999
 20
7.891405
 30
0.0
 10
125.837352
 20
8.988894
 30
0.0
 10
127.034778
 20
10.186312
 30
0.0
 10
128.132425
 20
9.088665
 30
0.0
 10
129.229906
 20
10.186307
 30
0.0
 10
130.427332
 20
8.988880
 30
0.0
 10
129.329682
 20
7.891403
 30
0.0
 10
130.427329
 20
6.793773
 30
0.0
 10
129.229903
 20
5.596355
 30
0.0
 10
129.229903
 20
5.596355
 30
0.0
  0
LWPOLYLINE
  5
12c
100
AcDbEntity
  8
Corte
 62
1
100
AcDbPolyline
 90
5
 70
1
 10
114.974576
 20
19.911656
 30
0.0
 10
113.228622
 20
21.657785
 30
0.0
 10
114.425911
 20
22.855076
 30
0.0
 10
116.172034
 20
21.109111
 30
0.0
 10
114.974576
 20
19.911656
 30
0.0
  0
LWPOLYLINE
  5
12d
100
AcDbEntity
  8
Corte
 62
1
100
AcDbPolyline
 90
14
 70
0
 10
129.229903
 20
89.255458
 30
0.0
 10
128.132425
 20
88.157821
 30
0.0
 10
127.034781
 20
89.255457
 30
0.0
 10
125.837355
 20
88.058037
 30
0.0
 10
126.935002
 20
86.960399
 30
0.0
 10
125.837352
 20
85.862927
 30
0.0
 10
127.034778
 20
84.665507
 30
0.0
 10
128.132425
 20
85.763146
 30
0.0
 10
129.229903
 20
84.665506
 30
0.0
 10
130.427332
 20
85.862927
 30
0.0
 10
129.329682
 20
86.960400
 30
0.0
 10
130.427329
 20
88.058040
 30
0.0
 10
129.229903
 20
89.255458
 30
0.0
 10
129.229903
 20
89.255458
 30
0.0
  0
LWPOLYLINE
  5
12e
100
AcDbEntity
  8
Corte
 62
1
100
AcDbPolyline
 90
5
 70
1
 10
114.974576
 20
74.940149
 30
0.0
 10
113.228622
 20
73.194018
 30
0.0
 10
114.425911
 20
71.996723
 30
0.0
 10
116.172031
 20
73.742698
 30
0.0
 10
114.974576
 20
74.940149
 30
0.0
  0
LWPOLYLINE
  5
12f
100
AcDbEntity
  8
Corte
 62
1
100
AcDbPolyline
 90
14
 70
0
 10
48.108227
 20
5.596335
 30
0.0
 10
49.205704
 20
6.693973
 30
0.0
 10
50.303351
 20
5.596335
 30
0.0
 10
51.500778
 20
6.793750
 30
0.0
 10
50.403128
 20
7.891388
 30
0.0
 10
51.500749
 20
8.988863
 30
0.0
 10
50.303351
 20
10.186290
 30
0.0
 10
49.205701
 20
9.088643
 30
0.0
 10
48.108224
 20
10.186284
 30
0.0
 10
46.910797
 20
8.988863
 30
0.0
 10
48.008447
 20
7.891388
 30
0.0
 10
46.910800
 20
6.793756
 30
0.0
 10
48.108227
 20
5.596335
 30
0.0
 10
48.108227
 20
5.596335
 30
0.0
  0
LWPOLYLINE
  5
130
100
AcDbEntity
  8
Corte
 62
1
100
AcDbPolyline
 90
5
 70
1
 10
62.363556
 20
19.911642
 30
0.0
 10
64.109513
 20
21.657771
 30
0.0
 10
62.912227
 20
22.855065
 30
0.0
 10
61.166104
 20
21.109094
 30
0.0
 10
62.363556
 20
19.911642
 30
0.0
  0
LWPOLYLINE
  5
131
100
AcDbEntity
  8
Corte
 62
1
100
AcDbPolyline
 90
5
 70
1
 10
53.917099
 20
11.316365
 30
0.0
 10
53.094055
 20
10.493337
 30
0.0
 10
53.642754
 20
9.944652
 30
0.0
 10
54.465770
 20
10.767682
 30
0.0
 10
53.917099
 20
11.316365
 30
0.0
  0
LWPOLYLINE
  5
132
100
AcDbEntity
  8
Corte
 62
1
100
AcDbPolyline
 90
5
 70
1
 10
52.123354
 20
13.110099
 30
0.0
 10
51.300338
 20
12.287068
 30
0.0
 10
51.849006
 20
11.738386
 30
0.0
 10
52.672051
 20
12.561413
 30
0.0
 10
52.123354
 20
13.110099
 30
0.0
  0
LWPOLYLINE
  5
133
100
AcDbEntity
  8
Corte
 62
1
100
AcDbPolyline
 90
21
 70
0
 10
75.108215
 20
54.222875
 30
0.0
 10
75.579066
 20
54.317927
 30
0.0
 10
75.963574
 20
54.577162
 30
0.0
 10
76.222820
 20
54.961665
 30
0.0
 10
76.317884
 20
55.432513
 30
0.0
 10
76.222820
 20
55.903363
 30
0.0
 10
75.963571
 20
56.287864
 30
0.0
 10
75.579066
 20
56.547100
 30
0.0
 10
75.108215
 20
56.642155
 30
0.0
 10
74.637395
 20
56.547103
 30
0.0
 10
74.252901
 20
56.287864
 30
0.0
 10
73.993660
 20
55.903363
 30
0.0
 10
73.898591
 20
55.432513
 30
0.0
 10
73.993654
 20
54.961668
 30
0.0
 10
74.252898
 20
54.577168
 30
0.0
 10
74.637392
 20
54.317927
 30
0.0
 10
75.108215
 20
54.222875
 30
0.0
 10
75.108215
 20
54.222875
 30
0.0
 10
75.108215
 20
54.222875
 30
0.0
 10
75.108215
 20
54.222875
 30
0.0
 10
75.108215
 20
54.222875
 30
0.0
  0
LWPOLYLINE
  5
134
100
AcDbEntity
  8
Corte
 62
1
100
AcDbPolyline
 90
5
 70
1
 10
72.296048
 20
34.405941
 30
0.0
 10
71.473009
 20
33.582916
 30
0.0
 10
70.924321
 20
34.131607
 30
0.0
 10
71.747355
 20
34.954626
 30
0.0
 10
72.296048
 20
34.405941
 30
0.0
  0
LWPOLYLINE
  5
135
100
AcDbEntity
  8
Corte
 62
1
100
AcDbPolyline
 90
5
 70
1
 10
75.087641
 20
31.614346
 30
0.0
 10
74.264599
 20
30.791321
 30
0.0
 10
73.715922
 20
31.340000
 30
0.0
 10
74.538950
 20
32.163039
 30
0.0
 10
75.087641
 20
31.614346
 30
0.0
  0
LWPOLYLINE
  5
136
100
AcDbEntity
  8
Corte
 62
1
100
AcDbPolyline
 90
5
 70
1
 10
105.042428
 20
60.446067
 30
0.0
 10
105.865464
 20
61.269090
 30
0.0
 10
106.414138
 20
60.720379
 30
0.0
 10
105.591119
 20
59.897377
 30
0.0
 10
105.042428
 20
60.446067
 30
0.0
  0
LWPOLYLINE
  5
137
100
AcDbEntity
  8
Corte
 62
1
100
AcDbPolyline
 90
5
 70
1
 10
102.250864
 20
63.237632
 30
0.0
 10
103.073880
 20
64.060637
 30
0.0
 10
103.622574
 20
63.511980
 30
0.0
 10
102.799529
 20
62.688924
 30
0.0
 10
102.250864
 20
63.237632
 30
0.0
  0
LWPOLYLINE
  5
138
100
AcDbEntity
  8
Corte
 62
1
100
AcDbPolyline
 90
5
 70
1
 10
72.296028
 20
60.446288
 30
0.0
 10
71.473006
 20
61.269310
 30
0.0
 10
70.924318
 20
60.720610
 30
0.0
 10
71.747343
 20
59.897588
 30
0.0
 10
72.296028
 20
60.446288
 30
0.0
  0
LWPOLYLINE
  5
139
100
AcDbEntity
  8
Corte
 62
1
100
AcDbPolyline
 90
5
 70
1
 10
75.087491
 20
63.237739
 30
0.0
 10
74.264447
 20
64.060744
 30
0.0
 10
73.715770
 20
63.512079
 30
0.0
 10
74.538803
 20
62.689040
 30
0.0
 10
75.087491
 20
63.237739
 30
0.0
  0
LWPOLYLINE
  5
13a
100
AcDbEntity
  8
Corte
 62
1
100
AcDbPolyline
 90
5
 70
1
 10
105.042380
 20
34.405797
 30
0.0
 10
105.865425
 20
33.582792
 30
0.0
 10
106.414093
 20
34.131472
 30
0.0
 10
105.591068
 20
34.954496
 30
0.0
 10
105.042380
 20
34.405797
 30
0.0
  0
LWPOLYLINE
  5
13b
100
AcDbEntity
  8
Corte
 62
1
100
AcDbPolyline
 90
5
 70
1
 10
102.250864
 20
31.614295
 30
0.0
 10
103.073891
 20
30.791270
 30
0.0
 10
103.622574
 20
31.339935
 30
0.0
 10
102.799560
 20
32.162994
 30
0.0
 10
102.250864
 20
31.614295
 30
0.0
  0
LWPOLYLINE
  5
13c
100
AcDbEntity
  8
Corte
 62
1
100
AcDbPolyline
 90
5
 70
1
 10
91.025957
 20
59.321104
 30
0.0
 10
92.190209
 20
59.321104
 30
0.0
 10
92.190206
 20
58.545142
 30
0.0
 10
91.025957
 20
58.545145
 30
0.0
 10
91.025957
 20
59.321104
 30
0.0
  0
LWPOLYLINE
  5
13d
100
AcDbEntity
  8
Corte
 62
1
100
AcDbPolyline
 90
5
 70
1
 10
97.640208
 20
41.768278
 30
0.0
 10
98.804462
 20
41.768278
 30
0.0
 10
98.804462
 20
40.992316
 30
0.0
 10
97.640208
 20
40.992319
 30
0.0
 10
97.640208
 20
41.768278
 30
0.0
  0
LWPOLYLINE
  5
13e
100
AcDbEntity
  8
Corte
 62
1
100
AcDbPolyline
 90
5
 70
1
 10
97.640208
 20
35.097397
 30
0.0
 10
98.804462
 20
35.097397
 30
0.0
 10
98.804462
 20
34.321435
 30
0.0
 10
97.640208
 20
34.321438
 30
0.0
 10
97.640208
 20
35.097397
 30
0.0
  0
LWPOLYLINE
  5
13f
100
AcDbEntity
  8
Corte
 62
1
100
AcDbPolyline
 90
5
 70
1
 10
100.061226
 20
53.240569
 30
0.0
 10
101.225480
 20
53.240569
 30
0.0
 10
101.225480
 20
52.464611
 30
0.0
 10
100.061226
 20
52.464611
 30
0.0
 10
100.061226
 20
53.240569
 30
0.0
  0
LWPOLYLINE
  5
140
100
AcDbEntity
  8
Corte
 62
1
100
AcDbPolyline
 90
5
 70
1
 10
100.061226
 20
47.172773
 30
0.0
 10
101.225477
 20
47.172776
 30
0.0
 10
101.225477
 20
46.396662
 30
0.0
 10
100.061228
 20
46.396662
 30
0.0
 10
100.061226
 20
47.172773
 30
0.0
  0
LWPOLYLINE
  5
141
100
AcDbEntity
  8
Corte
 62
1
100
AcDbPolyline
 90
5
 70
1
 10
75.843531
 20
46.048172
 30
0.0
 10
77.007785
 20
46.048172
 30
0.0
 10
77.007785
 20
45.272214
 30
0.0
 10
75.843531
 20
45.272214
 30
0.0
 10
75.843531
 20
46.048172
 30
0.0
  0
LWPOLYLINE
  5
142
100
AcDbEntity
  8
Corte
 62
1
100
AcDbPolyline
 90
5
 70
1
 10
75.843531
 20
39.980378
 30
0.0
 10
77.007782
 20
39.980380
 30
0.0
 10
77.007782
 20
39.204266
 30
0.0
 10
75.843534
 20
39.204266
 30
0.0
 10
75.843531
 20
39.980378
 30
0.0
  0
LWPOLYLINE
  5
143
100
AcDbEntity
  8
Corte
 62
1
100
AcDbPolyline
 90
5
 70
1
 10
81.195156
 20
52.711402
 30
0.0
 10
82.359410
 20
52.711402
 30
0.0
 10
82.359410
 20
51.935444
 30
0.0
 10
81.195156
 20
51.935444
 30
0.0
 10
81.195156
 20
52.711402
 30
0.0
  0
LWPOLYLINE
  5
144
100
AcDbEntity
  8
Corte
 62
1
100
AcDbPolyline
 90
5
 70
1
 10
81.195156
 20
47.701940
 30
0.0
 10
82.359407
 20
47.701943
 30
0.0
 10
82.359407
 20
46.925829
 30
0.0
 10
81.195158
 20
46.925829
 30
0.0
 10
81.195156
 20
47.701940
 30
0.0
  0
LWPOLYLINE
  5
145
100
AcDbEntity
  8
Corte
 62
1
100
AcDbPolyline
 90
5
 70
1
 10
70.914926
 20
47.975942
 30
0.0
 10
72.015006
 20
47.975942
 30
0.0
 10
72.015006
 20
46.875859
 30
0.0
 10
70.914926
 20
46.875859
 30
0.0
 10
70.914926
 20
47.975942
 30
0.0
  0
LWPOLYLINE
  5
146
100
AcDbEntity
  8
Corte
 62
1
100
AcDbPolyline
 90
5
 70
1
 10
105.323459
 20
47.975942
 30
0.0
 10
106.423539
 20
47.975942
 30
0.0
 10
106.423539
 20
46.875859
 30
0.0
 10
105.323459
 20
46.875859
 30
0.0
 10
105.323459
 20
47.975942
 30
0.0
  0
LWPOLYLINE
  5
147
100
AcDbEntity
  8
Corte
 62
1
100
AcDbPolyline
 90
5
 70
1
 10
88.119193
 20
65.180207
 30
0.0
 10
89.219272
 20
65.180207
 30
0.0
 10
89.219272
 20
64.080125
 30
0.0
 10
88.119193
 20
64.080125
 30
0.0
 10
88.119193
 20
65.180207
 30
0.0
  0
LWPOLYLINE
  5
148
100
AcDbEntity
  8
Corte
 62
1
100
AcDbPolyline
 90
5
 70
1
 10
88.119193
 20
30.771678
 30
0.0
 10
89.219272
 20
30.771678
 30
0.0
 10
89.219272
 20
29.671596
 30
0.0
 10
88.119193
 20
29.671596
 30
0.0
 10
88.119193
 20
30.771678
 30
0.0
  0
LWPOLYLINE
  5
149
100
AcDbEntity
  8
Corte
 62
1
100
AcDbPolyline
 90
5
 70
1
 10
48.764094
 20
82.832109
 30
0.0
 10
49.589154
 20
82.832109
 30
0.0
 10
49.589154
 20
82.007048
 30
0.0
 10
48.764094
 20
82.007048
 30
0.0
 10
48.764094
 20
82.832109
 30
0.0
  0
LWPOLYLINE
  5
14a
100
AcDbEntity
  8
Corte
 62
1
100
AcDbPolyline
 90
5
 70
1
 10
45.577173
 20
90.526008
 30
0.0
 10
46.402233
 20
90.526008
 30
0.0
 10
46.402233
 20
89.700947
 30
0.0
 10
45.577173
 20
89.700947
 30
0.0
 10
45.577173
 20
90.526008
 30
0.0
  0
LWPOLYLINE
  5
14b
100
AcDbEntity
  8
Corte
 62
1
100
AcDbPolyline
 90
5
 70
1
 10
48.764097
 20
91.846072
 30
0.0
 10
49.589157
 20
91.846072
 30
0.0
 10
49.589157
 20
91.021012
 30
0.0
 10
48.764097
 20
91.021012
 30
0.0
 10
48.764097
 20
91.846072
 30
0.0
  0
LWPOLYLINE
  5
14c
100
AcDbEntity
  8
Corte
 62
1
100
AcDbPolyline
 90
5
 70
1
 10
44.257118
 20
87.339095
 30
0.0
 10
45.082178
 20
87.339095
 30
0.0
 10
45.082178
 20
86.514034
 30
0.0
 10
44.257118
 20
86.514034
 30
0.0
 10
44.257118
 20
87.339095
 30
0.0
  0
LWPOLYLINE
  5
14d
100
AcDbEntity
  8
Corte
 62
1
100
AcDbPolyline
 90
5
 70
1
 10
53.271146
 20
87.339095
 30
0.0
 10
54.096206
 20
87.339095
 30
0.0
 10
54.096206
 20
86.514035
 30
0.0
 10
53.271146
 20
86.514035
 30
0.0
 10
53.271146
 20
87.339095
 30
0.0
  0
LWPOLYLINE
  5
14e
100
AcDbEntity
  8
Corte
 62
1
100
AcDbPolyline
 90
5
 70
1
 10
127.749213
 20
91.846052
 30
0.0
 10
128.574272
 20
91.846052
 30
0.0
 10
128.574272
 20
91.020992
 30
0.0
 10
127.749213
 20
91.020992
 30
0.0
 10
127.749213
 20
91.846052
 30
0.0
  0
LWPOLYLINE
  5
14f
100
AcDbEntity
  8
Corte
 62
1
100
AcDbPolyline
 90
5
 70
1
 10
123.242163
 20
87.339074
 30
0.0
 10
124.067223
 20
87.339074
 30
0.0
 10
124.067223
 20
86.514014
 30
0.0
 10
123.242163
 20
86.514014
 30
0.0
 10
123.242163
 20
87.339074
 30
0.0
  0
LWPOLYLINE
  5
150
100
AcDbEntity
  8
Corte
 62
1
100
AcDbPolyline
 90
5
 70
1
 10
127.749210
 20
82.832091
 30
0.0
 10
128.574269
 20
82.832091
 30
0.0
 10
128.574269
 20
82.007030
 30
0.0
 10
127.749210
 20
82.007030
 30
0.0
 10
127.749210
 20
82.832091
 30
0.0
  0
LWPOLYLINE
  5
151
100
AcDbEntity
  8
Corte
 62
1
100
AcDbPolyline
 90
5
 70
1
 10
132.256186
 20
87.339075
 30
0.0
 10
133.081245
 20
87.339075
 30
0.0
 10
133.081245
 20
86.514015
 30
0.0
 10
132.256186
 20
86.514015
 30
0.0
 10
132.256186
 20
87.339075
 30
0.0
  0
LWPOLYLINE
  5
152
100
AcDbEntity
  8
Corte
 62
1
100
AcDbPolyline
 90
5
 70
1
 10
130.936117
 20
90.525983
 30
0.0
 10
131.761176
 20
90.525983
 30
0.0
 10
131.761176
 20
89.700923
 30
0.0
 10
130.936117
 20
89.700923
 30
0.0
 10
130.936117
 20
90.525983
 30
0.0
  0
LWPOLYLINE
  5
153
100
AcDbEntity
  8
Corte
 62
1
100
AcDbPolyline
 90
5
 70
1
 10
127.749210
 20
12.844765
 30
0.0
 10
128.574269
 20
12.844765
 30
0.0
 10
128.574269
 20
12.019705
 30
0.0
 10
127.749210
 20
12.019705
 30
0.0
 10
127.749210
 20
12.844765
 30
0.0
  0
LWPOLYLINE
  5
154
100
AcDbEntity
  8
Corte
 62
1
100
AcDbPolyline
 90
5
 70
1
 10
123.242152
 20
8.337783
 30
0.0
 10
124.067212
 20
8.337783
 30
0.0
 10
124.067212
 20
7.512723
 30
0.0
 10
123.242152
 20
7.512723
 30
0.0
 10
123.242152
 20
8.337783
 30
0.0
  0
LWPOLYLINE
  5
155
100
AcDbEntity
  8
Corte
 62
1
100
AcDbPolyline
 90
5
 70
1
 10
127.749210
 20
3.830798
 30
0.0
 10
128.574269
 20
3.830798
 30
0.0
 10
128.574269
 20
3.005739
 30
0.0
 10
127.749210
 20
3.005739
 30
0.0
 10
127.749210
 20
3.830798
 30
0.0
  0
LWPOLYLINE
  5
156
100
AcDbEntity
  8
Corte
 62
1
100
AcDbPolyline
 90
5
 70
1
 10
130.936122
 20
5.150865
 30
0.0
 10
131.761182
 20
5.150865
 30
0.0
 10
131.761182
 20
4.325805
 30
0.0
 10
130.936122
 20
4.325805
 30
0.0
 10
130.936122
 20
5.150865
 30
0.0
  0
LWPOLYLINE
  5
157
100
AcDbEntity
  8
Corte
 62
1
100
AcDbPolyline
 90
5
 70
1
 10
132.256189
 20
8.337780
 30
0.0
 10
133.081248
 20
8.337780
 30
0.0
 10
133.081248
 20
7.512720
 30
0.0
 10
132.256189
 20
7.512720
 30
0.0
 10
132.256189
 20
8.337780
 30
0.0
  0
LWPOLYLINE
  5
158
100
AcDbEntity
  8
Corte
 62
1
100
AcDbPolyline
 90
5
 70
1
 10
48.764094
 20
12.844748
 30
0.0
 10
49.589154
 20
12.844748
 30
0.0
 10
49.589154
 20
12.019688
 30
0.0
 10
48.764094
 20
12.019688
 30
0.0
 10
48.764094
 20
12.844748
 30
0.0
  0
LWPOLYLINE
  5
159
100
AcDbEntity
  8
Corte
 62
1
100
AcDbPolyline
 90
5
 70
1
 10
44.257118
 20
8.337760
 30
0.0
 10
45.082178
 20
8.337760
 30
0.0
 10
45.082178
 20
7.512701
 30
0.0
 10
44.257118
 20
7.512701
 30
0.0
 10
44.257118
 20
8.337760
 30
0.0
  0
LWPOLYLINE
  5
15a
100
AcDbEntity
  8
Corte
 62
1
100
AcDbPolyline
 90
5
 70
1
 10
45.577187
 20
5.150851
 30
0.0
 10
46.402247
 20
5.150851
 30
0.0
 10
46.402247
 20
4.325791
 30
0.0
 10
45.577187
 20
4.325791
 30
0.0
 10
45.577187
 20
5.150851
 30
0.0
  0
LWPOLYLINE
  5
15b
100
AcDbEntity
  8
Corte
 62
1
100
AcDbPolyline
 90
5
 70
1
 10
48.764097
 20
3.830781
 30
0.0
 10
49.589157
 20
3.830781
 30
0.0
 10
49.589157
 20
3.005722
 30
0.0
 10
48.764097
 20
3.005722
 30
0.0
 10
48.764097
 20
3.830781
 30
0.0
  0
LWPOLYLINE
  5
15c
100
AcDbEntity
  8
Corte
 62
1
100
AcDbPolyline
 90
5
 70
1
 10
53.271146
 20
8.337763
 30
0.0
 10
54.096206
 20
8.337763
 30
0.0
 10
54.096206
 20
7.512703
 30
0.0
 10
53.271146
 20
7.512703
 30
0.0
 10
53.271146
 20
8.337763
 30
0.0
  0
LWPOLYLINE
  5
15d
100
AcDbEntity
  8
Corte
 62
1
100
AcDbPolyline
 90
5
 70
1
 10
90.103063
 20
33.442491
 30
0.0
 10
90.928122
 20
33.442491
 30
0.0
 10
90.928122
 20
32.617431
 30
0.0
 10
90.103063
 20
32.617431
 30
0.0
 10
90.103063
 20
33.442491
 30
0.0
  0
LWPOLYLINE
  5
15e
100
AcDbEntity
  8
Corte
 62
1
100
AcDbPolyline
 90
5
 70
1
 10
90.103111
 20
37.135262
 30
0.0
 10
90.928170
 20
37.135262
 30
0.0
 10
90.928170
 20
36.310202
 30
0.0
 10
90.103111
 20
36.310202
 30
0.0
 10
90.103111
 20
37.135262
 30
0.0
  0
LWPOLYLINE
  5
15f
100
AcDbEntity
  8
Corte
 62
1
100
AcDbPolyline
 90
5
 70
1
 10
86.410340
 20
37.135214
 30
0.0
 10
87.235400
 20
37.135214
 30
0.0
 10
87.235400
 20
36.310154
 30
0.0
 10
86.410340
 20
36.310154
 30
0.0
 10
86.410340
 20
37.135214
 30
0.0
  0
LWPOLYLINE
  5
160
100
AcDbEntity
  8
Corte
 62
1
100
AcDbPolyline
 90
5
 70
1
 10
86.410346
 20
33.442497
 30
0.0
 10
87.235405
 20
33.442497
 30
0.0
 10
87.235405
 20
32.617437
 30
0.0
 10
86.410346
 20
32.617437
 30
0.0
 10
86.410346
 20
33.442497
 30
0.0
  0
LWPOLYLINE
  5
161
100
AcDbEntity
  8
Grabado
 62
1
100
AcDbPolyline
 90
139
 70
1
 10
39.810405
 20
65.783998
 30
0.0
 10
41.341477
 20
64.156163
 30
0.0
 10
44.028089
 20
64.153200
 30
0.0
 10
44.028089
 20
62.479783
 30
0.0
 10
44.722065
 20
61.737428
 30
0.0
 10
45.806354
 20
61.737428
 30
0.0
 10
45.806354
 20
62.676263
 30
0.0
 10
45.030240
 20
62.676263
 30
0.0
 10
45.030240
 20
64.152110
 30
0.0
 10
48.082742
 20
64.148696
 30
0.0
 10
48.082742
 20
62.676266
 30
0.0
 10
47.306780
 20
62.676266
 30
0.0
 10
47.306780
 20
61.737431
 30
0.0
 10
48.232706
 20
61.737431
 30
0.0
 10
49.001818
 20
62.479786
 30
0.0
 10
49.001818
 20
64.147756
 30
0.0
 10
54.492988
 20
64.144341
 30
0.0
 10
55.670772
 20
63.037333
 30
0.0
 10
55.674187
 20
57.475385
 30
0.0
 10
54.006061
 20
57.475385
 30
0.0
 10
53.263704
 20
56.706425
 30
0.0
 10
53.263704
 20
55.780502
 30
0.0
 10
54.202542
 20
55.780502
 30
0.0
 10
54.202542
 20
56.556463
 30
0.0
 10
55.675121
 20
56.556463
 30
0.0
 10
55.678395
 20
53.503964
 30
0.0
 10
54.202547
 20
53.503964
 30
0.0
 10
54.202547
 20
54.279923
 30
0.0
 10
53.263713
 20
54.279923
 30
0.0
 10
53.263713
 20
53.195792
 30
0.0
 10
54.006070
 20
52.501655
 30
0.0
 10
55.679484
 20
52.501655
 30
0.0
 10
55.683068
 20
49.256102
 30
0.0
 10
55.685044
 20
49.256102
 30
0.0
 10
55.683915
 20
48.297354
 30
0.0
 10
55.685044
 20
47.338608
 30
0.0
 10
55.683068
 20
47.338608
 30
0.0
 10
55.679484
 20
44.093047
 30
0.0
 10
54.006070
 20
44.093047
 30
0.0
 10
53.263713
 20
43.399071
 30
0.0
 10
53.263713
 20
42.314779
 30
0.0
 10
54.202547
 20
42.314779
 30
0.0
 10
54.202547
 20
43.090898
 30
0.0
 10
55.678395
 20
43.090898
 30
0.0
 10
55.675121
 20
40.038400
 30
0.0
 10
54.202542
 20
40.038400
 30
0.0
 10
54.202542
 20
40.814353
 30
0.0
 10
53.263704
 20
40.814353
 30
0.0
 10
53.263704
 20
39.888427
 30
0.0
 10
54.006061
 20
39.119318
 30
0.0
 10
55.674187
 20
39.119318
 30
0.0
 10
55.670772
 20
33.627996
 30
0.0
 10
54.492988
 20
32.450051
 30
0.0
 10
49.001818
 20
32.446636
 30
0.0
 10
49.001818
 20
34.114917
 30
0.0
 10
48.232706
 20
34.857113
 30
0.0
 10
47.306780
 20
34.857113
 30
0.0
 10
47.306780
 20
33.918436
 30
0.0
 10
48.082742
 20
33.918436
 30
0.0
 10
48.082742
 20
32.445705
 30
0.0
 10
45.030240
 20
32.442431
 30
0.0
 10
45.030240
 20
33.918436
 30
0.0
 10
45.806354
 20
33.918436
 30
0.0
 10
45.806354
 20
34.857113
 30
0.0
 10
44.722065
 20
34.857113
 30
0.0
 10
44.028089
 20
34.114917
 30
0.0
 10
44.028089
 20
32.441347
 30
0.0
 10
40.782220
 20
32.437763
 30
0.0
 10
40.782220
 20
32.436070
 30
0.0
 10
39.823627
 20
32.437199
 30
0.0
 10
38.864723
 20
32.436070
 30
0.0
 10
38.864723
 20
32.437763
 30
0.0
 10
35.619478
 20
32.441347
 30
0.0
 10
35.619478
 20
34.114917
 30
0.0
 10
34.925347
 20
34.857113
 30
0.0
 10
33.841213
 20
34.857113
 30
0.0
 10
33.841213
 20
33.918436
 30
0.0
 10
34.617172
 20
33.918436
 30
0.0
 10
34.617172
 20
32.442431
 30
0.0
 10
31.564670
 20
32.445705
 30
0.0
 10
31.564670
 20
33.918436
 30
0.0
 10
32.340632
 20
33.918436
 30
0.0
 10
32.340632
 20
34.857113
 30
0.0
 10
31.414706
 20
34.857113
 30
0.0
 10
30.645746
 20
34.114917
 30
0.0
 10
30.645746
 20
32.446636
 30
0.0
 10
25.154269
 20
32.450051
 30
0.0
 10
23.976646
 20
33.627996
 30
0.0
 10
23.973231
 20
39.119318
 30
0.0
 10
25.641198
 20
39.119318
 30
0.0
 10
26.383398
 20
39.888427
 30
0.0
 10
26.383398
 20
40.814353
 30
0.0
 10
25.444721
 20
40.814353
 30
0.0
 10
25.444721
 20
40.038400
 30
0.0
 10
23.972297
 20
40.038400
 30
0.0
 10
23.968882
 20
43.090898
 30
0.0
 10
25.444729
 20
43.090898
 30
0.0
 10
25.444729
 20
42.314779
 30
0.0
 10
26.383406
 20
42.314779
 30
0.0
 10
26.383406
 20
43.399071
 30
0.0
 10
25.641210
 20
44.093047
 30
0.0
 10
23.967793
 20
44.093047
 30
0.0
 10
23.964209
 20
47.338608
 30
0.0
 10
23.962233
 20
47.338608
 30
0.0
 10
23.963362
 20
48.297354
 30
0.0
 10
23.962233
 20
49.256102
 30
0.0
 10
23.964209
 20
49.256102
 30
0.0
 10
23.967793
 20
52.501655
 30
0.0
 10
25.641210
 20
52.501655
 30
0.0
 10
26.383406
 20
53.195792
 30
0.0
 10
26.383406
 20
54.279923
 30
0.0
 10
25.444729
 20
54.279923
 30
0.0
 10
25.444729
 20
53.503964
 30
0.0
 10
23.968882
 20
53.503964
 30
0.0
 10
23.972297
 20
56.556463
 30
0.0
 10
25.444721
 20
56.556463
 30
0.0
 10
25.444721
 20
55.780502
 30
0.0
 10
26.383398
 20
55.780502
 30
0.0
 10
26.383398
 20
56.706425
 30
0.0
 10
25.641198
 20
57.475385
 30
0.0
 10
23.973231
 20
57.475385
 30
0.0
 10
23.976646
 20
63.037333
 30
0.0
 10
25.154269
 20
64.144341
 30
0.0
 10
30.645746
 20
64.147756
 30
0.0
 10
30.645746
 20
62.479786
 30
0.0
 10
31.414706
 20
61.737431
 30
0.0
 10
32.340632
 20
61.737431
 30
0.0
 10
32.340632
 20
62.676266
 30
0.0
 10
31.564670
 20
62.676266
 30
0.0
 10
31.564670
 20
64.148696
 30
0.0
 10
34.617172
 20
64.152110
 30
0.0
 10
34.617172
 20
62.676263
 30
0.0
 10
33.841213
 20
62.676263
 30
0.0
 10
33.841213
 20
61.737428
 30
0.0
 10
34.925347
 20
61.737428
 30
0.0
 10
35.619478
 20
62.479783
 30
0.0
 10
35.619478
 20
64.153200
 30
0.0
 10
38.310600
 20
64.156163
 30
0.0
 10
39.810405
 20
65.783998
 30
0.0
  0
LWPOLYLINE
  5
162
100
AcDbEntity
  8
Grabado
 62
1
100
AcDbPolyline
 90
5
 70
1
 10
33.447485
 20
47.672872
 30
0.0
 10
33.447485
 20
48.836813
 30
0.0
 10
32.671371
 20
48.836813
 30
0.0
 10
32.671371
 20
47.672872
 30
0.0
 10
33.447485
 20
47.672872
 30
0.0
  0
LWPOLYLINE
  5
163
100
AcDbEntity
  8
Grabado
 62
1
100
AcDbPolyline
 90
5
 70
1
 10
26.391924
 20
47.672869
 30
0.0
 10
26.391924
 20
48.836810
 30
0.0
 10
25.615818
 20
48.836813
 30
0.0
 10
25.615818
 20
47.672872
 30
0.0
 10
26.391924
 20
47.672869
 30
0.0
  0
LWPOLYLINE
  5
164
100
AcDbEntity
  8
Grabado
 62
1
100
AcDbPolyline
 90
5
 70
1
 10
40.405612
 20
34.038753
 30
0.0
 10
39.241668
 20
34.038753
 30
0.0
 10
39.241665
 20
33.262650
 30
0.0
 10
40.405609
 20
33.262650
 30
0.0
 10
40.405612
 20
34.038753
 30
0.0
  0
LWPOLYLINE
  5
165
100
AcDbEntity
  8
Grabado
 62
1
100
AcDbPolyline
 90
5
 70
1
 10
48.153523
 20
43.424906
 30
0.0
 10
48.153523
 20
44.588847
 30
0.0
 10
47.377409
 20
44.588847
 30
0.0
 10
47.377409
 20
43.424906
 30
0.0
 10
48.153523
 20
43.424906
 30
0.0
  0
LWPOLYLINE
  5
166
100
AcDbEntity
  8
Grabado
 62
1
100
AcDbPolyline
 90
5
 70
1
 10
46.605842
 20
43.424906
 30
0.0
 10
46.605842
 20
44.588847
 30
0.0
 10
45.829728
 20
44.588847
 30
0.0
 10
45.829728
 20
43.424906
 30
0.0
 10
46.605842
 20
43.424906
 30
0.0
  0
LWPOLYLINE
  5
167
100
AcDbEntity
  8
Grabado
 62
1
100
AcDbPolyline
 90
5
 70
1
 10
26.726982
 20
34.017681
 30
0.0
 10
29.035806
 20
36.326512
 30
0.0
 10
27.802543
 20
37.559779
 30
0.0
 10
25.493717
 20
35.250949
 30
0.0
 10
26.726982
 20
34.017681
 30
0.0
  0
LWPOLYLINE
  5
168
100
AcDbEntity
  8
Grabado
 62
1
100
AcDbPolyline
 90
5
 70
1
 10
52.920189
 20
34.017670
 30
0.0
 10
50.611359
 20
36.326500
 30
0.0
 10
51.844625
 20
37.559766
 30
0.0
 10
54.153455
 20
35.250937
 30
0.0
 10
52.920189
 20
34.017670
 30
0.0
  0
LWPOLYLINE
  5
169
100
AcDbEntity
  8
Grabado
 62
1
100
AcDbPolyline
 90
5
 70
1
 10
52.920203
 20
62.577018
 30
0.0
 10
50.611371
 20
60.268186
 30
0.0
 10
51.844636
 20
59.034918
 30
0.0
 10
54.153468
 20
61.343750
 30
0.0
 10
52.920203
 20
62.577018
 30
0.0
  0
LWPOLYLINE
  5
16a
100
AcDbEntity
  8
Grabado
 62
1
100
AcDbPolyline
 90
5
 70
1
 10
26.726969
 20
62.576997
 30
0.0
 10
29.035797
 20
60.268165
 30
0.0
 10
27.802532
 20
59.034894
 30
0.0
 10
25.493704
 20
61.343730
 30
0.0
 10
26.726969
 20
62.576997
 30
0.0
  0
LWPOLYLINE
  5
16b
100
AcDbEntity
  8
Grabado
 62
5
100
AcDbPolyline
 90
5
 70
1
 10
32.671091
 20
54.467148
 30
0.0
 10
26.399250
 20
54.467148
 30
0.0
 10
26.399250
 20
42.127529
 30
0.0
 10
32.671091
 20
42.127529
 30
0.0
 10
32.671091
 20
54.467148
 30
0.0
  0
LWPOLYLINE
  5
16c
100
AcDbEntity
  8
Grabado
 62
5
100
AcDbPolyline
 90
17
 70
1
 10
47.397007
 20
48.236899
 30
0.0
 10
47.712478
 20
46.674316
 30
0.0
 10
48.572793
 20
45.398297
 30
0.0
 10
49.848815
 20
44.537982
 30
0.0
 10
51.411395
 20
44.222511
 30
0.0
 10
52.973975
 20
44.537982
 30
0.0
 10
54.249997
 20
45.398297
 30
0.0
 10
55.110312
 20
46.674319
 30
0.0
 10
55.425783
 20
48.236899
 30
0.0
 10
55.110312
 20
49.799479
 30
0.0
 10
54.249995
 20
51.075500
 30
0.0
 10
52.973975
 20
51.935817
 30
0.0
 10
51.411395
 20
52.251287
 30
0.0
 10
49.848815
 20
51.935816
 30
0.0
 10
48.572795
 20
51.075500
 30
0.0
 10
47.712478
 20
49.799479
 30
0.0
 10
47.397007
 20
48.236899
 30
0.0
  0
LWPOLYLINE
  5
16d
100
AcDbEntity
  8
Grabado
 62
5
100
AcDbPolyline
 90
18
 70
1
 10
46.413186
 20
59.543599
 30
0.0
 10
46.413186
 20
55.244748
 30
0.0
 10
45.533318
 20
53.875595
 30
0.0
 10
45.533318
 20
42.719085
 30
0.0
 10
46.413186
 20
41.349935
 30
0.0
 10
46.413186
 20
37.051080
 30
0.0
 10
45.533318
 20
37.051080
 30
0.0
 10
34.114023
 20
37.051080
 30
0.0
 10
33.233998
 20
37.051080
 30
0.0
 10
33.233998
 20
41.349935
 30
0.0
 10
34.114023
 20
42.719085
 30
0.0
 10
34.114023
 20
53.875595
 30
0.0
 10
33.233998
 20
55.244748
 30
0.0
 10
33.233998
 20
59.543599
 30
0.0
 10
34.114023
 20
59.543599
 30
0.0
 10
45.533318
 20
59.543599
 30
0.0
 10
46.413186
 20
59.543599
 30
0.0
 10
46.413186
 20
59.543599
 30
0.0
  0
LWPOLYLINE
  5
16e
100
AcDbEntity
  8
Grabado
 62
5
100
AcDbPolyline
 90
6
 70
0
 10
31.905603
 20
42.132884
 30
0.0
 10
31.905603
 20
36.540215
 30
0.0
 10
32.684395
 20
35.761420
 30
0.0
 10
46.207090
 20
35.761420
 30
0.0
 10
46.985885
 20
36.540215
 30
0.0
 10
46.985885
 20
56.575970
 30
0.0
  0
LWPOLYLINE
  5
16f
100
AcDbEntity
  8
Grabado
 62
5
100
AcDbPolyline
 90
6
 70
0
 10
27.162040
 20
42.132884
 30
0.0
 10
27.162040
 20
38.797440
 30
0.0
 10
24.776337
 20
36.384101
 30
0.0
 10
24.776337
 20
34.549479
 30
0.0
 10
26.495999
 20
32.835287
 30
0.0
 10
54.065830
 20
32.835287
 30
0.0
  0
LWPOLYLINE
  5
170
100
AcDbEntity
  8
Grabado
 62
5
100
AcDbPolyline
 90
5
 70
0
 10
88.640231
 20
76.320658
 30
0.0
 10
88.060798
 20
74.688086
 30
0.0
 10
88.640231
 20
75.162125
 30
0.0
 10
89.246416
 20
74.688085
 30
0.0
 10
88.640231
 20
76.320658
 30
0.0
  0
LWPOLYLINE
  5
171
100
AcDbEntity
  8
Grabado
 62
5
100
AcDbPolyline
 90
5
 70
1
 10
103.559603
 20
41.369174
 30
0.0
 10
94.945868
 20
41.369174
 30
0.0
 10
94.945868
 20
34.730995
 30
0.0
 10
103.559603
 20
34.730995
 30
0.0
 10
103.559603
 20
41.369174
 30
0.0
  0
LWPOLYLINE
  5
172
100
AcDbEntity
  8
Grabado
 62
5
100
AcDbPolyline
 90
5
 70
1
 10
96.755386
 20
66.001881
 30
0.0
 10
86.460779
 20
66.001881
 30
0.0
 10
86.460779
 20
59.376163
 30
0.0
 10
96.755386
 20
59.376163
 30
0.0
 10
96.755386
 20
66.001881
 30
0.0
  0
LWPOLYLINE
  5
173
100
AcDbEntity
  8
Grabado
 62
5
100
AcDbPolyline
 90
5
 70
1
 10
104.005743
 20
52.384146
 30
0.0
 10
97.251109
 20
52.384146
 30
0.0
 10
97.251109
 20
47.253081
 30
0.0
 10
104.005743
 20
47.253081
 30
0.0
 10
104.005743
 20
52.384146
 30
0.0
  0
LWPOLYLINE
  5
174
100
AcDbEntity
  8
Grabado
 62
5
100
AcDbPolyline
 90
5
 70
1
 10
84.491998
 20
51.842861
 30
0.0
 10
79.162478
 20
51.842861
 30
0.0
 10
79.162478
 20
47.794364
 30
0.0
 10
84.491998
 20
47.794364
 30
0.0
 10
84.491998
 20
51.842861
 30
0.0
  0
LWPOLYLINE
  5
175
100
AcDbEntity
  8
Grabado
 62
5
100
AcDbPolyline
 90
2
 70
0
 10
84.498081
 20
50.543422
 30
0.0
 10
97.212161
 20
50.543422
 30
0.0
  0
LWPOLYLINE
  5
176
100
AcDbEntity
  8
Grabado
 62
5
100
AcDbPolyline
 90
2
 70
0
 10
84.498081
 20
49.363431
 30
0.0
 10
97.212161
 20
49.363431
 30
0.0
  0
LWPOLYLINE
  5
177
100
AcDbEntity
  8
Grabado
 62
5
100
AcDbPolyline
 90
2
 70
0
 10
104.021148
 20
50.543422
 30
0.0
 10
107.211492
 20
50.543422
 30
0.0
  0
LWPOLYLINE
  5
178
100
AcDbEntity
  8
Grabado
 62
5
100
AcDbPolyline
 90
2
 70
0
 10
104.021148
 20
49.363431
 30
0.0
 10
107.211492
 20
49.363431
 30
0.0
  0
LWPOLYLINE
  5
179
100
AcDbEntity
  8
Grabado
 62
5
100
AcDbPolyline
 90
2
 70
0
 10
74.493580
 20
43.203133
 30
0.0
 10
77.724251
 20
43.203133
 30
0.0
  0
LWPOLYLINE
  5
17a
100
AcDbEntity
  8
Grabado
 62
5
100
AcDbPolyline
 90
2
 70
0
 10
73.518923
 20
41.103526
 30
0.0
 10
77.724251
 20
41.103526
 30
0.0
  0
LWPOLYLINE
  5
17b
100
AcDbEntity
  8
Grabado
 62
5
100
AcDbPolyline
 90
3
 70
0
 10
79.151364
 20
50.543448
 30
0.0
 10
73.518923
 20
50.543448
 30
0.0
 10
73.518923
 20
41.091080
 30
0.0
  0
LWPOLYLINE
  5
17c
100
AcDbEntity
  8
Grabado
 62
5
100
AcDbPolyline
 90
2
 70
0
 10
73.518923
 20
41.421955
 30
0.0
 10
77.724251
 20
41.421955
 30
0.0
  0
LWPOLYLINE
  5
17d
100
AcDbEntity
  8
Grabado
 62
5
100
AcDbPolyline
 90
2
 70
0
 10
73.518923
 20
41.752826
 30
0.0
 10
77.724251
 20
41.752826
 30
0.0
  0
LWPOLYLINE
  5
17e
100
AcDbEntity
  8
Grabado
 62
5
100
AcDbPolyline
 90
2
 70
0
 10
73.518923
 20
42.083701
 30
0.0
 10
77.724251
 20
42.083701
 30
0.0
  0
LWPOLYLINE
  5
17f
100
AcDbEntity
  8
Grabado
 62
5
100
AcDbPolyline
 90
3
 70
0
 10
79.151364
 20
49.337235
 30
0.0
 10
74.493580
 20
49.337235
 30
0.0
 10
74.493580
 20
43.190687
 30
0.0
  0
LWPOLYLINE
  5
180
100
AcDbEntity
  8
Grabado
 62
5
100
AcDbPolyline
 90
2
 70
0
 10
74.493580
 20
43.521561
 30
0.0
 10
77.724251
 20
43.521561
 30
0.0
  0
LWPOLYLINE
  5
181
100
AcDbEntity
  8
Grabado
 62
5
100
AcDbPolyline
 90
2
 70
0
 10
74.493580
 20
43.852433
 30
0.0
 10
77.724251
 20
43.852433
 30
0.0
  0
LWPOLYLINE
  5
182
100
AcDbEntity
  8
Grabado
 62
5
100
AcDbPolyline
 90
2
 70
0
 10
74.493580
 20
44.183307
 30
0.0
 10
77.724251
 20
44.183307
 30
0.0
  0
LWPOLYLINE
  5
183
100
AcDbEntity
  8
Grabado
 62
5
100
AcDbPolyline
 90
17
 70
1
 10
92.906271
 20
37.789724
 30
0.0
 10
91.582629
 20
39.113366
 30
0.0
 10
89.883059
 20
37.413792
 30
0.0
 10
87.456095
 20
37.412946
 30
0.0
 10
85.755686
 20
39.113352
 30
0.0
 10
84.432163
 20
37.789673
 30
0.0
 10
86.132492
 20
36.089341
 30
0.0
 10
86.101606
 20
33.632288
 30
0.0
 10
84.432163
 20
31.962848
 30
0.0
 10
85.755805
 20
30.639206
 30
0.0
 10
87.425245
 20
32.308646
 30
0.0
 10
89.893343
 20
32.328487
 30
0.0
 10
91.582629
 20
30.639203
 30
0.0
 10
92.906232
 20
31.962806
 30
0.0
 10
91.216946
 20
33.652089
 30
0.0
 10
91.206701
 20
36.090100
 30
0.0
 10
92.906271
 20
37.789724
 30
0.0
  0
LWPOLYLINE
  5
184
100
AcDbEntity
  8
Grabado
 62
5
100
AcDbPolyline
 90
6
 70
0
 10
122.566805
 20
80.743478
 30
0.0
 10
122.248829
 20
81.179020
 30
0.0
 10
121.644327
 20
81.517613
 30
0.0
 10
120.967361
 20
81.543153
 30
0.0
 10
120.375541
 20
81.299795
 30
0.0
 10
119.913484
 20
80.760015
 30
0.0
  0
LWPOLYLINE
  5
185
100
AcDbEntity
  8
Grabado
 62
5
100
AcDbPolyline
 90
3
 70
0
 10
119.862036
 20
81.423195
 30
0.0
 10
119.913484
 20
80.760015
 30
0.0
 10
120.576661
 20
80.811465
 30
0.0
  0
LWPOLYLINE
  5
186
100
AcDbEntity
  8
Grabado
 62
5
100
AcDbPolyline
 90
6
 70
0
 10
119.898660
 20
79.456337
 30
0.0
 10
120.216636
 20
79.020795
 30
0.0
 10
120.821138
 20
78.682202
 30
0.0
 10
121.498104
 20
78.656661
 30
0.0
 10
122.089924
 20
78.900020
 30
0.0
 10
122.551981
 20
79.439800
 30
0.0
  0
LWPOLYLINE
  5
187
100
AcDbEntity
  8
Grabado
 62
5
100
AcDbPolyline
 90
3
 70
0
 10
122.603429
 20
78.776620
 30
0.0
 10
122.551981
 20
79.439800
 30
0.0
 10
121.888804
 20
79.388350
 30
0.0
  0
LWPOLYLINE
  5
188
100
AcDbEntity
  8
Grabado
 62
5
100
AcDbPolyline
 90
3
 70
0
 10
120.882306
 20
80.219254
 30
0.0
 10
121.044504
 20
80.518415
 30
0.0
 10
121.044504
 20
79.676416
 30
0.0
  0
LWPOLYLINE
  5
189
100
AcDbEntity
  8
Grabado
 62
5
100
AcDbPolyline
 90
3
 70
0
 10
121.290306
 20
79.680018
 30
0.0
 10
121.446283
 20
80.203749
 30
0.0
 10
121.581734
 20
79.685711
 30
0.0
  0
LWPOLYLINE
  5
18a
100
AcDbEntity
  8
Grabado
 62
5
100
AcDbPolyline
 90
2
 70
0
 10
121.351875
 20
79.890649
 30
0.0
 10
121.516060
 20
79.890649
 30
0.0
  0
LWPOLYLINE
  5
18b
100
AcDbEntity
  8
Grabado
 62
5
100
AcDbPolyline
 90
6
 70
0
 10
119.898660
 20
15.322100
 30
0.0
 10
120.216636
 20
15.757642
 30
0.0
 10
120.821138
 20
16.096235
 30
0.0
 10
121.498104
 20
16.121775
 30
0.0
 10
122.089924
 20
15.878417
 30
0.0
 10
122.551981
 20
15.338637
 30
0.0
  0
LWPOLYLINE
  5
18c
100
AcDbEntity
  8
Grabado
 62
5
100
AcDbPolyline
 90
3
 70
0
 10
122.603429
 20
16.001817
 30
0.0
 10
122.551981
 20
15.338637
 30
0.0
 10
121.888804
 20
15.390087
 30
0.0
  0
LWPOLYLINE
  5
18d
100
AcDbEntity
  8
Grabado
 62
5
100
AcDbPolyline
 90
6
 70
0
 10
122.566805
 20
14.034959
 30
0.0
 10
122.248829
 20
13.599417
 30
0.0
 10
121.644327
 20
13.260824
 30
0.0
 10
120.967361
 20
13.235284
 30
0.0
 10
120.375541
 20
13.478642
 30
0.0
 10
119.913484
 20
14.018422
 30
0.0
  0
LWPOLYLINE
  5
18e
100
AcDbEntity
  8
Grabado
 62
5
100
AcDbPolyline
 90
3
 70
0
 10
119.862036
 20
13.355242
 30
0.0
 10
119.913484
 20
14.018422
 30
0.0
 10
120.576661
 20
13.966972
 30
0.0
  0
LWPOLYLINE
  5
18f
100
AcDbEntity
  8
Grabado
 62
5
100
AcDbPolyline
 90
4
 70
0
 10
121.200802
 20
14.511475
 30
0.0
 10
120.788354
 20
14.511475
 30
0.0
 10
121.115198
 20
15.079844
 30
0.0
 10
121.115198
 20
14.238082
 30
0.0
  0
LWPOLYLINE
  5
190
100
AcDbEntity
  8
Grabado
 62
5
100
AcDbPolyline
 90
11
 70
1
 10
121.439940
 20
14.249042
 30
0.0
 10
121.439940
 20
14.791567
 30
0.0
 10
121.574052
 20
14.791567
 30
0.0
 10
121.621948
 20
14.684085
 30
0.0
 10
121.583633
 20
14.551013
 30
0.0
 10
121.449521
 20
14.551013
 30
0.0
 10
121.636319
 20
14.551013
 30
0.0
 10
121.684217
 20
14.484477
 30
0.0
 10
121.684217
 20
14.346286
 30
0.0
 10
121.626740
 20
14.249042
 30
0.0
 10
121.439940
 20
14.249042
 30
0.0
  0
LWPOLYLINE
  5
191
100
AcDbEntity
  8
Grabado
 62
5
100
AcDbPolyline
 90
6
 70
0
 10
57.296769
 20
15.322100
 30
0.0
 10
56.978793
 20
15.757642
 30
0.0
 10
56.374291
 20
16.096235
 30
0.0
 10
55.697325
 20
16.121775
 30
0.0
 10
55.105505
 20
15.878417
 30
0.0
 10
54.643448
 20
15.338637
 30
0.0
  0
LWPOLYLINE
  5
192
100
AcDbEntity
  8
Grabado
 62
5
100
AcDbPolyline
 90
3
 70
0
 10
54.592000
 20
16.001817
 30
0.0
 10
54.643448
 20
15.338637
 30
0.0
 10
55.306625
 20
15.390087
 30
0.0
  0
LWPOLYLINE
  5
193
100
AcDbEntity
  8
Grabado
 62
5
100
AcDbPolyline
 90
6
 70
0
 10
54.628624
 20
14.034959
 30
0.0
 10
54.946600
 20
13.599417
 30
0.0
 10
55.551102
 20
13.260824
 30
0.0
 10
56.228068
 20
13.235284
 30
0.0
 10
56.819888
 20
13.478642
 30
0.0
 10
57.281945
 20
14.018422
 30
0.0
  0
LWPOLYLINE
  5
194
100
AcDbEntity
  8
Grabado
 62
5
100
AcDbPolyline
 90
3
 70
0
 10
57.333394
 20
13.355242
 30
0.0
 10
57.281945
 20
14.018422
 30
0.0
 10
56.618768
 20
13.966972
 30
0.0
  0
LWPOLYLINE
  5
195
100
AcDbEntity
  8
Grabado
 62
5
100
AcDbPolyline
 90
9
 70
0
 10
55.511455
 20
14.934934
 30
0.0
 10
55.647041
 20
15.084563
 30
0.0
 10
55.811167
 20
15.091686
 30
0.0
 10
55.932480
 20
14.949183
 30
0.0
 10
55.889664
 20
14.749679
 30
0.0
 10
55.696991
 20
14.578675
 30
0.0
 10
55.561406
 20
14.386296
 30
0.0
 10
55.525730
 20
14.265169
 30
0.0
 10
55.939617
 20
14.265169
 30
0.0
  0
LWPOLYLINE
  5
196
100
AcDbEntity
  8
Grabado
 62
5
100
AcDbPolyline
 90
7
 70
0
 10
56.421320
 20
14.808282
 30
0.0
 10
56.279063
 20
14.808282
 30
0.0
 10
56.186288
 20
14.724157
 30
0.0
 10
56.136809
 20
14.506424
 30
0.0
 10
56.180107
 20
14.308484
 30
0.0
 10
56.254323
 20
14.249103
 30
0.0
 10
56.402767
 20
14.249103
 30
0.0
  0
LWPOLYLINE
  5
197
100
AcDbEntity
  8
Grabado
 62
5
100
AcDbPolyline
 90
6
 70
0
 10
54.628624
 20
80.743478
 30
0.0
 10
54.946600
 20
81.179020
 30
0.0
 10
55.551102
 20
81.517613
 30
0.0
 10
56.228068
 20
81.543153
 30
0.0
 10
56.819888
 20
81.299795
 30
0.0
 10
57.281945
 20
80.760015
 30
0.0
  0
LWPOLYLINE
  5
198
100
AcDbEntity
  8
Grabado
 62
5
100
AcDbPolyline
 90
3
 70
0
 10
57.333394
 20
81.423195
 30
0.0
 10
57.281945
 20
80.760015
 30
0.0
 10
56.618768
 20
80.811465
 30
0.0
  0
LWPOLYLINE
  5
199
100
AcDbEntity
  8
Grabado
 62
5
100
AcDbPolyline
 90
6
 70
0
 10
57.296769
 20
79.456337
 30
0.0
 10
56.978794
 20
79.020795
 30
0.0
 10
56.374291
 20
78.682202
 30
0.0
 10
55.697325
 20
78.656661
 30
0.0
 10
55.105505
 20
78.900020
 30
0.0
 10
54.643448
 20
79.439800
 30
0.0
  0
LWPOLYLINE
  5
19a
100
AcDbEntity
  8
Grabado
 62
5
100
AcDbPolyline
 90
3
 70
0
 10
54.592000
 20
78.776620
 30
0.0
 10
54.643448
 20
79.439800
 30
0.0
 10
55.306625
 20
79.388350
 30
0.0
  0
LWPOLYLINE
  5
19b
100
AcDbEntity
  8
Grabado
 62
5
100
AcDbPolyline
 90
8
 70
0
 10
55.496880
 20
80.512988
 30
0.0
 10
55.901451
 20
80.512988
 30
0.0
 10
55.691387
 20
80.193597
 30
0.0
 10
55.831429
 20
80.144994
 30
0.0
 10
55.940352
 20
80.013072
 30
0.0
 10
55.917013
 20
79.832546
 30
0.0
 10
55.765197
 20
79.719323
 30
0.0
 10
55.520222
 20
79.686737
 30
0.0
  0
LWPOLYLINE
  5
19c
100
AcDbEntity
  8
Grabado
 62
5
100
AcDbPolyline
 90
9
 70
1
 10
56.178881
 20
79.687526
 30
0.0
 10
56.178881
 20
80.230044
 30
0.0
 10
56.306172
 20
80.230044
 30
0.0
 10
56.364515
 20
80.192629
 30
0.0
 10
56.417553
 20
80.085060
 30
0.0
 10
56.417553
 20
79.813802
 30
0.0
 10
56.369818
 20
79.720264
 30
0.0
 10
56.316780
 20
79.687526
 30
0.0
 10
56.178881
 20
79.687526
 30
0.0
  0
ENDSEC
  0
SECTION
  2
OBJECTS
  0
DICTIONARY
  5
C
330
0
100
AcDbDictionary
  3
ACAD_GROUP
350
D
  3
ACAD_MLINESTYLE
350
17
  0
DICTIONARY
  5
D
330
C
100
AcDbDictionary
  0
DICTIONARY
  5
1A
330
C
100
AcDbDictionary
  0
DICTIONARY
  5
17
330
C
100
AcDbDictionary
  3
STANDARD
350
18
  0
DICTIONARY
  5
19
330
C
100
AcDbDictionary
  0
ENDSEC
  0
EOF
