  0
SECTION
  2
HEADER
  9
$ACADVER
  1
AC1014
  9
$HANDSEED
  5
FFFF
  9
$MEASUREMENT
 70
     1
  0
ENDSEC
  0
SECTION
  2
TABLES
  0
TABLE
  2
VPORT
  5
8
330
0
100
AcDbSymbolTable
 70
     4
  0
VPORT
  5
2E
330
8
100
AcDbSymbolTableRecord
100
AcDbViewportTableRecord
  2
*ACTIVE
 70
     0
 10
0.0
 20
0.0
 11
1.0
 21
1.0
 12
210.0
 22
148.5
 13
0.0
 23
0.0
 14
10.0
 24
10.0
 15
10.0
 25
10.0
 16
0.0
 26
0.0
 36
1.0
 17
0.0
 27
0.0
 37
0.0
 40
341.0
 41
1.24
 42
50.0
 43
0.0
 44
0.0
 50
0.0
 51
0.0
 71
     0
 72
   100
 73
     1
 74
     3
 75
     0
 76
     0
 77
     0
 78
     0
  0
ENDTAB
  0
TABLE
  2
LTYPE
  5
5
330
0
100
AcDbSymbolTable
 70
     1
  0
LTYPE
  5
14
330
5
100
AcDbSymbolTableRecord
100
AcDbLinetypeTableRecord
  2
BYBLOCK
 70
     0
  3

 72
    65
 73
     0
 40
0.0
  0
LTYPE
  5
15
330
5
100
AcDbSymbolTableRecord
100
AcDbLinetypeTableRecord
  2
BYLAYER
 70
     0
  3

 72
    65
 73
     0
 40
0.0
  0
LTYPE
  5
16
330
5
100
AcDbSymbolTableRecord
100
AcDbLinetypeTableRecord
  2
CONTINUOUS
 70
     0
  3
Solid line
 72
    65
 73
     0
 40
0.0
  0
ENDTAB
  0
TABLE
  2
LAYER
  5
2
100
AcDbSymbolTable
 70
3
  0
LAYER
  5
50
100
AcDbSymbolTableRecord
100
AcDbLayerTableRecord
  2
0
 70
0
  6
CONTINUOUS
  0
LAYER
  5
51
100
AcDbSymbolTableRecord
100
AcDbLayerTableRecord
  2
Corte
 70
0
  6
CONTINUOUS
  0
LAYER
  5
52
100
AcDbSymbolTableRecord
100
AcDbLayerTableRecord
  2
Grabado
 70
0
  6
CONTINUOUS
  0
ENDTAB
  0
TABLE
  2
STYLE
  5
3
330
0
100
AcDbSymbolTable
 70
     1
  0
STYLE
  5
11
330
3
100
AcDbSymbolTableRecord
100
AcDbTextStyleTableRecord
  2
STANDARD
 70
     0
 40
0.0
 41
1.0
 50
0.0
 71
     0
 42
2.5
  3
txt
  4

  0
ENDTAB
  0
TABLE
  2
VIEW
  5
6
330
0
100
AcDbSymbolTable
 70
     0
  0
ENDTAB
  0
TABLE
  2
UCS
  5
7
330
0
100
AcDbSymbolTable
 70
     0
  0
ENDTAB
  0
TABLE
  2
APPID
  5
9
330
0
100
AcDbSymbolTable
 70
     2
  0
APPID
  5
12
330
9
100
AcDbSymbolTableRecord
100
AcDbRegAppTableRecord
  2
ACAD
 70
     0
  0
ENDTAB
  0
TABLE
  2
DIMSTYLE
  5
A
330
0
100
AcDbSymbolTable
 70
     1
  0
DIMSTYLE
105
27
330
A
100
AcDbSymbolTableRecord
100
AcDbDimStyleTableRecord
  2
ISO-25
 70
     0
  3

  4

  5

  6

  7

 40
1.0
 41
2.5
 42
0.625
 43
3.75
 44
1.25
 45
0.0
 46
0.0
 47
0.0
 48
0.0
140
2.5
141
2.5
142
0.0
143
0.03937007874016
144
1.0
145
0.0
146
1.0
147
0.625
 71
     0
 72
     0
 73
     0
 74
     0
 75
     0
 76
     0
 77
     1
 78
     8
170
     0
171
     3
172
     1
173
     0
174
     0
175
     0
176
     0
177
     0
178
     0
270
     2
271
     2
272
     2
273
     2
274
     3
340
11
275
     0
280
     0
281
     0
282
     0
283
     0
284
     8
285
     0
286
     0
287
     3
288
     0
  0
ENDTAB
  0
TABLE
  2
BLOCK_RECORD
  5
1
330
0
100
AcDbSymbolTable
 70
     1
  0
BLOCK_RECORD
  5
1F
330
1
100
AcDbSymbolTableRecord
100
AcDbBlockTableRecord
  2
*MODEL_SPACE
  0
BLOCK_RECORD
  5
1B
330
1
100
AcDbSymbolTableRecord
100
AcDbBlockTableRecord
  2
*PAPER_SPACE
  0
ENDTAB
  0
ENDSEC
  0
SECTION
  2
BLOCKS
  0
BLOCK
  5
20
330
1F
100
AcDbEntity
  8
0
100
AcDbBlockBegin
  2
*MODEL_SPACE
 70
     0
 10
0.0
 20
0.0
 30
0.0
  3
*MODEL_SPACE
  1

  0
ENDBLK
  5
21
330
1F
100
AcDbEntity
  8
0
100
AcDbBlockEnd
  0
BLOCK
  5
1C
330
1B
100
AcDbEntity
 67
     1
  8
0
100
AcDbBlockBegin
  2
*PAPER_SPACE
  1

  0
ENDBLK
  5
1D
330
1B
100
AcDbEntity
 67
     1
  8
0
100
AcDbBlockEnd
  0
ENDSEC
  0
SECTION
  2
ENTITIES
  0
LWPOLYLINE
  5
100
100
AcDbEntity
  8
Corte
 62
1
100
AcDbPolyline
 90
12
 70
1
 10
1080.128835
 20
800.412290
 30
0.0
 10
1080.128835
 20
804.309928
 30
0.0
 10
1095.719386
 20
804.309928
 30
0.0
 10
1095.719386
 20
851.081546
 30
0.0
 10
1080.128835
 20
851.081546
 30
0.0
 10
1080.128835
 20
854.979269
 30
0.0
 10
695.028104
 20
841.133088
 30
0.0
 10
695.028104
 20
836.199716
 30
0.0
 10
1048.236803
 20
836.199716
 30
0.0
 10
1048.236803
 20
819.191814
 30
0.0
 10
695.028104
 20
819.191814
 30
0.0
 10
695.028104
 20
814.771291
 30
0.0
  0
LWPOLYLINE
  5
101
100
AcDbEntity
  8
Corte
 62
1
100
AcDbPolyline
 90
4
 70
1
 10
64.437488
 20
849.643075
 30
0.0
 10
64.437488
 20
861.333721
 30
0.0
 10
72.231346
 20
861.333693
 30
0.0
 10
72.231346
 20
849.643047
 30
0.0
  0
LWPOLYLINE
  5
102
100
AcDbEntity
  8
Corte
 62
1
100
AcDbPolyline
 90
4
 70
1
 10
169.021468
 20
518.343494
 30
0.0
 10
181.233564
 20
518.343494
 30
0.0
 10
181.233564
 20
523.908612
 30
0.0
 10
169.021468
 20
523.908612
 30
0.0
  0
LWPOLYLINE
  5
103
100
AcDbEntity
  8
Corte
 62
1
100
AcDbPolyline
 90
33
 70
1
 10
426.385685
 20
920.171072
 30
0.0
 10
91.234527
 20
927.257686
 30
0.0
 10
41.582590
 20
934.344300
 30
0.0
 10
41.582590
 20
930.447400
 30
0.0
 10
25.993463
 20
930.447400
 30
0.0
 10
25.993463
 20
915.565425
 30
0.0
 10
72.763976
 20
915.565425
 30
0.0
 10
72.763976
 20
898.557466
 30
0.0
 10
25.993463
 20
898.557466
 30
0.0
 10
25.993463
 20
883.673989
 30
0.0
 10
41.582590
 20
883.673989
 30
0.0
 10
41.582590
 20
727.769256
 30
0.0
 10
25.992045
 20
727.769256
 30
0.0
 10
25.992045
 20
704.383345
 30
0.0
 10
41.582590
 20
704.383345
 30
0.0
 10
41.582590
 20
531.918814
 30
0.0
 10
25.992045
 20
531.918814
 30
0.0
 10
25.992045
 20
508.532902
 30
0.0
 10
41.582590
 20
508.532902
 30
0.0
 10
41.582590
 20
502.332469
 30
0.0
 10
98.497082
 20
515.797036
 30
0.0
 10
157.339829
 20
502.332469
 30
0.0
 10
157.339829
 20
509.297803
 30
0.0
 10
191.305288
 20
509.297803
 30
0.0
 10
191.305288
 20
540.535456
 30
0.0
 10
179.448662
 20
540.535456
 30
0.0
 10
179.448662
 20
537.547286
 30
0.0
 10
169.011695
 20
533.333293
 30
0.0
 10
169.011296
 20
540.535456
 30
0.0
 10
157.339829
 20
540.535456
 30
0.0
 10
157.339988
 20
559.256890
 30
0.0
 10
327.110527
 20
891.722625
 30
0.0
 10
426.385685
 20
893.950345
 30
0.0
  0
LWPOLYLINE
  5
104
100
AcDbEntity
  8
Corte
 62
1
100
AcDbPolyline
 90
5
 70
1
 10
305.754477
 20
891.134266
 30
0.0
 10
139.162290
 20
588.555026
 30
0.0
 10
101.307063
 20
575.009626
 30
0.0
 10
78.208403
 20
865.817308
 30
0.0
 10
102.309425
 20
887.093592
 30
0.0
  0
LWPOLYLINE
  5
105
100
AcDbEntity
  8
Corte
 62
1
100
AcDbPolyline
 90
4
 70
1
 10
118.830319
 20
558.089734
 30
0.0
 10
118.830319
 20
569.780379
 30
0.0
 10
126.624178
 20
569.780351
 30
0.0
 10
126.624178
 20
558.089705
 30
0.0
  0
LWPOLYLINE
  5
106
100
AcDbEntity
  8
Corte
 62
1
100
AcDbPolyline
 90
43
 70
1
 10
481.892574
 20
933.688707
 30
0.0
 10
433.255367
 20
885.051504
 30
0.0
 10
433.255367
 20
860.909409
 30
0.0
 10
481.891104
 20
812.272202
 30
0.0
 10
522.071768
 20
812.272202
 30
0.0
 10
599.513662
 20
734.828845
 30
0.0
 10
599.513662
 20
217.859124
 30
0.0
 10
522.071768
 20
140.421663
 30
0.0
 10
481.891104
 20
140.421663
 30
0.0
 10
433.255367
 20
91.785889
 30
0.0
 10
433.255367
 20
67.642339
 30
0.0
 10
481.892574
 20
19.005139
 30
0.0
 10
506.033199
 20
19.005139
 30
0.0
 10
554.670406
 20
67.643764
 30
0.0
 10
554.670406
 20
106.875213
 30
0.0
 10
633.060052
 20
185.261987
 30
0.0
 10
1148.131336
 20
185.261987
 30
0.0
 10
1226.520960
 20
106.875213
 30
0.0
 10
1226.520960
 20
67.645264
 30
0.0
 10
1275.159659
 20
19.006564
 30
0.0
 10
1299.298784
 20
19.006564
 30
0.0
 10
1347.937483
 20
67.642339
 30
0.0
 10
1347.937483
 20
91.785889
 30
0.0
 10
1299.300284
 20
140.421663
 30
0.0
 10
1259.119634
 20
140.421663
 30
0.0
 10
1181.677710
 20
217.859124
 30
0.0
 10
1181.677710
 20
734.831778
 30
0.0
 10
1259.119634
 20
812.272202
 30
0.0
 10
1299.300284
 20
812.272202
 30
0.0
 10
1347.937483
 20
860.907946
 30
0.0
 10
1347.937483
 20
885.051504
 30
0.0
 10
1299.298784
 20
933.687243
 30
0.0
 10
1275.159659
 20
933.687243
 30
0.0
 10
1226.520960
 20
885.050034
 30
0.0
 10
1226.520960
 20
845.818592
 30
0.0
 10
1148.131336
 20
767.427483
 30
0.0
 10
905.816914
 20
767.427483
 30
0.0
 10
890.409664
 20
784.151597
 30
0.0
 10
874.680139
 20
767.427483
 30
0.0
 10
633.060052
 20
767.427483
 30
0.0
 10
554.670406
 20
845.818592
 30
0.0
 10
554.670406
 20
885.050034
 30
0.0
 10
506.033199
 20
933.688707
 30
0.0
  0
LWPOLYLINE
  5
107
100
AcDbEntity
  8
Corte
 62
1
100
AcDbPolyline
 90
9
 70
1
 10
890.520964
 20
749.846425
 30
0.0
 10
1119.919936
 20
739.217515
 30
0.0
 10
1009.989212
 20
629.285389
 30
0.0
 10
998.765612
 20
629.285389
 30
0.0
 10
998.765612
 20
626.888907
 30
0.0
 10
987.071763
 20
626.888907
 30
0.0
 10
987.071763
 20
629.285389
 30
0.0
 10
771.200690
 20
629.285389
 30
0.0
 10
661.270012
 20
739.216053
 30
0.0
  0
LWPOLYLINE
  5
108
100
AcDbEntity
  8
Corte
 62
1
100
AcDbPolyline
 90
5
 70
1
 10
1153.467735
 20
706.620348
 30
0.0
 10
1164.096660
 20
476.667719
 30
0.0
 10
1153.467735
 20
246.070554
 30
0.0
 10
1043.157737
 20
356.147700
 30
0.0
 10
1043.157737
 20
596.373282
 30
0.0
  0
LWPOLYLINE
  5
109
100
AcDbEntity
  8
Corte
 62
1
100
AcDbPolyline
 90
5
 70
1
 10
627.725092
 20
706.618848
 30
0.0
 10
737.770011
 20
596.568072
 30
0.0
 10
737.770011
 20
355.982175
 30
0.0
 10
627.725092
 20
246.070554
 30
0.0
 10
617.094720
 20
476.428949
 30
0.0
  0
LWPOLYLINE
  5
10a
100
AcDbEntity
  8
Corte
 62
1
100
AcDbPolyline
 90
9
 70
1
 10
985.826613
 20
325.429891
 30
0.0
 10
997.520462
 20
325.429891
 30
0.0
 10
997.520462
 20
323.897663
 30
0.0
 10
1009.497062
 20
323.897663
 30
0.0
 10
1119.919936
 20
213.471812
 30
0.0
 10
890.512189
 20
202.841462
 30
0.0
 10
661.270012
 20
213.471812
 30
0.0
 10
771.692840
 20
323.897663
 30
0.0
 10
985.826613
 20
323.897663
 30
0.0
  0
LWPOLYLINE
  5
10b
100
AcDbEntity
  8
Corte
 62
1
100
AcDbPolyline
 90
6
 70
1
 10
834.187524
 20
595.418594
 30
0.0
 10
782.281248
 20
543.496883
 30
0.0
 10
782.281248
 20
533.268595
 30
0.0
 10
998.062494
 20
533.268595
 30
0.0
 10
998.062494
 20
544.332835
 30
0.0
 10
947.003131
 20
595.418594
 30
0.0
  0
LWPOLYLINE
  5
10c
100
AcDbEntity
  8
Corte
 62
1
100
AcDbPolyline
 90
4
 70
1
 10
541.544428
 20
839.031506
 30
0.0
 10
533.277751
 20
847.298062
 30
0.0
 10
538.788898
 20
852.809030
 30
0.0
 10
547.055320
 20
844.542497
 30
0.0
  0
LWPOLYLINE
  5
10d
100
AcDbEntity
  8
Corte
 62
1
100
AcDbPolyline
 90
4
 70
1
 10
523.528044
 20
821.015263
 30
0.0
 10
515.261650
 20
829.281816
 30
0.0
 10
520.772457
 20
834.792767
 30
0.0
 10
529.039134
 20
826.526254
 30
0.0
  0
LWPOLYLINE
  5
10e
100
AcDbEntity
  8
Corte
 62
1
100
AcDbPolyline
 90
4
 70
1
 10
1239.645997
 20
113.661964
 30
0.0
 10
1247.912391
 20
105.395457
 30
0.0
 10
1242.401244
 20
99.884452
 30
0.0
 10
1234.134850
 20
108.150988
 30
0.0
  0
LWPOLYLINE
  5
10f
100
AcDbEntity
  8
Corte
 62
1
100
AcDbPolyline
 90
4
 70
1
 10
1257.662126
 20
131.678263
 30
0.0
 10
1265.928520
 20
123.411728
 30
0.0
 10
1260.417685
 20
117.900723
 30
0.0
 10
1252.151008
 20
126.167230
 30
0.0
  0
LWPOLYLINE
  5
110
100
AcDbEntity
  8
Corte
 62
1
100
AcDbPolyline
 90
4
 70
1
 10
1239.645713
 20
839.031308
 30
0.0
 10
1247.912362
 20
847.297855
 30
0.0
 10
1242.401272
 20
852.808840
 30
0.0
 10
1234.134850
 20
844.542316
 30
0.0
  0
LWPOLYLINE
  5
111
100
AcDbEntity
  8
Corte
 62
1
100
AcDbPolyline
 90
4
 70
1
 10
1257.662126
 20
821.015051
 30
0.0
 10
1265.928520
 20
829.281601
 30
0.0
 10
1260.417685
 20
834.792583
 30
0.0
 10
1252.151008
 20
826.526064
 30
0.0
  0
LWPOLYLINE
  5
112
100
AcDbEntity
  8
Corte
 62
1
100
AcDbPolyline
 90
4
 70
1
 10
764.435113
 20
614.646113
 30
0.0
 10
781.971790
 20
597.107924
 30
0.0
 10
769.946203
 20
585.082329
 30
0.0
 10
752.408136
 20
602.618901
 30
0.0
  0
LWPOLYLINE
  5
113
100
AcDbEntity
  8
Corte
 62
1
100
AcDbPolyline
 90
4
 70
1
 10
1016.488574
 20
614.646708
 30
0.0
 10
1028.514105
 20
602.619496
 30
0.0
 10
1010.976011
 20
585.082952
 30
0.0
 10
998.948751
 20
597.108548
 30
0.0
  0
LWPOLYLINE
  5
114
100
AcDbEntity
  8
Corte
 62
1
100
AcDbPolyline
 90
4
 70
1
 10
769.946855
 20
368.106669
 30
0.0
 10
781.972442
 20
356.079438
 30
0.0
 10
764.435708
 20
338.541286
 30
0.0
 10
752.408448
 20
350.566959
 30
0.0
  0
LWPOLYLINE
  5
115
100
AcDbEntity
  8
Corte
 62
1
100
AcDbPolyline
 90
4
 70
1
 10
1010.975444
 20
368.105960
 30
0.0
 10
1028.513510
 20
350.566307
 30
0.0
 10
1016.487951
 20
338.540691
 30
0.0
 10
998.948184
 20
356.078757
 30
0.0
  0
LWPOLYLINE
  5
116
100
AcDbEntity
  8
Corte
 62
1
100
AcDbPolyline
 90
13
 70
1
 10
483.199966
 20
896.483817
 30
0.0
 10
494.223053
 20
885.459131
 30
0.0
 10
505.247840
 20
896.483797
 30
0.0
 10
517.274873
 20
884.456894
 30
0.0
 10
506.250029
 20
873.432190
 30
0.0
 10
517.274590
 20
862.409168
 30
0.0
 10
505.247840
 20
850.382225
 30
0.0
 10
494.223053
 20
861.406970
 30
0.0
 10
483.199966
 20
850.382242
 30
0.0
 10
471.172990
 20
862.409146
 30
0.0
 10
482.197777
 20
873.432209
 30
0.0
 10
471.172990
 20
884.456914
 30
0.0
 10
483.199966
 20
896.483817
 30
0.0
  0
LWPOLYLINE
  5
117
100
AcDbEntity
  8
Corte
 62
1
100
AcDbPolyline
 90
4
 70
1
 10
626.380811
 20
752.700540
 30
0.0
 10
643.917233
 20
735.162369
 30
0.0
 10
631.891673
 20
723.136727
 30
0.0
 10
614.353551
 20
740.673317
 30
0.0
  0
LWPOLYLINE
  5
118
100
AcDbEntity
  8
Corte
 62
1
100
AcDbPolyline
 90
13
 70
1
 10
1297.987740
 20
56.209897
 30
0.0
 10
1286.964653
 20
67.234458
 30
0.0
 10
1275.939866
 20
56.209954
 30
0.0
 10
1263.913173
 20
68.236732
 30
0.0
 10
1274.937677
 20
79.261434
 30
0.0
 10
1263.912889
 20
90.284634
 30
0.0
 10
1275.939866
 20
102.311526
 30
0.0
 10
1286.964653
 20
91.286738
 30
0.0
 10
1297.987768
 20
102.311469
 30
0.0
 10
1310.014744
 20
90.284493
 30
0.0
 10
1298.989929
 20
79.261406
 30
0.0
 10
1310.014716
 20
68.236789
 30
0.0
 10
1297.987740
 20
56.209897
 30
0.0
  0
LWPOLYLINE
  5
119
100
AcDbEntity
  8
Corte
 62
1
100
AcDbPolyline
 90
4
 70
1
 10
1154.806952
 20
199.993075
 30
0.0
 10
1137.270559
 20
217.531227
 30
0.0
 10
1149.296146
 20
229.556842
 30
0.0
 10
1166.834240
 20
212.020335
 30
0.0
  0
LWPOLYLINE
  5
11a
100
AcDbEntity
  8
Corte
 62
1
100
AcDbPolyline
 90
13
 70
1
 10
1297.987740
 20
896.483613
 30
0.0
 10
1286.964653
 20
885.458927
 30
0.0
 10
1275.939894
 20
896.483598
 30
0.0
 10
1263.912918
 20
884.456696
 30
0.0
 10
1274.937705
 20
873.431994
 30
0.0
 10
1263.912889
 20
862.408961
 30
0.0
 10
1275.939866
 20
850.382052
 30
0.0
 10
1286.964653
 20
861.406765
 30
0.0
 10
1297.987740
 20
850.382041
 30
0.0
 10
1310.014744
 20
862.408961
 30
0.0
 10
1298.989929
 20
873.432005
 30
0.0
 10
1310.014716
 20
884.456718
 30
0.0
 10
1297.987740
 20
896.483613
 30
0.0
  0
LWPOLYLINE
  5
11b
100
AcDbEntity
  8
Corte
 62
1
100
AcDbPolyline
 90
4
 70
1
 10
1154.806952
 20
752.700358
 30
0.0
 10
1137.270559
 20
735.162190
 30
0.0
 10
1149.296146
 20
723.136532
 30
0.0
 10
1166.834212
 20
740.673138
 30
0.0
  0
LWPOLYLINE
  5
11c
100
AcDbEntity
  8
Corte
 62
1
100
AcDbPolyline
 90
13
 70
1
 10
483.199995
 20
56.209699
 30
0.0
 10
494.223081
 20
67.234401
 30
0.0
 10
505.247869
 20
56.209699
 30
0.0
 10
517.274845
 20
68.236562
 30
0.0
 10
506.250029
 20
79.261264
 30
0.0
 10
517.274562
 20
90.284323
 30
0.0
 10
505.247869
 20
102.311299
 30
0.0
 10
494.223053
 20
91.286512
 30
0.0
 10
483.199966
 20
102.311242
 30
0.0
 10
471.172990
 20
90.284323
 30
0.0
 10
482.197806
 20
79.261264
 30
0.0
 10
471.173018
 20
68.236619
 30
0.0
 10
483.199995
 20
56.209699
 30
0.0
  0
LWPOLYLINE
  5
11d
100
AcDbEntity
  8
Corte
 62
1
100
AcDbPolyline
 90
4
 70
1
 10
626.380811
 20
199.992934
 30
0.0
 10
643.917233
 20
217.531085
 30
0.0
 10
631.891673
 20
229.556729
 30
0.0
 10
614.353579
 20
212.020165
 30
0.0
  0
LWPOLYLINE
  5
11e
100
AcDbEntity
  8
Corte
 62
1
100
AcDbPolyline
 90
4
 70
1
 10
541.544428
 20
113.661794
 30
0.0
 10
533.277751
 20
105.395287
 30
0.0
 10
538.788898
 20
99.884282
 30
0.0
 10
547.055291
 20
108.150818
 30
0.0
  0
LWPOLYLINE
  5
11f
100
AcDbEntity
  8
Corte
 62
1
100
AcDbPolyline
 90
4
 70
1
 10
523.528016
 20
131.678093
 30
0.0
 10
515.261622
 20
123.411558
 30
0.0
 10
520.772457
 20
117.900581
 30
0.0
 10
529.039134
 20
126.167088
 30
0.0
  0
LWPOLYLINE
  5
120
100
AcDbEntity
  8
Corte
 62
1
100
AcDbPolyline
 90
20
 70
1
 10
890.171660
 20
385.038641
 30
0.0
 10
894.900898
 20
385.993349
 30
0.0
 10
898.762904
 20
388.597113
 30
0.0
 10
901.366781
 20
392.459091
 30
0.0
 10
902.321603
 20
397.188300
 30
0.0
 10
901.366781
 20
401.917538
 30
0.0
 10
898.762876
 20
405.779460
 30
0.0
 10
894.900898
 20
408.383223
 30
0.0
 10
890.171660
 20
409.337960
 30
0.0
 10
885.442734
 20
408.383252
 30
0.0
 10
881.580869
 20
405.779460
 30
0.0
 10
878.977049
 20
401.917538
 30
0.0
 10
878.022170
 20
397.188300
 30
0.0
 10
878.976992
 20
392.459119
 30
0.0
 10
881.580841
 20
388.597170
 30
0.0
 10
885.442706
 20
385.993349
 30
0.0
 10
890.171660
 20
385.038641
 30
0.0
 10
890.171660
 20
385.038641
 30
0.0
 10
890.171660
 20
385.038641
 30
0.0
 10
890.171660
 20
385.038641
 30
0.0
  0
LWPOLYLINE
  5
121
100
AcDbEntity
  8
Corte
 62
1
100
AcDbPolyline
 90
4
 70
1
 10
754.181773
 20
317.535123
 30
0.0
 10
745.915124
 20
309.268644
 30
0.0
 10
740.404205
 20
314.779592
 30
0.0
 10
748.670712
 20
323.046213
 30
0.0
  0
LWPOLYLINE
  5
122
100
AcDbEntity
  8
Corte
 62
1
100
AcDbPolyline
 90
4
 70
1
 10
1027.009729
 20
635.160045
 30
0.0
 10
1035.276123
 20
643.426325
 30
0.0
 10
1040.787213
 20
637.915604
 30
0.0
 10
1032.520535
 20
629.648813
 30
0.0
  0
LWPOLYLINE
  5
123
100
AcDbEntity
  8
Corte
 62
1
100
AcDbPolyline
 90
4
 70
1
 10
754.180271
 20
635.161122
 30
0.0
 10
745.913594
 20
643.427402
 30
0.0
 10
740.402674
 20
637.916596
 30
0.0
 10
748.669238
 20
629.649975
 30
0.0
  0
LWPOLYLINE
  5
124
100
AcDbEntity
  8
Corte
 62
1
100
AcDbPolyline
 90
4
 70
1
 10
1027.009729
 20
317.534613
 30
0.0
 10
1035.276236
 20
309.268134
 30
0.0
 10
1040.787213
 20
314.778940
 30
0.0
 10
1032.520847
 20
323.045759
 30
0.0
  0
LWPOLYLINE
  5
125
100
AcDbEntity
  8
Corte
 62
1
100
AcDbPolyline
 90
4
 70
1
 10
489.787540
 20
831.967362
 30
0.0
 10
498.074457
 20
831.967362
 30
0.0
 10
498.074457
 20
823.680437
 30
0.0
 10
489.787540
 20
823.680437
 30
0.0
  0
LWPOLYLINE
  5
126
100
AcDbEntity
  8
Corte
 62
1
100
AcDbPolyline
 90
4
 70
1
 10
461.321348
 20
905.701731
 30
0.0
 10
469.608265
 20
905.701731
 30
0.0
 10
469.608265
 20
897.414806
 30
0.0
 10
461.321348
 20
897.414806
 30
0.0
  0
LWPOLYLINE
  5
127
100
AcDbEntity
  8
Corte
 62
1
100
AcDbPolyline
 90
4
 70
1
 10
489.787569
 20
922.503796
 30
0.0
 10
498.074485
 20
922.503796
 30
0.0
 10
498.074485
 20
914.216871
 30
0.0
 10
489.787569
 20
914.216871
 30
0.0
  0
LWPOLYLINE
  5
128
100
AcDbEntity
  8
Corte
 62
1
100
AcDbPolyline
 90
4
 70
1
 10
444.519383
 20
877.235625
 30
0.0
 10
452.806299
 20
877.235625
 30
0.0
 10
452.806299
 20
868.948700
 30
0.0
 10
444.519383
 20
868.948700
 30
0.0
  0
LWPOLYLINE
  5
129
100
AcDbEntity
  8
Corte
 62
1
100
AcDbPolyline
 90
4
 70
1
 10
535.056463
 20
877.235628
 30
0.0
 10
543.343380
 20
877.235628
 30
0.0
 10
543.343380
 20
868.948703
 30
0.0
 10
535.056463
 20
868.948703
 30
0.0
  0
LWPOLYLINE
  5
12a
100
AcDbEntity
  8
Corte
 62
1
100
AcDbPolyline
 90
4
 70
1
 10
1283.115657
 20
922.503595
 30
0.0
 10
1291.402573
 20
922.503595
 30
0.0
 10
1291.402573
 20
914.216670
 30
0.0
 10
1283.115657
 20
914.216670
 30
0.0
  0
LWPOLYLINE
  5
12b
100
AcDbEntity
  8
Corte
 62
1
100
AcDbPolyline
 90
4
 70
1
 10
1237.846762
 20
877.235418
 30
0.0
 10
1246.133679
 20
877.235418
 30
0.0
 10
1246.133679
 20
868.948493
 30
0.0
 10
1237.846762
 20
868.948493
 30
0.0
  0
LWPOLYLINE
  5
12c
100
AcDbEntity
  8
Corte
 62
1
100
AcDbPolyline
 90
4
 70
1
 10
1283.115628
 20
831.967184
 30
0.0
 10
1291.402545
 20
831.967184
 30
0.0
 10
1291.402545
 20
823.680259
 30
0.0
 10
1283.115628
 20
823.680259
 30
0.0
  0
LWPOLYLINE
  5
12d
100
AcDbEntity
  8
Corte
 62
1
100
AcDbPolyline
 90
4
 70
1
 10
1328.383786
 20
877.235426
 30
0.0
 10
1336.670702
 20
877.235426
 30
0.0
 10
1336.670702
 20
868.948501
 30
0.0
 10
1328.383786
 20
868.948501
 30
0.0
  0
LWPOLYLINE
  5
12e
100
AcDbEntity
  8
Corte
 62
1
100
AcDbPolyline
 90
4
 70
1
 10
1311.581679
 20
905.701487
 30
0.0
 10
1319.868595
 20
905.701487
 30
0.0
 10
1319.868595
 20
897.414562
 30
0.0
 10
1311.581679
 20
897.414562
 30
0.0
  0
LWPOLYLINE
  5
12f
100
AcDbEntity
  8
Corte
 62
1
100
AcDbPolyline
 90
4
 70
1
 10
1283.115628
 20
129.013073
 30
0.0
 10
1291.402545
 20
129.013073
 30
0.0
 10
1291.402545
 20
120.726156
 30
0.0
 10
1283.115628
 20
120.726156
 30
0.0
  0
LWPOLYLINE
  5
130
100
AcDbEntity
  8
Corte
 62
1
100
AcDbPolyline
 90
4
 70
1
 10
1237.846649
 20
83.744859
 30
0.0
 10
1246.133565
 20
83.744859
 30
0.0
 10
1246.133565
 20
75.457942
 30
0.0
 10
1237.846649
 20
75.457942
 30
0.0
  0
LWPOLYLINE
  5
131
100
AcDbEntity
  8
Corte
 62
1
100
AcDbPolyline
 90
4
 70
1
 10
1283.115628
 20
38.476616
 30
0.0
 10
1291.402545
 20
38.476616
 30
0.0
 10
1291.402545
 20
30.189699
 30
0.0
 10
1283.115628
 20
30.189699
 30
0.0
  0
LWPOLYLINE
  5
132
100
AcDbEntity
  8
Corte
 62
1
100
AcDbPolyline
 90
4
 70
1
 10
1311.581735
 20
55.278697
 30
0.0
 10
1319.868652
 20
55.278697
 30
0.0
 10
1319.868652
 20
46.991781
 30
0.0
 10
1311.581735
 20
46.991781
 30
0.0
  0
LWPOLYLINE
  5
133
100
AcDbEntity
  8
Corte
 62
1
100
AcDbPolyline
 90
4
 70
1
 10
1328.383814
 20
83.744830
 30
0.0
 10
1336.670731
 20
83.744830
 30
0.0
 10
1336.670731
 20
75.457914
 30
0.0
 10
1328.383814
 20
75.457914
 30
0.0
  0
LWPOLYLINE
  5
134
100
AcDbEntity
  8
Corte
 62
1
100
AcDbPolyline
 90
4
 70
1
 10
489.787540
 20
129.012903
 30
0.0
 10
498.074457
 20
129.012903
 30
0.0
 10
498.074457
 20
120.725986
 30
0.0
 10
489.787540
 20
120.725986
 30
0.0
  0
LWPOLYLINE
  5
135
100
AcDbEntity
  8
Corte
 62
1
100
AcDbPolyline
 90
4
 70
1
 10
444.519383
 20
83.744632
 30
0.0
 10
452.806299
 20
83.744632
 30
0.0
 10
452.806299
 20
75.457715
 30
0.0
 10
444.519383
 20
75.457715
 30
0.0
  0
LWPOLYLINE
  5
136
100
AcDbEntity
  8
Corte
 62
1
100
AcDbPolyline
 90
4
 70
1
 10
461.321490
 20
55.278556
 30
0.0
 10
469.608406
 20
55.278556
 30
0.0
 10
469.608406
 20
46.991639
 30
0.0
 10
461.321490
 20
46.991639
 30
0.0
  0
LWPOLYLINE
  5
137
100
AcDbEntity
  8
Corte
 62
1
100
AcDbPolyline
 90
4
 70
1
 10
489.787569
 20
38.476446
 30
0.0
 10
498.074485
 20
38.476446
 30
0.0
 10
498.074485
 20
30.189529
 30
0.0
 10
489.787569
 20
30.189529
 30
0.0
  0
LWPOLYLINE
  5
138
100
AcDbEntity
  8
Corte
 62
1
100
AcDbPolyline
 90
4
 70
1
 10
535.056463
 20
83.744660
 30
0.0
 10
543.343380
 20
83.744660
 30
0.0
 10
543.343380
 20
75.457744
 30
0.0
 10
535.056463
 20
75.457744
 30
0.0
  0
LWPOLYLINE
  5
139
100
AcDbEntity
  8
Corte
 62
1
100
AcDbPolyline
 90
4
 70
1
 10
782.283543
 20
503.856017
 30
0.0
 10
998.060202
 20
503.856130
 30
0.0
 10
998.060060
 20
448.837245
 30
0.0
 10
782.283543
 20
448.837245
 30
0.0
  0
LWPOLYLINE
  5
13a
100
AcDbEntity
  8
Corte
 62
1
100
AcDbPolyline
 90
7
 70
1
 10
782.280740
 20
419.458244
 30
0.0
 10
782.280740
 20
409.229242
 30
0.0
 10
834.187490
 20
357.307853
 30
0.0
 10
847.693339
 20
357.307853
 30
0.0
 10
870.332539
 20
379.625482
 30
0.0
 10
870.332539
 20
419.458244
 30
0.0
 10
845.897464
 20
419.458244
 30
0.0
  0
LWPOLYLINE
  5
13b
100
AcDbEntity
  8
Corte
 62
1
100
AcDbPolyline
 90
7
 70
1
 10
910.177114
 20
419.458244
 30
0.0
 10
910.177114
 20
379.625482
 30
0.0
 10
932.816238
 20
357.307853
 30
0.0
 10
946.320663
 20
357.307853
 30
0.0
 10
997.400387
 20
408.723412
 30
0.0
 10
997.400387
 20
419.458244
 30
0.0
 10
933.661488
 20
419.458244
 30
0.0
  0
LWPOLYLINE
  5
13c
100
AcDbEntity
  8
Corte
 62
1
100
AcDbPolyline
 90
12
 70
1
 10
1080.128835
 20
874.341828
 30
0.0
 10
1080.128835
 20
878.239466
 30
0.0
 10
1095.719386
 20
878.239466
 30
0.0
 10
1095.719386
 20
925.011082
 30
0.0
 10
1080.128835
 20
925.011082
 30
0.0
 10
1080.128835
 20
928.908805
 30
0.0
 10
695.028104
 20
915.062624
 30
0.0
 10
695.028104
 20
910.129252
 30
0.0
 10
1048.236803
 20
910.129252
 30
0.0
 10
1048.236803
 20
893.121350
 30
0.0
 10
695.028104
 20
893.121350
 30
0.0
 10
695.028104
 20
888.700827
 30
0.0
  0
LWPOLYLINE
  5
13d
100
AcDbEntity
  8
Corte
 62
1
100
AcDbPolyline
 90
12
 70
1
 10
1080.128835
 20
39.211897
 30
0.0
 10
1080.128835
 20
43.109535
 30
0.0
 10
1095.719386
 20
43.109535
 30
0.0
 10
1095.719386
 20
89.881132
 30
0.0
 10
1080.128835
 20
89.881132
 30
0.0
 10
1080.128835
 20
93.778855
 30
0.0
 10
695.028104
 20
79.932688
 30
0.0
 10
695.028104
 20
74.999299
 30
0.0
 10
1048.236803
 20
74.999299
 30
0.0
 10
1048.236803
 20
57.991397
 30
0.0
 10
695.028104
 20
57.991397
 30
0.0
 10
695.028104
 20
53.570880
 30
0.0
  0
LWPOLYLINE
  5
13e
100
AcDbEntity
  8
Corte
 62
1
100
AcDbPolyline
 90
12
 70
1
 10
1080.128835
 20
113.141412
 30
0.0
 10
1080.128835
 20
117.039050
 30
0.0
 10
1095.719386
 20
117.039050
 30
0.0
 10
1095.719386
 20
163.810675
 30
0.0
 10
1080.128835
 20
163.810675
 30
0.0
 10
1080.128835
 20
167.708398
 30
0.0
 10
695.028104
 20
153.862231
 30
0.0
 10
695.028104
 20
148.928842
 30
0.0
 10
1048.236803
 20
148.928842
 30
0.0
 10
1048.236803
 20
131.920940
 30
0.0
 10
695.028104
 20
131.920940
 30
0.0
 10
695.028104
 20
127.500423
 30
0.0
  0
LWPOLYLINE
  5
13f
100
AcDbEntity
  8
Corte
 62
1
100
AcDbPolyline
 90
4
 70
1
 10
64.437488
 20
103.724833
 30
0.0
 10
64.437488
 20
92.034187
 30
0.0
 10
72.231346
 20
92.034215
 30
0.0
 10
72.231346
 20
103.724861
 30
0.0
  0
LWPOLYLINE
  5
140
100
AcDbEntity
  8
Corte
 62
1
100
AcDbPolyline
 90
4
 70
1
 10
169.021468
 20
435.024414
 30
0.0
 10
181.233564
 20
435.024414
 30
0.0
 10
181.233564
 20
429.459296
 30
0.0
 10
169.021468
 20
429.459296
 30
0.0
  0
LWPOLYLINE
  5
141
100
AcDbEntity
  8
Corte
 62
1
100
AcDbPolyline
 90
33
 70
1
 10
426.385685
 20
33.196836
 30
0.0
 10
91.234527
 20
26.110222
 30
0.0
 10
41.582590
 20
19.023608
 30
0.0
 10
41.582590
 20
22.920508
 30
0.0
 10
25.993463
 20
22.920508
 30
0.0
 10
25.993463
 20
37.802483
 30
0.0
 10
72.763976
 20
37.802483
 30
0.0
 10
72.763976
 20
54.810442
 30
0.0
 10
25.993463
 20
54.810442
 30
0.0
 10
25.993463
 20
69.693919
 30
0.0
 10
41.582590
 20
69.693919
 30
0.0
 10
41.582590
 20
225.598652
 30
0.0
 10
25.992045
 20
225.598652
 30
0.0
 10
25.992045
 20
248.984563
 30
0.0
 10
41.582590
 20
248.984563
 30
0.0
 10
41.582590
 20
421.449094
 30
0.0
 10
25.992045
 20
421.449094
 30
0.0
 10
25.992045
 20
444.835006
 30
0.0
 10
41.582590
 20
444.835006
 30
0.0
 10
41.582590
 20
451.035439
 30
0.0
 10
98.497082
 20
437.570872
 30
0.0
 10
157.339829
 20
451.035439
 30
0.0
 10
157.339829
 20
444.070105
 30
0.0
 10
191.305288
 20
444.070105
 30
0.0
 10
191.305288
 20
412.832452
 30
0.0
 10
179.448662
 20
412.832452
 30
0.0
 10
179.448662
 20
415.820622
 30
0.0
 10
169.011695
 20
420.034615
 30
0.0
 10
169.011296
 20
412.832452
 30
0.0
 10
157.339829
 20
412.832452
 30
0.0
 10
157.339988
 20
394.111018
 30
0.0
 10
327.110527
 20
61.645283
 30
0.0
 10
426.385685
 20
59.417563
 30
0.0
  0
LWPOLYLINE
  5
142
100
AcDbEntity
  8
Corte
 62
1
100
AcDbPolyline
 90
5
 70
1
 10
305.754477
 20
62.233642
 30
0.0
 10
139.162290
 20
364.812883
 30
0.0
 10
101.307063
 20
378.358282
 30
0.0
 10
78.208403
 20
87.550600
 30
0.0
 10
102.309425
 20
66.274316
 30
0.0
  0
LWPOLYLINE
  5
143
100
AcDbEntity
  8
Corte
 62
1
100
AcDbPolyline
 90
4
 70
1
 10
118.830319
 20
395.278174
 30
0.0
 10
118.830319
 20
383.587529
 30
0.0
 10
126.624178
 20
383.587557
 30
0.0
 10
126.624178
 20
395.278203
 30
0.0
  0
LWPOLYLINE
  5
144
100
AcDbEntity
  8
Corte
 62
1
100
AcDbPolyline
 90
4
 70
1
 10
1552.021530
 20
587.019781
 30
0.0
 10
1552.021530
 20
575.329136
 30
0.0
 10
1544.227671
 20
575.329164
 30
0.0
 10
1544.227671
 20
587.019810
 30
0.0
  0
LWPOLYLINE
  5
145
100
AcDbEntity
  8
Corte
 62
1
100
AcDbPolyline
 90
4
 70
1
 10
1447.437549
 20
918.319363
 30
0.0
 10
1435.225453
 20
918.319363
 30
0.0
 10
1435.225453
 20
912.754244
 30
0.0
 10
1447.437549
 20
912.754244
 30
0.0
  0
LWPOLYLINE
  5
146
100
AcDbEntity
  8
Corte
 62
1
100
AcDbPolyline
 90
33
 70
1
 10
1190.073332
 20
516.491785
 30
0.0
 10
1525.224491
 20
509.405170
 30
0.0
 10
1574.876427
 20
502.318556
 30
0.0
 10
1574.876427
 20
506.215457
 30
0.0
 10
1590.465555
 20
506.215457
 30
0.0
 10
1590.465555
 20
521.097432
 30
0.0
 10
1543.695042
 20
521.097432
 30
0.0
 10
1543.695042
 20
538.105391
 30
0.0
 10
1590.465555
 20
538.105391
 30
0.0
 10
1590.465555
 20
552.988868
 30
0.0
 10
1574.876427
 20
552.988868
 30
0.0
 10
1574.876427
 20
708.893600
 30
0.0
 10
1590.466972
 20
708.893600
 30
0.0
 10
1590.466972
 20
732.279512
 30
0.0
 10
1574.876427
 20
732.279512
 30
0.0
 10
1574.876427
 20
904.744043
 30
0.0
 10
1590.466972
 20
904.744043
 30
0.0
 10
1590.466972
 20
928.129955
 30
0.0
 10
1574.876427
 20
928.129955
 30
0.0
 10
1574.876427
 20
934.330388
 30
0.0
 10
1517.961936
 20
920.865821
 30
0.0
 10
1459.119188
 20
934.330388
 30
0.0
 10
1459.119188
 20
927.365054
 30
0.0
 10
1425.153730
 20
927.365054
 30
0.0
 10
1425.153730
 20
896.127401
 30
0.0
 10
1437.010355
 20
896.127401
 30
0.0
 10
1437.010355
 20
899.115571
 30
0.0
 10
1447.447322
 20
903.329563
 30
0.0
 10
1447.447722
 20
896.127401
 30
0.0
 10
1459.119188
 20
896.127401
 30
0.0
 10
1459.119029
 20
877.405966
 30
0.0
 10
1289.348490
 20
544.940232
 30
0.0
 10
1190.073332
 20
542.712512
 30
0.0
  0
LWPOLYLINE
  5
147
100
AcDbEntity
  8
Corte
 62
1
100
AcDbPolyline
 90
5
 70
1
 10
1310.704541
 20
545.528591
 30
0.0
 10
1477.296727
 20
848.107831
 30
0.0
 10
1515.151954
 20
861.653231
 30
0.0
 10
1538.250614
 20
570.845548
 30
0.0
 10
1514.149592
 20
549.569265
 30
0.0
  0
LWPOLYLINE
  5
148
100
AcDbEntity
  8
Corte
 62
1
100
AcDbPolyline
 90
4
 70
1
 10
1497.628698
 20
878.573123
 30
0.0
 10
1497.628698
 20
866.882477
 30
0.0
 10
1489.834840
 20
866.882506
 30
0.0
 10
1489.834840
 20
878.573152
 30
0.0
  0
LWPOLYLINE
  5
149
100
AcDbEntity
  8
Corte
 62
1
100
AcDbPolyline
 90
4
 70
1
 10
1552.021530
 20
366.348121
 30
0.0
 10
1552.021530
 20
378.038767
 30
0.0
 10
1544.227671
 20
378.038738
 30
0.0
 10
1544.227671
 20
366.348093
 30
0.0
  0
LWPOLYLINE
  5
14a
100
AcDbEntity
  8
Corte
 62
1
100
AcDbPolyline
 90
4
 70
1
 10
1447.437549
 20
35.048540
 30
0.0
 10
1435.225453
 20
35.048540
 30
0.0
 10
1435.225453
 20
40.613658
 30
0.0
 10
1447.437549
 20
40.613658
 30
0.0
  0
LWPOLYLINE
  5
14b
100
AcDbEntity
  8
Corte
 62
1
100
AcDbPolyline
 90
33
 70
1
 10
1190.073332
 20
436.876118
 30
0.0
 10
1525.224491
 20
443.962732
 30
0.0
 10
1574.876427
 20
451.049346
 30
0.0
 10
1574.876427
 20
447.152445
 30
0.0
 10
1590.465555
 20
447.152445
 30
0.0
 10
1590.465555
 20
432.270471
 30
0.0
 10
1543.695042
 20
432.270471
 30
0.0
 10
1543.695042
 20
415.262512
 30
0.0
 10
1590.465555
 20
415.262512
 30
0.0
 10
1590.465555
 20
400.379034
 30
0.0
 10
1574.876427
 20
400.379034
 30
0.0
 10
1574.876427
 20
244.474302
 30
0.0
 10
1590.466972
 20
244.474302
 30
0.0
 10
1590.466972
 20
221.088390
 30
0.0
 10
1574.876427
 20
221.088390
 30
0.0
 10
1574.876427
 20
48.623859
 30
0.0
 10
1590.466972
 20
48.623859
 30
0.0
 10
1590.466972
 20
25.237948
 30
0.0
 10
1574.876427
 20
25.237948
 30
0.0
 10
1574.876427
 20
19.037515
 30
0.0
 10
1517.961936
 20
32.502082
 30
0.0
 10
1459.119188
 20
19.037515
 30
0.0
 10
1459.119188
 20
26.002848
 30
0.0
 10
1425.153730
 20
26.002848
 30
0.0
 10
1425.153730
 20
57.240502
 30
0.0
 10
1437.010355
 20
57.240502
 30
0.0
 10
1437.010355
 20
54.252332
 30
0.0
 10
1447.447322
 20
50.038339
 30
0.0
 10
1447.447722
 20
57.240502
 30
0.0
 10
1459.119188
 20
57.240502
 30
0.0
 10
1459.119029
 20
75.961936
 30
0.0
 10
1289.348490
 20
408.427671
 30
0.0
 10
1190.073332
 20
410.655390
 30
0.0
  0
LWPOLYLINE
  5
14c
100
AcDbEntity
  8
Corte
 62
1
100
AcDbPolyline
 90
5
 70
1
 10
1310.704541
 20
407.839312
 30
0.0
 10
1477.296727
 20
105.260071
 30
0.0
 10
1515.151954
 20
91.714671
 30
0.0
 10
1538.250614
 20
382.522354
 30
0.0
 10
1514.149592
 20
403.798637
 30
0.0
  0
LWPOLYLINE
  5
14d
100
AcDbEntity
  8
Corte
 62
1
100
AcDbPolyline
 90
4
 70
1
 10
1497.628698
 20
74.794779
 30
0.0
 10
1497.628698
 20
86.485425
 30
0.0
 10
1489.834840
 20
86.485397
 30
0.0
 10
1489.834840
 20
74.794751
 30
0.0
  0
LWPOLYLINE
  5
14e
100
AcDbEntity
  8
Corte
 62
1
100
AcDbPolyline
 90
4
 70
1
 10
904.043707
 20
364.073318
 30
0.0
 10
915.737499
 20
364.073318
 30
0.0
 10
915.737499
 20
356.279545
 30
0.0
 10
904.043707
 20
356.279573
 30
0.0
  0
LWPOLYLINE
  5
14f
100
AcDbEntity
  8
Corte
 62
1
100
AcDbPolyline
 90
4
 70
1
 10
865.453861
 20
364.071844
 30
0.0
 10
877.147654
 20
364.071844
 30
0.0
 10
877.147654
 20
356.278071
 30
0.0
 10
865.453861
 20
356.278099
 30
0.0
  0
LWPOLYLINE
  5
150
100
AcDbEntity
  8
Corte
 62
1
100
AcDbPolyline
 90
4
 70
1
 10
985.826126
 20
394.872990
 30
0.0
 10
997.519918
 20
394.872990
 30
0.0
 10
997.519918
 20
387.079217
 30
0.0
 10
985.826126
 20
387.079245
 30
0.0
  0
LWPOLYLINE
  5
151
100
AcDbEntity
  8
Corte
 62
1
100
AcDbPolyline
 90
4
 70
1
 10
987.072236
 20
565.047247
 30
0.0
 10
998.766028
 20
565.047247
 30
0.0
 10
998.766028
 20
557.253456
 30
0.0
 10
987.072236
 20
557.253485
 30
0.0
  0
LWPOLYLINE
  5
152
100
AcDbEntity
  8
Grabado
 62
1
100
AcDbPolyline
 90
75
 70
1
 10
271.753414
 20
644.301507
 30
0.0
 10
259.737304
 20
644.266332
 30
0.0
 10
240.821772
 20
626.061252
 30
0.0
 10
240.788097
 20
612.767802
 30
0.0
 10
240.788097
 20
612.653539
 30
0.0
 10
285.996101
 20
566.276585
 30
0.0
 10
264.996102
 20
545.349830
 30
0.0
 10
264.996102
 20
425.307352
 30
0.0
 10
285.996101
 20
402.423562
 30
0.0
 10
240.788097
 20
358.343483
 30
0.0
 10
240.821772
 20
344.846415
 30
0.0
 10
259.737304
 20
325.929421
 30
0.0
 10
259.738804
 20
325.929421
 30
0.0
 10
271.753452
 20
325.894246
 30
0.0
 10
271.979037
 20
325.894246
 30
0.0
 10
312.813019
 20
365.105183
 30
0.0
 10
324.830598
 20
365.105183
 30
0.0
 10
324.830598
 20
355.677450
 30
0.0
 10
317.036164
 20
355.677450
 30
0.0
 10
317.036164
 20
345.385455
 30
0.0
 10
347.695346
 20
345.351780
 30
0.0
 10
347.695346
 20
355.677488
 30
0.0
 10
339.902336
 20
355.677488
 30
0.0
 10
339.902336
 20
365.105220
 30
0.0
 10
460.078119
 20
365.105220
 30
0.0
 10
460.078119
 20
355.677488
 30
0.0
 10
452.285154
 20
355.677488
 30
0.0
 10
452.285154
 20
345.351803
 30
0.0
 10
482.944329
 20
345.385478
 30
0.0
 10
482.944329
 20
355.677488
 30
0.0
 10
475.149894
 20
355.677488
 30
0.0
 10
475.149894
 20
365.105220
 30
0.0
 10
487.167474
 20
365.105220
 30
0.0
 10
528.001456
 20
325.894283
 30
0.0
 10
528.227041
 20
325.894283
 30
0.0
 10
540.241696
 20
325.929458
 30
0.0
 10
559.158683
 20
344.846453
 30
0.0
 10
559.192358
 20
358.343520
 30
0.0
 10
513.984354
 20
402.423600
 30
0.0
 10
534.984353
 20
425.307389
 30
0.0
 10
534.984353
 20
545.349845
 30
0.0
 10
513.984354
 20
566.276600
 30
0.0
 10
559.192358
 20
612.653554
 30
0.0
 10
559.192358
 20
612.767817
 30
0.0
 10
559.158683
 20
626.061267
 30
0.0
 10
540.243158
 20
644.266347
 30
0.0
 10
540.241658
 20
644.266347
 30
0.0
 10
528.227003
 20
644.301522
 30
0.0
 10
528.001418
 20
644.301522
 30
0.0
 10
487.167436
 20
605.125737
 30
0.0
 10
475.149894
 20
605.125737
 30
0.0
 10
475.149894
 20
614.521249
 30
0.0
 10
482.944329
 20
614.521249
 30
0.0
 10
482.944329
 20
624.810312
 30
0.0
 10
452.285154
 20
624.845487
 30
0.0
 10
452.285154
 20
614.521272
 30
0.0
 10
460.078119
 20
614.521272
 30
0.0
 10
460.078119
 20
605.125760
 30
0.0
 10
415.234855
 20
605.125760
 30
0.0
 10
412.935055
 20
607.610135
 30
0.0
 10
400.123532
 20
621.735627
 30
0.0
 10
399.990227
 20
621.592069
 30
0.0
 10
399.856930
 20
621.735627
 30
0.0
 10
387.045408
 20
607.610135
 30
0.0
 10
384.745600
 20
605.125760
 30
0.0
 10
339.902336
 20
605.125760
 30
0.0
 10
339.902336
 20
614.521272
 30
0.0
 10
347.695308
 20
614.521272
 30
0.0
 10
347.695308
 20
624.845487
 30
0.0
 10
317.036126
 20
624.810312
 30
0.0
 10
317.036126
 20
614.521249
 30
0.0
 10
324.830561
 20
614.521249
 30
0.0
 10
324.830561
 20
605.125737
 30
0.0
 10
312.812981
 20
605.125737
 30
0.0
 10
271.978999
 20
644.301507
 30
0.0
  0
LWPOLYLINE
  5
153
100
AcDbEntity
  8
Grabado
 62
1
100
AcDbPolyline
 90
4
 70
1
 10
268.446341
 20
341.674268
 30
0.0
 10
291.636214
 20
364.864219
 30
0.0
 10
279.249299
 20
377.251173
 30
0.0
 10
256.059406
 20
354.061241
 30
0.0
  0
LWPOLYLINE
  5
154
100
AcDbEntity
  8
Grabado
 62
1
100
AcDbPolyline
 90
4
 70
1
 10
531.531440
 20
341.674162
 30
0.0
 10
508.341505
 20
364.864095
 30
0.0
 10
520.728459
 20
377.251048
 30
0.0
 10
543.918394
 20
354.061115
 30
0.0
  0
LWPOLYLINE
  5
155
100
AcDbEntity
  8
Grabado
 62
1
100
AcDbPolyline
 90
4
 70
1
 10
531.531578
 20
628.524822
 30
0.0
 10
508.341625
 20
605.334870
 30
0.0
 10
520.728564
 20
592.947900
 30
0.0
 10
543.918519
 20
616.137854
 30
0.0
  0
LWPOLYLINE
  5
156
100
AcDbEntity
  8
Grabado
 62
1
100
AcDbPolyline
 90
4
 70
1
 10
268.446210
 20
628.524619
 30
0.0
 10
291.636130
 20
605.334662
 30
0.0
 10
279.249185
 20
592.947659
 30
0.0
 10
256.059270
 20
616.137652
 30
0.0
  0
LWPOLYLINE
  5
157
100
AcDbEntity
  8
Grabado
 62
5
100
AcDbPolyline
 90
4
 70
1
 10
326.717490
 20
545.167434
 30
0.0
 10
266.628980
 20
545.167434
 30
0.0
 10
266.628980
 20
425.095571
 30
0.0
 10
326.717490
 20
425.095571
 30
0.0
  0
LWPOLYLINE
  5
158
100
AcDbEntity
  8
Grabado
 62
5
100
AcDbPolyline
 90
16
 70
1
 10
462.936671
 20
487.953910
 30
0.0
 10
466.105266
 20
472.259299
 30
0.0
 10
474.746287
 20
459.442930
 30
0.0
 10
487.562683
 20
450.801910
 30
0.0
 10
503.257266
 20
447.633315
 30
0.0
 10
518.951849
 20
450.801910
 30
0.0
 10
531.768246
 20
459.442930
 30
0.0
 10
540.409266
 20
472.259327
 30
0.0
 10
543.577861
 20
487.953910
 30
0.0
 10
540.409266
 20
503.648493
 30
0.0
 10
531.768217
 20
516.464889
 30
0.0
 10
518.951849
 20
525.105910
 30
0.0
 10
503.257266
 20
528.274505
 30
0.0
 10
487.562683
 20
525.105910
 30
0.0
 10
474.746315
 20
516.464861
 30
0.0
 10
466.105266
 20
503.648493
 30
0.0
  0
LWPOLYLINE
  5
159
100
AcDbEntity
  8
Grabado
 62
5
100
AcDbPolyline
 90
16
 70
1
 10
466.174970
 20
598.057106
 30
0.0
 10
466.174970
 20
554.879356
 30
0.0
 10
457.337565
 20
541.127554
 30
0.0
 10
457.337565
 20
429.071346
 30
0.0
 10
466.174970
 20
415.319573
 30
0.0
 10
466.174970
 20
372.141797
 30
0.0
 10
457.337565
 20
372.141797
 30
0.0
 10
342.641934
 20
372.141797
 30
0.0
 10
333.802942
 20
372.141797
 30
0.0
 10
333.802942
 20
415.319573
 30
0.0
 10
342.641934
 20
429.071346
 30
0.0
 10
342.641934
 20
541.127554
 30
0.0
 10
333.802942
 20
554.879356
 30
0.0
 10
333.802942
 20
598.057106
 30
0.0
 10
342.641934
 20
598.057106
 30
0.0
 10
457.337565
 20
598.057106
 30
0.0
  0
LWPOLYLINE
  5
15a
100
AcDbEntity
  8
Grabado
 62
5
100
AcDbPolyline
 90
4
 70
1
 10
890.304265
 20
772.944174
 30
0.0
 10
884.484425
 20
756.546585
 30
0.0
 10
890.304265
 20
761.307849
 30
0.0
 10
896.392800
 20
756.546582
 30
0.0
  0
LWPOLYLINE
  5
15b
100
AcDbEntity
  8
Grabado
 62
5
100
AcDbPolyline
 90
4
 70
1
 10
1043.157742
 20
390.150244
 30
0.0
 10
956.640158
 20
390.150244
 30
0.0
 10
956.640158
 20
324.039257
 30
0.0
 10
1043.157742
 20
324.039257
 30
0.0
  0
LWPOLYLINE
  5
15c
100
AcDbEntity
  8
Grabado
 62
5
100
AcDbPolyline
 90
4
 70
1
 10
1028.949222
 20
628.882974
 30
0.0
 10
925.549980
 20
628.882974
 30
0.0
 10
925.549980
 20
562.334128
 30
0.0
 10
1028.949222
 20
562.334128
 30
0.0
  0
LWPOLYLINE
  5
15d
100
AcDbEntity
  8
Grabado
 62
5
100
AcDbPolyline
 90
16
 70
1
 10
933.152457
 20
369.639485
 30
0.0
 10
919.857770
 20
382.934171
 30
0.0
 10
902.787250
 20
365.863623
 30
0.0
 10
878.410772
 20
365.855119
 30
0.0
 10
861.331833
 20
382.934030
 30
0.0
 10
848.038337
 20
369.638974
 30
0.0
 10
865.116482
 20
352.560801
 30
0.0
 10
864.806258
 20
327.882121
 30
0.0
 10
848.038337
 20
311.114228
 30
0.0
 10
861.333024
 20
297.819541
 30
0.0
 10
878.100917
 20
314.587434
 30
0.0
 10
902.890545
 20
314.786710
 30
0.0
 10
919.857770
 20
297.819513
 30
0.0
 10
933.152060
 20
311.113803
 30
0.0
 10
916.184835
 20
328.081000
 30
0.0
 10
916.081937
 20
352.568426
 30
0.0
  0
LWPOLYLINE
  5
15e
100
AcDbEntity
  8
Grabado
 62
5
100
AcDbPolyline
 90
6
 70
0
 10
1231.063451
 20
810.989116
 30
0.0
 10
1227.869696
 20
815.363708
 30
0.0
 10
1221.798061
 20
818.764544
 30
0.0
 10
1214.998604
 20
819.021071
 30
0.0
 10
1209.054352
 20
816.576777
 30
0.0
 10
1204.413442
 20
811.155210
 30
0.0
  0
LWPOLYLINE
  5
15f
100
AcDbEntity
  8
Grabado
 62
5
100
AcDbPolyline
 90
3
 70
0
 10
1203.896692
 20
817.816205
 30
0.0
 10
1204.413442
 20
811.155210
 30
0.0
 10
1211.074406
 20
811.671981
 30
0.0
  0
LWPOLYLINE
  5
160
100
AcDbEntity
  8
Grabado
 62
5
100
AcDbPolyline
 90
6
 70
0
 10
1204.264570
 20
798.061043
 30
0.0
 10
1207.458325
 20
793.686451
 30
0.0
 10
1213.529960
 20
790.285615
 30
0.0
 10
1220.329418
 20
790.029089
 30
0.0
 10
1226.273669
 20
792.473384
 30
0.0
 10
1230.914578
 20
797.894951
 30
0.0
  0
LWPOLYLINE
  5
161
100
AcDbEntity
  8
Grabado
 62
5
100
AcDbPolyline
 90
3
 70
0
 10
1231.431329
 20
791.233956
 30
0.0
 10
1230.914578
 20
797.894951
 30
0.0
 10
1224.253615
 20
797.378180
 30
0.0
  0
LWPOLYLINE
  5
162
100
AcDbEntity
  8
Grabado
 62
5
100
AcDbPolyline
 90
3
 70
0
 10
1214.144306
 20
805.723795
 30
0.0
 10
1215.773433
 20
808.728582
 30
0.0
 10
1215.773433
 20
800.271519
 30
0.0
  0
LWPOLYLINE
  5
163
100
AcDbEntity
  8
Grabado
 62
5
100
AcDbPolyline
 90
3
 70
0
 10
1218.242271
 20
800.307705
 30
0.0
 10
1219.808910
 20
805.568066
 30
0.0
 10
1221.169377
 20
800.364882
 30
0.0
  0
LWPOLYLINE
  5
164
100
AcDbEntity
  8
Grabado
 62
5
100
AcDbPolyline
 90
2
 70
0
 10
1218.860675
 20
802.423283
 30
0.0
 10
1220.509744
 20
802.423283
 30
0.0
  0
LWPOLYLINE
  5
165
100
AcDbEntity
  8
Grabado
 62
5
100
AcDbPolyline
 90
6
 70
0
 10
1204.264549
 20
153.895482
 30
0.0
 10
1207.458304
 20
158.270074
 30
0.0
 10
1213.529939
 20
161.670910
 30
0.0
 10
1220.329396
 20
161.927437
 30
0.0
 10
1226.273648
 20
159.483143
 30
0.0
 10
1230.914558
 20
154.061576
 30
0.0
  0
LWPOLYLINE
  5
166
100
AcDbEntity
  8
Grabado
 62
5
100
AcDbPolyline
 90
3
 70
0
 10
1231.431308
 20
160.722571
 30
0.0
 10
1230.914558
 20
154.061576
 30
0.0
 10
1224.253594
 20
154.578347
 30
0.0
  0
LWPOLYLINE
  5
167
100
AcDbEntity
  8
Grabado
 62
5
100
AcDbPolyline
 90
6
 70
0
 10
1231.063430
 20
140.967409
 30
0.0
 10
1227.869675
 20
136.592817
 30
0.0
 10
1221.798040
 20
133.191981
 30
0.0
 10
1214.998582
 20
132.935455
 30
0.0
 10
1209.054331
 20
135.379750
 30
0.0
 10
1204.413422
 20
140.801317
 30
0.0
  0
LWPOLYLINE
  5
168
100
AcDbEntity
  8
Grabado
 62
5
100
AcDbPolyline
 90
3
 70
0
 10
1203.896671
 20
134.140322
 30
0.0
 10
1204.413422
 20
140.801317
 30
0.0
 10
1211.074385
 20
140.284546
 30
0.0
  0
LWPOLYLINE
  5
169
100
AcDbEntity
  8
Grabado
 62
5
100
AcDbPolyline
 90
4
 70
0
 10
1217.343288
 20
145.753546
 30
0.0
 10
1213.200652
 20
145.753546
 30
0.0
 10
1216.483483
 20
151.462253
 30
0.0
 10
1216.483483
 20
143.007582
 30
0.0
  0
LWPOLYLINE
  5
16a
100
AcDbEntity
  8
Grabado
 62
5
100
AcDbPolyline
 90
10
 70
1
 10
1219.745197
 20
143.117660
 30
0.0
 10
1219.745197
 20
148.566793
 30
0.0
 10
1221.092220
 20
148.566793
 30
0.0
 10
1221.573288
 20
147.487246
 30
0.0
 10
1221.188457
 20
146.150666
 30
0.0
 10
1219.841433
 20
146.150666
 30
0.0
 10
1221.717628
 20
146.150666
 30
0.0
 10
1222.198724
 20
145.482378
 30
0.0
 10
1222.198724
 20
144.094388
 30
0.0
 10
1221.621420
 20
143.117660
 30
0.0
  0
LWPOLYLINE
  5
16b
100
AcDbEntity
  8
Grabado
 62
5
100
AcDbPolyline
 90
6
 70
0
 10
575.489901
 20
153.895482
 30
0.0
 10
572.296146
 20
158.270074
 30
0.0
 10
566.224512
 20
161.670910
 30
0.0
 10
559.425054
 20
161.927437
 30
0.0
 10
553.480803
 20
159.483143
 30
0.0
 10
548.839893
 20
154.061576
 30
0.0
  0
LWPOLYLINE
  5
16c
100
AcDbEntity
  8
Grabado
 62
5
100
AcDbPolyline
 90
3
 70
0
 10
548.323143
 20
160.722571
 30
0.0
 10
548.839893
 20
154.061576
 30
0.0
 10
555.500856
 20
154.578347
 30
0.0
  0
LWPOLYLINE
  5
16d
100
AcDbEntity
  8
Grabado
 62
5
100
AcDbPolyline
 90
6
 70
0
 10
548.691020
 20
140.967409
 30
0.0
 10
551.884776
 20
136.592817
 30
0.0
 10
557.956411
 20
133.191981
 30
0.0
 10
564.755868
 20
132.935455
 30
0.0
 10
570.700119
 20
135.379750
 30
0.0
 10
575.341029
 20
140.801317
 30
0.0
  0
LWPOLYLINE
  5
16e
100
AcDbEntity
  8
Grabado
 62
5
100
AcDbPolyline
 90
3
 70
0
 10
575.857779
 20
134.140322
 30
0.0
 10
575.341029
 20
140.801317
 30
0.0
 10
568.680066
 20
140.284546
 30
0.0
  0
LWPOLYLINE
  5
16f
100
AcDbEntity
  8
Grabado
 62
5
100
AcDbPolyline
 90
9
 70
0
 10
557.558172
 20
150.006781
 30
0.0
 10
558.919993
 20
151.509651
 30
0.0
 10
560.568481
 20
151.581197
 30
0.0
 10
561.786953
 20
150.149894
 30
0.0
 10
561.356909
 20
148.146069
 30
0.0
 10
559.421697
 20
146.428506
 30
0.0
 10
558.059876
 20
144.496247
 30
0.0
 10
557.701549
 20
143.279640
 30
0.0
 10
561.858642
 20
143.279640
 30
0.0
  0
LWPOLYLINE
  5
170
100
AcDbEntity
  8
Grabado
 62
5
100
AcDbPolyline
 90
7
 70
0
 10
566.696872
 20
148.734677
 30
0.0
 10
565.268040
 20
148.734677
 30
0.0
 10
564.336207
 20
147.889732
 30
0.0
 10
563.839237
 20
145.702814
 30
0.0
 10
564.274128
 20
143.714704
 30
0.0
 10
565.019555
 20
143.118272
 30
0.0
 10
566.510522
 20
143.118272
 30
0.0
  0
LWPOLYLINE
  5
171
100
AcDbEntity
  8
Grabado
 62
5
100
AcDbPolyline
 90
6
 70
0
 10
548.690999
 20
810.989116
 30
0.0
 10
551.884754
 20
815.363708
 30
0.0
 10
557.956389
 20
818.764544
 30
0.0
 10
564.755847
 20
819.021071
 30
0.0
 10
570.700098
 20
816.576777
 30
0.0
 10
575.341008
 20
811.155210
 30
0.0
  0
LWPOLYLINE
  5
172
100
AcDbEntity
  8
Grabado
 62
5
100
AcDbPolyline
 90
3
 70
0
 10
575.857758
 20
817.816205
 30
0.0
 10
575.341008
 20
811.155210
 30
0.0
 10
568.680045
 20
811.671981
 30
0.0
  0
LWPOLYLINE
  5
173
100
AcDbEntity
  8
Grabado
 62
5
100
AcDbPolyline
 90
6
 70
0
 10
575.489881
 20
798.061043
 30
0.0
 10
572.296125
 20
793.686451
 30
0.0
 10
566.224490
 20
790.285615
 30
0.0
 10
559.425033
 20
790.029089
 30
0.0
 10
553.480781
 20
792.473384
 30
0.0
 10
548.839872
 20
797.894951
 30
0.0
  0
LWPOLYLINE
  5
174
100
AcDbEntity
  8
Grabado
 62
5
100
AcDbPolyline
 90
3
 70
0
 10
548.323122
 20
791.233956
 30
0.0
 10
548.839872
 20
797.894951
 30
0.0
 10
555.500835
 20
797.378180
 30
0.0
  0
LWPOLYLINE
  5
175
100
AcDbEntity
  8
Grabado
 62
5
100
AcDbPolyline
 90
8
 70
0
 10
557.411774
 20
808.674069
 30
0.0
 10
561.475295
 20
808.674069
 30
0.0
 10
559.365412
 20
805.466098
 30
0.0
 10
560.771992
 20
804.977929
 30
0.0
 10
561.866023
 20
803.652900
 30
0.0
 10
561.631598
 20
801.839699
 30
0.0
 10
560.106757
 20
800.702478
 30
0.0
 10
557.646228
 20
800.375190
 30
0.0
  0
LWPOLYLINE
  5
176
100
AcDbEntity
  8
Grabado
 62
5
100
AcDbPolyline
 90
8
 70
1
 10
564.261809
 20
800.383113
 30
0.0
 10
564.261809
 20
805.832172
 30
0.0
 10
565.540319
 20
805.832172
 30
0.0
 10
566.126325
 20
805.456378
 30
0.0
 10
566.659040
 20
804.375955
 30
0.0
 10
566.659040
 20
801.651430
 30
0.0
 10
566.179588
 20
800.711935
 30
0.0
 10
565.646873
 20
800.383113
 30
0.0
  0
LWPOLYLINE
  5
177
100
AcDbEntity
  8
Grabado
 62
1
100
AcDbPolyline
 90
4
 70
1
 10
384.083603
 20
428.681866
 30
0.0
 10
384.083603
 20
541.515674
 30
0.0
 10
329.646954
 20
541.515674
 30
0.0
 10
329.646954
 20
428.681866
 30
0.0
  0
LWPOLYLINE
  5
178
100
AcDbEntity
  8
Grabado
 62
1
100
AcDbPolyline
 90
6
 70
1
 10
296.770016
 20
555.669673
 30
0.0
 10
282.253414
 20
541.320058
 30
0.0
 10
282.253414
 20
429.449947
 30
0.0
 10
296.770016
 20
415.101802
 30
0.0
 10
311.286619
 20
429.449947
 30
0.0
 10
311.286619
 20
541.320058
 30
0.0
  0
LWPOLYLINE
  5
179
100
AcDbEntity
  8
Grabado
 62
1
100
AcDbPolyline
 90
4
 70
1
 10
470.333282
 20
428.681866
 30
0.0
 10
470.333282
 20
541.515674
 30
0.0
 10
415.896633
 20
541.515674
 30
0.0
 10
415.896633
 20
428.681866
 30
0.0
  0
LWPOLYLINE
  5
17a
100
AcDbEntity
  8
Grabado
 62
1
100
AcDbPolyline
 90
6
 70
1
 10
503.498920
 20
555.669683
 30
0.0
 10
488.982302
 20
541.320055
 30
0.0
 10
488.982302
 20
429.449941
 30
0.0
 10
503.498920
 20
415.101815
 30
0.0
 10
518.015509
 20
429.449941
 30
0.0
 10
518.015509
 20
541.320055
 30
0.0
  0
ENDSEC
  0
SECTION
  2
OBJECTS
  0
DICTIONARY
  5
C
330
0
100
AcDbDictionary
  3
ACAD_GROUP
350
D
  3
ACAD_MLINESTYLE
350
17
  0
DICTIONARY
  5
D
330
C
100
AcDbDictionary
  0
DICTIONARY
  5
1A
330
C
100
AcDbDictionary
  0
DICTIONARY
  5
17
330
C
100
AcDbDictionary
  3
STANDARD
350
18
  0
DICTIONARY
  5
19
330
C
100
AcDbDictionary
  0
ENDSEC
  0
EOF
