  0
SECTION
  2
HEADER
  9
$ACADVER
  1
AC1014
  9
$HANDSEED
  5
FFFF
  9
$MEASUREMENT
 70
     1
  0
ENDSEC
  0
SECTION
  2
TABLES
  0
TABLE
  2
VPORT
  5
8
330
0
100
AcDbSymbolTable
 70
     4
  0
VPORT
  5
2E
330
8
100
AcDbSymbolTableRecord
100
AcDbViewportTableRecord
  2
*ACTIVE
 70
     0
 10
0.0
 20
0.0
 11
1.0
 21
1.0
 12
210.0
 22
148.5
 13
0.0
 23
0.0
 14
10.0
 24
10.0
 15
10.0
 25
10.0
 16
0.0
 26
0.0
 36
1.0
 17
0.0
 27
0.0
 37
0.0
 40
341.0
 41
1.24
 42
50.0
 43
0.0
 44
0.0
 50
0.0
 51
0.0
 71
     0
 72
   100
 73
     1
 74
     3
 75
     0
 76
     0
 77
     0
 78
     0
  0
ENDTAB
  0
TABLE
  2
LTYPE
  5
5
330
0
100
AcDbSymbolTable
 70
     1
  0
LTYPE
  5
14
330
5
100
AcDbSymbolTableRecord
100
AcDbLinetypeTableRecord
  2
BYBLOCK
 70
     0
  3

 72
    65
 73
     0
 40
0.0
  0
LTYPE
  5
15
330
5
100
AcDbSymbolTableRecord
100
AcDbLinetypeTableRecord
  2
BYLAYER
 70
     0
  3

 72
    65
 73
     0
 40
0.0
  0
LTYPE
  5
16
330
5
100
AcDbSymbolTableRecord
100
AcDbLinetypeTableRecord
  2
CONTINUOUS
 70
     0
  3
Solid line
 72
    65
 73
     0
 40
0.0
  0
ENDTAB
  0
TABLE
  2
LAYER
  5
2
100
AcDbSymbolTable
 70
3
  0
LAYER
  5
50
100
AcDbSymbolTableRecord
100
AcDbLayerTableRecord
  2
0
 70
0
  6
CONTINUOUS
  0
LAYER
  5
51
100
AcDbSymbolTableRecord
100
AcDbLayerTableRecord
  2
Corte
 70
0
  6
CONTINUOUS
  0
LAYER
  5
52
100
AcDbSymbolTableRecord
100
AcDbLayerTableRecord
  2
Grabado
 70
0
  6
CONTINUOUS
  0
ENDTAB
  0
TABLE
  2
STYLE
  5
3
330
0
100
AcDbSymbolTable
 70
     1
  0
STYLE
  5
11
330
3
100
AcDbSymbolTableRecord
100
AcDbTextStyleTableRecord
  2
STANDARD
 70
     0
 40
0.0
 41
1.0
 50
0.0
 71
     0
 42
2.5
  3
txt
  4

  0
ENDTAB
  0
TABLE
  2
VIEW
  5
6
330
0
100
AcDbSymbolTable
 70
     0
  0
ENDTAB
  0
TABLE
  2
UCS
  5
7
330
0
100
AcDbSymbolTable
 70
     0
  0
ENDTAB
  0
TABLE
  2
APPID
  5
9
330
0
100
AcDbSymbolTable
 70
     2
  0
APPID
  5
12
330
9
100
AcDbSymbolTableRecord
100
AcDbRegAppTableRecord
  2
ACAD
 70
     0
  0
ENDTAB
  0
TABLE
  2
DIMSTYLE
  5
A
330
0
100
AcDbSymbolTable
 70
     1
  0
DIMSTYLE
105
27
330
A
100
AcDbSymbolTableRecord
100
AcDbDimStyleTableRecord
  2
ISO-25
 70
     0
  3

  4

  5

  6

  7

 40
1.0
 41
2.5
 42
0.625
 43
3.75
 44
1.25
 45
0.0
 46
0.0
 47
0.0
 48
0.0
140
2.5
141
2.5
142
0.0
143
0.03937007874016
144
1.0
145
0.0
146
1.0
147
0.625
 71
     0
 72
     0
 73
     0
 74
     0
 75
     0
 76
     0
 77
     1
 78
     8
170
     0
171
     3
172
     1
173
     0
174
     0
175
     0
176
     0
177
     0
178
     0
270
     2
271
     2
272
     2
273
     2
274
     3
340
11
275
     0
280
     0
281
     0
282
     0
283
     0
284
     8
285
     0
286
     0
287
     3
288
     0
  0
ENDTAB
  0
TABLE
  2
BLOCK_RECORD
  5
1
330
0
100
AcDbSymbolTable
 70
     1
  0
BLOCK_RECORD
  5
1F
330
1
100
AcDbSymbolTableRecord
100
AcDbBlockTableRecord
  2
*MODEL_SPACE
  0
BLOCK_RECORD
  5
1B
330
1
100
AcDbSymbolTableRecord
100
AcDbBlockTableRecord
  2
*PAPER_SPACE
  0
ENDTAB
  0
ENDSEC
  0
SECTION
  2
BLOCKS
  0
BLOCK
  5
20
330
1F
100
AcDbEntity
  8
0
100
AcDbBlockBegin
  2
*MODEL_SPACE
 70
     0
 10
0.0
 20
0.0
 30
0.0
  3
*MODEL_SPACE
  1

  0
ENDBLK
  5
21
330
1F
100
AcDbEntity
  8
0
100
AcDbBlockEnd
  0
BLOCK
  5
1C
330
1B
100
AcDbEntity
 67
     1
  8
0
100
AcDbBlockBegin
  2
*PAPER_SPACE
  1

  0
ENDBLK
  5
1D
330
1B
100
AcDbEntity
 67
     1
  8
0
100
AcDbBlockEnd
  0
ENDSEC
  0
SECTION
  2
ENTITIES
  0
LWPOLYLINE
  5
100
100
AcDbEntity
  8
Corte
 62
1
100
AcDbPolyline
 90
13
 70
1
 10
107.539494
 20
79.690431
 30
0.0
 10
107.539494
 20
80.078487
 30
0.0
 10
109.091716
 20
80.078487
 30
0.0
 10
109.091716
 20
84.735150
 30
0.0
 10
107.539494
 20
84.735150
 30
0.0
 10
107.539494
 20
85.123214
 30
0.0
 10
69.198199
 20
83.744664
 30
0.0
 10
69.198199
 20
83.253489
 30
0.0
 10
104.364268
 20
83.253489
 30
0.0
 10
104.364268
 20
81.560153
 30
0.0
 10
69.198199
 20
81.560153
 30
0.0
 10
69.198199
 20
81.120038
 30
0.0
 10
107.539494
 20
79.690431
 30
0.0
  0
LWPOLYLINE
  5
101
100
AcDbEntity
  8
Corte
 62
1
100
AcDbPolyline
 90
5
 70
1
 10
6.415508
 20
84.591933
 30
0.0
 10
6.415508
 20
85.755874
 30
0.0
 10
7.191478
 20
85.755871
 30
0.0
 10
7.191478
 20
84.591930
 30
0.0
 10
6.415508
 20
84.591933
 30
0.0
  0
LWPOLYLINE
  5
102
100
AcDbEntity
  8
Corte
 62
1
100
AcDbPolyline
 90
5
 70
1
 10
16.828070
 20
51.607174
 30
0.0
 10
18.043927
 20
51.607174
 30
0.0
 10
18.043927
 20
52.161247
 30
0.0
 10
16.828070
 20
52.161247
 30
0.0
 10
16.828070
 20
51.607174
 30
0.0
  0
LWPOLYLINE
  5
103
100
AcDbEntity
  8
Corte
 62
1
100
AcDbPolyline
 90
34
 70
1
 10
42.451696
 20
91.613822
 30
0.0
 10
9.083467
 20
92.319378
 30
0.0
 10
4.140035
 20
93.024933
 30
0.0
 10
4.140035
 20
92.636951
 30
0.0
 10
2.587954
 20
92.636951
 30
0.0
 10
2.587954
 20
91.155276
 30
0.0
 10
7.244507
 20
91.155276
 30
0.0
 10
7.244507
 20
89.461934
 30
0.0
 10
2.587954
 20
89.461934
 30
0.0
 10
2.587954
 20
87.980110
 30
0.0
 10
4.140035
 20
87.980110
 30
0.0
 10
4.140035
 20
72.457965
 30
0.0
 10
2.587813
 20
72.457965
 30
0.0
 10
2.587813
 20
70.129623
 30
0.0
 10
4.140035
 20
70.129623
 30
0.0
 10
4.140035
 20
52.958756
 30
0.0
 10
2.587813
 20
52.958756
 30
0.0
 10
2.587813
 20
50.630415
 30
0.0
 10
4.140035
 20
50.630415
 30
0.0
 10
4.140035
 20
50.013089
 30
0.0
 10
9.806540
 20
51.353644
 30
0.0
 10
15.665025
 20
50.013089
 30
0.0
 10
15.665025
 20
50.706570
 30
0.0
 10
19.046685
 20
50.706570
 30
0.0
 10
19.046685
 20
53.816644
 30
0.0
 10
17.866219
 20
53.816644
 30
0.0
 10
17.866219
 20
53.519137
 30
0.0
 10
16.827097
 20
53.099584
 30
0.0
 10
16.827057
 20
53.816644
 30
0.0
 10
15.665025
 20
53.816644
 30
0.0
 10
15.665041
 20
55.680583
 30
0.0
 10
32.567689
 20
88.781446
 30
0.0
 10
42.451696
 20
89.003241
 30
0.0
 10
42.451696
 20
91.613822
 30
0.0
  0
LWPOLYLINE
  5
104
100
AcDbEntity
  8
Corte
 62
1
100
AcDbPolyline
 90
6
 70
1
 10
30.441444
 20
88.722868
 30
0.0
 10
13.855238
 20
58.597556
 30
0.0
 10
10.086306
 20
57.248952
 30
0.0
 10
7.786564
 20
86.202268
 30
0.0
 10
10.186103
 20
88.320571
 30
0.0
 10
30.441444
 20
88.722868
 30
0.0
  0
LWPOLYLINE
  5
105
100
AcDbEntity
  8
Corte
 62
1
100
AcDbPolyline
 90
5
 70
1
 10
11.830952
 20
55.564378
 30
0.0
 10
11.830952
 20
56.728319
 30
0.0
 10
12.606922
 20
56.728317
 30
0.0
 10
12.606922
 20
55.564376
 30
0.0
 10
11.830952
 20
55.564378
 30
0.0
  0
LWPOLYLINE
  5
106
100
AcDbEntity
  8
Corte
 62
1
100
AcDbPolyline
 90
44
 70
1
 10
47.977997
 20
92.959681
 30
0.0
 10
43.135583
 20
88.117268
 30
0.0
 10
43.135583
 20
85.713589
 30
0.0
 10
47.977841
 20
80.871176
 30
0.0
 10
51.978376
 20
80.871176
 30
0.0
 10
59.688655
 20
73.160898
 30
0.0
 10
59.688655
 20
21.690441
 30
0.0
 10
51.978376
 20
13.980627
 30
0.0
 10
47.977841
 20
13.980627
 30
0.0
 10
43.135583
 20
9.138366
 30
0.0
 10
43.135583
 20
6.734540
 30
0.0
 10
47.977997
 20
1.892120
 30
0.0
 10
50.381520
 20
1.892120
 30
0.0
 10
55.223934
 20
6.734691
 30
0.0
 10
55.223934
 20
10.640641
 30
0.0
 10
63.028485
 20
18.445035
 30
0.0
 10
114.309937
 20
18.445035
 30
0.0
 10
122.114486
 20
10.640641
 30
0.0
 10
122.114486
 20
6.734843
 30
0.0
 10
126.957049
 20
1.892272
 30
0.0
 10
129.360422
 20
1.892272
 30
0.0
 10
134.202993
 20
6.734532
 30
0.0
 10
134.202993
 20
9.138374
 30
0.0
 10
129.360581
 20
13.980627
 30
0.0
 10
125.360198
 20
13.980627
 30
0.0
 10
117.649923
 20
21.690441
 30
0.0
 10
117.649923
 20
73.161053
 30
0.0
 10
125.360198
 20
80.871176
 30
0.0
 10
129.360581
 20
80.871176
 30
0.0
 10
134.202993
 20
85.713434
 30
0.0
 10
134.202993
 20
88.117268
 30
0.0
 10
129.360422
 20
92.959525
 30
0.0
 10
126.957049
 20
92.959525
 30
0.0
 10
122.114486
 20
88.117113
 30
0.0
 10
122.114486
 20
84.211161
 30
0.0
 10
114.309937
 20
76.406455
 30
0.0
 10
90.184727
 20
76.406455
 30
0.0
 10
88.650696
 20
78.071469
 30
0.0
 10
87.084621
 20
76.406455
 30
0.0
 10
63.028485
 20
76.406455
 30
0.0
 10
55.223934
 20
84.211161
 30
0.0
 10
55.223934
 20
88.117113
 30
0.0
 10
50.381520
 20
92.959681
 30
0.0
 10
47.977997
 20
92.959681
 30
0.0
  0
LWPOLYLINE
  5
107
100
AcDbEntity
  8
Corte
 62
1
100
AcDbPolyline
 90
6
 70
1
 10
88.661743
 20
74.656035
 30
0.0
 10
111.501205
 20
73.597725
 30
0.0
 10
100.556256
 20
62.652780
 30
0.0
 10
76.782005
 20
62.652780
 30
0.0
 10
65.837214
 20
73.597569
 30
0.0
 10
88.661743
 20
74.656035
 30
0.0
  0
LWPOLYLINE
  5
108
100
AcDbEntity
  8
Corte
 62
1
100
AcDbPolyline
 90
6
 70
1
 10
114.841190
 20
70.352324
 30
0.0
 10
115.899500
 20
47.457794
 30
0.0
 10
114.841190
 20
24.499170
 30
0.0
 10
103.858599
 20
35.458739
 30
0.0
 10
103.858599
 20
59.375955
 30
0.0
 10
114.841190
 20
70.352324
 30
0.0
  0
LWPOLYLINE
  5
109
100
AcDbEntity
  8
Corte
 62
1
100
AcDbPolyline
 90
6
 70
1
 10
62.497385
 20
70.352165
 30
0.0
 10
73.453687
 20
59.395396
 30
0.0
 10
73.453687
 20
35.442245
 30
0.0
 10
62.497385
 20
24.499170
 30
0.0
 10
61.439075
 20
47.434148
 30
0.0
 10
62.497385
 20
70.352165
 30
0.0
  0
LWPOLYLINE
  5
10a
100
AcDbEntity
  8
Corte
 62
1
100
AcDbPolyline
 90
14
 70
1
 10
86.410405
 20
32.454770
 30
0.0
 10
87.235366
 20
32.454770
 30
0.0
 10
87.235366
 20
32.247869
 30
0.0
 10
90.103054
 20
32.247869
 30
0.0
 10
90.103054
 20
32.454770
 30
0.0
 10
90.928174
 20
32.454770
 30
0.0
 10
90.928174
 20
32.247869
 30
0.0
 10
100.507256
 20
32.247869
 30
0.0
 10
111.501205
 20
21.253609
 30
0.0
 10
88.660962
 20
20.195299
 30
0.0
 10
65.837214
 20
21.253609
 30
0.0
 10
76.831008
 20
32.247869
 30
0.0
 10
86.410405
 20
32.247869
 30
0.0
 10
86.410405
 20
32.454770
 30
0.0
  0
LWPOLYLINE
  5
10b
100
AcDbEntity
  8
Corte
 62
1
100
AcDbPolyline
 90
7
 70
1
 10
83.053152
 20
59.280904
 30
0.0
 10
77.885273
 20
54.111489
 30
0.0
 10
77.885273
 20
53.093143
 30
0.0
 10
99.368827
 20
53.093143
 30
0.0
 10
99.368827
 20
54.194718
 30
0.0
 10
94.285269
 20
59.280904
 30
0.0
 10
83.053152
 20
59.280904
 30
0.0
  0
LWPOLYLINE
  5
10c
100
AcDbEntity
  8
Corte
 62
1
100
AcDbPolyline
 90
5
 70
1
 10
53.917099
 20
83.535427
 30
0.0
 10
53.094055
 20
84.358459
 30
0.0
 10
53.642754
 20
84.907141
 30
0.0
 10
54.465773
 20
84.084111
 30
0.0
 10
53.917099
 20
83.535427
 30
0.0
  0
LWPOLYLINE
  5
10d
100
AcDbEntity
  8
Corte
 62
1
100
AcDbPolyline
 90
5
 70
1
 10
52.123357
 20
81.741699
 30
0.0
 10
51.300340
 20
82.564731
 30
0.0
 10
51.849006
 20
83.113411
 30
0.0
 10
52.672051
 20
82.290382
 30
0.0
 10
52.123357
 20
81.741699
 30
0.0
  0
LWPOLYLINE
  5
10e
100
AcDbEntity
  8
Corte
 62
1
100
AcDbPolyline
 90
5
 70
1
 10
123.421298
 20
11.316382
 30
0.0
 10
124.244314
 20
10.493354
 30
0.0
 10
123.695615
 20
9.944669
 30
0.0
 10
122.872599
 20
10.767699
 30
0.0
 10
123.421298
 20
11.316382
 30
0.0
  0
LWPOLYLINE
  5
10f
100
AcDbEntity
  8
Corte
 62
1
100
AcDbPolyline
 90
5
 70
1
 10
125.215015
 20
13.110115
 30
0.0
 10
126.038031
 20
12.287085
 30
0.0
 10
125.489363
 20
11.738400
 30
0.0
 10
124.666319
 20
12.561428
 30
0.0
 10
125.215015
 20
13.110115
 30
0.0
  0
LWPOLYLINE
  5
110
100
AcDbEntity
  8
Corte
 62
1
100
AcDbPolyline
 90
5
 70
1
 10
123.421270
 20
83.535407
 30
0.0
 10
124.244312
 20
84.358439
 30
0.0
 10
123.695618
 20
84.907122
 30
0.0
 10
122.872599
 20
84.084093
 30
0.0
 10
123.421270
 20
83.535407
 30
0.0
  0
LWPOLYLINE
  5
111
100
AcDbEntity
  8
Corte
 62
1
100
AcDbPolyline
 90
5
 70
1
 10
125.215015
 20
81.741677
 30
0.0
 10
126.038031
 20
82.564710
 30
0.0
 10
125.489363
 20
83.113392
 30
0.0
 10
124.666319
 20
82.290364
 30
0.0
 10
125.215015
 20
81.741677
 30
0.0
  0
LWPOLYLINE
  5
112
100
AcDbEntity
  8
Corte
 62
1
100
AcDbPolyline
 90
5
 70
1
 10
76.108481
 20
61.195229
 30
0.0
 10
77.854463
 20
59.449097
 30
0.0
 10
76.657175
 20
58.251808
 30
0.0
 10
74.911055
 20
59.997779
 30
0.0
 10
76.108481
 20
61.195229
 30
0.0
  0
LWPOLYLINE
  5
113
100
AcDbEntity
  8
Corte
 62
1
100
AcDbPolyline
 90
5
 70
1
 10
101.203359
 20
61.195289
 30
0.0
 10
102.400642
 20
59.997839
 30
0.0
 10
100.654519
 20
58.251870
 30
0.0
 10
99.457064
 20
59.449159
 30
0.0
 10
101.203359
 20
61.195289
 30
0.0
  0
LWPOLYLINE
  5
114
100
AcDbEntity
  8
Corte
 62
1
100
AcDbPolyline
 90
5
 70
1
 10
76.657240
 20
36.649336
 30
0.0
 10
77.854528
 20
35.451884
 30
0.0
 10
76.108540
 20
33.705756
 30
0.0
 10
74.911086
 20
34.903052
 30
0.0
 10
76.657240
 20
36.649336
 30
0.0
  0
LWPOLYLINE
  5
115
100
AcDbEntity
  8
Corte
 62
1
100
AcDbPolyline
 90
5
 70
1
 10
100.654463
 20
36.649266
 30
0.0
 10
102.400583
 20
34.902987
 30
0.0
 10
101.203297
 20
33.705696
 30
0.0
 10
99.457008
 20
35.451817
 30
0.0
 10
100.654463
 20
36.649266
 30
0.0
  0
LWPOLYLINE
  5
116
100
AcDbEntity
  8
Corte
 62
1
100
AcDbPolyline
 90
14
 70
0
 10
48.108224
 20
89.255478
 30
0.0
 10
49.205701
 20
88.157842
 30
0.0
 10
50.303348
 20
89.255476
 30
0.0
 10
51.500780
 20
88.058057
 30
0.0
 10
50.403128
 20
86.960418
 30
0.0
 10
51.500752
 20
85.862947
 30
0.0
 10
50.303348
 20
84.665524
 30
0.0
 10
49.205701
 20
85.763167
 30
0.0
 10
48.108224
 20
84.665526
 30
0.0
 10
46.910797
 20
85.862945
 30
0.0
 10
48.008444
 20
86.960420
 30
0.0
 10
46.910797
 20
88.058059
 30
0.0
 10
48.108224
 20
89.255478
 30
0.0
 10
48.108224
 20
89.255478
 30
0.0
  0
LWPOLYLINE
  5
117
100
AcDbEntity
  8
Corte
 62
1
100
AcDbPolyline
 90
5
 70
1
 10
62.363556
 20
74.940167
 30
0.0
 10
64.109513
 20
73.194036
 30
0.0
 10
62.912227
 20
71.996742
 30
0.0
 10
61.166101
 20
73.742716
 30
0.0
 10
62.363556
 20
74.940167
 30
0.0
  0
LWPOLYLINE
  5
118
100
AcDbEntity
  8
Corte
 62
1
100
AcDbPolyline
 90
14
 70
0
 10
129.229903
 20
5.596355
 30
0.0
 10
128.132425
 20
6.693979
 30
0.0
 10
127.034778
 20
5.596360
 30
0.0
 10
125.837380
 20
6.793767
 30
0.0
 10
126.934999
 20
7.891405
 30
0.0
 10
125.837352
 20
8.988894
 30
0.0
 10
127.034778
 20
10.186312
 30
0.0
 10
128.132425
 20
9.088665
 30
0.0
 10
129.229906
 20
10.186307
 30
0.0
 10
130.427332
 20
8.988880
 30
0.0
 10
129.329682
 20
7.891403
 30
0.0
 10
130.427329
 20
6.793773
 30
0.0
 10
129.229903
 20
5.596355
 30
0.0
 10
129.229903
 20
5.596355
 30
0.0
  0
LWPOLYLINE
  5
119
100
AcDbEntity
  8
Corte
 62
1
100
AcDbPolyline
 90
5
 70
1
 10
114.974576
 20
19.911656
 30
0.0
 10
113.228622
 20
21.657785
 30
0.0
 10
114.425911
 20
22.855076
 30
0.0
 10
116.172034
 20
21.109111
 30
0.0
 10
114.974576
 20
19.911656
 30
0.0
  0
LWPOLYLINE
  5
11a
100
AcDbEntity
  8
Corte
 62
1
100
AcDbPolyline
 90
14
 70
0
 10
129.229903
 20
89.255458
 30
0.0
 10
128.132425
 20
88.157821
 30
0.0
 10
127.034781
 20
89.255457
 30
0.0
 10
125.837355
 20
88.058037
 30
0.0
 10
126.935002
 20
86.960399
 30
0.0
 10
125.837352
 20
85.862927
 30
0.0
 10
127.034778
 20
84.665507
 30
0.0
 10
128.132425
 20
85.763146
 30
0.0
 10
129.229903
 20
84.665506
 30
0.0
 10
130.427332
 20
85.862927
 30
0.0
 10
129.329682
 20
86.960400
 30
0.0
 10
130.427329
 20
88.058040
 30
0.0
 10
129.229903
 20
89.255458
 30
0.0
 10
129.229903
 20
89.255458
 30
0.0
  0
LWPOLYLINE
  5
11b
100
AcDbEntity
  8
Corte
 62
1
100
AcDbPolyline
 90
5
 70
1
 10
114.974576
 20
74.940149
 30
0.0
 10
113.228622
 20
73.194018
 30
0.0
 10
114.425911
 20
71.996723
 30
0.0
 10
116.172031
 20
73.742698
 30
0.0
 10
114.974576
 20
74.940149
 30
0.0
  0
LWPOLYLINE
  5
11c
100
AcDbEntity
  8
Corte
 62
1
100
AcDbPolyline
 90
14
 70
0
 10
48.108227
 20
5.596335
 30
0.0
 10
49.205704
 20
6.693973
 30
0.0
 10
50.303351
 20
5.596335
 30
0.0
 10
51.500778
 20
6.793750
 30
0.0
 10
50.403128
 20
7.891388
 30
0.0
 10
51.500749
 20
8.988863
 30
0.0
 10
50.303351
 20
10.186290
 30
0.0
 10
49.205701
 20
9.088643
 30
0.0
 10
48.108224
 20
10.186284
 30
0.0
 10
46.910797
 20
8.988863
 30
0.0
 10
48.008447
 20
7.891388
 30
0.0
 10
46.910800
 20
6.793756
 30
0.0
 10
48.108227
 20
5.596335
 30
0.0
 10
48.108227
 20
5.596335
 30
0.0
  0
LWPOLYLINE
  5
11d
100
AcDbEntity
  8
Corte
 62
1
100
AcDbPolyline
 90
5
 70
1
 10
62.363556
 20
19.911642
 30
0.0
 10
64.109513
 20
21.657771
 30
0.0
 10
62.912227
 20
22.855065
 30
0.0
 10
61.166104
 20
21.109094
 30
0.0
 10
62.363556
 20
19.911642
 30
0.0
  0
LWPOLYLINE
  5
11e
100
AcDbEntity
  8
Corte
 62
1
100
AcDbPolyline
 90
5
 70
1
 10
53.917099
 20
11.316365
 30
0.0
 10
53.094055
 20
10.493337
 30
0.0
 10
53.642754
 20
9.944652
 30
0.0
 10
54.465770
 20
10.767682
 30
0.0
 10
53.917099
 20
11.316365
 30
0.0
  0
LWPOLYLINE
  5
11f
100
AcDbEntity
  8
Corte
 62
1
100
AcDbPolyline
 90
5
 70
1
 10
52.123354
 20
13.110099
 30
0.0
 10
51.300338
 20
12.287068
 30
0.0
 10
51.849006
 20
11.738386
 30
0.0
 10
52.672051
 20
12.561413
 30
0.0
 10
52.123354
 20
13.110099
 30
0.0
  0
LWPOLYLINE
  5
120
100
AcDbEntity
  8
Corte
 62
1
100
AcDbPolyline
 90
21
 70
0
 10
88.627029
 20
39.231174
 30
0.0
 10
89.097880
 20
39.326226
 30
0.0
 10
89.482388
 20
39.585461
 30
0.0
 10
89.741635
 20
39.969967
 30
0.0
 10
89.836698
 20
40.440815
 30
0.0
 10
89.741635
 20
40.911666
 30
0.0
 10
89.482385
 20
41.296166
 30
0.0
 10
89.097880
 20
41.555401
 30
0.0
 10
88.627029
 20
41.650456
 30
0.0
 10
88.156209
 20
41.555404
 30
0.0
 10
87.771715
 20
41.296166
 30
0.0
 10
87.512474
 20
40.911666
 30
0.0
 10
87.417405
 20
40.440815
 30
0.0
 10
87.512469
 20
39.969969
 30
0.0
 10
87.771712
 20
39.585467
 30
0.0
 10
88.156206
 20
39.326226
 30
0.0
 10
88.627029
 20
39.231174
 30
0.0
 10
88.627029
 20
39.231174
 30
0.0
 10
88.627029
 20
39.231174
 30
0.0
 10
88.627029
 20
39.231174
 30
0.0
 10
88.627029
 20
39.231174
 30
0.0
  0
LWPOLYLINE
  5
121
100
AcDbEntity
  8
Corte
 62
1
100
AcDbPolyline
 90
5
 70
1
 10
75.087641
 20
31.614346
 30
0.0
 10
74.264599
 20
30.791321
 30
0.0
 10
73.715922
 20
31.340000
 30
0.0
 10
74.538950
 20
32.163039
 30
0.0
 10
75.087641
 20
31.614346
 30
0.0
  0
LWPOLYLINE
  5
122
100
AcDbEntity
  8
Corte
 62
1
100
AcDbPolyline
 90
5
 70
1
 10
102.250864
 20
63.237632
 30
0.0
 10
103.073880
 20
64.060637
 30
0.0
 10
103.622574
 20
63.511980
 30
0.0
 10
102.799529
 20
62.688924
 30
0.0
 10
102.250864
 20
63.237632
 30
0.0
  0
LWPOLYLINE
  5
123
100
AcDbEntity
  8
Corte
 62
1
100
AcDbPolyline
 90
5
 70
1
 10
75.087491
 20
63.237739
 30
0.0
 10
74.264447
 20
64.060744
 30
0.0
 10
73.715770
 20
63.512079
 30
0.0
 10
74.538803
 20
62.689040
 30
0.0
 10
75.087491
 20
63.237739
 30
0.0
  0
LWPOLYLINE
  5
124
100
AcDbEntity
  8
Corte
 62
1
100
AcDbPolyline
 90
5
 70
1
 10
102.250864
 20
31.614295
 30
0.0
 10
103.073891
 20
30.791270
 30
0.0
 10
103.622574
 20
31.339935
 30
0.0
 10
102.799560
 20
32.162994
 30
0.0
 10
102.250864
 20
31.614295
 30
0.0
  0
LWPOLYLINE
  5
125
100
AcDbEntity
  8
Corte
 62
1
100
AcDbPolyline
 90
5
 70
1
 10
97.851874
 20
34.250730
 30
0.0
 10
99.016129
 20
34.250730
 30
0.0
 10
99.016129
 20
33.474769
 30
0.0
 10
97.851874
 20
33.474772
 30
0.0
 10
97.851874
 20
34.250730
 30
0.0
  0
LWPOLYLINE
  5
126
100
AcDbEntity
  8
Corte
 62
1
100
AcDbPolyline
 90
5
 70
1
 10
48.764094
 20
82.832109
 30
0.0
 10
49.589154
 20
82.832109
 30
0.0
 10
49.589154
 20
82.007048
 30
0.0
 10
48.764094
 20
82.007048
 30
0.0
 10
48.764094
 20
82.832109
 30
0.0
  0
LWPOLYLINE
  5
127
100
AcDbEntity
  8
Corte
 62
1
100
AcDbPolyline
 90
5
 70
1
 10
45.929951
 20
90.173230
 30
0.0
 10
46.755010
 20
90.173230
 30
0.0
 10
46.755010
 20
89.348169
 30
0.0
 10
45.929951
 20
89.348169
 30
0.0
 10
45.929951
 20
90.173230
 30
0.0
  0
LWPOLYLINE
  5
128
100
AcDbEntity
  8
Corte
 62
1
100
AcDbPolyline
 90
5
 70
1
 10
48.764097
 20
91.846072
 30
0.0
 10
49.589157
 20
91.846072
 30
0.0
 10
49.589157
 20
91.021012
 30
0.0
 10
48.764097
 20
91.021012
 30
0.0
 10
48.764097
 20
91.846072
 30
0.0
  0
LWPOLYLINE
  5
129
100
AcDbEntity
  8
Corte
 62
1
100
AcDbPolyline
 90
5
 70
1
 10
44.257118
 20
87.339095
 30
0.0
 10
45.082178
 20
87.339095
 30
0.0
 10
45.082178
 20
86.514034
 30
0.0
 10
44.257118
 20
86.514034
 30
0.0
 10
44.257118
 20
87.339095
 30
0.0
  0
LWPOLYLINE
  5
12a
100
AcDbEntity
  8
Corte
 62
1
100
AcDbPolyline
 90
5
 70
1
 10
53.271146
 20
87.339095
 30
0.0
 10
54.096206
 20
87.339095
 30
0.0
 10
54.096206
 20
86.514035
 30
0.0
 10
53.271146
 20
86.514035
 30
0.0
 10
53.271146
 20
87.339095
 30
0.0
  0
LWPOLYLINE
  5
12b
100
AcDbEntity
  8
Corte
 62
1
100
AcDbPolyline
 90
5
 70
1
 10
127.749213
 20
91.846052
 30
0.0
 10
128.574272
 20
91.846052
 30
0.0
 10
128.574272
 20
91.020992
 30
0.0
 10
127.749213
 20
91.020992
 30
0.0
 10
127.749213
 20
91.846052
 30
0.0
  0
LWPOLYLINE
  5
12c
100
AcDbEntity
  8
Corte
 62
1
100
AcDbPolyline
 90
5
 70
1
 10
123.242163
 20
87.339074
 30
0.0
 10
124.067223
 20
87.339074
 30
0.0
 10
124.067223
 20
86.514014
 30
0.0
 10
123.242163
 20
86.514014
 30
0.0
 10
123.242163
 20
87.339074
 30
0.0
  0
LWPOLYLINE
  5
12d
100
AcDbEntity
  8
Corte
 62
1
100
AcDbPolyline
 90
5
 70
1
 10
127.749210
 20
82.832091
 30
0.0
 10
128.574269
 20
82.832091
 30
0.0
 10
128.574269
 20
82.007030
 30
0.0
 10
127.749210
 20
82.007030
 30
0.0
 10
127.749210
 20
82.832091
 30
0.0
  0
LWPOLYLINE
  5
12e
100
AcDbEntity
  8
Corte
 62
1
100
AcDbPolyline
 90
5
 70
1
 10
132.256186
 20
87.339075
 30
0.0
 10
133.081245
 20
87.339075
 30
0.0
 10
133.081245
 20
86.514015
 30
0.0
 10
132.256186
 20
86.514015
 30
0.0
 10
132.256186
 20
87.339075
 30
0.0
  0
LWPOLYLINE
  5
12f
100
AcDbEntity
  8
Corte
 62
1
100
AcDbPolyline
 90
5
 70
1
 10
130.583339
 20
90.173205
 30
0.0
 10
131.408399
 20
90.173205
 30
0.0
 10
131.408399
 20
89.348145
 30
0.0
 10
130.583339
 20
89.348145
 30
0.0
 10
130.583339
 20
90.173205
 30
0.0
  0
LWPOLYLINE
  5
130
100
AcDbEntity
  8
Corte
 62
1
100
AcDbPolyline
 90
5
 70
1
 10
127.749210
 20
12.844765
 30
0.0
 10
128.574269
 20
12.844765
 30
0.0
 10
128.574269
 20
12.019705
 30
0.0
 10
127.749210
 20
12.019705
 30
0.0
 10
127.749210
 20
12.844765
 30
0.0
  0
LWPOLYLINE
  5
131
100
AcDbEntity
  8
Corte
 62
1
100
AcDbPolyline
 90
5
 70
1
 10
123.242152
 20
8.337783
 30
0.0
 10
124.067212
 20
8.337783
 30
0.0
 10
124.067212
 20
7.512723
 30
0.0
 10
123.242152
 20
7.512723
 30
0.0
 10
123.242152
 20
8.337783
 30
0.0
  0
LWPOLYLINE
  5
132
100
AcDbEntity
  8
Corte
 62
1
100
AcDbPolyline
 90
5
 70
1
 10
127.749210
 20
3.830798
 30
0.0
 10
128.574269
 20
3.830798
 30
0.0
 10
128.574269
 20
3.005739
 30
0.0
 10
127.749210
 20
3.005739
 30
0.0
 10
127.749210
 20
3.830798
 30
0.0
  0
LWPOLYLINE
  5
133
100
AcDbEntity
  8
Corte
 62
1
100
AcDbPolyline
 90
5
 70
1
 10
130.583345
 20
5.503643
 30
0.0
 10
131.408404
 20
5.503643
 30
0.0
 10
131.408404
 20
4.678583
 30
0.0
 10
130.583345
 20
4.678583
 30
0.0
 10
130.583345
 20
5.503643
 30
0.0
  0
LWPOLYLINE
  5
134
100
AcDbEntity
  8
Corte
 62
1
100
AcDbPolyline
 90
5
 70
1
 10
132.256189
 20
8.337780
 30
0.0
 10
133.081248
 20
8.337780
 30
0.0
 10
133.081248
 20
7.512720
 30
0.0
 10
132.256189
 20
7.512720
 30
0.0
 10
132.256189
 20
8.337780
 30
0.0
  0
LWPOLYLINE
  5
135
100
AcDbEntity
  8
Corte
 62
1
100
AcDbPolyline
 90
5
 70
1
 10
48.764094
 20
12.844748
 30
0.0
 10
49.589154
 20
12.844748
 30
0.0
 10
49.589154
 20
12.019688
 30
0.0
 10
48.764094
 20
12.019688
 30
0.0
 10
48.764094
 20
12.844748
 30
0.0
  0
LWPOLYLINE
  5
136
100
AcDbEntity
  8
Corte
 62
1
100
AcDbPolyline
 90
5
 70
1
 10
44.257118
 20
8.337760
 30
0.0
 10
45.082178
 20
8.337760
 30
0.0
 10
45.082178
 20
7.512701
 30
0.0
 10
44.257118
 20
7.512701
 30
0.0
 10
44.257118
 20
8.337760
 30
0.0
  0
LWPOLYLINE
  5
137
100
AcDbEntity
  8
Corte
 62
1
100
AcDbPolyline
 90
5
 70
1
 10
45.929965
 20
5.503629
 30
0.0
 10
46.755025
 20
5.503629
 30
0.0
 10
46.755025
 20
4.678569
 30
0.0
 10
45.929965
 20
4.678569
 30
0.0
 10
45.929965
 20
5.503629
 30
0.0
  0
LWPOLYLINE
  5
138
100
AcDbEntity
  8
Corte
 62
1
100
AcDbPolyline
 90
5
 70
1
 10
48.764097
 20
3.830781
 30
0.0
 10
49.589157
 20
3.830781
 30
0.0
 10
49.589157
 20
3.005722
 30
0.0
 10
48.764097
 20
3.005722
 30
0.0
 10
48.764097
 20
3.830781
 30
0.0
  0
LWPOLYLINE
  5
139
100
AcDbEntity
  8
Corte
 62
1
100
AcDbPolyline
 90
5
 70
1
 10
53.271146
 20
8.337763
 30
0.0
 10
54.096206
 20
8.337763
 30
0.0
 10
54.096206
 20
7.512703
 30
0.0
 10
53.271146
 20
7.512703
 30
0.0
 10
53.271146
 20
8.337763
 30
0.0
  0
LWPOLYLINE
  5
13a
100
AcDbEntity
  8
Corte
 62
1
100
AcDbPolyline
 90
5
 70
1
 10
77.885502
 20
49.716748
 30
0.0
 10
99.368599
 20
49.716759
 30
0.0
 10
99.368585
 20
45.135040
 30
0.0
 10
77.885502
 20
45.135040
 30
0.0
 10
77.885502
 20
49.716748
 30
0.0
  0
LWPOLYLINE
  5
13b
100
AcDbEntity
  8
Corte
 62
1
100
AcDbPolyline
 90
28
 70
0
 10
77.885273
 20
41.761930
 30
0.0
 10
77.885273
 20
40.743600
 30
0.0
 10
83.053152
 20
35.574168
 30
0.0
 10
86.410405
 20
35.574168
 30
0.0
 10
86.410405
 20
35.322308
 30
0.0
 10
87.235366
 20
35.322308
 30
0.0
 10
87.235366
 20
35.574168
 30
0.0
 10
90.103054
 20
35.574168
 30
0.0
 10
90.103054
 20
35.322463
 30
0.0
 10
90.928174
 20
35.322463
 30
0.0
 10
90.928174
 20
35.574168
 30
0.0
 10
94.285117
 20
35.574168
 30
0.0
 10
97.567070
 20
38.850526
 30
0.0
 10
97.567070
 20
40.658817
 30
0.0
 10
97.841956
 20
40.658817
 30
0.0
 10
97.841956
 20
40.520519
 30
0.0
 10
99.023786
 20
40.520519
 30
0.0
 10
99.023786
 20
40.658817
 30
0.0
 10
99.368827
 20
40.658817
 30
0.0
 10
99.368827
 20
41.761930
 30
0.0
 10
93.024721
 20
41.761930
 30
0.0
 10
93.024721
 20
41.230208
 30
0.0
 10
89.554374
 20
38.095724
 30
0.0
 10
87.699730
 20
38.095724
 30
0.0
 10
84.218956
 20
41.230208
 30
0.0
 10
84.218956
 20
41.761930
 30
0.0
 10
77.885273
 20
41.761930
 30
0.0
 10
77.885273
 20
41.761930
 30
0.0
  0
LWPOLYLINE
  5
13c
100
AcDbEntity
  8
Corte
 62
1
100
AcDbPolyline
 90
13
 70
1
 10
107.539494
 20
87.050984
 30
0.0
 10
107.539494
 20
87.439039
 30
0.0
 10
109.091716
 20
87.439039
 30
0.0
 10
109.091716
 20
92.095702
 30
0.0
 10
107.539494
 20
92.095702
 30
0.0
 10
107.539494
 20
92.483766
 30
0.0
 10
69.198199
 20
91.105216
 30
0.0
 10
69.198199
 20
90.614041
 30
0.0
 10
104.364268
 20
90.614041
 30
0.0
 10
104.364268
 20
88.920705
 30
0.0
 10
69.198199
 20
88.920705
 30
0.0
 10
69.198199
 20
88.480590
 30
0.0
 10
107.539494
 20
87.050984
 30
0.0
  0
LWPOLYLINE
  5
13d
100
AcDbEntity
  8
Corte
 62
1
100
AcDbPolyline
 90
13
 70
1
 10
107.539494
 20
3.904004
 30
0.0
 10
107.539494
 20
4.292060
 30
0.0
 10
109.091716
 20
4.292060
 30
0.0
 10
109.091716
 20
8.948721
 30
0.0
 10
107.539494
 20
8.948721
 30
0.0
 10
107.539494
 20
9.336785
 30
0.0
 10
69.198199
 20
7.958237
 30
0.0
 10
69.198199
 20
7.467060
 30
0.0
 10
104.364268
 20
7.467060
 30
0.0
 10
104.364268
 20
5.773724
 30
0.0
 10
69.198199
 20
5.773724
 30
0.0
 10
69.198199
 20
5.333609
 30
0.0
 10
107.539494
 20
3.904004
 30
0.0
  0
LWPOLYLINE
  5
13e
100
AcDbEntity
  8
Corte
 62
1
100
AcDbPolyline
 90
13
 70
1
 10
107.539494
 20
11.264555
 30
0.0
 10
107.539494
 20
11.652610
 30
0.0
 10
109.091716
 20
11.652610
 30
0.0
 10
109.091716
 20
16.309274
 30
0.0
 10
107.539494
 20
16.309274
 30
0.0
 10
107.539494
 20
16.697338
 30
0.0
 10
69.198199
 20
15.318790
 30
0.0
 10
69.198199
 20
14.827613
 30
0.0
 10
104.364268
 20
14.827613
 30
0.0
 10
104.364268
 20
13.134277
 30
0.0
 10
69.198199
 20
13.134277
 30
0.0
 10
69.198199
 20
12.694163
 30
0.0
 10
107.539494
 20
11.264555
 30
0.0
  0
LWPOLYLINE
  5
13f
100
AcDbEntity
  8
Corte
 62
1
100
AcDbPolyline
 90
5
 70
1
 10
6.415508
 20
10.327024
 30
0.0
 10
6.415508
 20
9.163083
 30
0.0
 10
7.191478
 20
9.163086
 30
0.0
 10
7.191478
 20
10.327026
 30
0.0
 10
6.415508
 20
10.327024
 30
0.0
  0
LWPOLYLINE
  5
140
100
AcDbEntity
  8
Corte
 62
1
100
AcDbPolyline
 90
5
 70
1
 10
16.828070
 20
43.311783
 30
0.0
 10
18.043927
 20
43.311783
 30
0.0
 10
18.043927
 20
42.757710
 30
0.0
 10
16.828070
 20
42.757710
 30
0.0
 10
16.828070
 20
43.311783
 30
0.0
  0
LWPOLYLINE
  5
141
100
AcDbEntity
  8
Corte
 62
1
100
AcDbPolyline
 90
34
 70
1
 10
42.451696
 20
3.305134
 30
0.0
 10
9.083467
 20
2.599579
 30
0.0
 10
4.140035
 20
1.894023
 30
0.0
 10
4.140035
 20
2.282005
 30
0.0
 10
2.587954
 20
2.282005
 30
0.0
 10
2.587954
 20
3.763681
 30
0.0
 10
7.244507
 20
3.763681
 30
0.0
 10
7.244507
 20
5.457022
 30
0.0
 10
2.587954
 20
5.457022
 30
0.0
 10
2.587954
 20
6.938847
 30
0.0
 10
4.140035
 20
6.938847
 30
0.0
 10
4.140035
 20
22.460992
 30
0.0
 10
2.587813
 20
22.460992
 30
0.0
 10
2.587813
 20
24.789333
 30
0.0
 10
4.140035
 20
24.789333
 30
0.0
 10
4.140035
 20
41.960200
 30
0.0
 10
2.587813
 20
41.960200
 30
0.0
 10
2.587813
 20
44.288542
 30
0.0
 10
4.140035
 20
44.288542
 30
0.0
 10
4.140035
 20
44.905868
 30
0.0
 10
9.806540
 20
43.565312
 30
0.0
 10
15.665025
 20
44.905868
 30
0.0
 10
15.665025
 20
44.212387
 30
0.0
 10
19.046685
 20
44.212387
 30
0.0
 10
19.046685
 20
41.102312
 30
0.0
 10
17.866219
 20
41.102312
 30
0.0
 10
17.866219
 20
41.399820
 30
0.0
 10
16.827097
 20
41.819372
 30
0.0
 10
16.827057
 20
41.102312
 30
0.0
 10
15.665025
 20
41.102312
 30
0.0
 10
15.665041
 20
39.238374
 30
0.0
 10
32.567689
 20
6.137511
 30
0.0
 10
42.451696
 20
5.915715
 30
0.0
 10
42.451696
 20
3.305134
 30
0.0
  0
LWPOLYLINE
  5
142
100
AcDbEntity
  8
Corte
 62
1
100
AcDbPolyline
 90
6
 70
1
 10
30.441444
 20
6.196089
 30
0.0
 10
13.855238
 20
36.321401
 30
0.0
 10
10.086306
 20
37.670005
 30
0.0
 10
7.786564
 20
8.716689
 30
0.0
 10
10.186103
 20
6.598385
 30
0.0
 10
30.441444
 20
6.196089
 30
0.0
  0
LWPOLYLINE
  5
143
100
AcDbEntity
  8
Corte
 62
1
100
AcDbPolyline
 90
5
 70
1
 10
11.830952
 20
39.354578
 30
0.0
 10
11.830952
 20
38.190637
 30
0.0
 10
12.606922
 20
38.190640
 30
0.0
 10
12.606922
 20
39.354581
 30
0.0
 10
11.830952
 20
39.354578
 30
0.0
  0
LWPOLYLINE
  5
144
100
AcDbEntity
  8
Corte
 62
1
100
AcDbPolyline
 90
5
 70
1
 10
154.521946
 20
58.444704
 30
0.0
 10
154.521946
 20
57.280763
 30
0.0
 10
153.745976
 20
57.280766
 30
0.0
 10
153.745976
 20
58.444707
 30
0.0
 10
154.521946
 20
58.444704
 30
0.0
  0
LWPOLYLINE
  5
145
100
AcDbEntity
  8
Corte
 62
1
100
AcDbPolyline
 90
5
 70
1
 10
144.109384
 20
91.429463
 30
0.0
 10
142.893527
 20
91.429463
 30
0.0
 10
142.893527
 20
90.875390
 30
0.0
 10
144.109384
 20
90.875390
 30
0.0
 10
144.109384
 20
91.429463
 30
0.0
  0
LWPOLYLINE
  5
146
100
AcDbEntity
  8
Corte
 62
1
100
AcDbPolyline
 90
34
 70
1
 10
118.485758
 20
51.422814
 30
0.0
 10
151.853986
 20
50.717259
 30
0.0
 10
156.797419
 20
50.011703
 30
0.0
 10
156.797419
 20
50.399686
 30
0.0
 10
158.349500
 20
50.399686
 30
0.0
 10
158.349500
 20
51.881361
 30
0.0
 10
153.692946
 20
51.881361
 30
0.0
 10
153.692946
 20
53.574702
 30
0.0
 10
158.349500
 20
53.574702
 30
0.0
 10
158.349500
 20
55.056527
 30
0.0
 10
156.797419
 20
55.056527
 30
0.0
 10
156.797419
 20
70.578672
 30
0.0
 10
158.349641
 20
70.578672
 30
0.0
 10
158.349641
 20
72.907014
 30
0.0
 10
156.797419
 20
72.907014
 30
0.0
 10
156.797419
 20
90.077880
 30
0.0
 10
158.349641
 20
90.077880
 30
0.0
 10
158.349641
 20
92.406222
 30
0.0
 10
156.797419
 20
92.406222
 30
0.0
 10
156.797419
 20
93.023548
 30
0.0
 10
151.130914
 20
91.682992
 30
0.0
 10
145.272428
 20
93.023548
 30
0.0
 10
145.272428
 20
92.330067
 30
0.0
 10
141.890769
 20
92.330067
 30
0.0
 10
141.890769
 20
89.219993
 30
0.0
 10
143.071235
 20
89.219993
 30
0.0
 10
143.071235
 20
89.517500
 30
0.0
 10
144.110357
 20
89.937052
 30
0.0
 10
144.110397
 20
89.219993
 30
0.0
 10
145.272428
 20
89.219993
 30
0.0
 10
145.272412
 20
87.356054
 30
0.0
 10
128.369764
 20
54.255191
 30
0.0
 10
118.485758
 20
54.033395
 30
0.0
 10
118.485758
 20
51.422814
 30
0.0
  0
LWPOLYLINE
  5
147
100
AcDbEntity
  8
Corte
 62
1
100
AcDbPolyline
 90
6
 70
1
 10
130.496009
 20
54.313769
 30
0.0
 10
147.082216
 20
84.439081
 30
0.0
 10
150.851147
 20
85.787685
 30
0.0
 10
153.150890
 20
56.834369
 30
0.0
 10
150.751350
 20
54.716066
 30
0.0
 10
130.496009
 20
54.313769
 30
0.0
  0
LWPOLYLINE
  5
148
100
AcDbEntity
  8
Corte
 62
1
100
AcDbPolyline
 90
5
 70
1
 10
149.106502
 20
87.472258
 30
0.0
 10
149.106502
 20
86.308317
 30
0.0
 10
148.330532
 20
86.308320
 30
0.0
 10
148.330532
 20
87.472261
 30
0.0
 10
149.106502
 20
87.472258
 30
0.0
  0
LWPOLYLINE
  5
149
100
AcDbEntity
  8
Corte
 62
1
100
AcDbPolyline
 90
5
 70
1
 10
154.521946
 20
36.474252
 30
0.0
 10
154.521946
 20
37.638193
 30
0.0
 10
153.745976
 20
37.638190
 30
0.0
 10
153.745976
 20
36.474249
 30
0.0
 10
154.521946
 20
36.474252
 30
0.0
  0
LWPOLYLINE
  5
14a
100
AcDbEntity
  8
Corte
 62
1
100
AcDbPolyline
 90
5
 70
1
 10
144.109384
 20
3.489493
 30
0.0
 10
142.893527
 20
3.489493
 30
0.0
 10
142.893527
 20
4.043566
 30
0.0
 10
144.109384
 20
4.043566
 30
0.0
 10
144.109384
 20
3.489493
 30
0.0
  0
LWPOLYLINE
  5
14b
100
AcDbEntity
  8
Corte
 62
1
100
AcDbPolyline
 90
34
 70
1
 10
118.485758
 20
43.496141
 30
0.0
 10
151.853986
 20
44.201697
 30
0.0
 10
156.797419
 20
44.907252
 30
0.0
 10
156.797419
 20
44.519270
 30
0.0
 10
158.349500
 20
44.519270
 30
0.0
 10
158.349500
 20
43.037595
 30
0.0
 10
153.692946
 20
43.037595
 30
0.0
 10
153.692946
 20
41.344253
 30
0.0
 10
158.349500
 20
41.344253
 30
0.0
 10
158.349500
 20
39.862429
 30
0.0
 10
156.797419
 20
39.862429
 30
0.0
 10
156.797419
 20
24.340284
 30
0.0
 10
158.349641
 20
24.340284
 30
0.0
 10
158.349641
 20
22.011942
 30
0.0
 10
156.797419
 20
22.011942
 30
0.0
 10
156.797419
 20
4.841075
 30
0.0
 10
158.349641
 20
4.841075
 30
0.0
 10
158.349641
 20
2.512734
 30
0.0
 10
156.797419
 20
2.512734
 30
0.0
 10
156.797419
 20
1.895408
 30
0.0
 10
151.130914
 20
3.235963
 30
0.0
 10
145.272428
 20
1.895408
 30
0.0
 10
145.272428
 20
2.588889
 30
0.0
 10
141.890769
 20
2.588889
 30
0.0
 10
141.890769
 20
5.698963
 30
0.0
 10
143.071235
 20
5.698963
 30
0.0
 10
143.071235
 20
5.401456
 30
0.0
 10
144.110357
 20
4.981904
 30
0.0
 10
144.110397
 20
5.698963
 30
0.0
 10
145.272428
 20
5.698963
 30
0.0
 10
145.272412
 20
7.562902
 30
0.0
 10
128.369764
 20
40.663765
 30
0.0
 10
118.485758
 20
40.885560
 30
0.0
 10
118.485758
 20
43.496141
 30
0.0
  0
LWPOLYLINE
  5
14c
100
AcDbEntity
  8
Corte
 62
1
100
AcDbPolyline
 90
6
 70
1
 10
130.496009
 20
40.605187
 30
0.0
 10
147.082216
 20
10.479875
 30
0.0
 10
150.851147
 20
9.131271
 30
0.0
 10
153.150890
 20
38.084587
 30
0.0
 10
150.751350
 20
40.202890
 30
0.0
 10
130.496009
 20
40.605187
 30
0.0
  0
LWPOLYLINE
  5
14d
100
AcDbEntity
  8
Corte
 62
1
100
AcDbPolyline
 90
5
 70
1
 10
149.106502
 20
7.446697
 30
0.0
 10
149.106502
 20
8.610638
 30
0.0
 10
148.330532
 20
8.610636
 30
0.0
 10
148.330532
 20
7.446695
 30
0.0
 10
149.106502
 20
7.446697
 30
0.0
  0
LWPOLYLINE
  5
14e
100
AcDbEntity
  8
Grabado
 62
1
100
AcDbPolyline
 90
77
 70
0
 10
27.056240
 20
64.147772
 30
0.0
 10
25.859895
 20
64.144271
 30
0.0
 10
23.976632
 20
62.331742
 30
0.0
 10
23.973278
 20
61.008223
 30
0.0
 10
23.973278
 20
60.996847
 30
0.0
 10
28.474265
 20
56.379477
 30
0.0
 10
26.383468
 20
54.295973
 30
0.0
 10
26.383468
 20
42.344337
 30
0.0
 10
28.474265
 20
40.065987
 30
0.0
 10
23.973278
 20
35.677298
 30
0.0
 10
23.976632
 20
34.333507
 30
0.0
 10
25.859895
 20
32.450098
 30
0.0
 10
25.860041
 20
32.450098
 30
0.0
 10
27.056240
 20
32.446598
 30
0.0
 10
27.078699
 20
32.446598
 30
0.0
 10
31.144201
 20
36.350507
 30
0.0
 10
32.340692
 20
36.350507
 30
0.0
 10
32.340692
 20
35.411865
 30
0.0
 10
31.564665
 20
35.411865
 30
0.0
 10
31.564665
 20
34.387177
 30
0.0
 10
34.617146
 20
34.383822
 30
0.0
 10
34.617146
 20
35.411865
 30
0.0
 10
33.841264
 20
35.411865
 30
0.0
 10
33.841264
 20
36.350507
 30
0.0
 10
45.806173
 20
36.350507
 30
0.0
 10
45.806173
 20
35.411865
 30
0.0
 10
45.030292
 20
35.411865
 30
0.0
 10
45.030292
 20
34.383822
 30
0.0
 10
48.082772
 20
34.387177
 30
0.0
 10
48.082772
 20
35.411865
 30
0.0
 10
47.306745
 20
35.411865
 30
0.0
 10
47.306745
 20
36.350507
 30
0.0
 10
48.503236
 20
36.350507
 30
0.0
 10
52.568738
 20
32.446598
 30
0.0
 10
52.591197
 20
32.446598
 30
0.0
 10
53.787397
 20
32.450098
 30
0.0
 10
55.670805
 20
34.333507
 30
0.0
 10
55.674159
 20
35.677298
 30
0.0
 10
51.173172
 20
40.065987
 30
0.0
 10
53.263968
 20
42.344337
 30
0.0
 10
53.263968
 20
54.295973
 30
0.0
 10
51.173172
 20
56.379477
 30
0.0
 10
55.674159
 20
60.996847
 30
0.0
 10
55.674159
 20
61.008223
 30
0.0
 10
55.670805
 20
62.331742
 30
0.0
 10
53.787543
 20
64.144271
 30
0.0
 10
53.787397
 20
64.144271
 30
0.0
 10
52.591197
 20
64.147772
 30
0.0
 10
52.568738
 20
64.147772
 30
0.0
 10
48.503236
 20
60.247363
 30
0.0
 10
47.306745
 20
60.247363
 30
0.0
 10
47.306745
 20
61.182796
 30
0.0
 10
48.082772
 20
61.182796
 30
0.0
 10
48.082772
 20
62.207193
 30
0.0
 10
45.030292
 20
62.210693
 30
0.0
 10
45.030292
 20
61.182796
 30
0.0
 10
45.806173
 20
61.182796
 30
0.0
 10
45.806173
 20
60.247363
 30
0.0
 10
41.341500
 20
60.247363
 30
0.0
 10
41.112528
 20
60.494711
 30
0.0
 10
39.836990
 20
61.901070
 30
0.0
 10
39.823718
 20
61.886777
 30
0.0
 10
39.810447
 20
61.901070
 30
0.0
 10
38.534910
 20
60.494711
 30
0.0
 10
38.305937
 20
60.247363
 30
0.0
 10
33.841264
 20
60.247363
 30
0.0
 10
33.841264
 20
61.182796
 30
0.0
 10
34.617146
 20
61.182796
 30
0.0
 10
34.617146
 20
62.210693
 30
0.0
 10
31.564665
 20
62.207193
 30
0.0
 10
31.564665
 20
61.182796
 30
0.0
 10
32.340692
 20
61.182796
 30
0.0
 10
32.340692
 20
60.247363
 30
0.0
 10
31.144201
 20
60.247363
 30
0.0
 10
27.078699
 20
64.147772
 30
0.0
 10
27.056240
 20
64.147772
 30
0.0
 10
27.056240
 20
64.147772
 30
0.0
  0
LWPOLYLINE
  5
14f
100
AcDbEntity
  8
Grabado
 62
1
100
AcDbPolyline
 90
5
 70
1
 10
26.726982
 20
34.017681
 30
0.0
 10
29.035806
 20
36.326512
 30
0.0
 10
27.802543
 20
37.559779
 30
0.0
 10
25.493717
 20
35.250949
 30
0.0
 10
26.726982
 20
34.017681
 30
0.0
  0
LWPOLYLINE
  5
150
100
AcDbEntity
  8
Grabado
 62
1
100
AcDbPolyline
 90
5
 70
1
 10
52.920189
 20
34.017670
 30
0.0
 10
50.611359
 20
36.326500
 30
0.0
 10
51.844625
 20
37.559766
 30
0.0
 10
54.153455
 20
35.250937
 30
0.0
 10
52.920189
 20
34.017670
 30
0.0
  0
LWPOLYLINE
  5
151
100
AcDbEntity
  8
Grabado
 62
1
100
AcDbPolyline
 90
5
 70
1
 10
52.920203
 20
62.577018
 30
0.0
 10
50.611371
 20
60.268186
 30
0.0
 10
51.844636
 20
59.034918
 30
0.0
 10
54.153468
 20
61.343750
 30
0.0
 10
52.920203
 20
62.577018
 30
0.0
  0
LWPOLYLINE
  5
152
100
AcDbEntity
  8
Grabado
 62
1
100
AcDbPolyline
 90
5
 70
1
 10
26.726969
 20
62.576997
 30
0.0
 10
29.035797
 20
60.268165
 30
0.0
 10
27.802532
 20
59.034894
 30
0.0
 10
25.493704
 20
61.343730
 30
0.0
 10
26.726969
 20
62.576997
 30
0.0
  0
LWPOLYLINE
  5
153
100
AcDbEntity
  8
Grabado
 62
5
100
AcDbPolyline
 90
5
 70
1
 10
32.528558
 20
54.277812
 30
0.0
 10
26.546042
 20
54.277812
 30
0.0
 10
26.546042
 20
42.323250
 30
0.0
 10
32.528558
 20
42.323250
 30
0.0
 10
32.528558
 20
54.277812
 30
0.0
  0
LWPOLYLINE
  5
154
100
AcDbEntity
  8
Grabado
 62
5
100
AcDbPolyline
 90
17
 70
1
 10
46.090775
 20
48.581535
 30
0.0
 10
46.406246
 20
47.018952
 30
0.0
 10
47.266561
 20
45.742932
 30
0.0
 10
48.542583
 20
44.882617
 30
0.0
 10
50.105163
 20
44.567146
 30
0.0
 10
51.667743
 20
44.882617
 30
0.0
 10
52.943766
 20
45.742932
 30
0.0
 10
53.804081
 20
47.018955
 30
0.0
 10
54.119551
 20
48.581535
 30
0.0
 10
53.804081
 20
50.144114
 30
0.0
 10
52.943763
 20
51.420137
 30
0.0
 10
51.667743
 20
52.280452
 30
0.0
 10
50.105163
 20
52.595923
 30
0.0
 10
48.542583
 20
52.280452
 30
0.0
 10
47.266564
 20
51.420134
 30
0.0
 10
46.406246
 20
50.144114
 30
0.0
 10
46.090775
 20
48.581535
 30
0.0
  0
LWPOLYLINE
  5
155
100
AcDbEntity
  8
Grabado
 62
5
100
AcDbPolyline
 90
18
 70
1
 10
46.413186
 20
59.543599
 30
0.0
 10
46.413186
 20
55.244748
 30
0.0
 10
45.533318
 20
53.875595
 30
0.0
 10
45.533318
 20
42.719085
 30
0.0
 10
46.413186
 20
41.349935
 30
0.0
 10
46.413186
 20
37.051080
 30
0.0
 10
45.533318
 20
37.051080
 30
0.0
 10
34.114023
 20
37.051080
 30
0.0
 10
33.233998
 20
37.051080
 30
0.0
 10
33.233998
 20
41.349935
 30
0.0
 10
34.114023
 20
42.719085
 30
0.0
 10
34.114023
 20
53.875595
 30
0.0
 10
33.233998
 20
55.244748
 30
0.0
 10
33.233998
 20
59.543599
 30
0.0
 10
34.114023
 20
59.543599
 30
0.0
 10
45.533318
 20
59.543599
 30
0.0
 10
46.413186
 20
59.543599
 30
0.0
 10
46.413186
 20
59.543599
 30
0.0
  0
LWPOLYLINE
  5
156
100
AcDbEntity
  8
Grabado
 62
5
100
AcDbPolyline
 90
5
 70
0
 10
88.640231
 20
76.955658
 30
0.0
 10
88.060798
 20
75.323086
 30
0.0
 10
88.640231
 20
75.797125
 30
0.0
 10
89.246416
 20
75.323085
 30
0.0
 10
88.640231
 20
76.955658
 30
0.0
  0
LWPOLYLINE
  5
157
100
AcDbEntity
  8
Grabado
 62
5
100
AcDbPolyline
 90
5
 70
1
 10
103.771322
 20
40.466401
 30
0.0
 10
95.157482
 20
40.466401
 30
0.0
 10
95.157482
 20
33.884277
 30
0.0
 10
103.771322
 20
33.884277
 30
0.0
 10
103.771322
 20
40.466401
 30
0.0
  0
LWPOLYLINE
  5
158
100
AcDbEntity
  8
Grabado
 62
5
100
AcDbPolyline
 90
5
 70
1
 10
96.755386
 20
66.001881
 30
0.0
 10
86.460779
 20
66.001881
 30
0.0
 10
86.460779
 20
59.376163
 30
0.0
 10
96.755386
 20
59.376163
 30
0.0
 10
96.755386
 20
66.001881
 30
0.0
  0
LWPOLYLINE
  5
159
100
AcDbEntity
  8
Grabado
 62
5
100
AcDbPolyline
 90
17
 70
1
 10
92.906271
 20
36.801946
 30
0.0
 10
91.582629
 20
38.125588
 30
0.0
 10
89.883059
 20
36.426015
 30
0.0
 10
87.456095
 20
36.425168
 30
0.0
 10
85.755686
 20
38.125574
 30
0.0
 10
84.432163
 20
36.801895
 30
0.0
 10
86.132492
 20
35.101563
 30
0.0
 10
86.101606
 20
32.644511
 30
0.0
 10
84.432163
 20
30.975070
 30
0.0
 10
85.755805
 20
29.651428
 30
0.0
 10
87.425245
 20
31.320869
 30
0.0
 10
89.893343
 20
31.340709
 30
0.0
 10
91.582629
 20
29.651425
 30
0.0
 10
92.906232
 20
30.975028
 30
0.0
 10
91.216946
 20
32.664311
 30
0.0
 10
91.206701
 20
35.102322
 30
0.0
 10
92.906271
 20
36.801946
 30
0.0
  0
LWPOLYLINE
  5
15a
100
AcDbEntity
  8
Grabado
 62
5
100
AcDbPolyline
 90
6
 70
0
 10
122.566805
 20
80.743478
 30
0.0
 10
122.248829
 20
81.179020
 30
0.0
 10
121.644327
 20
81.517613
 30
0.0
 10
120.967361
 20
81.543153
 30
0.0
 10
120.375541
 20
81.299795
 30
0.0
 10
119.913484
 20
80.760015
 30
0.0
  0
LWPOLYLINE
  5
15b
100
AcDbEntity
  8
Grabado
 62
5
100
AcDbPolyline
 90
3
 70
0
 10
119.862036
 20
81.423195
 30
0.0
 10
119.913484
 20
80.760015
 30
0.0
 10
120.576661
 20
80.811465
 30
0.0
  0
LWPOLYLINE
  5
15c
100
AcDbEntity
  8
Grabado
 62
5
100
AcDbPolyline
 90
6
 70
0
 10
119.898660
 20
79.456337
 30
0.0
 10
120.216636
 20
79.020795
 30
0.0
 10
120.821138
 20
78.682202
 30
0.0
 10
121.498104
 20
78.656661
 30
0.0
 10
122.089924
 20
78.900020
 30
0.0
 10
122.551981
 20
79.439800
 30
0.0
  0
LWPOLYLINE
  5
15d
100
AcDbEntity
  8
Grabado
 62
5
100
AcDbPolyline
 90
3
 70
0
 10
122.603429
 20
78.776620
 30
0.0
 10
122.551981
 20
79.439800
 30
0.0
 10
121.888804
 20
79.388350
 30
0.0
  0
LWPOLYLINE
  5
15e
100
AcDbEntity
  8
Grabado
 62
5
100
AcDbPolyline
 90
3
 70
0
 10
120.882306
 20
80.219254
 30
0.0
 10
121.044504
 20
80.518415
 30
0.0
 10
121.044504
 20
79.676416
 30
0.0
  0
LWPOLYLINE
  5
15f
100
AcDbEntity
  8
Grabado
 62
5
100
AcDbPolyline
 90
3
 70
0
 10
121.290306
 20
79.680018
 30
0.0
 10
121.446283
 20
80.203749
 30
0.0
 10
121.581734
 20
79.685711
 30
0.0
  0
LWPOLYLINE
  5
160
100
AcDbEntity
  8
Grabado
 62
5
100
AcDbPolyline
 90
2
 70
0
 10
121.351875
 20
79.890649
 30
0.0
 10
121.516060
 20
79.890649
 30
0.0
  0
LWPOLYLINE
  5
161
100
AcDbEntity
  8
Grabado
 62
5
100
AcDbPolyline
 90
6
 70
0
 10
119.898660
 20
15.322100
 30
0.0
 10
120.216636
 20
15.757642
 30
0.0
 10
120.821138
 20
16.096235
 30
0.0
 10
121.498104
 20
16.121775
 30
0.0
 10
122.089924
 20
15.878417
 30
0.0
 10
122.551981
 20
15.338637
 30
0.0
  0
LWPOLYLINE
  5
162
100
AcDbEntity
  8
Grabado
 62
5
100
AcDbPolyline
 90
3
 70
0
 10
122.603429
 20
16.001817
 30
0.0
 10
122.551981
 20
15.338637
 30
0.0
 10
121.888804
 20
15.390087
 30
0.0
  0
LWPOLYLINE
  5
163
100
AcDbEntity
  8
Grabado
 62
5
100
AcDbPolyline
 90
6
 70
0
 10
122.566805
 20
14.034959
 30
0.0
 10
122.248829
 20
13.599417
 30
0.0
 10
121.644327
 20
13.260824
 30
0.0
 10
120.967361
 20
13.235284
 30
0.0
 10
120.375541
 20
13.478642
 30
0.0
 10
119.913484
 20
14.018422
 30
0.0
  0
LWPOLYLINE
  5
164
100
AcDbEntity
  8
Grabado
 62
5
100
AcDbPolyline
 90
3
 70
0
 10
119.862036
 20
13.355242
 30
0.0
 10
119.913484
 20
14.018422
 30
0.0
 10
120.576661
 20
13.966972
 30
0.0
  0
LWPOLYLINE
  5
165
100
AcDbEntity
  8
Grabado
 62
5
100
AcDbPolyline
 90
4
 70
0
 10
121.200802
 20
14.511475
 30
0.0
 10
120.788354
 20
14.511475
 30
0.0
 10
121.115198
 20
15.079844
 30
0.0
 10
121.115198
 20
14.238082
 30
0.0
  0
LWPOLYLINE
  5
166
100
AcDbEntity
  8
Grabado
 62
5
100
AcDbPolyline
 90
11
 70
1
 10
121.439940
 20
14.249042
 30
0.0
 10
121.439940
 20
14.791567
 30
0.0
 10
121.574052
 20
14.791567
 30
0.0
 10
121.621948
 20
14.684085
 30
0.0
 10
121.583633
 20
14.551013
 30
0.0
 10
121.449521
 20
14.551013
 30
0.0
 10
121.636319
 20
14.551013
 30
0.0
 10
121.684217
 20
14.484477
 30
0.0
 10
121.684217
 20
14.346286
 30
0.0
 10
121.626740
 20
14.249042
 30
0.0
 10
121.439940
 20
14.249042
 30
0.0
  0
LWPOLYLINE
  5
167
100
AcDbEntity
  8
Grabado
 62
5
100
AcDbPolyline
 90
6
 70
0
 10
57.296769
 20
15.322100
 30
0.0
 10
56.978793
 20
15.757642
 30
0.0
 10
56.374291
 20
16.096235
 30
0.0
 10
55.697325
 20
16.121775
 30
0.0
 10
55.105505
 20
15.878417
 30
0.0
 10
54.643448
 20
15.338637
 30
0.0
  0
LWPOLYLINE
  5
168
100
AcDbEntity
  8
Grabado
 62
5
100
AcDbPolyline
 90
3
 70
0
 10
54.592000
 20
16.001817
 30
0.0
 10
54.643448
 20
15.338637
 30
0.0
 10
55.306625
 20
15.390087
 30
0.0
  0
LWPOLYLINE
  5
169
100
AcDbEntity
  8
Grabado
 62
5
100
AcDbPolyline
 90
6
 70
0
 10
54.628624
 20
14.034959
 30
0.0
 10
54.946600
 20
13.599417
 30
0.0
 10
55.551102
 20
13.260824
 30
0.0
 10
56.228068
 20
13.235284
 30
0.0
 10
56.819888
 20
13.478642
 30
0.0
 10
57.281945
 20
14.018422
 30
0.0
  0
LWPOLYLINE
  5
16a
100
AcDbEntity
  8
Grabado
 62
5
100
AcDbPolyline
 90
3
 70
0
 10
57.333394
 20
13.355242
 30
0.0
 10
57.281945
 20
14.018422
 30
0.0
 10
56.618768
 20
13.966972
 30
0.0
  0
LWPOLYLINE
  5
16b
100
AcDbEntity
  8
Grabado
 62
5
100
AcDbPolyline
 90
9
 70
0
 10
55.511455
 20
14.934934
 30
0.0
 10
55.647041
 20
15.084563
 30
0.0
 10
55.811167
 20
15.091686
 30
0.0
 10
55.932480
 20
14.949183
 30
0.0
 10
55.889664
 20
14.749679
 30
0.0
 10
55.696991
 20
14.578675
 30
0.0
 10
55.561406
 20
14.386296
 30
0.0
 10
55.525730
 20
14.265169
 30
0.0
 10
55.939617
 20
14.265169
 30
0.0
  0
LWPOLYLINE
  5
16c
100
AcDbEntity
  8
Grabado
 62
5
100
AcDbPolyline
 90
7
 70
0
 10
56.421320
 20
14.808282
 30
0.0
 10
56.279063
 20
14.808282
 30
0.0
 10
56.186288
 20
14.724157
 30
0.0
 10
56.136809
 20
14.506424
 30
0.0
 10
56.180107
 20
14.308484
 30
0.0
 10
56.254323
 20
14.249103
 30
0.0
 10
56.402767
 20
14.249103
 30
0.0
  0
LWPOLYLINE
  5
16d
100
AcDbEntity
  8
Grabado
 62
5
100
AcDbPolyline
 90
6
 70
0
 10
54.628624
 20
80.743478
 30
0.0
 10
54.946600
 20
81.179020
 30
0.0
 10
55.551102
 20
81.517613
 30
0.0
 10
56.228068
 20
81.543153
 30
0.0
 10
56.819888
 20
81.299795
 30
0.0
 10
57.281945
 20
80.760015
 30
0.0
  0
LWPOLYLINE
  5
16e
100
AcDbEntity
  8
Grabado
 62
5
100
AcDbPolyline
 90
3
 70
0
 10
57.333394
 20
81.423195
 30
0.0
 10
57.281945
 20
80.760015
 30
0.0
 10
56.618768
 20
80.811465
 30
0.0
  0
LWPOLYLINE
  5
16f
100
AcDbEntity
  8
Grabado
 62
5
100
AcDbPolyline
 90
6
 70
0
 10
57.296769
 20
79.456337
 30
0.0
 10
56.978794
 20
79.020795
 30
0.0
 10
56.374291
 20
78.682202
 30
0.0
 10
55.697325
 20
78.656661
 30
0.0
 10
55.105505
 20
78.900020
 30
0.0
 10
54.643448
 20
79.439800
 30
0.0
  0
LWPOLYLINE
  5
170
100
AcDbEntity
  8
Grabado
 62
5
100
AcDbPolyline
 90
3
 70
0
 10
54.592000
 20
78.776620
 30
0.0
 10
54.643448
 20
79.439800
 30
0.0
 10
55.306625
 20
79.388350
 30
0.0
  0
LWPOLYLINE
  5
171
100
AcDbEntity
  8
Grabado
 62
5
100
AcDbPolyline
 90
8
 70
0
 10
55.496880
 20
80.512988
 30
0.0
 10
55.901451
 20
80.512988
 30
0.0
 10
55.691387
 20
80.193597
 30
0.0
 10
55.831429
 20
80.144994
 30
0.0
 10
55.940352
 20
80.013072
 30
0.0
 10
55.917013
 20
79.832546
 30
0.0
 10
55.765197
 20
79.719323
 30
0.0
 10
55.520222
 20
79.686737
 30
0.0
  0
LWPOLYLINE
  5
172
100
AcDbEntity
  8
Grabado
 62
5
100
AcDbPolyline
 90
9
 70
1
 10
56.178881
 20
79.687526
 30
0.0
 10
56.178881
 20
80.230044
 30
0.0
 10
56.306172
 20
80.230044
 30
0.0
 10
56.364515
 20
80.192629
 30
0.0
 10
56.417553
 20
80.085060
 30
0.0
 10
56.417553
 20
79.813802
 30
0.0
 10
56.369818
 20
79.720264
 30
0.0
 10
56.316780
 20
79.687526
 30
0.0
 10
56.178881
 20
79.687526
 30
0.0
  0
LWPOLYLINE
  5
173
100
AcDbEntity
  8
Grabado
 62
1
100
AcDbPolyline
 90
5
 70
1
 10
38.240027
 20
42.680307
 30
0.0
 10
38.240027
 20
53.914236
 30
0.0
 10
32.820221
 20
53.914236
 30
0.0
 10
32.820221
 20
42.680307
 30
0.0
 10
38.240027
 20
42.680307
 30
0.0
  0
LWPOLYLINE
  5
174
100
AcDbEntity
  8
Grabado
 62
1
100
AcDbPolyline
 90
8
 70
0
 10
29.546936
 20
55.323433
 30
0.0
 10
28.101638
 20
53.894761
 30
0.0
 10
28.101638
 20
42.756779
 30
0.0
 10
29.546936
 20
41.328253
 30
0.0
 10
30.992234
 20
42.756779
 30
0.0
 10
30.992234
 20
53.894761
 30
0.0
 10
29.546936
 20
55.323433
 30
0.0
 10
29.546936
 20
55.323433
 30
0.0
  0
LWPOLYLINE
  5
175
100
AcDbEntity
  8
Grabado
 62
1
100
AcDbPolyline
 90
5
 70
1
 10
46.827194
 20
42.680307
 30
0.0
 10
46.827194
 20
53.914236
 30
0.0
 10
41.407388
 20
53.914236
 30
0.0
 10
41.407388
 20
42.680307
 30
0.0
 10
46.827194
 20
42.680307
 30
0.0
  0
LWPOLYLINE
  5
176
100
AcDbEntity
  8
Grabado
 62
1
100
AcDbPolyline
 90
7
 70
1
 10
50.129223
 20
55.323434
 30
0.0
 10
48.683923
 20
53.894760
 30
0.0
 10
48.683923
 20
42.756778
 30
0.0
 10
50.129223
 20
41.328254
 30
0.0
 10
51.574519
 20
42.756778
 30
0.0
 10
51.574519
 20
53.894760
 30
0.0
 10
50.129223
 20
55.323434
 30
0.0
  0
ENDSEC
  0
SECTION
  2
OBJECTS
  0
DICTIONARY
  5
C
330
0
100
AcDbDictionary
  3
ACAD_GROUP
350
D
  3
ACAD_MLINESTYLE
350
17
  0
DICTIONARY
  5
D
330
C
100
AcDbDictionary
  0
DICTIONARY
  5
1A
330
C
100
AcDbDictionary
  0
DICTIONARY
  5
17
330
C
100
AcDbDictionary
  3
STANDARD
350
18
  0
DICTIONARY
  5
19
330
C
100
AcDbDictionary
  0
ENDSEC
  0
EOF
