  0
SECTION
  2
HEADER
  9
$ACADVER
  1
AC1014
  9
$HANDSEED
  5
FFFF
  9
$MEASUREMENT
 70
     1
  0
ENDSEC
  0
SECTION
  2
TABLES
  0
TABLE
  2
VPORT
  5
8
330
0
100
AcDbSymbolTable
 70
     4
  0
VPORT
  5
2E
330
8
100
AcDbSymbolTableRecord
100
AcDbViewportTableRecord
  2
*ACTIVE
 70
     0
 10
0.0
 20
0.0
 11
1.0
 21
1.0
 12
210.0
 22
148.5
 13
0.0
 23
0.0
 14
10.0
 24
10.0
 15
10.0
 25
10.0
 16
0.0
 26
0.0
 36
1.0
 17
0.0
 27
0.0
 37
0.0
 40
341.0
 41
1.24
 42
50.0
 43
0.0
 44
0.0
 50
0.0
 51
0.0
 71
     0
 72
   100
 73
     1
 74
     3
 75
     0
 76
     0
 77
     0
 78
     0
  0
ENDTAB
  0
TABLE
  2
LTYPE
  5
5
330
0
100
AcDbSymbolTable
 70
     1
  0
LTYPE
  5
14
330
5
100
AcDbSymbolTableRecord
100
AcDbLinetypeTableRecord
  2
BYBLOCK
 70
     0
  3

 72
    65
 73
     0
 40
0.0
  0
LTYPE
  5
15
330
5
100
AcDbSymbolTableRecord
100
AcDbLinetypeTableRecord
  2
BYLAYER
 70
     0
  3

 72
    65
 73
     0
 40
0.0
  0
LTYPE
  5
16
330
5
100
AcDbSymbolTableRecord
100
AcDbLinetypeTableRecord
  2
CONTINUOUS
 70
     0
  3
Solid line
 72
    65
 73
     0
 40
0.0
  0
ENDTAB
  0
TABLE
  2
LAYER
  5
2
100
AcDbSymbolTable
 70
3
  0
LAYER
  5
50
100
AcDbSymbolTableRecord
100
AcDbLayerTableRecord
  2
0
 70
0
  6
CONTINUOUS
  0
LAYER
  5
51
100
AcDbSymbolTableRecord
100
AcDbLayerTableRecord
  2
Corte
 70
0
  6
CONTINUOUS
  0
LAYER
  5
52
100
AcDbSymbolTableRecord
100
AcDbLayerTableRecord
  2
Grabado
 70
0
  6
CONTINUOUS
  0
ENDTAB
  0
TABLE
  2
STYLE
  5
3
330
0
100
AcDbSymbolTable
 70
     1
  0
STYLE
  5
11
330
3
100
AcDbSymbolTableRecord
100
AcDbTextStyleTableRecord
  2
STANDARD
 70
     0
 40
0.0
 41
1.0
 50
0.0
 71
     0
 42
2.5
  3
txt
  4

  0
ENDTAB
  0
TABLE
  2
VIEW
  5
6
330
0
100
AcDbSymbolTable
 70
     0
  0
ENDTAB
  0
TABLE
  2
UCS
  5
7
330
0
100
AcDbSymbolTable
 70
     0
  0
ENDTAB
  0
TABLE
  2
APPID
  5
9
330
0
100
AcDbSymbolTable
 70
     2
  0
APPID
  5
12
330
9
100
AcDbSymbolTableRecord
100
AcDbRegAppTableRecord
  2
ACAD
 70
     0
  0
ENDTAB
  0
TABLE
  2
DIMSTYLE
  5
A
330
0
100
AcDbSymbolTable
 70
     1
  0
DIMSTYLE
105
27
330
A
100
AcDbSymbolTableRecord
100
AcDbDimStyleTableRecord
  2
ISO-25
 70
     0
  3

  4

  5

  6

  7

 40
1.0
 41
2.5
 42
0.625
 43
3.75
 44
1.25
 45
0.0
 46
0.0
 47
0.0
 48
0.0
140
2.5
141
2.5
142
0.0
143
0.03937007874016
144
1.0
145
0.0
146
1.0
147
0.625
 71
     0
 72
     0
 73
     0
 74
     0
 75
     0
 76
     0
 77
     1
 78
     8
170
     0
171
     3
172
     1
173
     0
174
     0
175
     0
176
     0
177
     0
178
     0
270
     2
271
     2
272
     2
273
     2
274
     3
340
11
275
     0
280
     0
281
     0
282
     0
283
     0
284
     8
285
     0
286
     0
287
     3
288
     0
  0
ENDTAB
  0
TABLE
  2
BLOCK_RECORD
  5
1
330
0
100
AcDbSymbolTable
 70
     1
  0
BLOCK_RECORD
  5
1F
330
1
100
AcDbSymbolTableRecord
100
AcDbBlockTableRecord
  2
*MODEL_SPACE
  0
BLOCK_RECORD
  5
1B
330
1
100
AcDbSymbolTableRecord
100
AcDbBlockTableRecord
  2
*PAPER_SPACE
  0
ENDTAB
  0
ENDSEC
  0
SECTION
  2
BLOCKS
  0
BLOCK
  5
20
330
1F
100
AcDbEntity
  8
0
100
AcDbBlockBegin
  2
*MODEL_SPACE
 70
     0
 10
0.0
 20
0.0
 30
0.0
  3
*MODEL_SPACE
  1

  0
ENDBLK
  5
21
330
1F
100
AcDbEntity
  8
0
100
AcDbBlockEnd
  0
BLOCK
  5
1C
330
1B
100
AcDbEntity
 67
     1
  8
0
100
AcDbBlockBegin
  2
*PAPER_SPACE
  1

  0
ENDBLK
  5
1D
330
1B
100
AcDbEntity
 67
     1
  8
0
100
AcDbBlockEnd
  0
ENDSEC
  0
SECTION
  2
ENTITIES
  0
LWPOLYLINE
  5
100
100
AcDbEntity
  8
Corte
 62
1
100
AcDbPolyline
 90
12
 70
1
 10
1080.128835
 20
800.412301
 30
0.0
 10
1080.128835
 20
804.309939
 30
0.0
 10
1095.719386
 20
804.309939
 30
0.0
 10
1095.719386
 20
851.081558
 30
0.0
 10
1080.128835
 20
851.081558
 30
0.0
 10
1080.128835
 20
854.979280
 30
0.0
 10
695.028104
 20
841.133099
 30
0.0
 10
695.028104
 20
836.199727
 30
0.0
 10
1048.236803
 20
836.199727
 30
0.0
 10
1048.236803
 20
819.191825
 30
0.0
 10
695.028104
 20
819.191825
 30
0.0
 10
695.028104
 20
814.771303
 30
0.0
  0
LWPOLYLINE
  5
101
100
AcDbEntity
  8
Corte
 62
1
100
AcDbPolyline
 90
4
 70
1
 10
64.437488
 20
849.643087
 30
0.0
 10
64.437488
 20
861.333732
 30
0.0
 10
72.231346
 20
861.333704
 30
0.0
 10
72.231346
 20
849.643058
 30
0.0
  0
LWPOLYLINE
  5
102
100
AcDbEntity
  8
Corte
 62
1
100
AcDbPolyline
 90
4
 70
1
 10
169.021468
 20
518.343506
 30
0.0
 10
181.233564
 20
518.343506
 30
0.0
 10
181.233564
 20
523.908624
 30
0.0
 10
169.021468
 20
523.908624
 30
0.0
  0
LWPOLYLINE
  5
103
100
AcDbEntity
  8
Corte
 62
1
100
AcDbPolyline
 90
33
 70
1
 10
426.385685
 20
920.171083
 30
0.0
 10
91.234527
 20
927.257698
 30
0.0
 10
41.582590
 20
934.344312
 30
0.0
 10
41.582590
 20
930.447411
 30
0.0
 10
25.993463
 20
930.447411
 30
0.0
 10
25.993463
 20
915.565436
 30
0.0
 10
72.763976
 20
915.565436
 30
0.0
 10
72.763976
 20
898.557477
 30
0.0
 10
25.993463
 20
898.557477
 30
0.0
 10
25.993463
 20
883.674000
 30
0.0
 10
41.582590
 20
883.674000
 30
0.0
 10
41.582590
 20
727.769268
 30
0.0
 10
25.992045
 20
727.769268
 30
0.0
 10
25.992045
 20
704.383356
 30
0.0
 10
41.582590
 20
704.383356
 30
0.0
 10
41.582590
 20
531.918825
 30
0.0
 10
25.992045
 20
531.918825
 30
0.0
 10
25.992045
 20
508.532913
 30
0.0
 10
41.582590
 20
508.532913
 30
0.0
 10
41.582590
 20
502.332480
 30
0.0
 10
98.497082
 20
515.797047
 30
0.0
 10
157.339829
 20
502.332480
 30
0.0
 10
157.339829
 20
509.297814
 30
0.0
 10
191.305288
 20
509.297814
 30
0.0
 10
191.305288
 20
540.535467
 30
0.0
 10
179.448662
 20
540.535467
 30
0.0
 10
179.448662
 20
537.547297
 30
0.0
 10
169.011695
 20
533.333305
 30
0.0
 10
169.011296
 20
540.535467
 30
0.0
 10
157.339829
 20
540.535467
 30
0.0
 10
157.339988
 20
559.256902
 30
0.0
 10
327.110527
 20
891.722636
 30
0.0
 10
426.385685
 20
893.950356
 30
0.0
  0
LWPOLYLINE
  5
104
100
AcDbEntity
  8
Corte
 62
1
100
AcDbPolyline
 90
5
 70
1
 10
305.754477
 20
891.134277
 30
0.0
 10
139.162290
 20
588.555037
 30
0.0
 10
101.307063
 20
575.009637
 30
0.0
 10
78.208403
 20
865.817320
 30
0.0
 10
102.309425
 20
887.093603
 30
0.0
  0
LWPOLYLINE
  5
105
100
AcDbEntity
  8
Corte
 62
1
100
AcDbPolyline
 90
4
 70
1
 10
118.830319
 20
558.089745
 30
0.0
 10
118.830319
 20
569.780391
 30
0.0
 10
126.624178
 20
569.780362
 30
0.0
 10
126.624178
 20
558.089717
 30
0.0
  0
LWPOLYLINE
  5
106
100
AcDbEntity
  8
Corte
 62
1
100
AcDbPolyline
 90
43
 70
1
 10
481.892574
 20
933.688719
 30
0.0
 10
433.255367
 20
885.051515
 30
0.0
 10
433.255367
 20
860.909420
 30
0.0
 10
481.891104
 20
812.272213
 30
0.0
 10
522.071768
 20
812.272213
 30
0.0
 10
599.513662
 20
734.828857
 30
0.0
 10
599.513662
 20
217.859136
 30
0.0
 10
522.071768
 20
140.421674
 30
0.0
 10
481.891104
 20
140.421674
 30
0.0
 10
433.255367
 20
91.785900
 30
0.0
 10
433.255367
 20
67.642350
 30
0.0
 10
481.892574
 20
19.005151
 30
0.0
 10
506.033199
 20
19.005151
 30
0.0
 10
554.670406
 20
67.643775
 30
0.0
 10
554.670406
 20
106.875225
 30
0.0
 10
633.060052
 20
185.261999
 30
0.0
 10
1148.131336
 20
185.261999
 30
0.0
 10
1226.520960
 20
106.875225
 30
0.0
 10
1226.520960
 20
67.645275
 30
0.0
 10
1275.159659
 20
19.006576
 30
0.0
 10
1299.298784
 20
19.006576
 30
0.0
 10
1347.937483
 20
67.642350
 30
0.0
 10
1347.937483
 20
91.785900
 30
0.0
 10
1299.300284
 20
140.421674
 30
0.0
 10
1259.119634
 20
140.421674
 30
0.0
 10
1181.677710
 20
217.859136
 30
0.0
 10
1181.677710
 20
734.831789
 30
0.0
 10
1259.119634
 20
812.272213
 30
0.0
 10
1299.300284
 20
812.272213
 30
0.0
 10
1347.937483
 20
860.907958
 30
0.0
 10
1347.937483
 20
885.051515
 30
0.0
 10
1299.298784
 20
933.687254
 30
0.0
 10
1275.159659
 20
933.687254
 30
0.0
 10
1226.520960
 20
885.050045
 30
0.0
 10
1226.520960
 20
845.818603
 30
0.0
 10
1148.131336
 20
767.427494
 30
0.0
 10
905.816914
 20
767.427494
 30
0.0
 10
890.409664
 20
784.151609
 30
0.0
 10
874.680139
 20
767.427494
 30
0.0
 10
633.060052
 20
767.427494
 30
0.0
 10
554.670406
 20
845.818603
 30
0.0
 10
554.670406
 20
885.050045
 30
0.0
 10
506.033199
 20
933.688719
 30
0.0
  0
LWPOLYLINE
  5
107
100
AcDbEntity
  8
Corte
 62
1
100
AcDbPolyline
 90
9
 70
1
 10
890.520964
 20
749.846437
 30
0.0
 10
1119.919936
 20
739.217527
 30
0.0
 10
1009.989212
 20
629.285401
 30
0.0
 10
998.765612
 20
629.285401
 30
0.0
 10
998.765612
 20
626.888918
 30
0.0
 10
987.071763
 20
626.888918
 30
0.0
 10
987.071763
 20
629.285401
 30
0.0
 10
771.200690
 20
629.285401
 30
0.0
 10
661.270012
 20
739.216064
 30
0.0
  0
LWPOLYLINE
  5
108
100
AcDbEntity
  8
Corte
 62
1
100
AcDbPolyline
 90
5
 70
1
 10
1153.467735
 20
706.620360
 30
0.0
 10
1164.096660
 20
476.667730
 30
0.0
 10
1153.467735
 20
246.070565
 30
0.0
 10
1043.157737
 20
356.147712
 30
0.0
 10
1043.157737
 20
596.373294
 30
0.0
  0
LWPOLYLINE
  5
109
100
AcDbEntity
  8
Corte
 62
1
100
AcDbPolyline
 90
5
 70
1
 10
627.725092
 20
706.618860
 30
0.0
 10
737.770011
 20
596.568084
 30
0.0
 10
737.770011
 20
355.982187
 30
0.0
 10
627.725092
 20
246.070565
 30
0.0
 10
617.094720
 20
476.428960
 30
0.0
  0
LWPOLYLINE
  5
10a
100
AcDbEntity
  8
Corte
 62
1
100
AcDbPolyline
 90
9
 70
1
 10
985.826613
 20
325.429902
 30
0.0
 10
997.520462
 20
325.429902
 30
0.0
 10
997.520462
 20
323.897674
 30
0.0
 10
1009.497062
 20
323.897674
 30
0.0
 10
1119.919936
 20
213.471823
 30
0.0
 10
890.512189
 20
202.841473
 30
0.0
 10
661.270012
 20
213.471823
 30
0.0
 10
771.692840
 20
323.897674
 30
0.0
 10
985.826613
 20
323.897674
 30
0.0
  0
LWPOLYLINE
  5
10b
100
AcDbEntity
  8
Corte
 62
1
100
AcDbPolyline
 90
4
 70
1
 10
541.544428
 20
839.031518
 30
0.0
 10
533.277751
 20
847.298073
 30
0.0
 10
538.788898
 20
852.809041
 30
0.0
 10
547.055320
 20
844.542508
 30
0.0
  0
LWPOLYLINE
  5
10c
100
AcDbEntity
  8
Corte
 62
1
100
AcDbPolyline
 90
4
 70
1
 10
523.528044
 20
821.015275
 30
0.0
 10
515.261650
 20
829.281828
 30
0.0
 10
520.772457
 20
834.792778
 30
0.0
 10
529.039134
 20
826.526266
 30
0.0
  0
LWPOLYLINE
  5
10d
100
AcDbEntity
  8
Corte
 62
1
100
AcDbPolyline
 90
4
 70
1
 10
1239.645997
 20
113.661975
 30
0.0
 10
1247.912391
 20
105.395468
 30
0.0
 10
1242.401244
 20
99.884464
 30
0.0
 10
1234.134850
 20
108.150999
 30
0.0
  0
LWPOLYLINE
  5
10e
100
AcDbEntity
  8
Corte
 62
1
100
AcDbPolyline
 90
4
 70
1
 10
1257.662126
 20
131.678275
 30
0.0
 10
1265.928520
 20
123.411739
 30
0.0
 10
1260.417685
 20
117.900734
 30
0.0
 10
1252.151008
 20
126.167242
 30
0.0
  0
LWPOLYLINE
  5
10f
100
AcDbEntity
  8
Corte
 62
1
100
AcDbPolyline
 90
4
 70
1
 10
1239.645713
 20
839.031319
 30
0.0
 10
1247.912362
 20
847.297866
 30
0.0
 10
1242.401272
 20
852.808851
 30
0.0
 10
1234.134850
 20
844.542327
 30
0.0
  0
LWPOLYLINE
  5
110
100
AcDbEntity
  8
Corte
 62
1
100
AcDbPolyline
 90
4
 70
1
 10
1257.662126
 20
821.015062
 30
0.0
 10
1265.928520
 20
829.281612
 30
0.0
 10
1260.417685
 20
834.792594
 30
0.0
 10
1252.151008
 20
826.526076
 30
0.0
  0
LWPOLYLINE
  5
111
100
AcDbEntity
  8
Corte
 62
1
100
AcDbPolyline
 90
4
 70
1
 10
764.435113
 20
614.646124
 30
0.0
 10
781.971790
 20
597.107936
 30
0.0
 10
769.946203
 20
585.082340
 30
0.0
 10
752.408136
 20
602.618912
 30
0.0
  0
LWPOLYLINE
  5
112
100
AcDbEntity
  8
Corte
 62
1
100
AcDbPolyline
 90
4
 70
1
 10
1016.488574
 20
614.646719
 30
0.0
 10
1028.514105
 20
602.619507
 30
0.0
 10
1010.976010
 20
585.082964
 30
0.0
 10
998.948751
 20
597.108559
 30
0.0
  0
LWPOLYLINE
  5
113
100
AcDbEntity
  8
Corte
 62
1
100
AcDbPolyline
 90
4
 70
1
 10
769.946855
 20
368.106680
 30
0.0
 10
781.972442
 20
356.079449
 30
0.0
 10
764.435708
 20
338.541298
 30
0.0
 10
752.408448
 20
350.566970
 30
0.0
  0
LWPOLYLINE
  5
114
100
AcDbEntity
  8
Corte
 62
1
100
AcDbPolyline
 90
4
 70
1
 10
1010.975444
 20
368.105972
 30
0.0
 10
1028.513510
 20
350.566318
 30
0.0
 10
1016.487951
 20
338.540702
 30
0.0
 10
998.948184
 20
356.078769
 30
0.0
  0
LWPOLYLINE
  5
115
100
AcDbEntity
  8
Corte
 62
1
100
AcDbPolyline
 90
13
 70
1
 10
483.199966
 20
896.483828
 30
0.0
 10
494.223053
 20
885.459143
 30
0.0
 10
505.247840
 20
896.483808
 30
0.0
 10
517.274873
 20
884.456906
 30
0.0
 10
506.250029
 20
873.432201
 30
0.0
 10
517.274590
 20
862.409180
 30
0.0
 10
505.247840
 20
850.382236
 30
0.0
 10
494.223053
 20
861.406981
 30
0.0
 10
483.199966
 20
850.382253
 30
0.0
 10
471.172990
 20
862.409157
 30
0.0
 10
482.197777
 20
873.432221
 30
0.0
 10
471.172990
 20
884.456925
 30
0.0
 10
483.199966
 20
896.483828
 30
0.0
  0
LWPOLYLINE
  5
116
100
AcDbEntity
  8
Corte
 62
1
100
AcDbPolyline
 90
4
 70
1
 10
626.380810
 20
752.700551
 30
0.0
 10
643.917233
 20
735.162380
 30
0.0
 10
631.891673
 20
723.136739
 30
0.0
 10
614.353551
 20
740.673328
 30
0.0
  0
LWPOLYLINE
  5
117
100
AcDbEntity
  8
Corte
 62
1
100
AcDbPolyline
 90
13
 70
1
 10
1297.987740
 20
56.209909
 30
0.0
 10
1286.964653
 20
67.234469
 30
0.0
 10
1275.939866
 20
56.209965
 30
0.0
 10
1263.913173
 20
68.236743
 30
0.0
 10
1274.937677
 20
79.261446
 30
0.0
 10
1263.912889
 20
90.284646
 30
0.0
 10
1275.939866
 20
102.311537
 30
0.0
 10
1286.964653
 20
91.286750
 30
0.0
 10
1297.987768
 20
102.311480
 30
0.0
 10
1310.014744
 20
90.284504
 30
0.0
 10
1298.989929
 20
79.261417
 30
0.0
 10
1310.014716
 20
68.236800
 30
0.0
 10
1297.987740
 20
56.209909
 30
0.0
  0
LWPOLYLINE
  5
118
100
AcDbEntity
  8
Corte
 62
1
100
AcDbPolyline
 90
4
 70
1
 10
1154.806952
 20
199.993087
 30
0.0
 10
1137.270559
 20
217.531238
 30
0.0
 10
1149.296146
 20
229.556854
 30
0.0
 10
1166.834240
 20
212.020347
 30
0.0
  0
LWPOLYLINE
  5
119
100
AcDbEntity
  8
Corte
 62
1
100
AcDbPolyline
 90
13
 70
1
 10
1297.987740
 20
896.483624
 30
0.0
 10
1286.964653
 20
885.458939
 30
0.0
 10
1275.939894
 20
896.483610
 30
0.0
 10
1263.912918
 20
884.456707
 30
0.0
 10
1274.937705
 20
873.432005
 30
0.0
 10
1263.912889
 20
862.408973
 30
0.0
 10
1275.939866
 20
850.382063
 30
0.0
 10
1286.964653
 20
861.406777
 30
0.0
 10
1297.987740
 20
850.382052
 30
0.0
 10
1310.014744
 20
862.408973
 30
0.0
 10
1298.989929
 20
873.432017
 30
0.0
 10
1310.014716
 20
884.456730
 30
0.0
 10
1297.987740
 20
896.483624
 30
0.0
  0
LWPOLYLINE
  5
11a
100
AcDbEntity
  8
Corte
 62
1
100
AcDbPolyline
 90
4
 70
1
 10
1154.806952
 20
752.700370
 30
0.0
 10
1137.270559
 20
735.162201
 30
0.0
 10
1149.296146
 20
723.136543
 30
0.0
 10
1166.834212
 20
740.673149
 30
0.0
  0
LWPOLYLINE
  5
11b
100
AcDbEntity
  8
Corte
 62
1
100
AcDbPolyline
 90
13
 70
1
 10
483.199995
 20
56.209710
 30
0.0
 10
494.223081
 20
67.234413
 30
0.0
 10
505.247869
 20
56.209710
 30
0.0
 10
517.274845
 20
68.236573
 30
0.0
 10
506.250029
 20
79.261276
 30
0.0
 10
517.274562
 20
90.284334
 30
0.0
 10
505.247869
 20
102.311310
 30
0.0
 10
494.223053
 20
91.286523
 30
0.0
 10
483.199966
 20
102.311254
 30
0.0
 10
471.172990
 20
90.284334
 30
0.0
 10
482.197806
 20
79.261276
 30
0.0
 10
471.173018
 20
68.236630
 30
0.0
 10
483.199995
 20
56.209710
 30
0.0
  0
LWPOLYLINE
  5
11c
100
AcDbEntity
  8
Corte
 62
1
100
AcDbPolyline
 90
4
 70
1
 10
626.380810
 20
199.992945
 30
0.0
 10
643.917233
 20
217.531096
 30
0.0
 10
631.891673
 20
229.556740
 30
0.0
 10
614.353579
 20
212.020176
 30
0.0
  0
LWPOLYLINE
  5
11d
100
AcDbEntity
  8
Corte
 62
1
100
AcDbPolyline
 90
4
 70
1
 10
541.544428
 20
113.661805
 30
0.0
 10
533.277751
 20
105.395298
 30
0.0
 10
538.788898
 20
99.884294
 30
0.0
 10
547.055291
 20
108.150829
 30
0.0
  0
LWPOLYLINE
  5
11e
100
AcDbEntity
  8
Corte
 62
1
100
AcDbPolyline
 90
4
 70
1
 10
523.528016
 20
131.678105
 30
0.0
 10
515.261622
 20
123.411569
 30
0.0
 10
520.772457
 20
117.900593
 30
0.0
 10
529.039134
 20
126.167100
 30
0.0
  0
LWPOLYLINE
  5
11f
100
AcDbEntity
  8
Corte
 62
1
100
AcDbPolyline
 90
4
 70
1
 10
754.181773
 20
317.535134
 30
0.0
 10
745.915124
 20
309.268656
 30
0.0
 10
740.404205
 20
314.779604
 30
0.0
 10
748.670712
 20
323.046224
 30
0.0
  0
LWPOLYLINE
  5
120
100
AcDbEntity
  8
Corte
 62
1
100
AcDbPolyline
 90
4
 70
1
 10
1027.009729
 20
635.160056
 30
0.0
 10
1035.276123
 20
643.426336
 30
0.0
 10
1040.787213
 20
637.915615
 30
0.0
 10
1032.520535
 20
629.648825
 30
0.0
  0
LWPOLYLINE
  5
121
100
AcDbEntity
  8
Corte
 62
1
100
AcDbPolyline
 90
4
 70
1
 10
754.180271
 20
635.161133
 30
0.0
 10
745.913594
 20
643.427414
 30
0.0
 10
740.402674
 20
637.916607
 30
0.0
 10
748.669238
 20
629.649987
 30
0.0
  0
LWPOLYLINE
  5
122
100
AcDbEntity
  8
Corte
 62
1
100
AcDbPolyline
 90
4
 70
1
 10
1027.009729
 20
317.534624
 30
0.0
 10
1035.276236
 20
309.268145
 30
0.0
 10
1040.787213
 20
314.778952
 30
0.0
 10
1032.520847
 20
323.045771
 30
0.0
  0
LWPOLYLINE
  5
123
100
AcDbEntity
  8
Corte
 62
1
100
AcDbPolyline
 90
4
 70
1
 10
489.787540
 20
831.967374
 30
0.0
 10
498.074457
 20
831.967374
 30
0.0
 10
498.074457
 20
823.680449
 30
0.0
 10
489.787540
 20
823.680449
 30
0.0
  0
LWPOLYLINE
  5
124
100
AcDbEntity
  8
Corte
 62
1
100
AcDbPolyline
 90
4
 70
1
 10
461.321348
 20
905.701742
 30
0.0
 10
469.608265
 20
905.701742
 30
0.0
 10
469.608265
 20
897.414817
 30
0.0
 10
461.321348
 20
897.414817
 30
0.0
  0
LWPOLYLINE
  5
125
100
AcDbEntity
  8
Corte
 62
1
100
AcDbPolyline
 90
4
 70
1
 10
489.787569
 20
922.503807
 30
0.0
 10
498.074485
 20
922.503807
 30
0.0
 10
498.074485
 20
914.216882
 30
0.0
 10
489.787569
 20
914.216882
 30
0.0
  0
LWPOLYLINE
  5
126
100
AcDbEntity
  8
Corte
 62
1
100
AcDbPolyline
 90
4
 70
1
 10
444.519383
 20
877.235636
 30
0.0
 10
452.806299
 20
877.235636
 30
0.0
 10
452.806299
 20
868.948711
 30
0.0
 10
444.519383
 20
868.948711
 30
0.0
  0
LWPOLYLINE
  5
127
100
AcDbEntity
  8
Corte
 62
1
100
AcDbPolyline
 90
4
 70
1
 10
535.056463
 20
877.235639
 30
0.0
 10
543.343380
 20
877.235639
 30
0.0
 10
543.343380
 20
868.948714
 30
0.0
 10
535.056463
 20
868.948714
 30
0.0
  0
LWPOLYLINE
  5
128
100
AcDbEntity
  8
Corte
 62
1
100
AcDbPolyline
 90
4
 70
1
 10
1283.115657
 20
922.503606
 30
0.0
 10
1291.402573
 20
922.503606
 30
0.0
 10
1291.402573
 20
914.216681
 30
0.0
 10
1283.115657
 20
914.216681
 30
0.0
  0
LWPOLYLINE
  5
129
100
AcDbEntity
  8
Corte
 62
1
100
AcDbPolyline
 90
4
 70
1
 10
1237.846762
 20
877.235429
 30
0.0
 10
1246.133679
 20
877.235429
 30
0.0
 10
1246.133679
 20
868.948504
 30
0.0
 10
1237.846762
 20
868.948504
 30
0.0
  0
LWPOLYLINE
  5
12a
100
AcDbEntity
  8
Corte
 62
1
100
AcDbPolyline
 90
4
 70
1
 10
1283.115628
 20
831.967195
 30
0.0
 10
1291.402545
 20
831.967195
 30
0.0
 10
1291.402545
 20
823.680270
 30
0.0
 10
1283.115628
 20
823.680270
 30
0.0
  0
LWPOLYLINE
  5
12b
100
AcDbEntity
  8
Corte
 62
1
100
AcDbPolyline
 90
4
 70
1
 10
1328.383786
 20
877.235438
 30
0.0
 10
1336.670702
 20
877.235438
 30
0.0
 10
1336.670702
 20
868.948513
 30
0.0
 10
1328.383786
 20
868.948513
 30
0.0
  0
LWPOLYLINE
  5
12c
100
AcDbEntity
  8
Corte
 62
1
100
AcDbPolyline
 90
4
 70
1
 10
1311.581679
 20
905.701499
 30
0.0
 10
1319.868595
 20
905.701499
 30
0.0
 10
1319.868595
 20
897.414574
 30
0.0
 10
1311.581679
 20
897.414574
 30
0.0
  0
LWPOLYLINE
  5
12d
100
AcDbEntity
  8
Corte
 62
1
100
AcDbPolyline
 90
4
 70
1
 10
1283.115628
 20
129.013084
 30
0.0
 10
1291.402545
 20
129.013084
 30
0.0
 10
1291.402545
 20
120.726168
 30
0.0
 10
1283.115628
 20
120.726168
 30
0.0
  0
LWPOLYLINE
  5
12e
100
AcDbEntity
  8
Corte
 62
1
100
AcDbPolyline
 90
4
 70
1
 10
1237.846649
 20
83.744870
 30
0.0
 10
1246.133565
 20
83.744870
 30
0.0
 10
1246.133565
 20
75.457953
 30
0.0
 10
1237.846649
 20
75.457953
 30
0.0
  0
LWPOLYLINE
  5
12f
100
AcDbEntity
  8
Corte
 62
1
100
AcDbPolyline
 90
4
 70
1
 10
1283.115628
 20
38.476627
 30
0.0
 10
1291.402545
 20
38.476627
 30
0.0
 10
1291.402545
 20
30.189711
 30
0.0
 10
1283.115628
 20
30.189711
 30
0.0
  0
LWPOLYLINE
  5
130
100
AcDbEntity
  8
Corte
 62
1
100
AcDbPolyline
 90
4
 70
1
 10
1311.581735
 20
55.278709
 30
0.0
 10
1319.868652
 20
55.278709
 30
0.0
 10
1319.868652
 20
46.991792
 30
0.0
 10
1311.581735
 20
46.991792
 30
0.0
  0
LWPOLYLINE
  5
131
100
AcDbEntity
  8
Corte
 62
1
100
AcDbPolyline
 90
4
 70
1
 10
1328.383814
 20
83.744842
 30
0.0
 10
1336.670731
 20
83.744842
 30
0.0
 10
1336.670731
 20
75.457925
 30
0.0
 10
1328.383814
 20
75.457925
 30
0.0
  0
LWPOLYLINE
  5
132
100
AcDbEntity
  8
Corte
 62
1
100
AcDbPolyline
 90
4
 70
1
 10
489.787540
 20
129.012914
 30
0.0
 10
498.074457
 20
129.012914
 30
0.0
 10
498.074457
 20
120.725997
 30
0.0
 10
489.787540
 20
120.725997
 30
0.0
  0
LWPOLYLINE
  5
133
100
AcDbEntity
  8
Corte
 62
1
100
AcDbPolyline
 90
4
 70
1
 10
444.519383
 20
83.744643
 30
0.0
 10
452.806299
 20
83.744643
 30
0.0
 10
452.806299
 20
75.457727
 30
0.0
 10
444.519383
 20
75.457727
 30
0.0
  0
LWPOLYLINE
  5
134
100
AcDbEntity
  8
Corte
 62
1
100
AcDbPolyline
 90
4
 70
1
 10
461.321490
 20
55.278567
 30
0.0
 10
469.608406
 20
55.278567
 30
0.0
 10
469.608406
 20
46.991650
 30
0.0
 10
461.321490
 20
46.991650
 30
0.0
  0
LWPOLYLINE
  5
135
100
AcDbEntity
  8
Corte
 62
1
100
AcDbPolyline
 90
4
 70
1
 10
489.787569
 20
38.476457
 30
0.0
 10
498.074485
 20
38.476457
 30
0.0
 10
498.074485
 20
30.189541
 30
0.0
 10
489.787569
 20
30.189541
 30
0.0
  0
LWPOLYLINE
  5
136
100
AcDbEntity
  8
Corte
 62
1
100
AcDbPolyline
 90
4
 70
1
 10
535.056463
 20
83.744671
 30
0.0
 10
543.343380
 20
83.744671
 30
0.0
 10
543.343380
 20
75.457755
 30
0.0
 10
535.056463
 20
75.457755
 30
0.0
  0
LWPOLYLINE
  5
137
100
AcDbEntity
  8
Corte
 62
1
100
AcDbPolyline
 90
4
 70
1
 10
782.283543
 20
503.856028
 30
0.0
 10
998.060202
 20
503.856142
 30
0.0
 10
998.060060
 20
448.837257
 30
0.0
 10
782.283543
 20
448.837257
 30
0.0
  0
LWPOLYLINE
  5
138
100
AcDbEntity
  8
Corte
 62
1
100
AcDbPolyline
 90
7
 70
1
 10
782.280740
 20
419.458256
 30
0.0
 10
782.280740
 20
409.229253
 30
0.0
 10
834.187489
 20
357.307864
 30
0.0
 10
847.693339
 20
357.307864
 30
0.0
 10
880.832539
 20
390.125494
 30
0.0
 10
880.832539
 20
419.458256
 30
0.0
 10
845.897464
 20
419.458256
 30
0.0
  0
LWPOLYLINE
  5
139
100
AcDbEntity
  8
Corte
 62
1
100
AcDbPolyline
 90
7
 70
1
 10
899.677114
 20
419.458256
 30
0.0
 10
899.677114
 20
390.125494
 30
0.0
 10
932.816238
 20
357.307864
 30
0.0
 10
946.320663
 20
357.307864
 30
0.0
 10
997.400387
 20
408.723423
 30
0.0
 10
997.400387
 20
419.458256
 30
0.0
 10
933.661488
 20
419.458256
 30
0.0
  0
LWPOLYLINE
  5
13a
100
AcDbEntity
  8
Corte
 62
1
100
AcDbPolyline
 90
12
 70
1
 10
1080.128835
 20
874.341839
 30
0.0
 10
1080.128835
 20
878.239477
 30
0.0
 10
1095.719386
 20
878.239477
 30
0.0
 10
1095.719386
 20
925.011094
 30
0.0
 10
1080.128835
 20
925.011094
 30
0.0
 10
1080.128835
 20
928.908816
 30
0.0
 10
695.028104
 20
915.062635
 30
0.0
 10
695.028104
 20
910.129263
 30
0.0
 10
1048.236803
 20
910.129263
 30
0.0
 10
1048.236803
 20
893.121361
 30
0.0
 10
695.028104
 20
893.121361
 30
0.0
 10
695.028104
 20
888.700839
 30
0.0
  0
LWPOLYLINE
  5
13b
100
AcDbEntity
  8
Corte
 62
1
100
AcDbPolyline
 90
12
 70
1
 10
1080.128835
 20
39.211909
 30
0.0
 10
1080.128835
 20
43.109546
 30
0.0
 10
1095.719386
 20
43.109546
 30
0.0
 10
1095.719386
 20
89.881143
 30
0.0
 10
1080.128835
 20
89.881143
 30
0.0
 10
1080.128835
 20
93.778866
 30
0.0
 10
695.028104
 20
79.932699
 30
0.0
 10
695.028104
 20
74.999310
 30
0.0
 10
1048.236803
 20
74.999310
 30
0.0
 10
1048.236803
 20
57.991408
 30
0.0
 10
695.028104
 20
57.991408
 30
0.0
 10
695.028104
 20
53.570891
 30
0.0
  0
LWPOLYLINE
  5
13c
100
AcDbEntity
  8
Corte
 62
1
100
AcDbPolyline
 90
12
 70
1
 10
1080.128835
 20
113.141424
 30
0.0
 10
1080.128835
 20
117.039061
 30
0.0
 10
1095.719386
 20
117.039061
 30
0.0
 10
1095.719386
 20
163.810687
 30
0.0
 10
1080.128835
 20
163.810687
 30
0.0
 10
1080.128835
 20
167.708409
 30
0.0
 10
695.028104
 20
153.862243
 30
0.0
 10
695.028104
 20
148.928854
 30
0.0
 10
1048.236803
 20
148.928854
 30
0.0
 10
1048.236803
 20
131.920951
 30
0.0
 10
695.028104
 20
131.920951
 30
0.0
 10
695.028104
 20
127.500435
 30
0.0
  0
LWPOLYLINE
  5
13d
100
AcDbEntity
  8
Corte
 62
1
100
AcDbPolyline
 90
4
 70
1
 10
64.437488
 20
103.724787
 30
0.0
 10
64.437488
 20
92.034142
 30
0.0
 10
72.231346
 20
92.034170
 30
0.0
 10
72.231346
 20
103.724816
 30
0.0
  0
LWPOLYLINE
  5
13e
100
AcDbEntity
  8
Corte
 62
1
100
AcDbPolyline
 90
4
 70
1
 10
169.021468
 20
435.024369
 30
0.0
 10
181.233564
 20
435.024369
 30
0.0
 10
181.233564
 20
429.459250
 30
0.0
 10
169.021468
 20
429.459250
 30
0.0
  0
LWPOLYLINE
  5
13f
100
AcDbEntity
  8
Corte
 62
1
100
AcDbPolyline
 90
33
 70
1
 10
426.385685
 20
33.196791
 30
0.0
 10
91.234527
 20
26.110176
 30
0.0
 10
41.582590
 20
19.023562
 30
0.0
 10
41.582590
 20
22.920463
 30
0.0
 10
25.993463
 20
22.920463
 30
0.0
 10
25.993463
 20
37.802438
 30
0.0
 10
72.763976
 20
37.802438
 30
0.0
 10
72.763976
 20
54.810397
 30
0.0
 10
25.993463
 20
54.810397
 30
0.0
 10
25.993463
 20
69.693874
 30
0.0
 10
41.582590
 20
69.693874
 30
0.0
 10
41.582590
 20
225.598606
 30
0.0
 10
25.992045
 20
225.598606
 30
0.0
 10
25.992045
 20
248.984518
 30
0.0
 10
41.582590
 20
248.984518
 30
0.0
 10
41.582590
 20
421.449049
 30
0.0
 10
25.992045
 20
421.449049
 30
0.0
 10
25.992045
 20
444.834961
 30
0.0
 10
41.582590
 20
444.834961
 30
0.0
 10
41.582590
 20
451.035394
 30
0.0
 10
98.497082
 20
437.570827
 30
0.0
 10
157.339829
 20
451.035394
 30
0.0
 10
157.339829
 20
444.070060
 30
0.0
 10
191.305288
 20
444.070060
 30
0.0
 10
191.305288
 20
412.832407
 30
0.0
 10
179.448662
 20
412.832407
 30
0.0
 10
179.448662
 20
415.820577
 30
0.0
 10
169.011695
 20
420.034569
 30
0.0
 10
169.011296
 20
412.832407
 30
0.0
 10
157.339829
 20
412.832407
 30
0.0
 10
157.339988
 20
394.110972
 30
0.0
 10
327.110527
 20
61.645238
 30
0.0
 10
426.385685
 20
59.417518
 30
0.0
  0
LWPOLYLINE
  5
140
100
AcDbEntity
  8
Corte
 62
1
100
AcDbPolyline
 90
5
 70
1
 10
305.754477
 20
62.233597
 30
0.0
 10
139.162290
 20
364.812837
 30
0.0
 10
101.307063
 20
378.358237
 30
0.0
 10
78.208403
 20
87.550554
 30
0.0
 10
102.309425
 20
66.274271
 30
0.0
  0
LWPOLYLINE
  5
141
100
AcDbEntity
  8
Corte
 62
1
100
AcDbPolyline
 90
4
 70
1
 10
118.830319
 20
395.278129
 30
0.0
 10
118.830319
 20
383.587483
 30
0.0
 10
126.624178
 20
383.587512
 30
0.0
 10
126.624178
 20
395.278157
 30
0.0
  0
LWPOLYLINE
  5
142
100
AcDbEntity
  8
Corte
 62
1
100
AcDbPolyline
 90
4
 70
1
 10
1552.022040
 20
587.019685
 30
0.0
 10
1552.022040
 20
575.329039
 30
0.0
 10
1544.228182
 20
575.329068
 30
0.0
 10
1544.228182
 20
587.019713
 30
0.0
  0
LWPOLYLINE
  5
143
100
AcDbEntity
  8
Corte
 62
1
100
AcDbPolyline
 90
4
 70
1
 10
1447.438059
 20
918.319266
 30
0.0
 10
1435.225963
 20
918.319266
 30
0.0
 10
1435.225963
 20
912.754148
 30
0.0
 10
1447.438059
 20
912.754148
 30
0.0
  0
LWPOLYLINE
  5
144
100
AcDbEntity
  8
Corte
 62
1
100
AcDbPolyline
 90
33
 70
1
 10
1190.073843
 20
516.491688
 30
0.0
 10
1525.225001
 20
509.405074
 30
0.0
 10
1574.876937
 20
502.318460
 30
0.0
 10
1574.876937
 20
506.215361
 30
0.0
 10
1590.466065
 20
506.215361
 30
0.0
 10
1590.466065
 20
521.097335
 30
0.0
 10
1543.695552
 20
521.097335
 30
0.0
 10
1543.695552
 20
538.105294
 30
0.0
 10
1590.466065
 20
538.105294
 30
0.0
 10
1590.466065
 20
552.988772
 30
0.0
 10
1574.876937
 20
552.988772
 30
0.0
 10
1574.876937
 20
708.893504
 30
0.0
 10
1590.467482
 20
708.893504
 30
0.0
 10
1590.467482
 20
732.279416
 30
0.0
 10
1574.876937
 20
732.279416
 30
0.0
 10
1574.876937
 20
904.743947
 30
0.0
 10
1590.467482
 20
904.743947
 30
0.0
 10
1590.467482
 20
928.129858
 30
0.0
 10
1574.876937
 20
928.129858
 30
0.0
 10
1574.876937
 20
934.330291
 30
0.0
 10
1517.962446
 20
920.865724
 30
0.0
 10
1459.119698
 20
934.330291
 30
0.0
 10
1459.119698
 20
927.364958
 30
0.0
 10
1425.154240
 20
927.364958
 30
0.0
 10
1425.154240
 20
896.127304
 30
0.0
 10
1437.010865
 20
896.127304
 30
0.0
 10
1437.010865
 20
899.115474
 30
0.0
 10
1447.447832
 20
903.329467
 30
0.0
 10
1447.448232
 20
896.127304
 30
0.0
 10
1459.119698
 20
896.127304
 30
0.0
 10
1459.119539
 20
877.405870
 30
0.0
 10
1289.349001
 20
544.940135
 30
0.0
 10
1190.073843
 20
542.712416
 30
0.0
  0
LWPOLYLINE
  5
145
100
AcDbEntity
  8
Corte
 62
1
100
AcDbPolyline
 90
5
 70
1
 10
1310.705051
 20
545.528494
 30
0.0
 10
1477.297237
 20
848.107735
 30
0.0
 10
1515.152465
 20
861.653134
 30
0.0
 10
1538.251124
 20
570.845452
 30
0.0
 10
1514.150103
 20
549.569169
 30
0.0
  0
LWPOLYLINE
  5
146
100
AcDbEntity
  8
Corte
 62
1
100
AcDbPolyline
 90
4
 70
1
 10
1497.629208
 20
878.573027
 30
0.0
 10
1497.629208
 20
866.882381
 30
0.0
 10
1489.835350
 20
866.882409
 30
0.0
 10
1489.835350
 20
878.573055
 30
0.0
  0
LWPOLYLINE
  5
147
100
AcDbEntity
  8
Corte
 62
1
100
AcDbPolyline
 90
4
 70
1
 10
1552.022040
 20
366.347339
 30
0.0
 10
1552.022040
 20
378.037984
 30
0.0
 10
1544.228182
 20
378.037956
 30
0.0
 10
1544.228182
 20
366.347310
 30
0.0
  0
LWPOLYLINE
  5
148
100
AcDbEntity
  8
Corte
 62
1
100
AcDbPolyline
 90
4
 70
1
 10
1447.438059
 20
35.047757
 30
0.0
 10
1435.225963
 20
35.047757
 30
0.0
 10
1435.225963
 20
40.612876
 30
0.0
 10
1447.438059
 20
40.612876
 30
0.0
  0
LWPOLYLINE
  5
149
100
AcDbEntity
  8
Corte
 62
1
100
AcDbPolyline
 90
33
 70
1
 10
1190.073843
 20
436.875335
 30
0.0
 10
1525.225001
 20
443.961950
 30
0.0
 10
1574.876937
 20
451.048564
 30
0.0
 10
1574.876937
 20
447.151663
 30
0.0
 10
1590.466065
 20
447.151663
 30
0.0
 10
1590.466065
 20
432.269688
 30
0.0
 10
1543.695552
 20
432.269688
 30
0.0
 10
1543.695552
 20
415.261729
 30
0.0
 10
1590.466065
 20
415.261729
 30
0.0
 10
1590.466065
 20
400.378252
 30
0.0
 10
1574.876937
 20
400.378252
 30
0.0
 10
1574.876937
 20
244.473520
 30
0.0
 10
1590.467482
 20
244.473520
 30
0.0
 10
1590.467482
 20
221.087608
 30
0.0
 10
1574.876937
 20
221.087608
 30
0.0
 10
1574.876937
 20
48.623077
 30
0.0
 10
1590.467482
 20
48.623077
 30
0.0
 10
1590.467482
 20
25.237165
 30
0.0
 10
1574.876937
 20
25.237165
 30
0.0
 10
1574.876937
 20
19.036732
 30
0.0
 10
1517.962446
 20
32.501299
 30
0.0
 10
1459.119698
 20
19.036732
 30
0.0
 10
1459.119698
 20
26.002066
 30
0.0
 10
1425.154240
 20
26.002066
 30
0.0
 10
1425.154240
 20
57.239719
 30
0.0
 10
1437.010865
 20
57.239719
 30
0.0
 10
1437.010865
 20
54.251549
 30
0.0
 10
1447.447832
 20
50.037557
 30
0.0
 10
1447.448232
 20
57.239719
 30
0.0
 10
1459.119698
 20
57.239719
 30
0.0
 10
1459.119539
 20
75.961154
 30
0.0
 10
1289.349001
 20
408.426888
 30
0.0
 10
1190.073843
 20
410.654608
 30
0.0
  0
LWPOLYLINE
  5
14a
100
AcDbEntity
  8
Corte
 62
1
100
AcDbPolyline
 90
5
 70
1
 10
1310.705051
 20
407.838529
 30
0.0
 10
1477.297237
 20
105.259289
 30
0.0
 10
1515.152465
 20
91.713889
 30
0.0
 10
1538.251124
 20
382.521572
 30
0.0
 10
1514.150103
 20
403.797855
 30
0.0
  0
LWPOLYLINE
  5
14b
100
AcDbEntity
  8
Corte
 62
1
100
AcDbPolyline
 90
4
 70
1
 10
1497.629208
 20
74.793997
 30
0.0
 10
1497.629208
 20
86.484643
 30
0.0
 10
1489.835350
 20
86.484614
 30
0.0
 10
1489.835350
 20
74.793969
 30
0.0
  0
LWPOLYLINE
  5
14c
100
AcDbEntity
  8
Corte
 62
1
100
AcDbPolyline
 90
4
 70
1
 10
904.043707
 20
364.073329
 30
0.0
 10
915.737499
 20
364.073329
 30
0.0
 10
915.737499
 20
356.279556
 30
0.0
 10
904.043707
 20
356.279584
 30
0.0
  0
LWPOLYLINE
  5
14d
100
AcDbEntity
  8
Corte
 62
1
100
AcDbPolyline
 90
4
 70
1
 10
865.453861
 20
364.071855
 30
0.0
 10
877.147654
 20
364.071855
 30
0.0
 10
877.147654
 20
356.278082
 30
0.0
 10
865.453861
 20
356.278110
 30
0.0
  0
LWPOLYLINE
  5
14e
100
AcDbEntity
  8
Corte
 62
1
100
AcDbPolyline
 90
4
 70
1
 10
985.826126
 20
394.873002
 30
0.0
 10
997.519918
 20
394.873002
 30
0.0
 10
997.519918
 20
387.079228
 30
0.0
 10
985.826126
 20
387.079257
 30
0.0
  0
LWPOLYLINE
  5
14f
100
AcDbEntity
  8
Corte
 62
1
100
AcDbPolyline
 90
4
 70
1
 10
987.072236
 20
565.047258
 30
0.0
 10
998.766028
 20
565.047258
 30
0.0
 10
998.766028
 20
557.253468
 30
0.0
 10
987.072236
 20
557.253496
 30
0.0
  0
LWPOLYLINE
  5
150
100
AcDbEntity
  8
Corte
 62
1
100
AcDbPolyline
 90
20
 70
1
 10
890.171660
 20
542.243650
 30
0.0
 10
894.900898
 20
543.198359
 30
0.0
 10
898.762904
 20
545.802123
 30
0.0
 10
901.366781
 20
549.664101
 30
0.0
 10
902.321603
 20
554.393310
 30
0.0
 10
901.366781
 20
559.122540
 30
0.0
 10
898.762876
 20
562.984461
 30
0.0
 10
894.900898
 20
565.588225
 30
0.0
 10
890.171660
 20
566.542962
 30
0.0
 10
885.442734
 20
565.588253
 30
0.0
 10
881.580869
 20
562.984461
 30
0.0
 10
878.977049
 20
559.122540
 30
0.0
 10
878.022170
 20
554.393310
 30
0.0
 10
878.976992
 20
549.664129
 30
0.0
 10
881.580841
 20
545.802180
 30
0.0
 10
885.442706
 20
543.198359
 30
0.0
 10
890.171660
 20
542.243650
 30
0.0
 10
890.171660
 20
542.243650
 30
0.0
 10
890.171660
 20
542.243650
 30
0.0
 10
890.171660
 20
542.243650
 30
0.0
  0
LWPOLYLINE
  5
151
100
AcDbEntity
  8
Corte
 62
1
100
AcDbPolyline
 90
14
 70
1
 10
834.187524
 20
595.418606
 30
0.0
 10
782.281248
 20
543.496894
 30
0.0
 10
782.281248
 20
533.268606
 30
0.0
 10
857.918805
 20
533.268606
 30
0.0
 10
869.531526
 20
544.719750
 30
0.0
 10
869.531526
 20
564.742686
 30
0.0
 10
878.691127
 20
574.601334
 30
0.0
 10
901.827848
 20
574.601334
 30
0.0
 10
910.978089
 20
564.752158
 30
0.0
 10
910.978089
 20
544.729086
 30
0.0
 10
922.948489
 20
533.268606
 30
0.0
 10
998.062494
 20
533.268606
 30
0.0
 10
998.062494
 20
544.332846
 30
0.0
 10
947.003131
 20
595.418606
 30
0.0
  0
LWPOLYLINE
  5
152
100
AcDbEntity
  8
Grabado
 62
1
100
AcDbPolyline
 90
75
 70
1
 10
271.753414
 20
644.301518
 30
0.0
 10
259.737304
 20
644.266343
 30
0.0
 10
240.821772
 20
626.061263
 30
0.0
 10
240.788097
 20
612.767813
 30
0.0
 10
240.788097
 20
612.653551
 30
0.0
 10
285.996101
 20
566.276596
 30
0.0
 10
264.996102
 20
545.349842
 30
0.0
 10
264.996102
 20
425.307363
 30
0.0
 10
285.996101
 20
402.423573
 30
0.0
 10
240.788097
 20
358.343494
 30
0.0
 10
240.821772
 20
344.846427
 30
0.0
 10
259.737304
 20
325.929432
 30
0.0
 10
259.738804
 20
325.929432
 30
0.0
 10
271.753452
 20
325.894257
 30
0.0
 10
271.979037
 20
325.894257
 30
0.0
 10
312.813019
 20
365.105194
 30
0.0
 10
324.830598
 20
365.105194
 30
0.0
 10
324.830598
 20
355.677462
 30
0.0
 10
317.036164
 20
355.677462
 30
0.0
 10
317.036164
 20
345.385467
 30
0.0
 10
347.695346
 20
345.351792
 30
0.0
 10
347.695346
 20
355.677499
 30
0.0
 10
339.902336
 20
355.677499
 30
0.0
 10
339.902336
 20
365.105231
 30
0.0
 10
460.078119
 20
365.105231
 30
0.0
 10
460.078119
 20
355.677499
 30
0.0
 10
452.285154
 20
355.677499
 30
0.0
 10
452.285154
 20
345.351814
 30
0.0
 10
482.944329
 20
345.385489
 30
0.0
 10
482.944329
 20
355.677499
 30
0.0
 10
475.149894
 20
355.677499
 30
0.0
 10
475.149894
 20
365.105231
 30
0.0
 10
487.167474
 20
365.105231
 30
0.0
 10
528.001456
 20
325.894294
 30
0.0
 10
528.227041
 20
325.894294
 30
0.0
 10
540.241696
 20
325.929469
 30
0.0
 10
559.158683
 20
344.846464
 30
0.0
 10
559.192358
 20
358.343532
 30
0.0
 10
513.984354
 20
402.423611
 30
0.0
 10
534.984353
 20
425.307401
 30
0.0
 10
534.984353
 20
545.349857
 30
0.0
 10
513.984354
 20
566.276611
 30
0.0
 10
559.192358
 20
612.653566
 30
0.0
 10
559.192358
 20
612.767828
 30
0.0
 10
559.158683
 20
626.061278
 30
0.0
 10
540.243158
 20
644.266358
 30
0.0
 10
540.241658
 20
644.266358
 30
0.0
 10
528.227003
 20
644.301533
 30
0.0
 10
528.001418
 20
644.301533
 30
0.0
 10
487.167436
 20
605.125748
 30
0.0
 10
475.149894
 20
605.125748
 30
0.0
 10
475.149894
 20
614.521261
 30
0.0
 10
482.944329
 20
614.521261
 30
0.0
 10
482.944329
 20
624.810323
 30
0.0
 10
452.285154
 20
624.845498
 30
0.0
 10
452.285154
 20
614.521283
 30
0.0
 10
460.078119
 20
614.521283
 30
0.0
 10
460.078119
 20
605.125771
 30
0.0
 10
415.234855
 20
605.125771
 30
0.0
 10
412.935055
 20
607.610146
 30
0.0
 10
400.123532
 20
621.735638
 30
0.0
 10
399.990227
 20
621.592081
 30
0.0
 10
399.856930
 20
621.735638
 30
0.0
 10
387.045408
 20
607.610146
 30
0.0
 10
384.745600
 20
605.125771
 30
0.0
 10
339.902336
 20
605.125771
 30
0.0
 10
339.902336
 20
614.521283
 30
0.0
 10
347.695308
 20
614.521283
 30
0.0
 10
347.695308
 20
624.845498
 30
0.0
 10
317.036126
 20
624.810323
 30
0.0
 10
317.036126
 20
614.521261
 30
0.0
 10
324.830561
 20
614.521261
 30
0.0
 10
324.830561
 20
605.125748
 30
0.0
 10
312.812981
 20
605.125748
 30
0.0
 10
271.978999
 20
644.301518
 30
0.0
  0
LWPOLYLINE
  5
153
100
AcDbEntity
  8
Grabado
 62
1
100
AcDbPolyline
 90
4
 70
1
 10
268.445112
 20
341.674035
 30
0.0
 10
291.634993
 20
364.863995
 30
0.0
 10
279.248075
 20
377.250953
 30
0.0
 10
256.058174
 20
354.061013
 30
0.0
  0
LWPOLYLINE
  5
154
100
AcDbEntity
  8
Grabado
 62
1
100
AcDbPolyline
 90
4
 70
1
 10
531.530280
 20
341.673934
 30
0.0
 10
508.340340
 20
364.863875
 30
0.0
 10
520.727298
 20
377.250833
 30
0.0
 10
543.917238
 20
354.060892
 30
0.0
  0
LWPOLYLINE
  5
155
100
AcDbEntity
  8
Grabado
 62
1
100
AcDbPolyline
 90
4
 70
1
 10
531.530429
 20
628.524694
 30
0.0
 10
508.340468
 20
605.334733
 30
0.0
 10
520.727410
 20
592.947760
 30
0.0
 10
543.917373
 20
616.137722
 30
0.0
  0
LWPOLYLINE
  5
156
100
AcDbEntity
  8
Grabado
 62
1
100
AcDbPolyline
 90
4
 70
1
 10
268.444992
 20
628.524485
 30
0.0
 10
291.634916
 20
605.334521
 30
0.0
 10
279.247969
 20
592.947513
 30
0.0
 10
256.058048
 20
616.137514
 30
0.0
  0
LWPOLYLINE
  5
157
100
AcDbEntity
  8
Grabado
 62
5
100
AcDbPolyline
 90
4
 70
1
 10
326.717490
 20
545.167446
 30
0.0
 10
266.628980
 20
545.167446
 30
0.0
 10
266.628980
 20
425.095583
 30
0.0
 10
326.717490
 20
425.095583
 30
0.0
  0
LWPOLYLINE
  5
158
100
AcDbEntity
  8
Grabado
 62
5
100
AcDbPolyline
 90
16
 70
1
 10
462.936671
 20
487.953921
 30
0.0
 10
466.105266
 20
472.259310
 30
0.0
 10
474.746287
 20
459.442942
 30
0.0
 10
487.562683
 20
450.801921
 30
0.0
 10
503.257266
 20
447.633326
 30
0.0
 10
518.951849
 20
450.801921
 30
0.0
 10
531.768246
 20
459.442942
 30
0.0
 10
540.409266
 20
472.259339
 30
0.0
 10
543.577861
 20
487.953921
 30
0.0
 10
540.409266
 20
503.648504
 30
0.0
 10
531.768217
 20
516.464901
 30
0.0
 10
518.951849
 20
525.105921
 30
0.0
 10
503.257266
 20
528.274517
 30
0.0
 10
487.562683
 20
525.105921
 30
0.0
 10
474.746315
 20
516.464872
 30
0.0
 10
466.105266
 20
503.648504
 30
0.0
  0
LWPOLYLINE
  5
159
100
AcDbEntity
  8
Grabado
 62
5
100
AcDbPolyline
 90
16
 70
1
 10
466.174970
 20
598.057118
 30
0.0
 10
466.174970
 20
554.879367
 30
0.0
 10
457.337565
 20
541.127565
 30
0.0
 10
457.337565
 20
429.071357
 30
0.0
 10
466.174970
 20
415.319584
 30
0.0
 10
466.174970
 20
372.141808
 30
0.0
 10
457.337565
 20
372.141808
 30
0.0
 10
342.641934
 20
372.141808
 30
0.0
 10
333.802942
 20
372.141808
 30
0.0
 10
333.802942
 20
415.319584
 30
0.0
 10
342.641934
 20
429.071357
 30
0.0
 10
342.641934
 20
541.127565
 30
0.0
 10
333.802942
 20
554.879367
 30
0.0
 10
333.802942
 20
598.057118
 30
0.0
 10
342.641934
 20
598.057118
 30
0.0
 10
457.337565
 20
598.057118
 30
0.0
  0
LWPOLYLINE
  5
15a
100
AcDbEntity
  8
Grabado
 62
5
100
AcDbPolyline
 90
4
 70
1
 10
890.304265
 20
772.944185
 30
0.0
 10
884.484425
 20
756.546596
 30
0.0
 10
890.304265
 20
761.307860
 30
0.0
 10
896.392800
 20
756.546593
 30
0.0
  0
LWPOLYLINE
  5
15b
100
AcDbEntity
  8
Grabado
 62
5
100
AcDbPolyline
 90
4
 70
1
 10
1043.157742
 20
390.150255
 30
0.0
 10
956.640158
 20
390.150255
 30
0.0
 10
956.640158
 20
324.039268
 30
0.0
 10
1043.157742
 20
324.039268
 30
0.0
  0
LWPOLYLINE
  5
15c
100
AcDbEntity
  8
Grabado
 62
5
100
AcDbPolyline
 90
4
 70
1
 10
1028.949222
 20
628.882985
 30
0.0
 10
925.549980
 20
628.882985
 30
0.0
 10
925.549980
 20
562.334139
 30
0.0
 10
1028.949222
 20
562.334139
 30
0.0
  0
LWPOLYLINE
  5
15d
100
AcDbEntity
  8
Grabado
 62
5
100
AcDbPolyline
 90
16
 70
1
 10
933.152457
 20
369.639496
 30
0.0
 10
919.857770
 20
382.934183
 30
0.0
 10
902.787250
 20
365.863635
 30
0.0
 10
878.410772
 20
365.855131
 30
0.0
 10
861.331833
 20
382.934041
 30
0.0
 10
848.038337
 20
369.638986
 30
0.0
 10
865.116482
 20
352.560813
 30
0.0
 10
864.806258
 20
327.882132
 30
0.0
 10
848.038337
 20
311.114239
 30
0.0
 10
861.333024
 20
297.819553
 30
0.0
 10
878.100917
 20
314.587446
 30
0.0
 10
902.890545
 20
314.786721
 30
0.0
 10
919.857770
 20
297.819524
 30
0.0
 10
933.152060
 20
311.113814
 30
0.0
 10
916.184835
 20
328.081011
 30
0.0
 10
916.081937
 20
352.568438
 30
0.0
  0
LWPOLYLINE
  5
15e
100
AcDbEntity
  8
Grabado
 62
5
100
AcDbPolyline
 90
6
 70
0
 10
1231.064084
 20
810.989232
 30
0.0
 10
1227.870331
 20
815.363821
 30
0.0
 10
1221.798700
 20
818.764654
 30
0.0
 10
1214.999248
 20
819.021181
 30
0.0
 10
1209.055001
 20
816.576887
 30
0.0
 10
1204.414094
 20
811.155325
 30
0.0
  0
LWPOLYLINE
  5
15f
100
AcDbEntity
  8
Grabado
 62
5
100
AcDbPolyline
 90
3
 70
0
 10
1203.897345
 20
817.816315
 30
0.0
 10
1204.414094
 20
811.155325
 30
0.0
 10
1211.075053
 20
811.672095
 30
0.0
  0
LWPOLYLINE
  5
160
100
AcDbEntity
  8
Grabado
 62
5
100
AcDbPolyline
 90
6
 70
0
 10
1204.265363
 20
798.061052
 30
0.0
 10
1207.459116
 20
793.686464
 30
0.0
 10
1213.530747
 20
790.285631
 30
0.0
 10
1220.330200
 20
790.029105
 30
0.0
 10
1226.274447
 20
792.473399
 30
0.0
 10
1230.915353
 20
797.894962
 30
0.0
  0
LWPOLYLINE
  5
161
100
AcDbEntity
  8
Grabado
 62
5
100
AcDbPolyline
 90
3
 70
0
 10
1231.432103
 20
791.233972
 30
0.0
 10
1230.915353
 20
797.894962
 30
0.0
 10
1224.254394
 20
797.378191
 30
0.0
  0
LWPOLYLINE
  5
162
100
AcDbEntity
  8
Grabado
 62
5
100
AcDbPolyline
 90
3
 70
0
 10
1214.144079
 20
805.723770
 30
0.0
 10
1215.773206
 20
808.728557
 30
0.0
 10
1215.773206
 20
800.271493
 30
0.0
  0
LWPOLYLINE
  5
163
100
AcDbEntity
  8
Grabado
 62
5
100
AcDbPolyline
 90
3
 70
0
 10
1218.240199
 20
800.307262
 30
0.0
 10
1219.806834
 20
805.567600
 30
0.0
 10
1221.167297
 20
800.364439
 30
0.0
  0
LWPOLYLINE
  5
164
100
AcDbEntity
  8
Grabado
 62
5
100
AcDbPolyline
 90
2
 70
0
 10
1218.858602
 20
802.422831
 30
0.0
 10
1220.507666
 20
802.422831
 30
0.0
  0
LWPOLYLINE
  5
165
100
AcDbEntity
  8
Grabado
 62
5
100
AcDbPolyline
 90
6
 70
0
 10
1204.265050
 20
153.894413
 30
0.0
 10
1207.458803
 20
158.269002
 30
0.0
 10
1213.530433
 20
161.669835
 30
0.0
 10
1220.329886
 20
161.926362
 30
0.0
 10
1226.274133
 20
159.482069
 30
0.0
 10
1230.915039
 20
154.060506
 30
0.0
  0
LWPOLYLINE
  5
166
100
AcDbEntity
  8
Grabado
 62
5
100
AcDbPolyline
 90
3
 70
0
 10
1231.431789
 20
160.721496
 30
0.0
 10
1230.915039
 20
154.060506
 30
0.0
 10
1224.254081
 20
154.577276
 30
0.0
  0
LWPOLYLINE
  5
167
100
AcDbEntity
  8
Grabado
 62
5
100
AcDbPolyline
 90
6
 70
0
 10
1231.063771
 20
140.966234
 30
0.0
 10
1227.870017
 20
136.591645
 30
0.0
 10
1221.798387
 20
133.190812
 30
0.0
 10
1214.998934
 20
132.934286
 30
0.0
 10
1209.054687
 20
135.378580
 30
0.0
 10
1204.413781
 20
140.800143
 30
0.0
  0
LWPOLYLINE
  5
168
100
AcDbEntity
  8
Grabado
 62
5
100
AcDbPolyline
 90
3
 70
0
 10
1203.897031
 20
134.139153
 30
0.0
 10
1204.413781
 20
140.800143
 30
0.0
 10
1211.074740
 20
140.283372
 30
0.0
  0
LWPOLYLINE
  5
169
100
AcDbEntity
  8
Grabado
 62
5
100
AcDbPolyline
 90
4
 70
0
 10
1217.344309
 20
145.754833
 30
0.0
 10
1213.201672
 20
145.754833
 30
0.0
 10
1216.484504
 20
151.463540
 30
0.0
 10
1216.484504
 20
143.008869
 30
0.0
  0
LWPOLYLINE
  5
16a
100
AcDbEntity
  8
Grabado
 62
5
100
AcDbPolyline
 90
10
 70
1
 10
1219.746217
 20
143.118947
 30
0.0
 10
1219.746217
 20
148.568080
 30
0.0
 10
1221.093241
 20
148.568080
 30
0.0
 10
1221.574309
 20
147.488533
 30
0.0
 10
1221.189477
 20
146.151952
 30
0.0
 10
1219.842454
 20
146.151952
 30
0.0
 10
1221.718649
 20
146.151952
 30
0.0
 10
1222.199745
 20
145.483665
 30
0.0
 10
1222.199745
 20
144.095675
 30
0.0
 10
1221.622441
 20
143.118947
 30
0.0
  0
LWPOLYLINE
  5
16b
100
AcDbEntity
  8
Grabado
 62
5
100
AcDbPolyline
 90
6
 70
0
 10
575.489344
 20
153.894413
 30
0.0
 10
572.295591
 20
158.269002
 30
0.0
 10
566.223960
 20
161.669835
 30
0.0
 10
559.424508
 20
161.926362
 30
0.0
 10
553.480261
 20
159.482069
 30
0.0
 10
548.839354
 20
154.060506
 30
0.0
  0
LWPOLYLINE
  5
16c
100
AcDbEntity
  8
Grabado
 62
5
100
AcDbPolyline
 90
3
 70
0
 10
548.322605
 20
160.721496
 30
0.0
 10
548.839354
 20
154.060506
 30
0.0
 10
555.500313
 20
154.577276
 30
0.0
  0
LWPOLYLINE
  5
16d
100
AcDbEntity
  8
Grabado
 62
5
100
AcDbPolyline
 90
6
 70
0
 10
548.690623
 20
140.966234
 30
0.0
 10
551.884376
 20
136.591645
 30
0.0
 10
557.956007
 20
133.190812
 30
0.0
 10
564.755460
 20
132.934286
 30
0.0
 10
570.699707
 20
135.378580
 30
0.0
 10
575.340612
 20
140.800143
 30
0.0
  0
LWPOLYLINE
  5
16e
100
AcDbEntity
  8
Grabado
 62
5
100
AcDbPolyline
 90
3
 70
0
 10
575.857363
 20
134.139153
 30
0.0
 10
575.340612
 20
140.800143
 30
0.0
 10
568.679654
 20
140.283372
 30
0.0
  0
LWPOLYLINE
  5
16f
100
AcDbEntity
  8
Grabado
 62
5
100
AcDbPolyline
 90
9
 70
0
 10
557.558079
 20
150.007530
 30
0.0
 10
558.919899
 20
151.510399
 30
0.0
 10
560.568387
 20
151.581946
 30
0.0
 10
561.786860
 20
150.150643
 30
0.0
 10
561.356816
 20
148.146817
 30
0.0
 10
559.421603
 20
146.429254
 30
0.0
 10
558.059783
 20
144.496996
 30
0.0
 10
557.701455
 20
143.280388
 30
0.0
 10
561.858548
 20
143.280388
 30
0.0
  0
LWPOLYLINE
  5
170
100
AcDbEntity
  8
Grabado
 62
5
100
AcDbPolyline
 90
7
 70
0
 10
566.696778
 20
148.735426
 30
0.0
 10
565.267946
 20
148.735426
 30
0.0
 10
564.336113
 20
147.890480
 30
0.0
 10
563.839143
 20
145.703563
 30
0.0
 10
564.274035
 20
143.715453
 30
0.0
 10
565.019461
 20
143.119020
 30
0.0
 10
566.510428
 20
143.119020
 30
0.0
  0
LWPOLYLINE
  5
171
100
AcDbEntity
  8
Grabado
 62
5
100
AcDbPolyline
 90
6
 70
0
 10
548.690877
 20
810.989232
 30
0.0
 10
551.884630
 20
815.363821
 30
0.0
 10
557.956260
 20
818.764654
 30
0.0
 10
564.755713
 20
819.021181
 30
0.0
 10
570.699960
 20
816.576887
 30
0.0
 10
575.340866
 20
811.155325
 30
0.0
  0
LWPOLYLINE
  5
172
100
AcDbEntity
  8
Grabado
 62
5
100
AcDbPolyline
 90
3
 70
0
 10
575.857616
 20
817.816315
 30
0.0
 10
575.340866
 20
811.155325
 30
0.0
 10
568.679908
 20
811.672095
 30
0.0
  0
LWPOLYLINE
  5
173
100
AcDbEntity
  8
Grabado
 62
5
100
AcDbPolyline
 90
6
 70
0
 10
575.489598
 20
798.061052
 30
0.0
 10
572.295844
 20
793.686464
 30
0.0
 10
566.224213
 20
790.285631
 30
0.0
 10
559.424761
 20
790.029105
 30
0.0
 10
553.480514
 20
792.473399
 30
0.0
 10
548.839608
 20
797.894962
 30
0.0
  0
LWPOLYLINE
  5
174
100
AcDbEntity
  8
Grabado
 62
5
100
AcDbPolyline
 90
3
 70
0
 10
548.322858
 20
791.233972
 30
0.0
 10
548.839608
 20
797.894962
 30
0.0
 10
555.500566
 20
797.378191
 30
0.0
  0
LWPOLYLINE
  5
175
100
AcDbEntity
  8
Grabado
 62
5
100
AcDbPolyline
 90
8
 70
0
 10
557.411669
 20
808.673984
 30
0.0
 10
561.475191
 20
808.673984
 30
0.0
 10
559.365307
 20
805.466013
 30
0.0
 10
560.771887
 20
804.977844
 30
0.0
 10
561.865918
 20
803.652814
 30
0.0
 10
561.631493
 20
801.839614
 30
0.0
 10
560.106652
 20
800.702393
 30
0.0
 10
557.646123
 20
800.375105
 30
0.0
  0
LWPOLYLINE
  5
176
100
AcDbEntity
  8
Grabado
 62
5
100
AcDbPolyline
 90
8
 70
1
 10
564.261704
 20
800.383028
 30
0.0
 10
564.261704
 20
805.832087
 30
0.0
 10
565.540214
 20
805.832087
 30
0.0
 10
566.126220
 20
805.456293
 30
0.0
 10
566.658935
 20
804.375870
 30
0.0
 10
566.658935
 20
801.651345
 30
0.0
 10
566.179483
 20
800.711850
 30
0.0
 10
565.646769
 20
800.383028
 30
0.0
  0
LWPOLYLINE
  5
177
100
AcDbEntity
  8
Grabado
 62
1
100
AcDbPolyline
 90
4
 70
1
 10
387.083594
 20
418.181868
 30
0.0
 10
387.083594
 20
552.015694
 30
0.0
 10
329.646954
 20
552.015694
 30
0.0
 10
329.646954
 20
418.181868
 30
0.0
  0
LWPOLYLINE
  5
178
100
AcDbEntity
  8
Grabado
 62
1
100
AcDbPolyline
 90
6
 70
1
 10
296.770016
 20
555.669684
 30
0.0
 10
282.253414
 20
541.320069
 30
0.0
 10
282.253414
 20
429.449958
 30
0.0
 10
296.770016
 20
415.101813
 30
0.0
 10
311.286619
 20
429.449958
 30
0.0
 10
311.286619
 20
541.320069
 30
0.0
  0
LWPOLYLINE
  5
179
100
AcDbEntity
  8
Grabado
 62
1
100
AcDbPolyline
 90
4
 70
1
 10
470.333282
 20
418.181868
 30
0.0
 10
470.333282
 20
552.015694
 30
0.0
 10
412.896643
 20
552.015694
 30
0.0
 10
412.896643
 20
418.181868
 30
0.0
  0
LWPOLYLINE
  5
17a
100
AcDbEntity
  8
Grabado
 62
1
100
AcDbPolyline
 90
6
 70
1
 10
503.498920
 20
555.669694
 30
0.0
 10
488.982302
 20
541.320066
 30
0.0
 10
488.982302
 20
429.449953
 30
0.0
 10
503.498920
 20
415.101827
 30
0.0
 10
518.015509
 20
429.449953
 30
0.0
 10
518.015509
 20
541.320066
 30
0.0
  0
ENDSEC
  0
SECTION
  2
OBJECTS
  0
DICTIONARY
  5
C
330
0
100
AcDbDictionary
  3
ACAD_GROUP
350
D
  3
ACAD_MLINESTYLE
350
17
  0
DICTIONARY
  5
D
330
C
100
AcDbDictionary
  0
DICTIONARY
  5
1A
330
C
100
AcDbDictionary
  0
DICTIONARY
  5
17
330
C
100
AcDbDictionary
  3
STANDARD
350
18
  0
DICTIONARY
  5
19
330
C
100
AcDbDictionary
  0
ENDSEC
  0
EOF
